<svg version="1.1" id="Layer_1" xmlns="http://www.w3.org/2000/svg" xmlns:xlink="http://www.w3.org/1999/xlink" x="0px" y="0px"
	 width="50px" height="50px" viewBox="0 0 50 50" enable-background="new 0 0 50 50" xml:space="preserve" class="thank-you__check-mark text-center float-md-left">
<g>
	<g>
		<path fill="#003056" d="M24.215,4.409c11.408,0,20.689,9.282,20.689,20.69c0,11.405-9.281,20.685-20.689,20.685
			c-11.408,0-20.689-9.279-20.689-20.685C3.526,13.69,12.807,4.409,24.215,4.409 M24.215,1.758c-12.889,0-23.34,10.451-23.34,23.341
			c0,12.893,10.451,23.336,23.34,23.336c12.891,0,23.341-10.443,23.341-23.336C47.556,12.209,37.105,1.758,24.215,1.758
			L24.215,1.758z"/>
	</g>
	<g>
		<path fill="#00A14B" d="M48.14,1.565l0.985,1.408c-4.016,3.022-8.487,7.682-13.408,13.973
			c-4.922,6.292-8.676,12.168-11.268,17.634l-2.087,1.408c-1.727,1.209-2.9,2.101-3.52,2.681c-0.247-0.888-0.779-2.327-1.608-4.339
			l-0.787-1.833c-1.128-2.63-2.173-4.571-3.14-5.833c-0.968-1.257-2.052-2.09-3.254-2.507c2.028-2.142,3.888-3.208,5.575-3.208
			c1.448,0,3.054,1.96,4.819,5.889l0.873,1.972c3.175-5.356,7.251-10.554,12.227-15.609C38.524,8.15,43.385,4.271,48.14,1.565z"/>
	</g>
</g>
</svg>
