<?xml version="1.0" encoding="utf-8"?>
<!-- Generator: Adobe Illustrator 28.1.0, SVG Export Plug-In . SVG Version: 6.00 Build 0)  -->
<svg version="1.1" id="Layer_1" xmlns="http://www.w3.org/2000/svg" xmlns:xlink="http://www.w3.org/1999/xlink" x="0px" y="0px"
	 viewBox="0 0 288 215" enable-background="new 0 0 288 215" xml:space="preserve">
<path fill="#0F3C64" d="M259.5,207.9h-232C15.1,207.9,5,197.8,5,185.4V28.5C5,16.1,15.1,6,27.5,6h232C271.9,6,282,16.1,282,28.5
	v156.9C282,197.8,271.9,207.9,259.5,207.9z"/>
<g>
	<circle fill="#C61F49" stroke="#FFFFFF" stroke-width="2.6695" stroke-miterlimit="10" cx="217.7" cy="74" r="49.1"/>
	<g>
		<path d="M185.4,109h-11.7c-4.9,0-8.8-4-8.8-8.8v-45c0-4.9,4-8.8,8.8-8.8h11.7c4.9,0,8.8,4,8.8,8.8v45
			C194.2,105.1,190.3,109,185.4,109z"/>
		<g>
			<path fill="#FF9801" d="M184.9,104.6h-10.7c-2.6,0-4.8-2.1-4.8-4.8V55.5c0-2.6,2.1-4.8,4.8-4.8h10.7c2.6,0,4.8,2.1,4.8,4.8v44.4
				C189.6,102.5,187.5,104.6,184.9,104.6z"/>
			<path fill="#F57C00" d="M185,50.7h-2.3c1.4,0,2.5,2.1,2.5,3.5v47c0,1.4-1.1,3.5-2.5,3.5h2.3c2.5,0,4.6-2.1,4.6-4.6V55.3
				C189.6,52.8,187.5,50.7,185,50.7z"/>
		</g>
		<path d="M225.8,109.3c-8.5,0-10.3,0-10.8,0l-5-0.6c-4.8-0.9-7.7-2.7-10-4c-2.2-1.3-3.5-2-5.8-2h-4.5V52.9h4.5
			c3.7,0,13.3-5,19.1-10.8c6.2-6.2,7.7-12.6,7-16.5c-0.9-5-1.9-10.6,5.9-13.4c1-0.3,2-0.5,3.1-0.5c7.1,0,12.6,7.5,12.6,17.2
			c0,9.5-5.1,19.8-6.2,21.9h28.2c5,0,9.1,4.1,9.1,9.1c0,2.2-0.8,4.2-2,5.7c2.6,1.6,4.3,4.5,4.3,7.8c0,3.9-2.5,7.3-5.9,8.6
			c0.9,1.4,1.4,3.1,1.4,4.9c0,3.9-2.4,7.2-5.9,8.5c0.9,1.4,1.4,3.1,1.4,4.8c0,5-4.1,9.1-9.1,9.1h-1.8
			C255.3,109.3,237.8,109.3,225.8,109.3z"/>
		<g>
			<path fill="#FFE0B2" d="M250.2,77.9l15.8,0.1c2.6,0,4.6-2.1,4.6-4.6c0-2.6-2.1-4.6-4.6-4.6h-15.8c-1.2,0-2.1-1-2.1-2.1
				s1-2.1,2.1-2.1h13.5c2.6,0,4.6-2,4.6-4.6c0-2.6-2.1-4.6-4.6-4.6h-31.5c-5.2,0-1.7-4.8-0.8-6.3c0.9-1.6,5.9-11.5,5.9-20
				s-5.2-14-9.7-12.4c-4,1.4-3.9,3.1-2.9,8.3c1,5.2-0.9,13.1-8.2,20.5c-6.2,6.2-16.8,12.1-22.3,12.1c0,0,0,33.6,0,40.8
				c7.7,0,8.6,5.7,20.4,6.6v0h42.5c2.6,0,4.6-2.1,4.6-4.6c0-2.2-1.5-3.9-3.5-4.4l-8,0c-1.2,0-2.1-1-2.1-2.1c0-1.2,1-2.1,2.1-2.1
				h11.3c2.6,0,4.6-2.1,4.6-4.6s-2.1-4.6-4.6-4.6h-11.3c-1.2,0-2.1-1-2.1-2.1v0C248.1,78.8,249.1,77.9,250.2,77.9z"/>
			<path fill="#DFC49C" d="M231.8,36.3c-3.1,9.8-6.4,13.8-2.3,15.9c0,0,0.1,0,0.1,0.1c0.4-1.3,1.4-2.7,1.8-3.5
				c0.9-1.6,5.9-11.5,5.9-20s-5.2-14-9.7-12.4c-0.1,0-0.1,0-0.2,0.1C231.6,19.8,234.8,26.8,231.8,36.3z"/>
			<path fill="#DFC49C" d="M263.7,55.2h-1.8c2.7,1.5,2.5,7.5,0,9.2l1.9,0c2.6,0,4.6-2,4.6-4.6C268.4,57.3,266.3,55.2,263.7,55.2z"/>
			<path fill="#DFC49C" d="M266.1,68.7h-1.8c2.7,1.5,2.5,7.5,0,9.3l1.9,0c2.6,0,4.6-2,4.6-4.6C270.7,70.8,268.6,68.7,266.1,68.7z"/>
			<path fill="#DFC49C" d="M261.6,82.2h-1.8c2.7,1.5,2.5,7.5,0,9.3l1.9,0c2.6,0,4.6-2,4.6-4.6C266.2,84.2,264.1,82.2,261.6,82.2z"/>
			<path fill="#DFC49C" d="M258.2,95.7h-2.9c2.7,1.5,2.5,7.3,0,9.1l1.9,0c2.6,0,4.6-2,4.6-4.5C261.7,97.8,259.8,95.7,258.2,95.7z"/>
		</g>
	</g>
</g>
<g>
	<path fill="#FFFFFF" d="M20.5,91.5h12.2c0,1.2,0,2.1,0,2.8c0,0.7,0,1.3,0,1.7c0,0.4,0,0.8,0.1,1c0,0.3,0.1,0.5,0.1,0.7
		c0,0.4,0.1,0.8,0.2,1.3c0.1,0.5,0.4,1,0.7,1.5c0.4,0.5,0.9,1,1.6,1.3c0.7,0.4,1.7,0.5,3,0.5c1.5,0,2.6-0.2,3.4-0.7
		c0.8-0.4,1.4-1,1.7-1.8c0.4-0.7,0.6-1.6,0.6-2.5c0.1-0.9,0.1-1.9,0.1-3V80.8c-1.5,1.2-3,2.2-4.6,3c-1.6,0.8-3.6,1.3-6.1,1.3
		c-4.5,0-7.8-1.2-9.9-3.6c-2.1-2.4-3.1-5.4-3.1-9.2v-18c0-5.9,1.5-10.3,4.4-13c2.9-2.7,7.6-4.1,14-4.1c3.4,0,6.2,0.4,8.5,1.3
		c2.3,0.9,4,2,5.3,3.5c1.3,1.5,2.2,3.2,2.8,5.1c0.5,1.9,0.8,4,0.8,6.1v42.3c0,3.4-0.5,6.1-1.6,8.3c-1.1,2.2-2.5,3.8-4.2,5
		c-1.7,1.2-3.7,2-5.9,2.5c-2.2,0.5-4.5,0.7-6.7,0.7c-3,0-5.6-0.4-7.8-1.1c-2.2-0.7-3.9-1.8-5.3-3.1c-1.4-1.3-2.5-2.9-3.1-4.7
		c-0.7-1.8-1-3.8-1-5.9V91.5z M32.7,67.1c0,0.9,0,1.8,0.1,2.7c0.1,0.9,0.3,1.8,0.6,2.5c0.3,0.8,0.8,1.4,1.6,1.9
		c0.7,0.5,1.8,0.8,3.2,0.8c1.5,0,2.6-0.3,3.5-0.8c0.8-0.5,1.4-1.2,1.8-1.9c0.4-0.8,0.6-1.6,0.6-2.5c0.1-0.9,0.1-1.8,0.1-2.7V53.7
		c0-0.7-0.1-1.4-0.2-2.2c-0.1-0.8-0.4-1.6-0.7-2.2c-0.4-0.7-1-1.3-1.7-1.7s-1.7-0.7-3-0.7c-1.5,0-2.6,0.3-3.4,0.8
		c-0.8,0.5-1.4,1.2-1.7,1.9c-0.4,0.8-0.6,1.6-0.6,2.4c-0.1,0.8-0.1,1.6-0.1,2.4V67.1z"/>
	<path fill="#FFFFFF" d="M76.2,60.1H64.5v-9c0-2.1,0.5-4.1,1.4-6.1c0.9-1.9,2.3-3.5,4-4.7c1.8-1.2,3.8-2.1,6.1-2.5
		c2.3-0.4,4.3-0.6,6.1-0.6c4.1,0,7.3,0.7,9.6,2c2.3,1.3,4,2.8,5.1,4.5c1.1,1.7,1.8,3.3,2,4.9c0.2,1.6,0.4,2.7,0.4,3.3v8.6
		c0,1.9-0.2,3.5-0.5,4.8c-0.4,1.3-0.9,2.4-1.7,3.2c-0.8,0.9-1.8,1.6-3.1,2.1c-1.3,0.5-2.9,0.9-4.8,1.2c2,0.4,3.8,0.8,5.1,1.2
		c1.4,0.4,2.5,1.1,3.3,2c0.8,0.9,1.4,2,1.7,3.5c0.3,1.5,0.5,3.4,0.5,5.9v11.1c0,3.2-0.5,5.9-1.6,8.1c-1.1,2.2-2.4,3.9-4.1,5.2
		c-1.7,1.3-3.6,2.2-5.7,2.7c-2.1,0.5-4.2,0.8-6.3,0.8c-3,0-5.6-0.4-7.8-1.2c-2.2-0.8-4.1-1.8-5.6-3.2c-1.5-1.4-2.7-3-3.4-4.8
		c-0.8-1.8-1.2-3.7-1.2-5.9v-8.9h12.2V96c0,0.6,0,1.2,0.1,2c0.1,0.7,0.3,1.4,0.6,2.1c0.4,0.7,1,1.2,1.8,1.6c0.8,0.4,2,0.7,3.5,0.7
		c1.7,0,3-0.5,3.9-1.4c0.9-0.9,1.4-2.4,1.4-4.5V85.6c0-2.2-0.2-3.9-0.6-5.1c-0.4-1.2-1.1-2.1-2-2.7c-0.9-0.6-2.1-0.9-3.6-1.1
		c-1.5-0.1-3.3-0.2-5.4-0.2v-8.6c2,0,3.8-0.1,5.2-0.3c1.4-0.2,2.6-0.6,3.5-1.2c0.9-0.6,1.5-1.5,1.9-2.7c0.4-1.2,0.6-2.7,0.6-4.7
		v-5.5c0-0.7,0-1.4-0.1-2.1c-0.1-0.7-0.3-1.4-0.6-2.1c-0.3-0.7-0.8-1.2-1.5-1.6c-0.7-0.4-1.7-0.6-3.1-0.6c-1.4,0-2.5,0.2-3.2,0.7
		c-0.7,0.4-1.3,1-1.6,1.6c-0.3,0.6-0.5,1.2-0.6,1.8c-0.1,0.6-0.1,1-0.1,1.3V60.1z"/>
	<path fill="#FFFFFF" d="M105.8,44.4c0-0.5,0.1-1.1,0.2-2c0.1-0.8,0.4-1.6,1-2.4c0.6-0.8,1.5-1.5,2.8-2.1c1.3-0.6,3.1-0.9,5.5-0.9
		c2.4,0,4.2,0.3,5.6,0.8c1.3,0.6,2.3,1.2,2.9,2c0.6,0.7,0.9,1.5,1,2.3c0.1,0.8,0.2,1.4,0.2,1.8v14.6c0,2.3-0.8,4-2.5,5.1
		c-1.7,1.1-4,1.6-6.8,1.6c-2.4,0-4.3-0.3-5.6-0.8c-1.3-0.5-2.2-1.1-2.9-1.9c-0.6-0.7-1-1.5-1.1-2.3c-0.1-0.8-0.2-1.4-0.2-1.9V44.4z
		 M112.1,58.8c0,0.2,0,0.5,0.1,0.8c0.1,0.3,0.2,0.5,0.4,0.8c0.2,0.2,0.5,0.4,1,0.6c0.4,0.1,1,0.2,1.7,0.2c0.8,0,1.4-0.1,1.8-0.3
		c0.4-0.2,0.7-0.4,0.9-0.7c0.2-0.3,0.3-0.6,0.4-0.9c0-0.3,0-0.6,0-0.8V43.8c0-0.8-0.1-1.5-0.4-2.1c-0.3-0.6-1.2-0.8-2.8-0.8
		c-0.8,0-1.4,0.1-1.8,0.3c-0.4,0.2-0.7,0.4-0.9,0.7c-0.2,0.3-0.3,0.6-0.4,1c0,0.4,0,0.7,0,1V58.8z M139.9,34.4l5,1.4l-21,45.7
		l-5.1-1.4L139.9,34.4z M138.8,58.2c0-0.5,0.1-1.1,0.2-1.9c0.1-0.8,0.4-1.6,1-2.4c0.6-0.8,1.5-1.5,2.8-2c1.3-0.6,3.1-0.9,5.5-0.9
		c2.4,0,4.2,0.3,5.6,0.8c1.3,0.6,2.3,1.2,2.9,2s0.9,1.5,1,2.3c0.1,0.8,0.2,1.4,0.2,1.8v14.6c0,2.3-0.8,4-2.5,5.1
		c-1.7,1.1-4,1.6-6.8,1.6c-2.4,0-4.3-0.3-5.6-0.8c-1.3-0.5-2.2-1.1-2.9-1.9c-0.6-0.7-1-1.5-1.1-2.3c-0.1-0.8-0.2-1.4-0.2-1.9V58.2z
		 M145.2,72.7c0,0.2,0,0.5,0.1,0.8c0.1,0.3,0.2,0.5,0.4,0.8c0.2,0.2,0.5,0.4,1,0.6c0.4,0.1,1,0.2,1.7,0.2c0.8,0,1.4-0.1,1.8-0.3
		c0.4-0.2,0.7-0.4,0.9-0.7c0.2-0.3,0.3-0.6,0.4-0.9c0-0.3,0-0.6,0-0.8V57.7c0-0.8-0.1-1.5-0.4-2.1c-0.3-0.6-1.2-0.8-2.8-0.8
		c-0.8,0-1.4,0.1-1.8,0.3c-0.4,0.2-0.7,0.4-0.9,0.7c-0.2,0.3-0.3,0.6-0.4,0.9c0,0.4,0,0.7,0,1V72.7z"/>
</g>
<g>
	<path fill="#FFFFFF" d="M28.1,145.1c0-0.5,0.1-1.1,0.2-1.6c0.1-0.6,0.4-1.1,0.8-1.6c0.4-0.5,0.9-0.9,1.7-1.2
		c0.7-0.3,1.7-0.5,2.9-0.5c0.6,0,1.2,0.1,1.9,0.2c0.7,0.1,1.2,0.4,1.8,0.7c0.7,0.5,1.2,1.1,1.4,1.8c0.2,0.7,0.3,1.4,0.3,2v8.2
		c0,1.5-0.5,2.7-1.4,3.5c-1,0.8-2.3,1.2-4.1,1.2c-1.3,0-2.4-0.2-3.1-0.6c-0.7-0.4-1.2-0.9-1.6-1.5c-0.3-0.6-0.5-1.1-0.6-1.7
		c-0.1-0.6-0.1-1-0.1-1.3V145.1z M32.1,153.4c0,0.1,0,0.3,0,0.5c0,0.2,0.1,0.4,0.2,0.6c0.1,0.2,0.2,0.4,0.4,0.5
		c0.2,0.1,0.5,0.2,0.8,0.2c0.4,0,0.6-0.1,0.8-0.2c0.2-0.1,0.3-0.3,0.4-0.5c0.1-0.2,0.1-0.4,0.2-0.6c0-0.2,0-0.4,0-0.6v-8.7
		c0-0.2,0-0.5,0-0.7c0-0.2-0.1-0.5-0.2-0.7c-0.1-0.2-0.2-0.4-0.4-0.5c-0.2-0.1-0.4-0.2-0.7-0.2c-0.4,0-0.7,0.1-0.9,0.2
		c-0.2,0.1-0.4,0.3-0.4,0.5c-0.1,0.2-0.1,0.4-0.2,0.7c0,0.2,0,0.5,0,0.7V153.4z"/>
	<path fill="#FFFFFF" d="M47.1,140.5h1.8v2.6h-1.8v14.4h-4v-14.4h-1.8v-2.6h1.8v-3c0-0.9,0.2-1.6,0.5-2c0.3-0.5,0.7-0.8,1.2-1
		c0.5-0.2,1-0.3,1.5-0.4c0.5,0,1-0.1,1.4-0.1c0.2,0,0.5,0,0.7,0c0.2,0,0.5,0,0.7,0v3.2c-0.2,0-0.3,0-0.5,0c-0.2,0-0.3,0-0.4,0
		c-0.3,0-0.5,0-0.6,0.1c-0.1,0.1-0.2,0.2-0.3,0.3s-0.1,0.3-0.1,0.4c0,0.1,0,0.2,0,0.3V140.5z"/>
	<path fill="#FFFFFF" d="M62,131.7h5.4v10.2l5.8-10.2h5.4L72,143l6.7,14.9H73l-5.6-12.8v12.8H62V131.7z"/>
	<path fill="#FFFFFF" d="M91.7,141.2v-3.3c0-0.5,0-0.9-0.1-1.3c-0.1-0.4-0.2-0.7-0.4-1c-0.2-0.3-0.5-0.5-0.8-0.6
		c-0.4-0.1-0.8-0.2-1.4-0.2c-0.6,0-1,0.1-1.3,0.3c-0.3,0.2-0.6,0.4-0.7,0.7c-0.2,0.3-0.3,0.6-0.3,0.9c0,0.3-0.1,0.6-0.1,0.9v14
		c0,0.4,0,0.8,0.1,1.1c0.1,0.4,0.2,0.7,0.3,0.9c0.2,0.3,0.4,0.5,0.8,0.6c0.4,0.2,0.8,0.2,1.4,0.2c0.6,0,1.1-0.1,1.4-0.3
		c0.3-0.2,0.6-0.4,0.7-0.7c0.1-0.3,0.2-0.7,0.3-1c0-0.4,0-0.8,0-1.2V148h5.3v3.7c0,0.5,0,1.2-0.1,1.9s-0.4,1.5-0.9,2.2
		c-0.5,0.7-1.3,1.3-2.3,1.8c-1.1,0.5-2.6,0.7-4.5,0.7c-0.8,0-1.7-0.1-2.7-0.3c-1.1-0.2-2-0.5-2.9-1c-0.6-0.3-1-0.7-1.3-1.1
		c-0.3-0.4-0.5-0.8-0.7-1.3c-0.1-0.4-0.2-0.9-0.2-1.3c0-0.4,0-0.8,0-1.2v-14.2c0-1.1,0.1-2,0.2-2.7c0.1-0.8,0.6-1.5,1.2-2.1
		c0.5-0.5,1.1-0.9,1.7-1.2c0.6-0.3,1.3-0.5,1.9-0.6c0.6-0.1,1.2-0.2,1.7-0.2c0.5,0,0.9,0,1.2,0c2,0,3.5,0.2,4.5,0.7
		c1.1,0.5,1.8,1,2.3,1.7c0.5,0.6,0.8,1.3,0.9,2s0.1,1.3,0.1,1.7v4H91.7z"/>
	<path fill="#FFFFFF" d="M112.8,141.2v-3.3c0-0.5,0-0.9-0.1-1.3c-0.1-0.4-0.2-0.7-0.4-1c-0.2-0.3-0.5-0.5-0.8-0.6
		c-0.4-0.1-0.8-0.2-1.4-0.2c-0.6,0-1,0.1-1.3,0.3c-0.3,0.2-0.6,0.4-0.7,0.7c-0.2,0.3-0.3,0.6-0.3,0.9c0,0.3-0.1,0.6-0.1,0.9v14
		c0,0.4,0,0.8,0.1,1.1c0.1,0.4,0.2,0.7,0.3,0.9c0.2,0.3,0.4,0.5,0.8,0.6c0.4,0.2,0.8,0.2,1.4,0.2c0.6,0,1.1-0.1,1.4-0.3
		c0.3-0.2,0.6-0.4,0.7-0.7c0.1-0.3,0.2-0.7,0.3-1c0-0.4,0-0.8,0-1.2V148h5.3v3.7c0,0.5,0,1.2-0.1,1.9s-0.4,1.5-0.9,2.2
		c-0.5,0.7-1.3,1.3-2.3,1.8c-1.1,0.5-2.6,0.7-4.5,0.7c-0.8,0-1.7-0.1-2.7-0.3c-1.1-0.2-2-0.5-2.9-1c-0.6-0.3-1-0.7-1.3-1.1
		c-0.3-0.4-0.5-0.8-0.7-1.3c-0.1-0.4-0.2-0.9-0.2-1.3c0-0.4,0-0.8,0-1.2v-14.2c0-1.1,0.1-2,0.2-2.7c0.1-0.8,0.6-1.5,1.2-2.1
		c0.5-0.5,1.1-0.9,1.7-1.2c0.6-0.3,1.3-0.5,1.9-0.6c0.6-0.1,1.2-0.2,1.7-0.2c0.5,0,0.9,0,1.2,0c2,0,3.5,0.2,4.5,0.7
		c1.1,0.5,1.8,1,2.3,1.7c0.5,0.6,0.8,1.3,0.9,2s0.1,1.3,0.1,1.7v4H112.8z"/>
	<path fill="#FFFFFF" d="M132.6,148.6h5.3v3c0,0.4,0,0.7,0,1.1c0,0.4,0.1,0.7,0.3,1c0.2,0.3,0.4,0.5,0.8,0.7
		c0.3,0.2,0.8,0.3,1.5,0.3c0.7,0,1.2-0.1,1.5-0.3c0.4-0.2,0.6-0.5,0.8-0.8c0.2-0.3,0.3-0.8,0.3-1.2c0-0.5,0-1,0-1.6
		c0-0.9-0.1-1.6-0.4-2.1c-0.3-0.5-0.7-1-1.4-1.4l-5.1-3.1c-0.7-0.4-1.2-0.9-1.7-1.3c-0.4-0.4-0.8-0.9-1-1.4c-0.3-0.5-0.4-1-0.6-1.6
		c-0.1-0.6-0.2-1.2-0.2-1.9c0-0.5,0-1,0.1-1.5c0-0.5,0.1-1,0.3-1.4c0.1-0.5,0.3-0.9,0.6-1.3c0.3-0.4,0.7-0.8,1.1-1.1
		c0.5-0.4,1.3-0.8,2.3-1.1c1-0.3,2.2-0.5,3.5-0.5c0.8,0,1.6,0.1,2.5,0.2c0.9,0.2,1.7,0.5,2.4,0.9c0.7,0.4,1.3,1,1.8,1.7
		c0.5,0.7,0.7,1.7,0.7,2.8v2.6h-5.3v-1.9c0-0.3,0-0.6,0-0.9c0-0.3-0.1-0.6-0.2-0.9c-0.1-0.3-0.4-0.5-0.7-0.6
		c-0.3-0.2-0.8-0.2-1.3-0.2c-0.7,0-1.3,0.2-1.8,0.5c-0.5,0.3-0.7,1-0.7,2.1c0,0.5,0,1,0.1,1.4c0.1,0.4,0.2,0.7,0.3,0.9
		c0.1,0.2,0.3,0.4,0.5,0.6c0.2,0.2,0.5,0.3,0.8,0.5l5.2,3.2c0.5,0.3,1,0.7,1.5,1.2c0.5,0.4,0.9,0.9,1.2,1.4c0.2,0.3,0.3,0.6,0.4,0.9
		c0.1,0.3,0.2,0.6,0.2,0.9s0.1,0.7,0.1,1c0,0.4,0,0.8,0,1.4c0,1.2,0,2.1-0.1,2.9c-0.1,0.8-0.4,1.5-0.8,2.2c-0.4,0.6-0.9,1.1-1.5,1.4
		c-0.6,0.3-1.2,0.6-1.8,0.8c-0.6,0.2-1.3,0.3-1.9,0.4c-0.6,0-1.2,0.1-1.7,0.1c-1.1,0-2.2-0.1-3.2-0.3c-1-0.2-1.8-0.6-2.5-1
		c-0.7-0.5-1.3-1.1-1.7-1.8c-0.4-0.8-0.6-1.7-0.6-2.8V148.6z"/>
	<path fill="#FFFFFF" d="M153.5,132h4.9v6.9h2.9v2.9h-2.9v10.8c0,0.6,0.1,1.1,0.4,1.5c0.2,0.4,0.9,0.6,1.8,0.6c0.2,0,0.3,0,0.4,0
		c0.1,0,0.3,0,0.4,0v3.2c-0.2,0-0.4,0.1-0.8,0.1c-0.4,0-1,0.1-1.8,0.1c-1.1,0-2.1-0.1-2.8-0.3c-0.7-0.2-1.2-0.5-1.6-0.8
		s-0.6-0.8-0.7-1.3c-0.1-0.5-0.2-1-0.2-1.6v-12.3h-2.7v-2.9h2.6V132z"/>
	<path fill="#FFFFFF" d="M164.3,138.9h4.8v13.7c0,0.2,0,0.5,0,0.7c0,0.3,0.1,0.5,0.2,0.7c0.1,0.2,0.3,0.4,0.5,0.6
		c0.2,0.1,0.6,0.2,1.1,0.2s0.8-0.1,1.1-0.3c0.3-0.2,0.5-0.4,0.6-0.6c0.1-0.2,0.2-0.5,0.2-0.8c0-0.3,0-0.6,0-0.8v-13.4h4.9v19h-4.9
		v-1.5c-0.5,0.4-1.2,0.8-1.9,1.2c-0.7,0.4-1.6,0.6-2.6,0.6c-0.3,0-0.7,0-1.1-0.1c-0.4-0.1-0.8-0.2-1.2-0.4c-0.4-0.2-0.7-0.5-1-0.9
		c-0.3-0.4-0.5-0.9-0.6-1.5c-0.1-0.3-0.1-0.6-0.1-0.9c0-0.3,0-0.7,0-1.2V138.9z"/>
	<path fill="#FFFFFF" d="M190.8,131.6h4.8v26.2h-4.9l0-1.9c-0.2,0.2-0.4,0.5-0.6,0.8c-0.2,0.3-0.5,0.5-0.8,0.7
		c-0.3,0.2-0.7,0.4-1.1,0.5s-0.9,0.2-1.5,0.2c-1,0-1.8-0.2-2.6-0.6c-0.7-0.4-1.2-0.9-1.5-1.4c-0.3-0.5-0.4-1-0.5-1.7
		c-0.1-0.6-0.1-1.4-0.1-2.4v-8.7c0-0.7,0-1.2,0.1-1.6c0.1-0.4,0.2-0.8,0.4-1.2c0.2-0.4,0.5-0.8,0.8-1.1c0.3-0.3,0.7-0.5,1.1-0.7
		c0.4-0.2,0.7-0.3,1.1-0.4c0.4-0.1,0.7-0.1,1-0.1c1,0,1.8,0.2,2.5,0.6c0.7,0.4,1.3,0.9,1.8,1.3V131.6z M186.8,152.4
		c0,0.2,0,0.5,0,0.7c0,0.3,0.1,0.5,0.2,0.7c0.1,0.2,0.3,0.4,0.6,0.5c0.3,0.1,0.6,0.2,1.1,0.2c0.5,0,0.9-0.1,1.2-0.3
		c0.3-0.2,0.5-0.4,0.6-0.6c0.1-0.2,0.2-0.5,0.2-0.8c0-0.3,0-0.5,0-0.6v-8.2c0-0.1,0-0.3,0-0.6c0-0.2-0.1-0.5-0.2-0.7
		c-0.1-0.2-0.3-0.4-0.6-0.6c-0.3-0.2-0.7-0.3-1.2-0.3c-0.5,0-0.8,0.1-1.1,0.2c-0.3,0.2-0.4,0.4-0.6,0.6c-0.1,0.2-0.2,0.5-0.2,0.8
		c0,0.3,0,0.5,0,0.8V152.4z"/>
	<path fill="#FFFFFF" d="M204.6,152.4c0,0.2,0,0.4,0,0.7c0,0.3,0.1,0.5,0.2,0.8c0.1,0.2,0.3,0.5,0.5,0.6c0.2,0.2,0.6,0.2,1,0.2
		c0.5,0,1-0.2,1.3-0.6c0.1-0.1,0.2-0.2,0.2-0.3c0.1-0.1,0.1-0.3,0.1-0.4c0-0.2,0-0.4,0.1-0.7c0-0.3,0-0.7,0-1.2h4.7v1.5
		c0,1-0.2,1.9-0.6,2.5c-0.4,0.7-0.9,1.2-1.5,1.6c-0.6,0.4-1.3,0.6-2,0.8c-0.8,0.1-1.5,0.2-2.3,0.2c-2.4,0-4.1-0.5-5.2-1.6
		c-1-1.1-1.6-2.6-1.6-4.5v-8c0-1.2,0.2-2.1,0.6-2.9c0.4-0.7,1-1.3,1.6-1.7c0.6-0.4,1.3-0.7,2.1-0.9c0.8-0.2,1.6-0.3,2.3-0.3
		c1,0,1.9,0.1,2.8,0.4c0.9,0.3,1.7,0.7,2.3,1.3c0.6,0.6,1,1.2,1.2,1.9c0.2,0.7,0.3,1.3,0.3,1.9v5.4h-8.3V152.4z M204.7,146.2h3.5
		v-2.3c0-0.1,0-0.3,0-0.5c0-0.2-0.1-0.4-0.2-0.6c-0.1-0.2-0.3-0.4-0.5-0.5c-0.2-0.1-0.6-0.2-1-0.2c-0.6,0-1.1,0.2-1.4,0.5
		c-0.3,0.3-0.4,0.8-0.4,1.4V146.2z"/>
	<path fill="#FFFFFF" d="M217.1,138.9h4.9l-0.1,1.4c0.5-0.4,1-0.8,1.7-1.2c0.6-0.4,1.5-0.6,2.6-0.6c0.8,0,1.4,0.1,2,0.4
		c0.6,0.2,1,0.5,1.4,0.9c0.5,0.5,0.8,1,0.9,1.6c0.1,0.6,0.1,1.1,0.1,1.7v14.8h-4.8v-13.9c0-0.2,0-0.5,0-0.8c0-0.3-0.1-0.5-0.2-0.7
		c-0.1-0.2-0.3-0.4-0.5-0.6c-0.2-0.1-0.6-0.2-1-0.2c-0.5,0-0.9,0.1-1.2,0.3c-0.3,0.2-0.5,0.4-0.6,0.7c-0.1,0.3-0.2,0.6-0.2,0.8
		c0,0.3,0,0.5,0,0.8v13.7h-4.8V138.9z"/>
	<path fill="#FFFFFF" d="M236,132h4.9v6.9h2.9v2.9h-2.9v10.8c0,0.6,0.1,1.1,0.4,1.5c0.2,0.4,0.9,0.6,1.8,0.6c0.2,0,0.3,0,0.4,0
		c0.1,0,0.3,0,0.4,0v3.2c-0.2,0-0.4,0.1-0.8,0.1c-0.4,0-1,0.1-1.8,0.1c-1.1,0-2.1-0.1-2.8-0.3c-0.7-0.2-1.2-0.5-1.6-0.8
		c-0.4-0.3-0.6-0.8-0.7-1.3c-0.1-0.5-0.2-1-0.2-1.6v-12.3h-2.7v-2.9h2.6V132z"/>
	<path fill="#FFFFFF" d="M246.2,151.2h4.5c0,0.7,0,1.3,0,1.8c0,0.5,0.1,0.9,0.2,1.2c0.1,0.3,0.3,0.5,0.6,0.7
		c0.3,0.1,0.6,0.2,1.1,0.2c0.5,0,1-0.1,1.3-0.4c0.4-0.3,0.5-0.8,0.5-1.7c0-0.5-0.1-1-0.2-1.3c-0.1-0.3-0.5-0.7-1.2-1.2l-4-2.6
		c-0.1-0.1-0.4-0.3-0.7-0.5c-0.3-0.2-0.5-0.5-0.7-0.7c-0.3-0.3-0.5-0.7-0.8-1.1c-0.2-0.5-0.4-1.2-0.4-2.2c0-1,0.2-1.8,0.5-2.5
		c0.3-0.6,0.8-1.1,1.3-1.5c0.6-0.4,1.2-0.6,2-0.7c0.8-0.1,1.6-0.2,2.5-0.2c2.1,0,3.7,0.4,4.6,1.2c0.9,0.8,1.4,1.8,1.4,3.2v2.1h-4.2
		c0-1.1-0.1-1.9-0.2-2.5c-0.2-0.6-0.7-0.9-1.5-0.9c-0.2,0-0.3,0-0.6,0c-0.2,0-0.4,0.1-0.6,0.2c-0.2,0.1-0.3,0.3-0.4,0.5
		c-0.1,0.2-0.2,0.6-0.2,0.9c0,0.3,0.1,0.6,0.2,0.9c0.1,0.3,0.5,0.7,1.2,1.2l4.5,2.9c0.1,0,0.2,0.1,0.3,0.2c0.1,0.1,0.3,0.2,0.4,0.4
		c0.1,0.1,0.3,0.3,0.4,0.4c0.1,0.1,0.2,0.2,0.2,0.3c0.3,0.4,0.5,0.8,0.6,1.3s0.1,1.1,0.1,1.7c0,0.6,0,1.2-0.1,1.9
		c-0.1,0.7-0.3,1.3-0.7,1.9c-0.4,0.6-1.1,1.1-1.9,1.4c-0.9,0.4-2.1,0.6-3.7,0.6c-1.3,0-2.4-0.1-3.2-0.4c-0.8-0.3-1.5-0.6-1.9-1.1
		s-0.8-1-1-1.6c-0.2-0.6-0.2-1.2-0.2-1.9V151.2z"/>
</g>
<g>
	<path fill="#FFFFFF" d="M11.2,170.5h3.9l1.8,11.3l2-11.3h3.3l1.8,11.3l2-11.3h3.9l-3.9,17.1h-3.8l-1.7-10.1l-2,10.1h-3.8
		L11.2,170.5z"/>
	<path fill="#FFFFFF" d="M32.2,175.1c0-0.5,0.1-1.1,0.2-1.6c0.1-0.6,0.4-1.1,0.8-1.6c0.4-0.5,0.9-0.9,1.7-1.2
		c0.7-0.3,1.7-0.5,2.9-0.5c0.6,0,1.2,0.1,1.9,0.2c0.7,0.1,1.2,0.4,1.8,0.7c0.7,0.5,1.2,1.1,1.4,1.8c0.2,0.7,0.3,1.4,0.3,2v8.2
		c0,1.5-0.5,2.7-1.4,3.5c-1,0.8-2.3,1.2-4.1,1.2c-1.3,0-2.4-0.2-3.1-0.6c-0.7-0.4-1.2-0.9-1.6-1.5c-0.3-0.6-0.5-1.1-0.6-1.7
		c-0.1-0.6-0.1-1-0.1-1.3V175.1z M36.2,183.4c0,0.1,0,0.3,0,0.5c0,0.2,0.1,0.4,0.2,0.6c0.1,0.2,0.2,0.4,0.4,0.5
		c0.2,0.1,0.5,0.2,0.8,0.2c0.4,0,0.6-0.1,0.8-0.2c0.2-0.1,0.3-0.3,0.4-0.5c0.1-0.2,0.1-0.4,0.2-0.6c0-0.2,0-0.4,0-0.6v-8.7
		c0-0.2,0-0.5,0-0.7c0-0.2-0.1-0.5-0.2-0.7c-0.1-0.2-0.2-0.4-0.4-0.5c-0.2-0.1-0.4-0.2-0.7-0.2c-0.4,0-0.7,0.1-0.9,0.2
		c-0.2,0.1-0.4,0.3-0.4,0.5c-0.1,0.2-0.1,0.4-0.2,0.7c0,0.2,0,0.5,0,0.7V183.4z"/>
	<path fill="#FFFFFF" d="M46.5,170.5h4v12.3c0,0.2,0,0.4,0,0.7s0.1,0.5,0.2,0.7c0.1,0.2,0.3,0.4,0.4,0.5c0.2,0.1,0.5,0.2,0.9,0.2
		c0.4,0,0.7-0.1,0.9-0.2s0.4-0.3,0.5-0.6c0.1-0.2,0.2-0.5,0.2-0.7s0-0.5,0-0.7v-12.1h4.1v17.1h-4.1v-1.4c-0.5,0.4-1,0.7-1.5,1.1
		c-0.6,0.4-1.3,0.6-2.2,0.6c-0.3,0-0.6,0-0.9-0.1c-0.3-0.1-0.7-0.2-1-0.4c-0.3-0.2-0.6-0.5-0.9-0.8c-0.2-0.3-0.4-0.8-0.5-1.3
		c0-0.3-0.1-0.5-0.1-0.8c0-0.2,0-0.6,0-1.1V170.5z"/>
	<path fill="#FFFFFF" d="M61.4,164h4.1v23.5h-4.1V164z"/>
	<path fill="#FFFFFF" d="M76.3,164h4v23.6h-4.1l0-1.7c-0.2,0.2-0.3,0.5-0.5,0.7c-0.2,0.2-0.4,0.5-0.7,0.6c-0.3,0.2-0.6,0.4-0.9,0.5
		c-0.4,0.1-0.8,0.2-1.2,0.2c-0.8,0-1.5-0.2-2.1-0.6s-1-0.8-1.3-1.2c-0.2-0.4-0.4-0.9-0.4-1.5c-0.1-0.6-0.1-1.3-0.1-2.1v-7.8
		c0-0.6,0-1.1,0.1-1.5c0.1-0.4,0.2-0.7,0.4-1.1c0.2-0.4,0.4-0.7,0.7-0.9c0.3-0.3,0.6-0.5,0.9-0.6c0.3-0.2,0.6-0.3,0.9-0.3
		c0.3-0.1,0.6-0.1,0.8-0.1c0.8,0,1.5,0.2,2,0.6c0.6,0.4,1.1,0.8,1.5,1.2V164z M73,182.6c0,0.2,0,0.4,0,0.6c0,0.2,0.1,0.4,0.2,0.6
		c0.1,0.2,0.3,0.3,0.5,0.5c0.2,0.1,0.5,0.2,0.9,0.2c0.4,0,0.8-0.1,1-0.2c0.2-0.2,0.4-0.4,0.5-0.6c0.1-0.2,0.2-0.5,0.2-0.7
		c0-0.2,0-0.4,0-0.5v-7.3c0-0.1,0-0.3,0-0.5c0-0.2-0.1-0.4-0.2-0.6c-0.1-0.2-0.3-0.4-0.5-0.5c-0.2-0.2-0.6-0.2-1-0.2
		c-0.4,0-0.7,0.1-0.9,0.2c-0.2,0.1-0.4,0.3-0.5,0.6c-0.1,0.2-0.2,0.5-0.2,0.7c0,0.3,0,0.5,0,0.7V182.6z"/>
	<path fill="#FFFFFF" d="M93.2,170.5h4l0,2.2c0.2-0.3,0.3-0.6,0.6-0.9c0.2-0.3,0.5-0.6,0.8-0.8c0.3-0.2,0.7-0.4,1.1-0.6
		c0.4-0.1,0.9-0.2,1.5-0.2v3.9c-0.2,0-0.3-0.1-0.6-0.2c-0.2-0.1-0.5-0.1-0.8-0.1c-0.7,0-1.2,0.1-1.5,0.4s-0.6,0.6-0.8,0.9
		c-0.2,0.4-0.3,0.8-0.3,1.2c0,0.4,0,0.8,0,1.1v10h-4V170.5z"/>
	<path fill="#FFFFFF" d="M106.9,182.7c0,0.2,0,0.4,0,0.6c0,0.2,0.1,0.5,0.2,0.7c0.1,0.2,0.2,0.4,0.4,0.5c0.2,0.1,0.5,0.2,0.9,0.2
		c0.5,0,0.8-0.2,1.1-0.5c0.1-0.1,0.1-0.2,0.2-0.3c0-0.1,0.1-0.2,0.1-0.4c0-0.2,0-0.4,0.1-0.6c0-0.3,0-0.6,0-1.1h3.9v1.4
		c0,0.9-0.2,1.7-0.5,2.3c-0.3,0.6-0.7,1.1-1.2,1.4c-0.5,0.3-1.1,0.6-1.7,0.7c-0.6,0.1-1.3,0.2-1.9,0.2c-2,0-3.4-0.5-4.3-1.4
		c-0.9-1-1.3-2.3-1.3-4v-7.2c0-1.1,0.2-1.9,0.5-2.6c0.3-0.6,0.8-1.2,1.4-1.5c0.5-0.4,1.1-0.6,1.8-0.8c0.7-0.2,1.3-0.2,1.9-0.2
		c0.8,0,1.6,0.1,2.3,0.4c0.7,0.2,1.4,0.6,1.9,1.1c0.5,0.5,0.8,1.1,1,1.7c0.1,0.6,0.2,1.2,0.2,1.7v4.9h-6.9V182.7z M106.9,177.1h2.9
		V175c0-0.1,0-0.3,0-0.5c0-0.2-0.1-0.4-0.2-0.6c-0.1-0.2-0.2-0.3-0.4-0.5c-0.2-0.1-0.5-0.2-0.8-0.2c-0.5,0-0.9,0.2-1.1,0.5
		c-0.2,0.3-0.4,0.7-0.4,1.2V177.1z"/>
	<path fill="#FFFFFF" d="M124.2,176.9v-2.1c0-0.1,0-0.3,0-0.5c0-0.2-0.1-0.4-0.2-0.6c-0.1-0.2-0.3-0.4-0.5-0.5
		c-0.2-0.1-0.5-0.2-0.8-0.2c-0.4,0-0.7,0.1-1,0.3c-0.2,0.2-0.4,0.4-0.5,0.6c-0.1,0.2-0.2,0.5-0.2,0.8c0,0.3,0,0.5,0,0.7v7.4
		c0,0.2,0,0.4,0,0.7c0,0.3,0.1,0.5,0.2,0.7c0.1,0.2,0.3,0.4,0.5,0.6s0.5,0.2,0.9,0.2c0.4,0,0.7-0.1,0.9-0.3c0.2-0.2,0.4-0.4,0.5-0.6
		c0.1-0.2,0.2-0.5,0.2-0.7c0-0.2,0-0.5,0-0.6v-2h4v1.9c0,3.4-1.8,5.2-5.5,5.2c-0.2,0-0.5,0-0.8,0c-0.3,0-0.7-0.1-1.1-0.2
		s-0.8-0.2-1.1-0.3c-0.4-0.2-0.7-0.4-1.1-0.6c-0.7-0.5-1.1-1.1-1.3-1.7c-0.2-0.7-0.3-1.3-0.3-2v-7.6c0-0.6,0.1-1.2,0.2-1.7
		c0.1-0.6,0.4-1.1,0.8-1.5c0.5-0.7,1.2-1.2,2.1-1.5c0.8-0.3,1.7-0.4,2.6-0.4c0.7,0,1.5,0.1,2.2,0.3c0.7,0.2,1.4,0.5,1.9,0.9
		c0.5,0.4,0.9,0.9,1.1,1.5c0.2,0.6,0.3,1.2,0.3,2.1v2H124.2z"/>
	<path fill="#FFFFFF" d="M131.2,175.1c0-0.5,0.1-1.1,0.2-1.6c0.1-0.6,0.4-1.1,0.8-1.6c0.4-0.5,0.9-0.9,1.7-1.2
		c0.7-0.3,1.7-0.5,2.9-0.5c0.6,0,1.2,0.1,1.9,0.2c0.7,0.1,1.2,0.4,1.8,0.7c0.7,0.5,1.2,1.1,1.4,1.8c0.2,0.7,0.3,1.4,0.3,2v8.2
		c0,1.5-0.5,2.7-1.4,3.5c-1,0.8-2.3,1.2-4.1,1.2c-1.3,0-2.4-0.2-3.1-0.6c-0.7-0.4-1.2-0.9-1.6-1.5c-0.3-0.6-0.5-1.1-0.6-1.7
		c-0.1-0.6-0.1-1-0.1-1.3V175.1z M135.2,183.4c0,0.1,0,0.3,0,0.5c0,0.2,0.1,0.4,0.2,0.6c0.1,0.2,0.2,0.4,0.4,0.5
		c0.2,0.1,0.5,0.2,0.8,0.2c0.4,0,0.6-0.1,0.8-0.2c0.2-0.1,0.3-0.3,0.4-0.5c0.1-0.2,0.1-0.4,0.2-0.6c0-0.2,0-0.4,0-0.6v-8.7
		c0-0.2,0-0.5,0-0.7c0-0.2-0.1-0.5-0.2-0.7c-0.1-0.2-0.2-0.4-0.4-0.5c-0.2-0.1-0.4-0.2-0.7-0.2c-0.4,0-0.7,0.1-0.9,0.2
		c-0.2,0.1-0.4,0.3-0.4,0.5c-0.1,0.2-0.1,0.4-0.2,0.7c0,0.2,0,0.5,0,0.7V183.4z"/>
	<path fill="#FFFFFF" d="M145.5,170.5h4v1.1c0.4-0.3,0.8-0.7,1.4-1c0.5-0.3,1.2-0.5,2-0.5c0.5,0,0.8,0.1,1.2,0.2s0.6,0.3,0.9,0.4
		c0.3,0.2,0.5,0.3,0.7,0.5c0.2,0.2,0.4,0.4,0.5,0.6c0.2-0.2,0.5-0.4,0.8-0.6c0.3-0.2,0.5-0.4,0.9-0.5c0.3-0.2,0.7-0.3,1-0.4
		c0.4-0.1,0.8-0.1,1.3-0.1c0.6,0,1.1,0.1,1.5,0.3c0.4,0.2,0.8,0.4,1,0.7c0.4,0.4,0.7,0.8,0.8,1.3c0.1,0.5,0.2,1,0.2,1.6v13.5h-4
		v-12.6c0-0.2,0-0.4,0-0.6c0-0.2-0.1-0.5-0.2-0.6c-0.1-0.2-0.2-0.4-0.4-0.5c-0.2-0.1-0.5-0.2-0.9-0.2c-0.6,0-1,0.2-1.2,0.6
		c-0.3,0.4-0.4,0.9-0.4,1.6v12.4h-4V175c0-0.2,0-0.5,0-0.7c0-0.2-0.1-0.5-0.2-0.7c-0.1-0.2-0.3-0.4-0.5-0.5
		c-0.2-0.1-0.5-0.2-0.9-0.2c-0.6,0-1,0.2-1.2,0.6c-0.2,0.4-0.4,0.9-0.4,1.5v12.6h-4V170.5z"/>
	<path fill="#FFFFFF" d="M167.5,170.5h4v1.1c0.4-0.3,0.8-0.7,1.4-1c0.5-0.3,1.2-0.5,2-0.5c0.5,0,0.8,0.1,1.2,0.2s0.6,0.3,0.9,0.4
		c0.3,0.2,0.5,0.3,0.7,0.5c0.2,0.2,0.4,0.4,0.5,0.6c0.2-0.2,0.5-0.4,0.8-0.6c0.3-0.2,0.5-0.4,0.9-0.5s0.7-0.3,1-0.4s0.8-0.1,1.3-0.1
		c0.6,0,1.1,0.1,1.5,0.3c0.4,0.2,0.8,0.4,1,0.7c0.4,0.4,0.7,0.8,0.8,1.3c0.1,0.5,0.2,1,0.2,1.6v13.5h-4v-12.6c0-0.2,0-0.4,0-0.6
		c0-0.2-0.1-0.5-0.2-0.6c-0.1-0.2-0.2-0.4-0.4-0.5c-0.2-0.1-0.5-0.2-0.9-0.2c-0.6,0-1,0.2-1.2,0.6c-0.3,0.4-0.4,0.9-0.4,1.6v12.4h-4
		V175c0-0.2,0-0.5,0-0.7c0-0.2-0.1-0.5-0.2-0.7c-0.1-0.2-0.3-0.4-0.5-0.5s-0.5-0.2-0.9-0.2c-0.6,0-1,0.2-1.2,0.6
		c-0.2,0.4-0.4,0.9-0.4,1.5v12.6h-4V170.5z"/>
	<path fill="#FFFFFF" d="M193.2,182.7c0,0.2,0,0.4,0,0.6c0,0.2,0.1,0.5,0.2,0.7c0.1,0.2,0.2,0.4,0.4,0.5c0.2,0.1,0.5,0.2,0.9,0.2
		c0.5,0,0.8-0.2,1.1-0.5c0.1-0.1,0.1-0.2,0.2-0.3c0-0.1,0.1-0.2,0.1-0.4c0-0.2,0-0.4,0.1-0.6c0-0.3,0-0.6,0-1.1h3.9v1.4
		c0,0.9-0.2,1.7-0.5,2.3c-0.3,0.6-0.7,1.1-1.2,1.4c-0.5,0.3-1.1,0.6-1.7,0.7c-0.6,0.1-1.3,0.2-1.9,0.2c-2,0-3.4-0.5-4.3-1.4
		c-0.9-1-1.3-2.3-1.3-4v-7.2c0-1.1,0.2-1.9,0.5-2.6c0.3-0.6,0.8-1.2,1.4-1.5c0.5-0.4,1.1-0.6,1.8-0.8c0.7-0.2,1.3-0.2,1.9-0.2
		c0.8,0,1.6,0.1,2.3,0.4c0.7,0.2,1.4,0.6,1.9,1.1c0.5,0.5,0.8,1.1,1,1.7c0.1,0.6,0.2,1.2,0.2,1.7v4.9h-6.9V182.7z M193.2,177.1h2.9
		V175c0-0.1,0-0.3,0-0.5c0-0.2-0.1-0.4-0.2-0.6c-0.1-0.2-0.2-0.3-0.4-0.5c-0.2-0.1-0.5-0.2-0.8-0.2c-0.5,0-0.9,0.2-1.1,0.5
		c-0.2,0.3-0.4,0.7-0.4,1.2V177.1z"/>
	<path fill="#FFFFFF" d="M203.5,170.5h4.1l-0.1,1.3c0.4-0.4,0.9-0.7,1.4-1.1c0.5-0.3,1.2-0.5,2.1-0.5c0.6,0,1.2,0.1,1.7,0.3
		c0.5,0.2,0.8,0.5,1.1,0.8c0.4,0.4,0.6,0.9,0.7,1.4c0.1,0.5,0.1,1,0.1,1.5v13.3h-4V175c0-0.2,0-0.5,0-0.7s-0.1-0.5-0.2-0.7
		c-0.1-0.2-0.2-0.4-0.4-0.5c-0.2-0.1-0.5-0.2-0.8-0.2c-0.4,0-0.8,0.1-1,0.2c-0.2,0.2-0.4,0.4-0.5,0.6c-0.1,0.2-0.2,0.5-0.2,0.7
		c0,0.3,0,0.5,0,0.7v12.3h-4V170.5z"/>
	<path fill="#FFFFFF" d="M225.5,164h4v23.6h-4.1l0-1.7c-0.2,0.2-0.3,0.5-0.5,0.7c-0.2,0.2-0.4,0.5-0.7,0.6c-0.3,0.2-0.6,0.4-0.9,0.5
		s-0.8,0.2-1.2,0.2c-0.8,0-1.5-0.2-2.1-0.6c-0.6-0.4-1-0.8-1.3-1.2c-0.2-0.4-0.4-0.9-0.4-1.5s-0.1-1.3-0.1-2.1v-7.8
		c0-0.6,0-1.1,0.1-1.5c0.1-0.4,0.2-0.7,0.4-1.1c0.2-0.4,0.4-0.7,0.7-0.9c0.3-0.3,0.6-0.5,0.9-0.6c0.3-0.2,0.6-0.3,0.9-0.3
		c0.3-0.1,0.6-0.1,0.8-0.1c0.8,0,1.5,0.2,2,0.6c0.6,0.4,1.1,0.8,1.5,1.2V164z M222.2,182.6c0,0.2,0,0.4,0,0.6c0,0.2,0.1,0.4,0.2,0.6
		c0.1,0.2,0.3,0.3,0.5,0.5c0.2,0.1,0.5,0.2,0.9,0.2c0.4,0,0.8-0.1,1-0.2c0.2-0.2,0.4-0.4,0.5-0.6c0.1-0.2,0.2-0.5,0.2-0.7
		c0-0.2,0-0.4,0-0.5v-7.3c0-0.1,0-0.3,0-0.5c0-0.2-0.1-0.4-0.2-0.6c-0.1-0.2-0.3-0.4-0.5-0.5c-0.2-0.2-0.6-0.2-1-0.2
		c-0.4,0-0.7,0.1-0.9,0.2c-0.2,0.1-0.4,0.3-0.5,0.6c-0.1,0.2-0.2,0.5-0.2,0.7c0,0.3,0,0.5,0,0.7V182.6z"/>
	<path fill="#FFFFFF" d="M242.4,170.5h4v12.3c0,0.2,0,0.4,0,0.7s0.1,0.5,0.2,0.7c0.1,0.2,0.3,0.4,0.4,0.5s0.5,0.2,0.9,0.2
		s0.7-0.1,0.9-0.2s0.4-0.3,0.5-0.6c0.1-0.2,0.2-0.5,0.2-0.7c0-0.3,0-0.5,0-0.7v-12.1h4.1v17.1h-4.1v-1.4c-0.5,0.4-1,0.7-1.5,1.1
		c-0.6,0.4-1.3,0.6-2.2,0.6c-0.3,0-0.6,0-0.9-0.1c-0.3-0.1-0.7-0.2-1-0.4c-0.3-0.2-0.6-0.5-0.8-0.8c-0.2-0.3-0.4-0.8-0.5-1.3
		c0-0.3-0.1-0.5-0.1-0.8c0-0.2,0-0.6,0-1.1V170.5z"/>
	<path fill="#FFFFFF" d="M256.7,181.6h3.7c0,0.6,0,1.2,0,1.6c0,0.4,0.1,0.8,0.2,1.1c0.1,0.3,0.3,0.5,0.5,0.6
		c0.2,0.1,0.5,0.2,0.9,0.2c0.5,0,0.8-0.1,1.1-0.4c0.3-0.3,0.4-0.8,0.4-1.5c0-0.5-0.1-0.9-0.2-1.2c-0.1-0.3-0.5-0.7-1-1l-3.4-2.3
		c-0.1-0.1-0.3-0.2-0.5-0.5c-0.2-0.2-0.4-0.4-0.6-0.6c-0.2-0.2-0.4-0.6-0.6-1c-0.2-0.4-0.3-1.1-0.3-2c0-0.9,0.1-1.6,0.4-2.2
		c0.3-0.6,0.6-1,1.1-1.4c0.5-0.3,1-0.5,1.7-0.7s1.3-0.2,2-0.2c1.8,0,3,0.3,3.8,1c0.8,0.7,1.2,1.7,1.2,2.9v1.9h-3.5
		c0-1-0.1-1.7-0.2-2.3c-0.1-0.5-0.5-0.8-1.3-0.8c-0.1,0-0.3,0-0.5,0c-0.2,0-0.3,0.1-0.5,0.2c-0.1,0.1-0.3,0.3-0.4,0.5
		c-0.1,0.2-0.1,0.5-0.1,0.8c0,0.2,0.1,0.5,0.2,0.8c0.1,0.3,0.4,0.7,1,1l3.7,2.6c0.1,0,0.2,0.1,0.3,0.2c0.1,0.1,0.2,0.2,0.3,0.3
		c0.1,0.1,0.2,0.2,0.3,0.3c0.1,0.1,0.2,0.2,0.2,0.3c0.2,0.3,0.4,0.7,0.5,1.2c0.1,0.4,0.1,0.9,0.1,1.5c0,0.5,0,1.1-0.1,1.7
		c-0.1,0.6-0.3,1.2-0.6,1.7s-0.9,1-1.6,1.3c-0.7,0.3-1.8,0.5-3.1,0.5c-1.1,0-2-0.1-2.7-0.4c-0.7-0.3-1.2-0.6-1.6-1
		c-0.4-0.4-0.7-0.9-0.8-1.4c-0.1-0.5-0.2-1.1-0.2-1.7V181.6z"/>
	<path fill="#FFFFFF" d="M271.8,183.1h4v4.4h-4V183.1z M271.9,164h3.8v10.4l-0.6,6.8h-2.6l-0.5-6.6V164z"/>
</g>
</svg>
