<?xml version="1.0" encoding="utf-8"?>
<!-- Generator: Adobe Illustrator 28.1.0, SVG Export Plug-In . SVG Version: 6.00 Build 0)  -->
<svg version="1.1" id="Layer_1" xmlns="http://www.w3.org/2000/svg" xmlns:xlink="http://www.w3.org/1999/xlink" x="0px" y="0px"
	 viewBox="0 0 288 235.5" enable-background="new 0 0 288 235.5" xml:space="preserve">
<path fill="#C61F4A" d="M261.9,231.2H27c-12.3,0-22.2-9.9-22.2-22.2V27.5C4.8,15.2,14.7,5.3,27,5.3h234.9c12.3,0,22.2,9.9,22.2,22.2
	V209C284.1,221.3,274.2,231.2,261.9,231.2z"/>
<path fill="#FFFFFF" stroke="#FFFFFF" stroke-miterlimit="10" d="M148.2,44.4l66-27.6l68.5,20.4l-38.1,15.3v16.8h-3.4
	c0,0,2.5,3.4,2.3,14.5c-0.4,16.2-15.6,26.6-28.6,26.6c-18.1,0-27.4-15.3-28.3-24.1c-1.1-10.6,2.5-17.3,2.5-17.3l-3.5-0.1l-0.2-14.3
	l-2.5-0.4l0.9,32.7l-4.7-5.9l-3.7,2.5l0.6-30.8L148.2,44.4z"/>
<g>
	<polygon fill="#003057" points="276.7,37.5 216.7,62.2 179.3,51.3 153.7,43.8 213.8,19.1 	"/>
	<g>
		<defs>
			<rect id="SVGID_1_" x="153.7" y="19.1" width="123" height="88.9"/>
		</defs>
		<clipPath id="SVGID_00000107590464867700485410000014140093919136217243_">
			<use xlink:href="#SVGID_1_"  overflow="visible"/>
		</clipPath>
		<path clip-path="url(#SVGID_00000107590464867700485410000014140093919136217243_)" fill="#003057" d="M188.1,38.2
			c-0.7,0-1.3,0.6-1.3,1.3v25.9c0,0.7,0.6,1.3,1.3,1.3h53.4c0.7,0,1.3-0.6,1.3-1.3V39.6c0-0.7-0.6-1.3-1.3-1.3H188.1z"/>
		<path clip-path="url(#SVGID_00000107590464867700485410000014140093919136217243_)" fill="#FFFFFF" d="M214.8,105.9
			c13.3,0,24.1-10.8,24.1-24.1c0-13.3-10.8-24.1-24.1-24.1c-13.3,0-24.1,10.8-24.1,24.1C190.7,95.1,201.4,105.9,214.8,105.9"/>
		
			<path clip-path="url(#SVGID_00000107590464867700485410000014140093919136217243_)" fill="none" stroke="#003057" stroke-width="4.1203" d="
			M214.8,105.9c13.3,0,24.1-10.8,24.1-24.1c0-13.3-10.8-24.1-24.1-24.1c-13.3,0-24.1,10.8-24.1,24.1
			C190.7,95.1,201.4,105.9,214.8,105.9z"/>
	</g>
	<g>
		<path fill="#003057" d="M219.9,75.1c-0.7-0.5-1.5-0.9-2.3-1.2c-0.8-0.3-1.7-0.5-2.6-0.5c-0.4,0-0.7,0-1.2,0.1
			c-0.4,0.1-0.8,0.2-1.1,0.3c-0.3,0.2-0.6,0.4-0.8,0.7c-0.2,0.3-0.3,0.7-0.3,1.1c0,0.5,0.2,0.8,0.7,1.1c0.5,0.3,1,0.5,1.8,0.8
			l4.2,1.3c0.9,0.3,1.8,0.6,2.6,1c0.8,0.4,1.4,0.9,2,1.5c0.5,0.6,1,1.3,1.3,2.2c0.3,0.8,0.5,1.9,0.5,3c0,1.1-0.2,2.1-0.6,3.1
			c-0.4,0.9-1,1.8-1.7,2.4c-0.7,0.7-1.6,1.3-2.6,1.7s-2,0.7-3.1,0.7V99h-3.3v-4.4c-1.6,0-3.2-0.3-4.7-0.9c-1.5-0.6-2.8-1.4-4-2.5
			l3.9-4c0.9,0.9,1.9,1.6,2.9,2c1,0.4,2.2,0.6,3.5,0.6c0.4,0,0.8,0,1.3-0.1c0.4-0.1,0.8-0.2,1.1-0.5c0.3-0.2,0.6-0.5,0.8-0.9
			c0.2-0.4,0.3-0.8,0.3-1.4c0-0.4-0.1-0.8-0.3-1.1s-0.4-0.6-0.7-0.8c-0.3-0.2-0.6-0.4-1-0.5c-0.4-0.1-0.8-0.3-1.2-0.4l-4.1-1.3
			c-1.9-0.6-3.3-1.4-4.3-2.4c-1-1-1.4-2.4-1.4-4.3c0-1.1,0.2-2.1,0.6-3c0.4-0.9,0.9-1.7,1.6-2.3c0.7-0.6,1.5-1.2,2.4-1.5
			c0.9-0.4,2-0.6,3-0.7v-4.4h3.3v4.4c1.1,0,2.3,0.3,3.5,0.6c1.2,0.4,2.4,1,3.7,2L219.9,75.1z"/>
	</g>
	<line fill="none" stroke="#003057" stroke-width="2.7445" x1="179.3" y1="43.2" x2="179.3" y2="66"/>
	<g>
		<defs>
			<rect id="SVGID_00000069366896206942184930000002901718052631864722_" x="153.7" y="19.1" width="123" height="88.9"/>
		</defs>
		<clipPath id="SVGID_00000013874802015740802910000016927710005711344789_">
			<use xlink:href="#SVGID_00000069366896206942184930000002901718052631864722_"  overflow="visible"/>
		</clipPath>
		<path clip-path="url(#SVGID_00000013874802015740802910000016927710005711344789_)" fill="#003057" d="M178.2,61.1
			c0,0-0.6,9-0.6,12.6c0,3.7-0.4,6.3-0.4,6.3l1.6-0.9l1.2,1.5c0,0,1.6,2.7,1.6,0v-7.9l-0.9-12.6L178.2,61.1z"/>
	</g>
</g>
<g>
	<g>
		<path fill="#FFFFFF" d="M47.3,133.7c0-0.4,0-0.9,0.2-1.4c0.1-0.5,0.3-0.9,0.6-1.3c0.3-0.4,0.8-0.7,1.4-1c0.6-0.3,1.4-0.4,2.3-0.4
			c0.5,0,1,0.1,1.5,0.2c0.5,0.1,1,0.3,1.4,0.6c0.6,0.4,1,0.9,1.1,1.5c0.2,0.6,0.2,1.1,0.2,1.7v6.8c0,1.3-0.4,2.2-1.2,2.9
			s-1.9,1-3.4,1c-1.1,0-1.9-0.2-2.5-0.5s-1-0.8-1.3-1.2c-0.3-0.5-0.4-0.9-0.5-1.4c0-0.5-0.1-0.8-0.1-1.1V133.7z M50.5,140.5
			c0,0.1,0,0.2,0,0.4c0,0.2,0.1,0.3,0.1,0.5c0.1,0.2,0.2,0.3,0.3,0.4c0.2,0.1,0.4,0.2,0.7,0.2c0.3,0,0.5-0.1,0.7-0.2
			c0.2-0.1,0.3-0.2,0.3-0.4s0.1-0.3,0.1-0.5c0-0.2,0-0.3,0-0.5v-7.2c0-0.2,0-0.4,0-0.6c0-0.2-0.1-0.4-0.2-0.6
			c-0.1-0.2-0.2-0.3-0.3-0.4c-0.1-0.1-0.3-0.2-0.6-0.2c-0.3,0-0.5,0.1-0.7,0.2c-0.2,0.1-0.3,0.3-0.4,0.4c-0.1,0.2-0.1,0.4-0.1,0.6
			c0,0.2,0,0.4,0,0.6V140.5z"/>
		<path fill="#FFFFFF" d="M62.2,129.8h1.4v2.2h-1.5V144h-3.3V132h-1.5v-2.2h1.5v-2.5c0-0.7,0.1-1.3,0.4-1.7c0.3-0.4,0.6-0.7,1-0.9
			c0.4-0.2,0.8-0.3,1.2-0.3s0.8,0,1.1,0c0.2,0,0.4,0,0.6,0c0.2,0,0.4,0,0.6,0v2.7c-0.1,0-0.3,0-0.4,0c-0.2,0-0.3,0-0.3,0
			c-0.2,0-0.4,0-0.5,0.1c-0.1,0.1-0.2,0.2-0.2,0.3s-0.1,0.2-0.1,0.3c0,0.1,0,0.2,0,0.3V129.8z"/>
		<path fill="#FFFFFF" d="M71.7,139h3c0,0.5,0,1,0,1.3c0,0.4,0.1,0.7,0.1,0.9c0.1,0.2,0.2,0.4,0.4,0.5c0.2,0.1,0.4,0.2,0.8,0.2
			c0.4,0,0.7-0.1,0.9-0.3c0.2-0.2,0.4-0.6,0.4-1.2c0-0.4,0-0.7-0.1-1c-0.1-0.3-0.4-0.5-0.8-0.9l-2.7-1.9c-0.1-0.1-0.2-0.2-0.4-0.4
			c-0.2-0.2-0.4-0.3-0.5-0.5c-0.2-0.2-0.4-0.5-0.5-0.8c-0.2-0.4-0.2-0.9-0.2-1.7c0-0.7,0.1-1.3,0.3-1.8c0.2-0.5,0.5-0.9,0.9-1.1
			c0.4-0.3,0.8-0.5,1.4-0.6c0.5-0.1,1.1-0.2,1.7-0.2c1.4,0,2.5,0.3,3.1,0.9c0.6,0.6,0.9,1.4,0.9,2.4v1.5h-2.8c0-0.8-0.1-1.4-0.2-1.9
			c-0.1-0.4-0.4-0.7-1-0.7c-0.1,0-0.2,0-0.4,0s-0.3,0.1-0.4,0.2c-0.1,0.1-0.2,0.2-0.3,0.4c-0.1,0.2-0.1,0.4-0.1,0.7
			c0,0.2,0,0.4,0.1,0.7c0.1,0.3,0.4,0.5,0.8,0.9l3,2.1c0.1,0,0.1,0.1,0.2,0.2c0.1,0.1,0.2,0.2,0.3,0.3c0.1,0.1,0.2,0.2,0.3,0.3
			c0.1,0.1,0.1,0.2,0.2,0.2c0.2,0.3,0.3,0.6,0.4,1c0.1,0.4,0.1,0.8,0.1,1.2c0,0.4,0,0.9-0.1,1.4c0,0.5-0.2,1-0.5,1.4
			c-0.3,0.4-0.7,0.8-1.3,1.1c-0.6,0.3-1.4,0.4-2.5,0.4c-0.9,0-1.6-0.1-2.1-0.3c-0.6-0.2-1-0.5-1.3-0.8c-0.3-0.3-0.5-0.7-0.6-1.2
			c-0.1-0.4-0.2-0.9-0.2-1.4V139z"/>
		<path fill="#FFFFFF" d="M83.2,124.8h3.3v5.1h2v2.2h-2v8c0,0.5,0.1,0.8,0.2,1.1c0.2,0.3,0.6,0.4,1.2,0.4c0.1,0,0.2,0,0.3,0
			c0.1,0,0.2,0,0.3,0v2.3c-0.1,0-0.3,0.1-0.5,0.1c-0.2,0-0.6,0.1-1.2,0.1c-0.8,0-1.4-0.1-1.9-0.2c-0.5-0.1-0.8-0.3-1.1-0.6
			c-0.2-0.3-0.4-0.6-0.5-0.9c-0.1-0.4-0.1-0.8-0.1-1.2V132h-1.8v-2.2h1.8V124.8z"/>
		<path fill="#FFFFFF" d="M89.9,129.8h3.3V140c0,0.2,0,0.3,0,0.6c0,0.2,0.1,0.4,0.1,0.6c0.1,0.2,0.2,0.3,0.4,0.4
			c0.2,0.1,0.4,0.2,0.7,0.2s0.6-0.1,0.7-0.2c0.2-0.1,0.3-0.3,0.4-0.5c0.1-0.2,0.1-0.4,0.1-0.6c0-0.2,0-0.4,0-0.6v-10H99V144h-3.3
			v-1.1c-0.4,0.3-0.8,0.6-1.3,0.9c-0.5,0.3-1.1,0.5-1.8,0.5c-0.2,0-0.5,0-0.7-0.1c-0.3-0.1-0.5-0.2-0.8-0.3
			c-0.3-0.2-0.5-0.4-0.7-0.7c-0.2-0.3-0.3-0.6-0.4-1.1c0-0.2-0.1-0.4-0.1-0.6c0-0.2,0-0.5,0-0.9V129.8z"/>
		<path fill="#FFFFFF" d="M107.2,124.5h3.3V144h-3.3l0-1.4c-0.1,0.2-0.3,0.4-0.4,0.6c-0.2,0.2-0.3,0.4-0.6,0.5
			c-0.2,0.2-0.5,0.3-0.7,0.4c-0.3,0.1-0.6,0.2-1,0.2c-0.7,0-1.2-0.2-1.7-0.5c-0.5-0.3-0.8-0.6-1-1c-0.2-0.3-0.3-0.8-0.3-1.2
			c0-0.5-0.1-1.1-0.1-1.8v-6.4c0-0.5,0-0.9,0.1-1.2c0.1-0.3,0.2-0.6,0.3-0.9c0.1-0.3,0.3-0.6,0.6-0.8c0.2-0.2,0.5-0.4,0.7-0.5
			c0.2-0.1,0.5-0.2,0.7-0.3c0.2-0.1,0.5-0.1,0.7-0.1c0.6,0,1.2,0.2,1.7,0.5c0.5,0.3,0.9,0.6,1.2,1V124.5z M104.5,139.9
			c0,0.2,0,0.3,0,0.5c0,0.2,0.1,0.4,0.1,0.5c0.1,0.2,0.2,0.3,0.4,0.4c0.2,0.1,0.4,0.2,0.7,0.2c0.3,0,0.6-0.1,0.8-0.2
			c0.2-0.1,0.3-0.3,0.4-0.5c0.1-0.2,0.1-0.4,0.2-0.6c0-0.2,0-0.3,0-0.5v-6.1c0-0.1,0-0.3,0-0.4c0-0.2-0.1-0.4-0.2-0.5
			c-0.1-0.2-0.2-0.3-0.4-0.5c-0.2-0.1-0.5-0.2-0.8-0.2c-0.3,0-0.6,0.1-0.7,0.2c-0.2,0.1-0.3,0.3-0.4,0.5c-0.1,0.2-0.1,0.4-0.1,0.6
			c0,0.2,0,0.4,0,0.6V139.9z"/>
		<path fill="#FFFFFF" d="M116,139.9c0,0.1,0,0.3,0,0.5c0,0.2,0.1,0.4,0.1,0.6c0.1,0.2,0.2,0.3,0.4,0.5c0.2,0.1,0.4,0.2,0.7,0.2
			c0.4,0,0.7-0.1,0.9-0.4c0.1-0.1,0.1-0.2,0.1-0.2c0-0.1,0.1-0.2,0.1-0.3c0-0.1,0-0.3,0-0.5c0-0.2,0-0.5,0-0.9h3.2v1.1
			c0,0.8-0.1,1.4-0.4,1.9c-0.3,0.5-0.6,0.9-1,1.2c-0.4,0.3-0.9,0.5-1.4,0.6c-0.5,0.1-1,0.2-1.5,0.2c-1.6,0-2.8-0.4-3.5-1.2
			c-0.7-0.8-1-1.9-1-3.3v-6c0-0.9,0.1-1.6,0.4-2.1c0.3-0.5,0.6-1,1.1-1.3c0.4-0.3,0.9-0.5,1.4-0.6c0.5-0.1,1-0.2,1.5-0.2
			c0.6,0,1.3,0.1,1.9,0.3c0.6,0.2,1.1,0.5,1.5,0.9c0.4,0.4,0.7,0.9,0.8,1.4c0.1,0.5,0.2,1,0.2,1.4v4H116V139.9z M116,135.3h2.3v-1.7
			c0-0.1,0-0.2,0-0.4c0-0.2-0.1-0.3-0.1-0.5c-0.1-0.2-0.2-0.3-0.3-0.4c-0.2-0.1-0.4-0.2-0.6-0.2c-0.4,0-0.7,0.1-0.9,0.4
			c-0.2,0.2-0.3,0.6-0.3,1V135.3z"/>
		<path fill="#FFFFFF" d="M123.8,129.8h3.3l-0.1,1c0.3-0.3,0.7-0.6,1.1-0.9c0.4-0.3,1-0.4,1.7-0.4c0.5,0,1,0.1,1.3,0.3
			c0.4,0.2,0.7,0.4,0.9,0.7c0.3,0.4,0.5,0.8,0.6,1.2c0.1,0.4,0.1,0.8,0.1,1.3v11h-3.3v-10.4c0-0.2,0-0.4,0-0.6
			c0-0.2-0.1-0.4-0.1-0.6c-0.1-0.2-0.2-0.3-0.3-0.4c-0.2-0.1-0.4-0.2-0.6-0.2c-0.3,0-0.6,0.1-0.8,0.2c-0.2,0.1-0.3,0.3-0.4,0.5
			c-0.1,0.2-0.1,0.4-0.2,0.6c0,0.2,0,0.4,0,0.6V144h-3.3V129.8z"/>
		<path fill="#FFFFFF" d="M136.1,124.8h3.3v5.1h2v2.2h-2v8c0,0.5,0.1,0.8,0.2,1.1c0.2,0.3,0.6,0.4,1.2,0.4c0.1,0,0.2,0,0.3,0
			c0.1,0,0.2,0,0.3,0v2.3c-0.1,0-0.3,0.1-0.5,0.1c-0.2,0-0.6,0.1-1.2,0.1c-0.8,0-1.4-0.1-1.9-0.2s-0.8-0.3-1.1-0.6
			c-0.2-0.3-0.4-0.6-0.5-0.9c-0.1-0.4-0.1-0.8-0.1-1.2V132h-1.8v-2.2h1.8V124.8z"/>
		<path fill="#FFFFFF" d="M142.3,139h3c0,0.5,0,1,0,1.3c0,0.4,0.1,0.7,0.1,0.9c0.1,0.2,0.2,0.4,0.4,0.5c0.2,0.1,0.4,0.2,0.8,0.2
			c0.4,0,0.7-0.1,0.9-0.3c0.2-0.2,0.4-0.6,0.4-1.2c0-0.4,0-0.7-0.1-1c-0.1-0.3-0.4-0.5-0.8-0.9l-2.7-1.9c-0.1-0.1-0.2-0.2-0.4-0.4
			c-0.2-0.2-0.4-0.3-0.5-0.5c-0.2-0.2-0.4-0.5-0.5-0.8c-0.2-0.4-0.2-0.9-0.2-1.7c0-0.7,0.1-1.3,0.3-1.8c0.2-0.5,0.5-0.9,0.9-1.1
			c0.4-0.3,0.8-0.5,1.3-0.6c0.5-0.1,1.1-0.2,1.7-0.2c1.4,0,2.5,0.3,3.1,0.9c0.6,0.6,0.9,1.4,0.9,2.4v1.5H148c0-0.8-0.1-1.4-0.2-1.9
			c-0.1-0.4-0.4-0.7-1-0.7c-0.1,0-0.2,0-0.4,0s-0.3,0.1-0.4,0.2c-0.1,0.1-0.2,0.2-0.3,0.4c-0.1,0.2-0.1,0.4-0.1,0.7
			c0,0.2,0,0.4,0.1,0.7c0.1,0.3,0.4,0.5,0.8,0.9l3,2.1c0.1,0,0.1,0.1,0.2,0.2c0.1,0.1,0.2,0.2,0.3,0.3c0.1,0.1,0.2,0.2,0.3,0.3
			c0.1,0.1,0.1,0.2,0.2,0.2c0.2,0.3,0.3,0.6,0.4,1c0.1,0.4,0.1,0.8,0.1,1.2c0,0.4,0,0.9-0.1,1.4c0,0.5-0.2,1-0.5,1.4
			s-0.7,0.8-1.3,1.1c-0.6,0.3-1.4,0.4-2.5,0.4c-0.9,0-1.6-0.1-2.1-0.3c-0.6-0.2-1-0.5-1.3-0.8s-0.5-0.7-0.6-1.2
			c-0.1-0.4-0.2-0.9-0.2-1.4V139z"/>
		<path fill="#FFFFFF" d="M159.5,139h3c0,0.5,0,1,0,1.3c0,0.4,0.1,0.7,0.1,0.9c0.1,0.2,0.2,0.4,0.4,0.5c0.2,0.1,0.4,0.2,0.8,0.2
			c0.4,0,0.7-0.1,0.9-0.3c0.2-0.2,0.4-0.6,0.4-1.2c0-0.4,0-0.7-0.1-1c-0.1-0.3-0.4-0.5-0.8-0.9l-2.7-1.9c-0.1-0.1-0.2-0.2-0.4-0.4
			c-0.2-0.2-0.4-0.3-0.5-0.5c-0.2-0.2-0.4-0.5-0.5-0.8c-0.2-0.4-0.2-0.9-0.2-1.7c0-0.7,0.1-1.3,0.3-1.8c0.2-0.5,0.5-0.9,0.9-1.1
			c0.4-0.3,0.8-0.5,1.3-0.6c0.5-0.1,1.1-0.2,1.7-0.2c1.4,0,2.5,0.3,3.1,0.9c0.6,0.6,0.9,1.4,0.9,2.4v1.5h-2.8c0-0.8-0.1-1.4-0.2-1.9
			c-0.1-0.4-0.4-0.7-1-0.7c-0.1,0-0.2,0-0.4,0s-0.3,0.1-0.4,0.2c-0.1,0.1-0.2,0.2-0.3,0.4c-0.1,0.2-0.1,0.4-0.1,0.7
			c0,0.2,0,0.4,0.1,0.7c0.1,0.3,0.4,0.5,0.8,0.9l3,2.1c0.1,0,0.1,0.1,0.2,0.2c0.1,0.1,0.2,0.2,0.3,0.3c0.1,0.1,0.2,0.2,0.3,0.3
			c0.1,0.1,0.1,0.2,0.2,0.2c0.2,0.3,0.3,0.6,0.4,1c0.1,0.4,0.1,0.8,0.1,1.2c0,0.4,0,0.9-0.1,1.4c0,0.5-0.2,1-0.5,1.4
			s-0.7,0.8-1.3,1.1c-0.6,0.3-1.4,0.4-2.5,0.4c-0.9,0-1.6-0.1-2.1-0.3c-0.6-0.2-1-0.5-1.3-0.8s-0.5-0.7-0.6-1.2
			c-0.1-0.4-0.2-0.9-0.2-1.4V139z"/>
		<path fill="#FFFFFF" d="M170.3,134.2c0-0.5,0-1,0-1.4c0-0.4,0-0.7,0.1-1c0-0.3,0.1-0.5,0.2-0.7c0.1-0.2,0.3-0.4,0.5-0.6
			c0.7-0.7,1.9-1.1,3.6-1.1c0.3,0,0.7,0,1.2,0.1c0.4,0.1,0.9,0.2,1.3,0.4c0.4,0.2,0.7,0.4,0.9,0.6c0.2,0.2,0.4,0.5,0.5,0.7
			c0.1,0.2,0.2,0.5,0.2,0.7c0,0.2,0.1,0.4,0.1,0.6v7.9c0,1,0,1.8,0.1,2.3c0.1,0.5,0.2,0.9,0.6,1.1H176c-0.2-0.3-0.4-0.7-0.4-1.2
			c-0.3,0.4-0.7,0.8-1.1,1.1c-0.4,0.3-1,0.5-1.7,0.5c-0.7,0-1.2-0.1-1.6-0.4c-0.4-0.3-0.7-0.6-0.8-1c-0.2-0.4-0.3-0.8-0.3-1.3
			c0-0.5,0-0.8,0-1.2c0-0.6,0-1.2,0-1.6c0-0.4,0.1-0.8,0.2-1.1c0.1-0.3,0.4-0.6,0.6-0.9c0.3-0.2,0.7-0.5,1.2-0.8l3.4-1.7
			c0-0.3,0-0.6,0-0.8s0-0.3,0-0.4c0-0.1,0-0.2,0-0.2c0,0,0-0.1,0-0.1c0-0.1,0-0.2,0-0.3c0-0.1-0.1-0.2-0.2-0.3
			c-0.1-0.1-0.2-0.2-0.3-0.2c-0.1-0.1-0.3-0.1-0.6-0.1c-0.3,0-0.5,0-0.6,0.1c-0.2,0.1-0.3,0.2-0.3,0.4c-0.1,0.2-0.1,0.4-0.1,0.7
			c0,0.3,0,0.7,0,1.1H170.3z M175.6,136.8l-1.6,1c-0.3,0.2-0.5,0.5-0.6,0.8c-0.1,0.3-0.1,0.8-0.1,1.5c0,0.6,0.1,0.9,0.2,1.2
			c0.1,0.2,0.3,0.4,0.6,0.4c0.2,0,0.4,0,0.6-0.1c0.2-0.1,0.6-0.3,1-0.7V136.8z"/>
		<path fill="#FFFFFF" d="M180.1,129.8h3.3l1.8,9.1l1.4-9.1h3.2l-3.2,15.1c-0.1,0.7-0.3,1.3-0.5,1.8c-0.2,0.5-0.4,0.9-0.7,1.2
			c-0.3,0.3-0.7,0.5-1.1,0.7s-1,0.2-1.6,0.2c-0.2,0-0.3,0-0.4,0c-0.1,0-0.3,0-0.4,0s-0.3,0-0.5-0.1c-0.2,0-0.5-0.1-0.8-0.1l0.5-2.6
			c0.3,0.1,0.6,0.1,0.9,0.2c0.3,0,0.4,0,0.4,0c0.3,0,0.6-0.1,0.8-0.3c0.2-0.2,0.4-0.5,0.5-0.7c0.1-0.3,0.2-0.5,0.2-0.8
			c0-0.2,0-0.4,0-0.4L180.1,129.8z"/>
		<path fill="#FFFFFF" d="M198.6,124.8h3.3v5.1h2v2.2h-2v8c0,0.5,0.1,0.8,0.2,1.1c0.2,0.3,0.6,0.4,1.2,0.4c0.1,0,0.2,0,0.3,0
			c0.1,0,0.2,0,0.3,0v2.3c-0.1,0-0.3,0.1-0.5,0.1c-0.2,0-0.6,0.1-1.2,0.1c-0.8,0-1.4-0.1-1.9-0.2s-0.8-0.3-1.1-0.6
			c-0.2-0.3-0.4-0.6-0.5-0.9c-0.1-0.4-0.1-0.8-0.1-1.2V132h-1.8v-2.2h1.8V124.8z"/>
		<path fill="#FFFFFF" d="M205.4,124.5h3.2v6.5c0.3-0.3,0.6-0.6,1.1-0.9c0.4-0.3,1-0.5,1.8-0.5c0.2,0,0.5,0,0.9,0.1
			c0.3,0.1,0.7,0.2,1,0.5c0.3,0.2,0.6,0.6,0.8,1c0.2,0.4,0.3,1,0.3,1.7V144h-3.3v-10c0-0.2,0-0.4,0-0.6c0-0.2-0.1-0.4-0.1-0.6
			c-0.1-0.2-0.2-0.3-0.4-0.4c-0.2-0.1-0.4-0.2-0.7-0.2c-0.4,0-0.8,0.1-1,0.4c-0.2,0.3-0.3,0.6-0.3,1.1V144h-3.3V124.5z"/>
		<path fill="#FFFFFF" d="M219.9,139.9c0,0.1,0,0.3,0,0.5s0.1,0.4,0.1,0.6c0.1,0.2,0.2,0.3,0.4,0.5c0.2,0.1,0.4,0.2,0.7,0.2
			c0.4,0,0.7-0.1,0.9-0.4c0.1-0.1,0.1-0.2,0.1-0.2c0-0.1,0.1-0.2,0.1-0.3c0-0.1,0-0.3,0-0.5c0-0.2,0-0.5,0-0.9h3.2v1.1
			c0,0.8-0.1,1.4-0.4,1.9c-0.3,0.5-0.6,0.9-1,1.2c-0.4,0.3-0.9,0.5-1.4,0.6c-0.5,0.1-1,0.2-1.5,0.2c-1.6,0-2.8-0.4-3.5-1.2
			c-0.7-0.8-1-1.9-1-3.3v-6c0-0.9,0.1-1.6,0.4-2.1c0.3-0.5,0.6-1,1.1-1.3c0.4-0.3,0.9-0.5,1.4-0.6c0.5-0.1,1-0.2,1.5-0.2
			c0.6,0,1.3,0.1,1.9,0.3c0.6,0.2,1.1,0.5,1.5,0.9c0.4,0.4,0.7,0.9,0.8,1.4c0.1,0.5,0.2,1,0.2,1.4v4h-5.6V139.9z M220,135.3h2.3
			v-1.7c0-0.1,0-0.2,0-0.4c0-0.2-0.1-0.3-0.1-0.5c-0.1-0.2-0.2-0.3-0.3-0.4c-0.2-0.1-0.4-0.2-0.6-0.2c-0.4,0-0.7,0.1-0.9,0.4
			c-0.2,0.2-0.3,0.6-0.3,1V135.3z"/>
		<path fill="#FFFFFF" d="M227.8,124.5h3.3v3.3h-3.3V124.5z M227.8,129.8h3.3V144h-3.3V129.8z"/>
		<path fill="#FFFFFF" d="M233.5,129.8h3.3l0,1.8c0.1-0.2,0.3-0.5,0.5-0.7c0.2-0.3,0.4-0.5,0.6-0.7c0.2-0.2,0.5-0.3,0.9-0.5
			c0.3-0.1,0.8-0.2,1.2-0.2v3.3c-0.1,0-0.3-0.1-0.5-0.1c-0.2-0.1-0.4-0.1-0.6-0.1c-0.5,0-0.9,0.1-1.2,0.3s-0.5,0.5-0.6,0.8
			c-0.1,0.3-0.2,0.6-0.2,1c0,0.4,0,0.7,0,0.9v8.3h-3.3V129.8z"/>
	</g>
	<g>
		<path fill="#FFFFFF" d="M16.7,152.9h6.1v12.6l6.5-12.6h6.1l-7.3,14l7.6,18.4h-6.5l-6.3-15.8v15.8h-6.1V152.9z"/>
		<path fill="#FFFFFF" d="M49.2,164.7v-4.1c0-0.6,0-1.2-0.1-1.6c-0.1-0.5-0.2-0.9-0.4-1.2c-0.2-0.3-0.5-0.6-0.9-0.7
			c-0.4-0.2-0.9-0.3-1.5-0.3c-0.6,0-1.1,0.1-1.5,0.3c-0.4,0.2-0.6,0.5-0.8,0.9c-0.2,0.4-0.3,0.7-0.3,1.1c0,0.4-0.1,0.8-0.1,1.2v17.4
			c0,0.5,0,1,0.1,1.4c0.1,0.4,0.2,0.8,0.4,1.2c0.2,0.3,0.5,0.6,0.9,0.8c0.4,0.2,0.9,0.3,1.6,0.3c0.7,0,1.2-0.1,1.6-0.3
			c0.4-0.2,0.7-0.5,0.8-0.9c0.2-0.4,0.3-0.8,0.3-1.3c0-0.5,0-1,0-1.4v-4.2h6v4.6c0,0.6,0,1.4-0.1,2.4c-0.1,0.9-0.4,1.9-1,2.7
			c-0.6,0.9-1.4,1.6-2.6,2.2c-1.2,0.6-2.9,0.9-5.1,0.9c-0.9,0-1.9-0.1-3.1-0.3c-1.2-0.2-2.3-0.6-3.2-1.2c-0.6-0.4-1.1-0.9-1.5-1.4
			c-0.4-0.5-0.6-1-0.8-1.6c-0.2-0.5-0.2-1.1-0.3-1.6c0-0.5,0-1,0-1.5v-17.6c0-1.3,0.1-2.4,0.3-3.4c0.2-0.9,0.6-1.8,1.4-2.6
			c0.6-0.6,1.2-1.1,2-1.5c0.7-0.3,1.4-0.6,2.1-0.8c0.7-0.2,1.3-0.3,1.9-0.3c0.6,0,1,0,1.3,0c2.2,0,3.9,0.3,5.1,0.8
			c1.2,0.6,2.1,1.2,2.6,2c0.6,0.8,0.9,1.6,1,2.5c0.1,0.9,0.1,1.6,0.1,2.2v5H49.2z"/>
		<path fill="#FFFFFF" d="M70.9,164.7v-4.1c0-0.6,0-1.2-0.1-1.6c-0.1-0.5-0.2-0.9-0.4-1.2c-0.2-0.3-0.5-0.6-0.9-0.7
			c-0.4-0.2-0.9-0.3-1.5-0.3c-0.6,0-1.1,0.1-1.5,0.3c-0.4,0.2-0.6,0.5-0.8,0.9c-0.2,0.4-0.3,0.7-0.3,1.1c0,0.4-0.1,0.8-0.1,1.2v17.4
			c0,0.5,0,1,0.1,1.4c0.1,0.4,0.2,0.8,0.4,1.2c0.2,0.3,0.5,0.6,0.9,0.8c0.4,0.2,0.9,0.3,1.6,0.3c0.7,0,1.2-0.1,1.6-0.3
			c0.4-0.2,0.7-0.5,0.8-0.9c0.2-0.4,0.3-0.8,0.3-1.3c0-0.5,0-1,0-1.4v-4.2h6v4.6c0,0.6,0,1.4-0.1,2.4c-0.1,0.9-0.4,1.9-1,2.7
			c-0.6,0.9-1.4,1.6-2.6,2.2c-1.2,0.6-2.9,0.9-5.1,0.9c-0.9,0-1.9-0.1-3.1-0.3c-1.2-0.2-2.3-0.6-3.2-1.2c-0.6-0.4-1.1-0.9-1.5-1.4
			c-0.4-0.5-0.6-1-0.8-1.6c-0.2-0.5-0.2-1.1-0.3-1.6c0-0.5,0-1,0-1.5v-17.6c0-1.3,0.1-2.4,0.3-3.4c0.2-0.9,0.6-1.8,1.4-2.6
			c0.6-0.6,1.2-1.1,2-1.5c0.7-0.3,1.4-0.6,2.1-0.8c0.7-0.2,1.3-0.3,1.9-0.3s1,0,1.3,0c2.2,0,3.9,0.3,5.1,0.8c1.2,0.6,2.1,1.2,2.6,2
			c0.6,0.8,0.9,1.6,1,2.5c0.1,0.9,0.1,1.6,0.1,2.2v5H70.9z"/>
		<path fill="#FFFFFF" d="M91.9,152.8h15.7v5h-9.7v7.6h9.1v4.9h-9.1v10H108v5H91.9V152.8z"/>
		<path fill="#FFFFFF" d="M113,152.9h9.6c0.5,0,1,0,1.5,0c0.5,0,1,0.1,1.6,0.2c0.5,0.1,1.1,0.3,1.6,0.6c0.5,0.3,1,0.7,1.5,1.1
			c0.9,0.9,1.4,1.9,1.6,3c0.2,1.1,0.3,2.3,0.3,3.6v15.2c0,1.1-0.1,2.2-0.2,3.3c-0.2,1-0.5,2-1.1,2.8c-0.6,0.8-1.4,1.5-2.5,2
			c-1.1,0.5-2.6,0.7-4.5,0.7H113V152.9z M119,180.6c0.7,0,1.3,0,1.7,0c0.4,0,0.8,0,1,0c0.3,0,0.5,0,0.6,0c0.2,0,0.3,0,0.4-0.1
			c0.5-0.1,1-0.3,1.3-0.5c0.3-0.2,0.5-0.5,0.6-0.9c0.1-0.3,0.2-0.7,0.2-1c0-0.4,0-0.7,0-1v-16.2c0-0.7-0.1-1.3-0.2-1.7
			c-0.1-0.4-0.3-0.8-0.6-1c-0.3-0.2-0.7-0.4-1.1-0.5c-0.5-0.1-1-0.1-1.6-0.1H119V180.6z"/>
		<path fill="#FFFFFF" d="M135.6,152.9h6V177c0,0.4,0,0.9,0,1.3c0,0.5,0.1,0.9,0.3,1.3c0.2,0.4,0.5,0.7,0.8,0.9
			c0.4,0.2,0.9,0.4,1.7,0.4c0.7,0,1.2-0.1,1.6-0.4c0.4-0.2,0.7-0.6,0.8-0.9c0.2-0.4,0.3-0.8,0.3-1.3c0-0.5,0-0.9,0-1.4v-24.1h6V178
			c0,1.1-0.1,2.1-0.4,3.1c-0.3,1-0.7,1.8-1.4,2.5c-0.7,0.7-1.6,1.3-2.7,1.7c-1.1,0.4-2.6,0.6-4.4,0.6c-2.8,0-5-0.7-6.5-2
			c-1.5-1.4-2.2-3.4-2.2-6.1V152.9z"/>
		<path fill="#FFFFFF" d="M169.8,164.7v-4.1c0-0.6,0-1.2-0.1-1.6c-0.1-0.5-0.2-0.9-0.4-1.2c-0.2-0.3-0.5-0.6-0.9-0.7
			c-0.4-0.2-0.9-0.3-1.5-0.3s-1.1,0.1-1.5,0.3c-0.4,0.2-0.6,0.5-0.8,0.9c-0.2,0.4-0.3,0.7-0.3,1.1c0,0.4-0.1,0.8-0.1,1.2v17.4
			c0,0.5,0,1,0.1,1.4c0.1,0.4,0.2,0.8,0.4,1.2c0.2,0.3,0.5,0.6,0.9,0.8c0.4,0.2,0.9,0.3,1.6,0.3c0.7,0,1.2-0.1,1.6-0.3
			c0.4-0.2,0.7-0.5,0.8-0.9c0.2-0.4,0.3-0.8,0.3-1.3c0-0.5,0-1,0-1.4v-4.2h6v4.6c0,0.6,0,1.4-0.1,2.4c-0.1,0.9-0.4,1.9-1,2.7
			c-0.6,0.9-1.4,1.6-2.6,2.2c-1.2,0.6-2.9,0.9-5.1,0.9c-0.9,0-1.9-0.1-3.1-0.3c-1.2-0.2-2.3-0.6-3.2-1.2c-0.6-0.4-1.1-0.9-1.5-1.4
			c-0.4-0.5-0.6-1-0.8-1.6c-0.2-0.5-0.2-1.1-0.3-1.6c0-0.5,0-1,0-1.5v-17.6c0-1.3,0.1-2.4,0.3-3.4s0.6-1.8,1.4-2.6
			c0.6-0.6,1.2-1.1,2-1.5c0.7-0.3,1.4-0.6,2.1-0.8c0.7-0.2,1.3-0.3,1.9-0.3c0.6,0,1,0,1.3,0c2.2,0,3.9,0.3,5.1,0.8
			c1.2,0.6,2.1,1.2,2.6,2c0.6,0.8,0.9,1.6,1,2.5c0.1,0.9,0.1,1.6,0.1,2.2v5H169.8z"/>
		<path fill="#FFFFFF" d="M184.8,152.9h6.8l6.1,32.4h-6.1l-0.8-5.3h-5.5l-0.9,5.3h-6L184.8,152.9z M186.1,175h4.1l-2-13.9L186.1,175
			z"/>
		<path fill="#FFFFFF" d="M197.3,152.9h17.9v4.7h-6v27.7h-6v-27.7h-6V152.9z"/>
		<path fill="#FFFFFF" d="M218.7,152.9h6v32.4h-6V152.9z"/>
		<path fill="#FFFFFF" d="M247.5,178.4c0,1.2-0.1,2.2-0.4,3.1c-0.3,0.9-0.7,1.6-1.4,2.3c-0.5,0.5-1,0.9-1.6,1.2
			c-0.6,0.3-1.2,0.5-1.8,0.7c-0.6,0.2-1.3,0.3-1.9,0.3c-0.6,0-1.2,0.1-1.8,0.1c-1.8,0-3.3-0.2-4.5-0.6c-1.2-0.4-2.1-1-2.8-1.7
			c-0.7-0.7-1.2-1.5-1.4-2.4c-0.3-0.9-0.4-1.9-0.4-2.9v-18.1c0-0.3,0-0.7,0-1.2c0-0.5,0.1-0.9,0.2-1.4c0.1-0.5,0.3-1,0.5-1.5
			c0.2-0.5,0.5-1,1-1.4c0.6-0.7,1.5-1.3,2.8-1.7c1.2-0.5,2.8-0.7,4.6-0.7c1.5,0,2.8,0.2,3.9,0.6c1.1,0.4,2.1,0.9,2.8,1.5
			c0.8,0.7,1.4,1.5,1.7,2.4c0.3,0.9,0.5,2.2,0.5,3.7V178.4z M241.6,160.8c0-0.4,0-0.9,0-1.4c0-0.5-0.1-0.9-0.3-1.3
			c-0.2-0.4-0.5-0.7-0.9-1c-0.4-0.3-0.9-0.4-1.7-0.4c-0.8,0-1.4,0.1-1.8,0.4c-0.4,0.3-0.7,0.6-0.9,1.1c-0.2,0.4-0.3,0.9-0.3,1.4
			c0,0.5,0,1,0,1.4v16.4c0,0.5,0,0.9,0.1,1.4c0,0.5,0.2,0.9,0.3,1.3c0.2,0.4,0.5,0.7,0.9,0.9c0.4,0.2,1,0.4,1.7,0.4s1.3-0.1,1.7-0.4
			c0.4-0.2,0.7-0.6,0.9-0.9c0.2-0.4,0.3-0.8,0.3-1.2c0-0.4,0-0.9,0-1.3V160.8z"/>
		<path fill="#FFFFFF" d="M270.9,185.3h-7.5l-5.8-24.3l0.6,24.3h-5.6v-32.4h7.7l5.8,23.8l-0.6-23.8h5.5V185.3z"/>
	</g>
	<g>
		<path fill="#FFFFFF" d="M20.9,208.8h3c-0.1,0.5-0.2,1-0.3,1.3c-0.1,0.4-0.1,0.7-0.1,0.9c0,0.2,0.1,0.4,0.3,0.5
			c0.1,0.1,0.4,0.2,0.7,0.2c0.4,0,0.7-0.1,1-0.3c0.3-0.2,0.5-0.6,0.6-1.2c0.1-0.4,0.1-0.7,0.1-1c0-0.3-0.2-0.5-0.6-0.9l-2.3-1.9
			c-0.1-0.1-0.2-0.2-0.4-0.4c-0.2-0.2-0.3-0.3-0.4-0.5c-0.1-0.2-0.2-0.5-0.3-0.8c-0.1-0.4,0-0.9,0.1-1.7c0.2-0.7,0.4-1.3,0.8-1.8
			c0.3-0.5,0.7-0.9,1.2-1.1c0.4-0.3,0.9-0.5,1.5-0.6c0.5-0.1,1.1-0.2,1.7-0.2c1.4,0,2.4,0.3,2.9,0.9c0.5,0.6,0.6,1.4,0.4,2.4
			l-0.4,1.5h-2.8c0.2-0.8,0.3-1.4,0.3-1.9c0-0.4-0.3-0.7-0.9-0.7c-0.1,0-0.2,0-0.4,0s-0.3,0.1-0.4,0.2c-0.1,0.1-0.3,0.2-0.4,0.4
			c-0.1,0.2-0.2,0.4-0.3,0.7c0,0.2-0.1,0.4,0,0.7c0,0.3,0.2,0.5,0.6,0.9l2.5,2.1c0,0,0.1,0.1,0.2,0.2c0.1,0.1,0.1,0.2,0.2,0.3
			c0.1,0.1,0.1,0.2,0.2,0.3c0.1,0.1,0.1,0.2,0.1,0.2c0.1,0.3,0.2,0.6,0.2,1c0,0.4-0.1,0.8-0.2,1.2c-0.1,0.4-0.2,0.9-0.4,1.4
			c-0.2,0.5-0.4,1-0.8,1.4c-0.4,0.4-0.9,0.8-1.5,1.1c-0.7,0.3-1.5,0.4-2.6,0.4c-0.9,0-1.6-0.1-2.1-0.3c-0.5-0.2-0.9-0.5-1.1-0.8
			c-0.2-0.3-0.4-0.7-0.4-1.2c0-0.4,0-0.9,0.2-1.4L20.9,208.8z"/>
		<path fill="#FFFFFF" d="M39.6,199.7h3.2l-0.7,9.3l3.8-9.3h2.7L48,209l3.8-9.3h3.2l-6.5,14.1h-3.1l0.6-8.4l-3.6,8.4h-3.1
			L39.6,199.7z"/>
		<path fill="#FFFFFF" d="M55.2,203.5c0.1-0.4,0.3-0.9,0.5-1.4c0.2-0.5,0.5-0.9,0.9-1.3c0.4-0.4,0.9-0.7,1.6-1
			c0.7-0.3,1.5-0.4,2.4-0.4c0.5,0,1,0.1,1.5,0.2c0.5,0.1,0.9,0.3,1.3,0.6c0.5,0.4,0.7,0.9,0.8,1.5c0,0.6,0,1.1-0.1,1.7l-1.6,6.8
			c-0.3,1.3-0.9,2.2-1.8,2.9s-2.1,1-3.6,1c-1.1,0-1.9-0.2-2.4-0.5c-0.5-0.3-0.8-0.8-1-1.2s-0.2-0.9-0.1-1.4c0.1-0.5,0.1-0.8,0.2-1.1
			L55.2,203.5z M56.8,210.3c0,0.1,0,0.2-0.1,0.4c0,0.2,0,0.3,0,0.5c0,0.2,0.1,0.3,0.3,0.4c0.1,0.1,0.3,0.2,0.6,0.2
			c0.3,0,0.5-0.1,0.7-0.2c0.2-0.1,0.3-0.2,0.4-0.4c0.1-0.1,0.2-0.3,0.2-0.5c0.1-0.2,0.1-0.3,0.1-0.5l1.7-7.2c0-0.2,0.1-0.4,0.1-0.6
			c0-0.2,0-0.4,0-0.6c0-0.2-0.1-0.3-0.3-0.4c-0.1-0.1-0.3-0.2-0.6-0.2c-0.3,0-0.5,0.1-0.7,0.2c-0.2,0.1-0.4,0.3-0.5,0.4
			c-0.1,0.2-0.2,0.4-0.3,0.6c-0.1,0.2-0.1,0.4-0.1,0.6L56.8,210.3z"/>
		<path fill="#FFFFFF" d="M67.1,199.7h3.3l-0.4,1.8c0.2-0.2,0.4-0.5,0.6-0.7c0.2-0.3,0.5-0.5,0.8-0.7c0.3-0.2,0.6-0.3,1-0.5
			c0.4-0.1,0.8-0.2,1.3-0.2l-0.8,3.3c-0.1,0-0.3-0.1-0.4-0.1c-0.2-0.1-0.4-0.1-0.6-0.1c-0.5,0-1,0.1-1.3,0.3
			c-0.3,0.2-0.6,0.5-0.8,0.8c-0.2,0.3-0.4,0.6-0.5,1c-0.1,0.4-0.2,0.7-0.2,0.9l-1.9,8.3h-3.3L67.1,199.7z"/>
		<path fill="#FFFFFF" d="M78.2,194.6h3.3l-1.2,5.1h2l-0.5,2.2h-2l-1.9,8c-0.1,0.5-0.1,0.8,0,1.1c0.1,0.3,0.5,0.4,1.1,0.4
			c0.1,0,0.2,0,0.3,0c0.1,0,0.2,0,0.3,0l-0.5,2.3c-0.1,0-0.3,0.1-0.6,0.1c-0.3,0-0.7,0.1-1.2,0.1c-0.8,0-1.4-0.1-1.8-0.2
			c-0.4-0.1-0.7-0.3-0.9-0.6c-0.2-0.3-0.3-0.6-0.3-0.9c0-0.4,0.1-0.8,0.2-1.2l2.1-9.1h-1.8l0.5-2.2H77L78.2,194.6z"/>
		<path fill="#FFFFFF" d="M86.1,194.3h3.2l-1.5,6.5c0.3-0.3,0.8-0.6,1.3-0.9c0.5-0.3,1.2-0.5,1.9-0.5c0.2,0,0.5,0,0.8,0.1
			c0.3,0.1,0.6,0.2,0.9,0.5c0.3,0.2,0.4,0.6,0.6,1c0.1,0.4,0.1,1-0.1,1.7l-2.6,11.1h-3.3l2.4-10c0-0.2,0.1-0.4,0.1-0.6
			c0-0.2,0-0.4,0-0.6c0-0.2-0.1-0.3-0.3-0.4c-0.1-0.1-0.4-0.2-0.7-0.2c-0.4,0-0.8,0.1-1.1,0.4c-0.3,0.3-0.5,0.6-0.6,1.1l-2.4,10.3
			h-3.3L86.1,194.3z"/>
		<path fill="#FFFFFF" d="M102.1,199.7h3.2l-0.7,9.3l3.8-9.3h2.7l-0.7,9.3l3.8-9.3h3.2l-6.5,14.1h-3.1l0.6-8.4l-3.6,8.4h-3.1
			L102.1,199.7z"/>
		<path fill="#FFFFFF" d="M120,194.3h3.2l-1.5,6.5c0.3-0.3,0.8-0.6,1.3-0.9c0.5-0.3,1.2-0.5,1.9-0.5c0.2,0,0.5,0,0.8,0.1
			c0.3,0.1,0.6,0.2,0.9,0.5c0.3,0.2,0.4,0.6,0.6,1c0.1,0.4,0.1,1-0.1,1.7l-2.6,11.1h-3.3l2.4-10c0-0.2,0.1-0.4,0.1-0.6
			c0-0.2,0-0.4,0-0.6c0-0.2-0.1-0.3-0.3-0.4c-0.1-0.1-0.4-0.2-0.7-0.2c-0.4,0-0.8,0.1-1.1,0.4c-0.3,0.3-0.5,0.6-0.6,1.1l-2.4,10.3
			h-3.3L120,194.3z"/>
		<path fill="#FFFFFF" d="M129.2,204c0.1-0.5,0.2-1,0.3-1.4c0.1-0.4,0.2-0.7,0.3-1c0.1-0.3,0.2-0.5,0.4-0.7c0.1-0.2,0.3-0.4,0.6-0.6
			c0.9-0.7,2.2-1.1,3.8-1.1c0.3,0,0.7,0,1.2,0.1c0.4,0.1,0.8,0.2,1.2,0.4c0.3,0.2,0.6,0.4,0.7,0.6c0.2,0.2,0.3,0.5,0.3,0.7
			c0.1,0.2,0.1,0.5,0.1,0.7c0,0.2,0,0.4-0.1,0.6l-1.8,7.9c-0.2,1-0.4,1.8-0.5,2.3c-0.1,0.5,0,0.9,0.3,1.1h-3.4
			c-0.2-0.3-0.2-0.7-0.1-1.2c-0.4,0.4-0.9,0.8-1.4,1.1c-0.5,0.3-1.1,0.5-1.8,0.5c-0.7,0-1.2-0.1-1.5-0.4c-0.3-0.3-0.5-0.6-0.6-1
			c-0.1-0.4-0.1-0.8,0-1.3c0.1-0.5,0.2-0.8,0.2-1.2c0.1-0.6,0.3-1.2,0.4-1.6c0.1-0.4,0.3-0.8,0.5-1.1c0.2-0.3,0.5-0.6,0.8-0.9
			c0.4-0.2,0.8-0.5,1.4-0.8l3.8-1.7c0.1-0.3,0.1-0.6,0.2-0.8s0.1-0.3,0.1-0.4c0-0.1,0-0.2,0-0.2c0,0,0-0.1,0-0.1c0-0.1,0-0.2,0-0.3
			c0-0.1,0-0.2-0.1-0.3c-0.1-0.1-0.2-0.2-0.3-0.2c-0.1-0.1-0.3-0.1-0.6-0.1c-0.3,0-0.5,0-0.7,0.1c-0.2,0.1-0.3,0.2-0.4,0.4
			c-0.1,0.2-0.2,0.4-0.3,0.7c-0.1,0.3-0.2,0.7-0.3,1.1H129.2z M133.8,206.7l-1.8,1c-0.4,0.2-0.7,0.5-0.8,0.8
			c-0.2,0.3-0.3,0.8-0.5,1.5c-0.1,0.6-0.2,0.9-0.1,1.2c0.1,0.2,0.2,0.4,0.5,0.4c0.2,0,0.4,0,0.6-0.1c0.3-0.1,0.6-0.3,1.1-0.7
			L133.8,206.7z"/>
		<path fill="#FFFFFF" d="M143.1,194.6h3.3l-1.2,5.1h2l-0.5,2.2h-2l-1.9,8c-0.1,0.5-0.1,0.8,0,1.1c0.1,0.3,0.5,0.4,1.1,0.4
			c0.1,0,0.2,0,0.3,0c0.1,0,0.2,0,0.3,0l-0.5,2.3c-0.1,0-0.3,0.1-0.6,0.1c-0.3,0-0.7,0.1-1.2,0.1c-0.8,0-1.4-0.1-1.8-0.2
			s-0.7-0.3-0.9-0.6c-0.2-0.3-0.3-0.6-0.3-0.9c0-0.4,0.1-0.8,0.2-1.2l2.1-9.1h-1.8l0.5-2.2h1.8L143.1,194.6z"/>
		<path fill="#FFFFFF" d="M157.4,194.6h3.3l-1.2,5.1h2l-0.5,2.2h-2l-1.9,8c-0.1,0.5-0.1,0.8,0,1.1c0.1,0.3,0.5,0.4,1.1,0.4
			c0.1,0,0.2,0,0.3,0c0.1,0,0.2,0,0.3,0l-0.5,2.3c-0.1,0-0.3,0.1-0.6,0.1c-0.3,0-0.7,0.1-1.2,0.1c-0.8,0-1.4-0.1-1.8-0.2
			s-0.7-0.3-0.9-0.6c-0.2-0.3-0.3-0.6-0.3-0.9c0-0.4,0.1-0.8,0.2-1.2l2.1-9.1H154l0.5-2.2h1.8L157.4,194.6z"/>
		<path fill="#FFFFFF" d="M164.2,194.3h3.2l-1.5,6.5c0.3-0.3,0.8-0.6,1.3-0.9c0.5-0.3,1.2-0.5,1.9-0.5c0.2,0,0.5,0,0.8,0.1
			c0.3,0.1,0.6,0.2,0.9,0.5c0.3,0.2,0.4,0.6,0.6,1c0.1,0.4,0.1,1-0.1,1.7l-2.6,11.1h-3.3l2.4-10c0-0.2,0.1-0.4,0.1-0.6
			c0-0.2,0-0.4,0-0.6c0-0.2-0.1-0.3-0.3-0.4c-0.1-0.1-0.4-0.2-0.7-0.2c-0.4,0-0.8,0.1-1.1,0.4c-0.3,0.3-0.5,0.6-0.6,1.1l-2.4,10.3
			h-3.3L164.2,194.3z"/>
		<path fill="#FFFFFF" d="M175.2,209.8c0,0.1-0.1,0.3-0.1,0.5s0,0.4,0,0.6c0,0.2,0.1,0.3,0.3,0.5c0.1,0.1,0.3,0.2,0.7,0.2
			c0.4,0,0.7-0.1,1-0.4c0.1-0.1,0.1-0.2,0.2-0.2c0.1-0.1,0.1-0.2,0.2-0.3c0-0.1,0.1-0.3,0.2-0.5c0.1-0.2,0.1-0.5,0.2-0.9h3.2
			l-0.3,1.1c-0.2,0.8-0.5,1.4-0.8,1.9c-0.4,0.5-0.8,0.9-1.3,1.2c-0.5,0.3-1,0.5-1.5,0.6c-0.5,0.1-1.1,0.2-1.6,0.2
			c-1.6,0-2.7-0.4-3.2-1.2c-0.5-0.8-0.6-1.9-0.3-3.3l1.4-6c0.2-0.9,0.5-1.6,0.9-2.1c0.4-0.5,0.9-1,1.4-1.3c0.5-0.3,1-0.5,1.6-0.6
			c0.6-0.1,1.1-0.2,1.6-0.2c0.6,0,1.2,0.1,1.8,0.3c0.6,0.2,1,0.5,1.3,0.9c0.3,0.4,0.5,0.9,0.5,1.4c0,0.5-0.1,1-0.2,1.4l-0.9,4h-5.6
			L175.2,209.8z M176.3,205.1h2.3l0.4-1.7c0-0.1,0-0.2,0.1-0.4c0-0.2,0-0.3,0-0.5c0-0.2-0.1-0.3-0.2-0.4c-0.1-0.1-0.3-0.2-0.6-0.2
			c-0.4,0-0.8,0.1-1,0.4c-0.3,0.2-0.4,0.6-0.5,1L176.3,205.1z"/>
		<path fill="#FFFFFF" d="M184.2,199.7h3.3l-0.3,9.1l3.5-9.1h3.2l-6.8,15.1c-0.3,0.7-0.6,1.3-0.9,1.8c-0.3,0.5-0.6,0.9-1,1.2
			c-0.4,0.3-0.8,0.5-1.2,0.7s-1,0.2-1.6,0.2c-0.2,0-0.3,0-0.4,0c-0.1,0-0.3,0-0.4,0s-0.3,0-0.5-0.1c-0.2,0-0.4-0.1-0.8-0.1l1.1-2.6
			c0.3,0.1,0.6,0.1,0.8,0.2c0.3,0,0.4,0,0.4,0c0.3,0,0.7-0.1,0.9-0.3c0.3-0.2,0.5-0.5,0.6-0.7c0.2-0.3,0.3-0.5,0.4-0.8
			c0.1-0.2,0.1-0.4,0.1-0.4L184.2,199.7z"/>
		<path fill="#FFFFFF" d="M202,199.7h3.3l-0.3,1.1c0.2-0.1,0.4-0.3,0.6-0.4c0.2-0.2,0.5-0.3,0.8-0.4c0.3-0.1,0.6-0.3,0.9-0.3
			c0.3-0.1,0.7-0.1,1-0.1c0.4,0,0.8,0.1,1.1,0.2c0.3,0.2,0.6,0.4,0.8,0.7c0.2,0.3,0.3,0.7,0.3,1.2c0,0.5-0.1,1-0.2,1.6l-1.8,7.5
			c-0.1,0.5-0.3,1-0.5,1.3s-0.4,0.6-0.5,0.8c-0.4,0.5-0.8,0.8-1.3,1c-0.5,0.2-1,0.3-1.5,0.3c-0.3,0-0.7,0-0.9-0.1
			c-0.3-0.1-0.5-0.2-0.7-0.3c-0.2-0.1-0.4-0.3-0.6-0.5c-0.2-0.2-0.3-0.4-0.5-0.5l-1.4,6h-3.3L202,199.7z M202.9,209.8
			c-0.1,0.5-0.1,0.9,0,1.1c0.1,0.3,0.4,0.4,0.9,0.4c0.3,0,0.5-0.1,0.7-0.2c0.2-0.1,0.4-0.2,0.5-0.4c0.1-0.1,0.2-0.3,0.3-0.5
			c0.1-0.2,0.1-0.3,0.2-0.5l1.5-6.5c0.1-0.5,0.1-0.9-0.1-1.1c-0.1-0.3-0.4-0.4-0.9-0.4c-0.3,0-0.6,0.1-0.8,0.2
			c-0.2,0.1-0.4,0.3-0.5,0.5c-0.1,0.2-0.2,0.4-0.3,0.5c-0.1,0.2-0.1,0.3-0.1,0.4L202.9,209.8z"/>
		<path fill="#FFFFFF" d="M212.4,204c0.1-0.5,0.2-1,0.3-1.4c0.1-0.4,0.2-0.7,0.3-1c0.1-0.3,0.2-0.5,0.4-0.7c0.1-0.2,0.3-0.4,0.6-0.6
			c0.9-0.7,2.2-1.1,3.8-1.1c0.3,0,0.7,0,1.2,0.1c0.4,0.1,0.8,0.2,1.2,0.4c0.3,0.2,0.6,0.4,0.7,0.6c0.2,0.2,0.3,0.5,0.3,0.7
			c0.1,0.2,0.1,0.5,0.1,0.7c0,0.2,0,0.4-0.1,0.6l-1.8,7.9c-0.2,1-0.4,1.8-0.5,2.3c-0.1,0.5,0,0.9,0.3,1.1h-3.4
			c-0.2-0.3-0.2-0.7-0.1-1.2c-0.4,0.4-0.9,0.8-1.4,1.1c-0.5,0.3-1.1,0.5-1.8,0.5c-0.7,0-1.2-0.1-1.5-0.4c-0.3-0.3-0.5-0.6-0.6-1
			c-0.1-0.4-0.1-0.8,0-1.3c0.1-0.5,0.2-0.8,0.2-1.2c0.1-0.6,0.3-1.2,0.4-1.6c0.1-0.4,0.3-0.8,0.5-1.1c0.2-0.3,0.5-0.6,0.8-0.9
			c0.4-0.2,0.8-0.5,1.4-0.8l3.8-1.7c0.1-0.3,0.1-0.6,0.2-0.8s0.1-0.3,0.1-0.4c0-0.1,0-0.2,0-0.2c0,0,0-0.1,0-0.1c0-0.1,0-0.2,0-0.3
			c0-0.1,0-0.2-0.1-0.3c-0.1-0.1-0.2-0.2-0.3-0.2c-0.1-0.1-0.3-0.1-0.6-0.1c-0.3,0-0.5,0-0.7,0.1c-0.2,0.1-0.3,0.2-0.4,0.4
			c-0.1,0.2-0.2,0.4-0.3,0.7c-0.1,0.3-0.2,0.7-0.3,1.1H212.4z M217.1,206.7l-1.8,1c-0.4,0.2-0.7,0.5-0.8,0.8
			c-0.2,0.3-0.3,0.8-0.5,1.5c-0.1,0.6-0.2,0.9-0.1,1.2c0.1,0.2,0.2,0.4,0.5,0.4c0.2,0,0.4,0,0.6-0.1c0.3-0.1,0.6-0.3,1.1-0.7
			L217.1,206.7z"/>
		<path fill="#FFFFFF" d="M225.7,194.3h3.3l-0.8,3.3h-3.3L225.7,194.3z M224.4,199.7h3.3l-3.3,14.1h-3.3L224.4,199.7z"/>
		<path fill="#FFFFFF" d="M19,194.3h3.3l-0.8,3.3h-3.3L19,194.3z M17.7,199.7H21l-3.3,14.1h-3.3L17.7,199.7z"/>
		<path fill="#FFFFFF" d="M237.2,194.3h3.3l-4.6,19.5h-3.3l0.4-1.4c-0.2,0.2-0.4,0.4-0.6,0.6c-0.2,0.2-0.4,0.4-0.7,0.5
			c-0.3,0.2-0.5,0.3-0.8,0.4c-0.3,0.1-0.7,0.2-1,0.2c-0.7,0-1.2-0.2-1.6-0.5c-0.4-0.3-0.7-0.6-0.8-1c-0.1-0.3-0.1-0.8-0.1-1.2
			c0.1-0.5,0.2-1.1,0.3-1.8l1.5-6.4c0.1-0.5,0.2-0.9,0.4-1.2c0.1-0.3,0.3-0.6,0.5-0.9c0.2-0.3,0.5-0.6,0.7-0.8
			c0.3-0.2,0.6-0.4,0.8-0.5c0.3-0.1,0.5-0.2,0.8-0.3c0.3-0.1,0.5-0.1,0.7-0.1c0.6,0,1.2,0.2,1.5,0.5c0.4,0.3,0.7,0.6,1,1
			L237.2,194.3z M230.9,209.7c0,0.2-0.1,0.3-0.1,0.5c0,0.2,0,0.4,0,0.5c0,0.2,0.1,0.3,0.3,0.4c0.2,0.1,0.4,0.2,0.7,0.2
			c0.3,0,0.6-0.1,0.8-0.2c0.2-0.1,0.4-0.3,0.5-0.5c0.1-0.2,0.2-0.4,0.3-0.6c0.1-0.2,0.1-0.3,0.1-0.5l1.4-6.1c0-0.1,0.1-0.3,0.1-0.4
			c0-0.2,0-0.4,0-0.5c0-0.2-0.1-0.3-0.3-0.5c-0.2-0.1-0.4-0.2-0.8-0.2c-0.3,0-0.6,0.1-0.8,0.2c-0.2,0.1-0.4,0.3-0.5,0.5
			c-0.1,0.2-0.2,0.4-0.3,0.6c-0.1,0.2-0.1,0.4-0.1,0.6L230.9,209.7z"/>
		<path fill="#FFFFFF" d="M252.4,199.7h1.4l-0.5,2.2h-1.5l-2.8,11.9h-3.3l2.8-11.9h-1.5l0.5-2.2h1.5l0.6-2.5
			c0.2-0.7,0.4-1.3,0.8-1.7c0.4-0.4,0.7-0.7,1.2-0.9c0.4-0.2,0.8-0.3,1.3-0.3s0.8,0,1.1,0c0.2,0,0.4,0,0.6,0c0.2,0,0.4,0,0.6,0
			l-0.6,2.7c-0.1,0-0.3,0-0.4,0c-0.2,0-0.3,0-0.3,0c-0.2,0-0.4,0-0.5,0.1c-0.1,0.1-0.2,0.2-0.3,0.3c-0.1,0.1-0.1,0.2-0.2,0.3
			c0,0.1-0.1,0.2-0.1,0.3L252.4,199.7z"/>
		<path fill="#FFFFFF" d="M254.4,203.5c0.1-0.4,0.3-0.9,0.5-1.4c0.2-0.5,0.5-0.9,0.9-1.3c0.4-0.4,0.9-0.7,1.6-1
			c0.7-0.3,1.5-0.4,2.4-0.4c0.5,0,1,0.1,1.5,0.2c0.5,0.1,0.9,0.3,1.3,0.6c0.5,0.4,0.8,0.9,0.8,1.5c0,0.6,0,1.1-0.1,1.7l-1.6,6.8
			c-0.3,1.3-0.9,2.2-1.8,2.9s-2.1,1-3.6,1c-1.1,0-1.9-0.2-2.4-0.5c-0.5-0.3-0.8-0.8-1-1.2c-0.2-0.5-0.2-0.9-0.1-1.4
			c0.1-0.5,0.1-0.8,0.2-1.1L254.4,203.5z M256,210.3c0,0.1,0,0.2-0.1,0.4c0,0.2,0,0.3,0,0.5c0,0.2,0.1,0.3,0.3,0.4
			c0.1,0.1,0.3,0.2,0.6,0.2c0.3,0,0.5-0.1,0.7-0.2c0.2-0.1,0.3-0.2,0.4-0.4c0.1-0.1,0.2-0.3,0.2-0.5c0.1-0.2,0.1-0.3,0.1-0.5
			l1.7-7.2c0-0.2,0.1-0.4,0.1-0.6c0-0.2,0-0.4,0-0.6c0-0.2-0.1-0.3-0.3-0.4c-0.1-0.1-0.3-0.2-0.5-0.2c-0.3,0-0.5,0.1-0.7,0.2
			c-0.2,0.1-0.4,0.3-0.5,0.4c-0.1,0.2-0.2,0.4-0.3,0.6c-0.1,0.2-0.1,0.4-0.1,0.6L256,210.3z"/>
		<path fill="#FFFFFF" d="M266.3,199.7h3.3l-0.4,1.8c0.2-0.2,0.4-0.5,0.6-0.7c0.2-0.3,0.5-0.5,0.8-0.7c0.3-0.2,0.6-0.3,1-0.5
			c0.4-0.1,0.8-0.2,1.3-0.2l-0.8,3.3c-0.1,0-0.3-0.1-0.4-0.1c-0.2-0.1-0.4-0.1-0.6-0.1c-0.5,0-1,0.1-1.3,0.3s-0.6,0.5-0.8,0.8
			c-0.2,0.3-0.4,0.6-0.5,1c-0.1,0.4-0.2,0.7-0.2,0.9l-1.9,8.3H263L266.3,199.7z"/>
	</g>
	<g>
		<path fill="#FFFFFF" d="M19.7,88.2h11.8c0,1.2,0,2.1,0,2.8c0,0.7,0,1.3,0,1.7c0,0.4,0,0.8,0.1,1.1c0,0.3,0.1,0.5,0.1,0.7
			c0,0.4,0.1,0.8,0.2,1.3c0.1,0.5,0.3,1,0.7,1.6c0.4,0.5,0.9,1,1.6,1.3c0.7,0.4,1.6,0.6,2.9,0.6c1.4,0,2.6-0.2,3.3-0.7
			c0.8-0.4,1.4-1,1.7-1.8c0.3-0.7,0.5-1.6,0.6-2.6c0.1-1,0.1-2,0.1-3V77.2c-1.4,1.2-2.9,2.2-4.4,3.1c-1.5,0.9-3.5,1.3-6,1.3
			c-4.4,0-7.6-1.2-9.6-3.6c-2-2.4-3-5.5-3-9.3V50.3c0-6,1.4-10.5,4.3-13.2c2.8-2.8,7.4-4.2,13.6-4.2c3.3,0,6,0.4,8.2,1.3
			c2.2,0.9,3.9,2.1,5.2,3.6c1.3,1.5,2.2,3.2,2.7,5.2c0.5,2,0.8,4,0.8,6.2v43.1c0,3.4-0.5,6.2-1.6,8.4c-1.1,2.2-2.4,3.9-4.1,5.1
			c-1.7,1.2-3.6,2.1-5.8,2.6c-2.2,0.5-4.3,0.7-6.5,0.7c-2.9,0-5.5-0.4-7.6-1.1c-2.1-0.7-3.8-1.8-5.2-3.1c-1.4-1.3-2.4-2.9-3-4.8
			c-0.7-1.9-1-3.9-1-6V88.2z M31.5,63.3c0,0.9,0,1.8,0.1,2.7c0.1,0.9,0.3,1.8,0.6,2.6c0.3,0.8,0.8,1.4,1.5,2
			c0.7,0.5,1.8,0.8,3.1,0.8c1.4,0,2.6-0.3,3.4-0.8c0.8-0.5,1.4-1.2,1.7-2c0.3-0.8,0.5-1.6,0.6-2.6c0.1-0.9,0.1-1.8,0.1-2.7V49.6
			c0-0.7-0.1-1.4-0.2-2.2c-0.1-0.8-0.3-1.6-0.7-2.3c-0.4-0.7-0.9-1.3-1.6-1.7c-0.7-0.4-1.7-0.7-2.9-0.7c-1.4,0-2.6,0.3-3.3,0.8
			c-0.8,0.5-1.4,1.2-1.7,2c-0.3,0.8-0.5,1.6-0.6,2.5c-0.1,0.9-0.1,1.7-0.1,2.4V63.3z"/>
		<path fill="#FFFFFF" d="M62.9,33.9h31.8v11.2H72.4l-0.2,15.3c1.2-0.9,2.5-1.8,4.1-2.6c1.5-0.9,3.5-1.3,6-1.3
			c2.3,0,4.2,0.4,5.7,1.1c1.5,0.7,2.7,1.6,3.5,2.5c1.9,1.9,3.1,3.9,3.5,6.1c0.4,2.2,0.6,4.3,0.6,6.3v18.4c0,1.6-0.1,3.4-0.4,5.5
			c-0.3,2.1-1,4.1-2.1,6c-1.1,1.9-2.8,3.5-5.1,4.8c-2.3,1.3-5.5,2-9.5,2c-0.7,0-1.5,0-2.6-0.1c-1-0.1-2.1-0.2-3.3-0.5
			c-1.2-0.3-2.3-0.6-3.5-1.1c-1.2-0.5-2.2-1.1-3.2-2c-1.2-1-2.1-2-2.7-3.2c-0.7-1.2-1.1-2.4-1.5-3.5c-0.3-1.2-0.6-2.3-0.7-3.4
			c-0.1-1.1-0.2-2-0.2-2.6v-7.7h11.7v7.6c0,0.4,0,0.9,0.1,1.6c0.1,0.7,0.3,1.4,0.6,2.1c0.3,0.7,0.8,1.3,1.5,1.8
			c0.7,0.5,1.8,0.8,3.1,0.8c0.5,0,1.1-0.1,1.8-0.2c0.7-0.1,1.3-0.4,1.8-0.8c0.5-0.4,1-1.1,1.4-2c0.4-0.9,0.6-2.1,0.6-3.7V74.6
			c0-0.8,0-1.7,0-2.7c0-1-0.2-1.9-0.6-2.7c-0.3-0.9-0.9-1.6-1.6-2.1s-1.8-0.8-3.1-0.8c-2,0-3.5,0.7-4.6,2.1
			c-1.1,1.4-1.8,3.2-2.1,5.5h-9.4L62.9,33.9z"/>
		<path fill="#FFFFFF" d="M104.6,40.1c0-0.6,0-1.3,0.1-2.3c0.1-0.9,0.4-1.9,0.9-2.8c0.5-0.9,1.3-1.8,2.4-2.4c1.1-0.7,2.7-1,4.8-1
			s3.7,0.3,4.9,1c1.2,0.7,2,1.4,2.5,2.3c0.5,0.9,0.8,1.8,0.9,2.7c0.1,0.9,0.1,1.6,0.1,2.1v17.1c0,2.7-0.7,4.6-2.2,5.9
			c-1.5,1.3-3.5,1.9-6,1.9c-2.1,0-3.8-0.3-4.9-0.9c-1.1-0.6-2-1.3-2.5-2.2c-0.5-0.9-0.8-1.8-0.9-2.7c-0.1-0.9-0.1-1.6-0.1-2.2V40.1z
			 M110.2,57c0,0.3,0,0.6,0.1,0.9c0,0.3,0.2,0.6,0.3,0.9c0.2,0.3,0.5,0.5,0.8,0.7c0.4,0.2,0.9,0.3,1.5,0.3c0.7,0,1.2-0.1,1.6-0.3
			s0.6-0.5,0.8-0.8c0.2-0.3,0.3-0.7,0.3-1c0-0.4,0-0.7,0-1V39.4c0-1-0.1-1.8-0.3-2.4c-0.2-0.7-1-1-2.4-1c-0.7,0-1.2,0.1-1.6,0.3
			c-0.3,0.2-0.6,0.5-0.8,0.8c-0.2,0.3-0.3,0.7-0.3,1.1c0,0.4,0,0.8,0,1.2V57z M134.5,28.4l4.4,1.6l-18.4,53.5l-4.4-1.6L134.5,28.4z
			 M133.6,56.3c0-0.5,0-1.3,0.1-2.3c0.1-1,0.4-1.9,0.9-2.8c0.5-0.9,1.3-1.7,2.4-2.4c1.1-0.7,2.7-1,4.8-1c2.1,0,3.7,0.3,4.9,1
			c1.2,0.7,2,1.4,2.5,2.3c0.5,0.9,0.8,1.8,0.9,2.7c0.1,0.9,0.1,1.6,0.1,2.1v17.1c0,2.7-0.7,4.6-2.2,5.9c-1.5,1.3-3.5,1.9-6,1.9
			c-2.1,0-3.8-0.3-4.9-0.9c-1.1-0.6-2-1.3-2.5-2.2c-0.5-0.9-0.8-1.8-0.9-2.7c-0.1-0.9-0.1-1.6-0.1-2.2V56.3z M139.2,73.3
			c0,0.3,0,0.6,0.1,0.9c0,0.3,0.2,0.6,0.3,0.9c0.2,0.3,0.5,0.5,0.8,0.7c0.4,0.2,0.9,0.3,1.5,0.3c0.7,0,1.2-0.1,1.6-0.3
			c0.3-0.2,0.6-0.5,0.8-0.8c0.2-0.3,0.3-0.7,0.3-1c0-0.4,0-0.7,0-1V55.7c0-1-0.1-1.8-0.3-2.4c-0.2-0.7-1-1-2.4-1
			c-0.7,0-1.2,0.1-1.6,0.3c-0.3,0.2-0.6,0.5-0.8,0.8c-0.2,0.3-0.3,0.7-0.3,1.1c0,0.4,0,0.8,0,1.2V73.3z"/>
	</g>
</g>
</svg>
