<svg enable-background="new 138 45 24 24" height="24" viewBox="138 45 24 24" width="24" xmlns="http://www.w3.org/2000/svg"><g fill="#c61f48"><path d="m148.425 54.942.265 4.494c.015.254.225.453.48.453h1.66c.255 0 .465-.199.48-.453l.264-4.494c.017-.276-.202-.51-.48-.51h-2.188c-.277 0-.497.234-.481.51z"/><circle cx="150" cy="62.136" r="1.685"/><path d="m151.668 47.691c-.739-1.282-2.595-1.284-3.336 0l-9.626 16.691c-.739 1.281.187 2.888 1.668 2.888h19.253c1.479 0 2.408-1.604 1.667-2.888zm-11.088 17.292 9.212-15.967c.092-.16.325-.16.417 0l9.211 15.967c.094.161-.023.361-.208.361h-18.424c-.185.001-.301-.199-.208-.361z" stroke="#c61f48" stroke-linecap="round" stroke-linejoin="round" stroke-miterlimit="10" stroke-width=".5"/></g></svg>