<?xml version="1.0" encoding="utf-8"?>
<!-- Generator: Adobe Illustrator 16.0.4, SVG Export Plug-In . SVG Version: 6.00 Build 0)  -->
<!DOCTYPE svg PUBLIC "-//W3C//DTD SVG 1.1//EN" "http://www.w3.org/Graphics/SVG/1.1/DTD/svg11.dtd">
<svg version="1.1" id="Layer_1" xmlns="http://www.w3.org/2000/svg" xmlns:xlink="http://www.w3.org/1999/xlink" x="0px" y="0px"
	 width="24px" height="24px" viewBox="138 45 24 24" enable-background="new 138 45 24 24" xml:space="preserve">
<path fill="#C61F48" d="M148.425,54.942l0.265,4.494c0.015,0.254,0.225,0.453,0.48,0.453h1.66c0.255,0,0.465-0.199,0.48-0.453
	l0.264-4.494c0.017-0.276-0.202-0.51-0.48-0.51h-2.188C148.629,54.432,148.409,54.666,148.425,54.942z"/>
<circle fill="#C61F48" cx="150" cy="62.136" r="1.685"/>
<path fill="#C61F48" stroke="#C61F48" stroke-width="0.5" stroke-linecap="round" stroke-linejoin="round" stroke-miterlimit="10" d="
	M151.668,47.691c-0.739-1.282-2.595-1.284-3.336,0l-9.626,16.691c-0.739,1.281,0.187,2.888,1.668,2.888h19.253
	c1.479,0,2.408-1.604,1.667-2.888L151.668,47.691L151.668,47.691z M140.58,64.983l9.212-15.967c0.092-0.16,0.325-0.16,0.417,0
	l9.211,15.967c0.094,0.161-0.023,0.361-0.208,0.361h-18.424C140.603,65.345,140.487,65.145,140.58,64.983L140.58,64.983z"/>
</svg>
