<?xml version="1.0" encoding="utf-8"?>
<!-- Generator: Adobe Illustrator 16.0.4, SVG Export Plug-In . SVG Version: 6.00 Build 0)  -->
<!DOCTYPE svg PUBLIC "-//W3C//DTD SVG 1.1//EN" "http://www.w3.org/Graphics/SVG/1.1/DTD/svg11.dtd">
<svg version="1.1" id="Layer_1" xmlns="http://www.w3.org/2000/svg" xmlns:xlink="http://www.w3.org/1999/xlink" x="0px" y="0px"
	 width="24px" height="24px" viewBox="0 0 24 24" enable-background="new 0 0 24 24" xml:space="preserve">
<g>
	<path fill="#C61F48" d="M12,23.711c-6.457,0-11.71-5.253-11.71-11.71C0.29,5.543,5.543,0.29,12,0.29s11.711,5.253,11.711,11.711
		C23.711,18.458,18.457,23.711,12,23.711z M5.409,19.479c1.807,1.594,4.223,2.506,6.649,2.506c2.424,0,4.686-0.872,6.548-2.521
		c-0.754-0.797-1.383-1.704-1.87-2.699l-0.05-0.104l1.46-0.715l0.051,0.104c0.364,0.747,0.879,1.472,1.573,2.209
		c2.553-3.156,3.353-8.425-0.004-12.552c-0.698,0.749-1.214,1.474-1.573,2.215l-0.051,0.104l-1.459-0.709l0.05-0.103
		c0.474-0.98,1.1-1.889,1.862-2.702c-1.829-1.614-4.152-2.501-6.556-2.501c-2.444,0-4.792,0.889-6.625,2.506
		c0.759,0.808,1.386,1.714,1.864,2.696l0.05,0.103L5.869,8.028L5.818,7.926C5.451,7.183,4.936,6.461,4.244,5.721
		c-2.08,2.59-3.736,7.965,0,12.559c0.701-0.75,1.217-1.476,1.574-2.215l0.05-0.104l1.46,0.708l-0.051,0.104
		C6.792,17.766,6.164,18.676,5.409,19.479z M16.164,15.378c-0.713-2.187-0.715-4.588-0.004-6.76l0.036-0.109l1.54,0.5l-0.035,0.109
		c-0.601,1.854-0.6,3.899,0.005,5.761l0.035,0.109L16.2,15.487L16.164,15.378z M6.262,14.988l0.036-0.109
		c0.604-1.855,0.602-3.902-0.004-5.761L6.258,9.008l1.542-0.5l0.036,0.109c0.712,2.182,0.714,4.583,0.005,6.76l-0.036,0.109
		L6.262,14.988z"/>
	<path fill="#C61F48" d="M12,0.404c6.396,0,11.596,5.199,11.596,11.597c0,6.395-5.2,11.595-11.596,11.595
		c-6.396,0-11.596-5.2-11.596-11.595C0.404,5.604,5.604,0.404,12,0.404 M5.921,7.875c-0.43-0.869-1.019-1.63-1.684-2.328
		c-2.118,2.549-4.002,8.099,0,12.907c0.665-0.697,1.259-1.46,1.684-2.339l1.253,0.607c-0.5,1.023-1.15,1.95-1.931,2.764
		c1.829,1.653,4.285,2.614,6.814,2.614c2.319,0,4.7-0.809,6.713-2.631c-0.785-0.811-1.431-1.731-1.932-2.756l1.254-0.613
		c0.426,0.875,1.016,1.638,1.683,2.333c2.549-3.062,3.648-8.518-0.004-12.9c-0.668,0.702-1.258,1.463-1.683,2.338l-1.253-0.609
		C17.33,6.24,17.98,5.318,18.76,4.504c-1.965-1.773-4.356-2.609-6.721-2.609c-2.466,0-4.902,0.91-6.791,2.615
		c0.781,0.813,1.43,1.735,1.926,2.753L5.921,7.875 M16.27,8.653l1.322,0.429c-0.57,1.759-0.649,3.816,0.005,5.832l-1.323,0.429
		C15.512,13.007,15.618,10.645,16.27,8.653 M7.727,8.653c0.762,2.336,0.654,4.694,0.005,6.689l-1.324-0.429
		c0.571-1.756,0.655-3.811-0.004-5.832L7.727,8.653 M12,0.174c-6.521,0-11.826,5.306-11.826,11.827
		c0,6.521,5.305,11.824,11.826,11.824s11.825-5.304,11.825-11.824C23.825,5.48,18.521,0.174,12,0.174L12,0.174z M5.579,4.525
		c1.799-1.55,4.084-2.4,6.46-2.4c2.336,0,4.596,0.849,6.391,2.395c-0.734,0.799-1.339,1.688-1.801,2.643l-0.1,0.207l0.206,0.1
		l1.253,0.609l0.207,0.101l0.101-0.207c0.339-0.698,0.818-1.384,1.464-2.089c3.186,4.019,2.439,9.097,0.003,12.201
		c-0.641-0.695-1.12-1.379-1.463-2.084l-0.102-0.207l-0.206,0.102l-1.254,0.613l-0.207,0.101l0.102,0.206
		c0.474,0.971,1.081,1.857,1.808,2.641c-1.824,1.581-4.026,2.415-6.383,2.415c-2.358,0-4.708-0.872-6.484-2.399
		c0.727-0.79,1.334-1.68,1.807-2.647l0.101-0.207l-0.208-0.101l-1.253-0.607l-0.207-0.101l-0.1,0.208
		c-0.337,0.696-0.817,1.382-1.464,2.089c-3.537-4.457-2-9.629,0.001-12.207c0.638,0.697,1.118,1.379,1.464,2.079l0.102,0.205
		l0.206-0.101L7.275,7.47l0.206-0.101L7.381,7.163C6.915,6.206,6.309,5.319,5.579,4.525L5.579,4.525z M16.122,8.364l-0.071,0.218
		c-0.718,2.195-0.717,4.622,0.004,6.832l0.071,0.218l0.219-0.07l1.323-0.429l0.219-0.071l-0.071-0.219
		c-0.597-1.839-0.599-3.859-0.005-5.69l0.071-0.219l-0.219-0.071l-1.322-0.429L16.122,8.364L16.122,8.364z M7.874,8.364L7.656,8.435
		L6.332,8.863L6.113,8.934l0.071,0.219c0.599,1.836,0.601,3.857,0.004,5.689l-0.071,0.219l0.219,0.071l1.324,0.429l0.218,0.07
		l0.071-0.218c0.716-2.201,0.714-4.627-0.005-6.832L7.874,8.364L7.874,8.364z"/>
</g>
</svg>
