<svg enable-background="new 0 0 24 24" height="24" viewBox="0 0 24 24" width="24" xmlns="http://www.w3.org/2000/svg"><g fill="#c61f48"><path d="m12 23.711c-6.457 0-11.71-5.253-11.71-11.71 0-6.458 5.253-11.711 11.71-11.711s11.711 5.253 11.711 11.711c0 6.457-5.254 11.71-11.711 11.71zm-6.591-4.232c1.807 1.594 4.223 2.506 6.649 2.506 2.424 0 4.686-.872 6.548-2.521-.754-.797-1.383-1.704-1.87-2.699l-.05-.104 1.46-.715.051.104c.364.747.879 1.472 1.573 2.209 2.553-3.156 3.353-8.425-.004-12.552-.698.749-1.214 1.474-1.573 2.215l-.051.104-1.459-.709.05-.103c.474-.98 1.1-1.889 1.862-2.702-1.829-1.614-4.152-2.501-6.556-2.501-2.444 0-4.792.889-6.625 2.506.759.808 1.386 1.714 1.864 2.696l.05.103-1.459.712-.051-.102c-.367-.743-.882-1.465-1.574-2.205-2.08 2.59-3.736 7.965 0 12.559.701-.75 1.217-1.476 1.574-2.215l.05-.104 1.46.708-.051.104c-.485.993-1.113 1.903-1.868 2.706zm10.755-4.101c-.713-2.187-.715-4.588-.004-6.76l.036-.109 1.54.5-.035.109c-.601 1.854-.6 3.899.005 5.761l.035.109-1.541.499zm-9.902-.39.036-.109c.604-1.855.602-3.902-.004-5.761l-.036-.11 1.542-.5.036.109c.712 2.182.714 4.583.005 6.76l-.036.109z"/><path d="m12 .404c6.396 0 11.596 5.199 11.596 11.597 0 6.395-5.2 11.595-11.596 11.595s-11.596-5.2-11.596-11.595c0-6.397 5.2-11.597 11.596-11.597m-6.079 7.471c-.43-.869-1.019-1.63-1.684-2.328-2.118 2.549-4.002 8.099 0 12.907.665-.697 1.259-1.46 1.684-2.339l1.253.607c-.5 1.023-1.15 1.95-1.931 2.764 1.829 1.653 4.285 2.614 6.814 2.614 2.319 0 4.7-.809 6.713-2.631-.785-.811-1.431-1.731-1.932-2.756l1.254-.613c.426.875 1.016 1.638 1.683 2.333 2.549-3.062 3.648-8.518-.004-12.9-.668.702-1.258 1.463-1.683 2.338l-1.253-.609c.495-1.022 1.145-1.944 1.925-2.758-1.965-1.773-4.356-2.609-6.721-2.609-2.466 0-4.902.91-6.791 2.615.781.813 1.43 1.735 1.926 2.753zm10.349.778 1.322.429c-.57 1.759-.649 3.816.005 5.832l-1.323.429c-.762-2.336-.656-4.698-.004-6.69m-8.543 0c.762 2.336.654 4.694.005 6.689l-1.324-.429c.571-1.756.655-3.811-.004-5.832zm4.273-8.479c-6.521 0-11.826 5.306-11.826 11.827s5.305 11.824 11.826 11.824 11.825-5.304 11.825-11.824c0-6.521-5.304-11.827-11.825-11.827zm-6.421 4.351c1.799-1.55 4.084-2.4 6.46-2.4 2.336 0 4.596.849 6.391 2.395-.734.799-1.339 1.688-1.801 2.643l-.1.207.206.1 1.253.609.207.101.101-.207c.339-.698.818-1.384 1.464-2.089 3.186 4.019 2.439 9.097.003 12.201-.641-.695-1.12-1.379-1.463-2.084l-.102-.207-.206.102-1.254.613-.207.101.102.206c.474.971 1.081 1.857 1.808 2.641-1.824 1.581-4.026 2.415-6.383 2.415-2.358 0-4.708-.872-6.484-2.399.727-.79 1.334-1.68 1.807-2.647l.101-.207-.208-.101-1.253-.607-.207-.101-.1.208c-.337.696-.817 1.382-1.464 2.089-3.537-4.457-2-9.629.001-12.207.638.697 1.118 1.379 1.464 2.079l.102.205.206-.101 1.252-.613.206-.101-.1-.206c-.466-.957-1.072-1.844-1.802-2.638zm10.543 3.839-.071.218c-.718 2.195-.717 4.622.004 6.832l.071.218.219-.07 1.323-.429.219-.071-.071-.219c-.597-1.839-.599-3.859-.005-5.69l.071-.219-.219-.071-1.322-.429zm-8.248 0-.218.071-1.324.428-.219.071.071.219c.599 1.836.601 3.857.004 5.689l-.071.219.219.071 1.324.429.218.07.071-.218c.716-2.201.714-4.627-.005-6.832z"/></g></svg>