<svg enable-background="new 0 0 24 24" height="24" viewBox="0 0 24 24" width="24" xmlns="http://www.w3.org/2000/svg"><path d="m1.941 12.449c2.409-.335 4.663-1.372 6.479-2.978l2.526 2.526-6.583 6.577c-1.517-1.763-2.323-3.927-2.422-6.125zm10.513-10.512c2.194.098 4.36.906 6.124 2.428l-6.578 6.576-2.524-2.524c1.61-1.816 2.647-4.071 2.978-6.48zm-7.031 2.423c1.602-1.382 3.534-2.18 5.523-2.391-.323 1.998-1.2 3.865-2.526 5.388zm1.942 4.057c-1.522 1.325-3.389 2.203-5.386 2.525.205-1.988 1.008-3.921 2.39-5.522zm14.704 3.262c-2.362.354-4.574 1.386-6.362 2.964l-2.651-2.646 6.577-6.578c1.555 1.798 2.366 4.019 2.436 6.26zm-5.284 4.048c1.484-1.288 3.281-2.147 5.21-2.488-.239 1.923-1.023 3.786-2.362 5.341zm-1.055 1.055 2.847 2.847c-1.553 1.339-3.416 2.129-5.34 2.362.346-1.928 1.205-3.724 2.493-5.209zm-4.047 5.284c-2.24-.07-4.462-.883-6.26-2.433l6.577-6.58 2.651 2.65c-1.582 1.788-2.613 4-2.968 6.363zm8.505-18.257c-4.514-4.514-11.866-4.514-16.38 0-4.513 4.514-4.513 11.867 0 16.38 4.519 4.519 11.867 4.515 16.38 0 4.519-4.518 4.519-11.866 0-16.38z" fill="#c61f48" stroke="#c61f48" stroke-miterlimit="10" stroke-width=".2603"/></svg>