<?xml version="1.0" encoding="utf-8"?>
<!-- Generator: Adobe Illustrator 16.0.4, SVG Export Plug-In . SVG Version: 6.00 Build 0)  -->
<!DOCTYPE svg PUBLIC "-//W3C//DTD SVG 1.1//EN" "http://www.w3.org/Graphics/SVG/1.1/DTD/svg11.dtd">
<svg version="1.1" id="Layer_1" xmlns="http://www.w3.org/2000/svg" xmlns:xlink="http://www.w3.org/1999/xlink" x="0px" y="0px"
	 width="24px" height="24px" viewBox="0 0 24 24" enable-background="new 0 0 24 24" xml:space="preserve">
<path fill="#C61F48" stroke="#C61F48" stroke-width="0.2603" stroke-miterlimit="10" d="M1.941,12.449
	c2.409-0.335,4.663-1.372,6.479-2.978l2.526,2.526l-6.583,6.577C2.846,16.811,2.04,14.647,1.941,12.449L1.941,12.449z M12.454,1.937
	c2.194,0.098,4.36,0.906,6.124,2.428L12,10.941L9.476,8.417C11.086,6.601,12.123,4.346,12.454,1.937L12.454,1.937z M5.423,4.36
	c1.602-1.382,3.534-2.18,5.523-2.391c-0.323,1.998-1.2,3.865-2.526,5.388L5.423,4.36z M7.365,8.417
	c-1.522,1.325-3.389,2.203-5.386,2.525c0.205-1.988,1.008-3.921,2.39-5.522L7.365,8.417z M22.069,11.679
	c-2.362,0.354-4.574,1.386-6.362,2.964l-2.651-2.646l6.577-6.578C21.188,7.217,21.999,9.438,22.069,11.679L22.069,11.679z
	 M16.785,15.727c1.484-1.288,3.281-2.147,5.21-2.488c-0.239,1.923-1.023,3.786-2.362,5.341L16.785,15.727z M15.73,16.782
	l2.847,2.847c-1.553,1.339-3.416,2.129-5.34,2.362C13.583,20.063,14.442,18.267,15.73,16.782z M11.683,22.066
	c-2.24-0.07-4.462-0.883-6.26-2.433L12,13.053l2.651,2.65C13.069,17.491,12.038,19.703,11.683,22.066L11.683,22.066z M20.188,3.809
	c-4.514-4.514-11.866-4.514-16.38,0c-4.513,4.514-4.513,11.867,0,16.38c4.519,4.519,11.867,4.515,16.38,0
	C24.707,15.671,24.707,8.323,20.188,3.809L20.188,3.809z"/>
</svg>
