<svg enable-background="new 0 0 24 24" height="24" viewBox="0 0 24 24" width="24" xmlns="http://www.w3.org/2000/svg"><path d="m20.044 21.255.021-13.64-16.11-.023-.021 13.639c-.001.148.122.273.275.273l15.562.025c.148.001.273-.125.273-.274zm2.22-15.832-.024 16.109c-.002 1.215-.987 2.194-2.199 2.193l-16.11-.026c-1.213-.001-2.196-.982-2.194-2.196l.023-16.11c.001-1.213.987-2.194 2.2-2.192l2.197.004.003-2.383c.002-.301.25-.549.55-.549l1.832.003c.302 0 .548.248.547.55l-.003 2.383 5.857.009.005-2.383c.001-.302.247-.549.55-.549l1.831.002c.302.001.55.248.549.551l-.003 2.381 2.195.003c1.213.005 2.195.986 2.194 2.2zm-4.411 11.892.004-1.831c0-.304-.247-.547-.55-.547l-1.83-.004c-.304 0-.55.244-.55.548l-.002 1.828c-.001.306.245.552.547.552l1.831.003c.302 0 .55-.245.55-.549zm-8.789-.014.004-1.828c0-.305-.246-.55-.549-.55l-1.83-.003c-.302 0-.549.245-.55.548l-.002 1.829c-.001.305.246.55.548.55l1.831.004c.302 0 .548-.246.548-.55zm4.393.009.004-1.831c0-.303-.245-.548-.548-.55l-1.829-.003c-.304 0-.552.244-.552.548l-.003 1.83c0 .306.247.551.549.552l1.83.002c.305 0 .549-.243.549-.548zm4.403-4.388.003-1.831c0-.302-.247-.55-.549-.55l-1.831-.003c-.302 0-.55.247-.55.549l-.004 1.833c-.001.302.246.551.549.551l1.83.001c.303-.001.552-.248.552-.55zm-4.395-.006.003-1.831c.001-.303-.245-.551-.548-.551l-1.831-.002c-.302 0-.55.246-.55.549l-.003 1.831c0 .303.246.55.548.552l1.832.001c.303.001.548-.246.549-.549zm-4.943.542-1.831-.003c-.303 0-.549-.248-.549-.55l.003-1.831c0-.302.248-.55.55-.549l1.831.002c.302.001.547.248.547.551l-.002 1.832c0 .301-.247.548-.549.548z" fill="#c61f48"/></svg>