<?xml version="1.0" encoding="utf-8"?>
<!-- Generator: Adobe Illustrator 16.0.4, SVG Export Plug-In . SVG Version: 6.00 Build 0)  -->
<!DOCTYPE svg PUBLIC "-//W3C//DTD SVG 1.1//EN" "http://www.w3.org/Graphics/SVG/1.1/DTD/svg11.dtd">
<svg version="1.1" id="Layer_1" xmlns="http://www.w3.org/2000/svg" xmlns:xlink="http://www.w3.org/1999/xlink" x="0px" y="0px"
	 width="40.167px" height="40.167px" viewBox="0 0 40.167 40.167" enable-background="new 0 0 40.167 40.167" xml:space="preserve">
<g>
	<ellipse opacity="0.75" fill="#231F20" cx="20.084" cy="20.083" rx="19.058" ry="19.041"/>
	<path fill="#FFFFFF" d="M18.292,20.654l9.85,9.919c0.314,0.316,0.824,0.316,1.141,0l1.328-1.326c0.314-0.314,0.314-0.824,0-1.141
		l-7.951-8.023l7.951-8.023c0.314-0.314,0.314-0.824,0-1.139l-1.328-1.328c-0.316-0.314-0.826-0.314-1.141,0l-9.85,9.92
		C17.976,19.83,17.976,20.339,18.292,20.654z M7.556,19.513l9.85-9.92c0.316-0.314,0.825-0.314,1.141,0l1.328,1.328
		c0.316,0.314,0.316,0.824,0,1.139l-7.949,8.023l7.949,8.023c0.316,0.316,0.316,0.826,0,1.141l-1.328,1.326
		c-0.315,0.316-0.824,0.316-1.141,0l-9.85-9.919C7.242,20.339,7.242,19.83,7.556,19.513L7.556,19.513z"/>
</g>
</svg>
