<?xml version="1.0" encoding="utf-8"?>
<!-- Generator: Adobe Illustrator 16.0.4, SVG Export Plug-In . SVG Version: 6.00 Build 0)  -->
<!DOCTYPE svg PUBLIC "-//W3C//DTD SVG 1.1//EN" "http://www.w3.org/Graphics/SVG/1.1/DTD/svg11.dtd">
<svg version="1.1" id="Layer_1" xmlns="http://www.w3.org/2000/svg" xmlns:xlink="http://www.w3.org/1999/xlink" x="0px" y="0px"
	 width="40.167px" height="40.167px" viewBox="0 0 40.167 40.167" enable-background="new 0 0 40.167 40.167" xml:space="preserve">
<g>
	<ellipse opacity="0.75" fill="#231F20" cx="20.084" cy="20.083" rx="19.058" ry="19.041"/>
	<path fill="#FFFFFF" d="M21.876,19.515l-9.85-9.922c-0.314-0.314-0.825-0.314-1.141,0l-1.328,1.328
		c-0.315,0.314-0.315,0.824,0,1.139l7.95,8.023l-7.95,8.025c-0.315,0.314-0.315,0.824,0,1.139l1.328,1.328
		c0.315,0.314,0.826,0.314,1.141,0l9.85-9.921C22.19,20.339,22.19,19.83,21.876,19.515z M32.61,20.654l-9.85,9.921
		c-0.316,0.314-0.824,0.314-1.141,0l-1.329-1.328c-0.315-0.314-0.315-0.824,0-1.139l7.95-8.025l-7.95-8.023
		c-0.315-0.314-0.315-0.824,0-1.139l1.329-1.328c0.316-0.314,0.824-0.314,1.141,0l9.85,9.922
		C32.925,19.83,32.925,20.339,32.61,20.654L32.61,20.654z"/>
</g>
</svg>
