<?xml version="1.0" encoding="utf-8"?>
<!-- Generator: Adobe Illustrator 24.0.3, SVG Export Plug-In . SVG Version: 6.00 Build 0)  -->
<svg version="1.1" id="Layer_1" xmlns="http://www.w3.org/2000/svg" xmlns:xlink="http://www.w3.org/1999/xlink" x="0px" y="0px"
	 viewBox="0 0 25 25" style="enable-background:new 0 0 25 25;" xml:space="preserve">
<style type="text/css">
	.st0{opacity:0.75;fill:#231F20;enable-background:new    ;}
	.st1{fill:#FFFFFF;}
</style>
<g>
	<ellipse class="st0" cx="12.5" cy="12.5" rx="12.06" ry="12.05"/>
	<path class="st1" d="M11.37,12.86l6.23,6.28c0.2,0.2,0.52,0.2,0.72,0l0.84-0.84c0.2-0.2,0.2-0.52,0-0.72l-5.03-5.08l5.03-5.08
		c0.2-0.2,0.2-0.52,0-0.72l-0.84-0.84c-0.2-0.2-0.52-0.2-0.72,0l-6.23,6.28C11.17,12.34,11.17,12.66,11.37,12.86z M4.57,12.14
		l6.23-6.28c0.2-0.2,0.52-0.2,0.72,0l0.84,0.84c0.2,0.2,0.2,0.52,0,0.72L7.34,12.5l5.03,5.08c0.2,0.2,0.2,0.52,0,0.72l-0.84,0.84
		c-0.2,0.2-0.52,0.2-0.72,0l-6.23-6.28C4.37,12.66,4.37,12.34,4.57,12.14L4.57,12.14z"/>
</g>
</svg>
