<svg enable-background="new 0 0 25 25" viewBox="0 0 25 25" xmlns="http://www.w3.org/2000/svg"><ellipse cx="12.5" cy="12.5" fill="#231f20" opacity=".75" rx="12.06" ry="12.05"/><path d="m13.63 12.14-6.23-6.28c-.2-.2-.52-.2-.72 0l-.84.84c-.2.2-.2.52 0 .72l5.03 5.08-5.03 5.08c-.2.2-.2.52 0 .72l.84.84c.2.2.52.2.72 0l6.23-6.28c.2-.2.2-.52 0-.72zm6.8.72-6.23 6.28c-.2.2-.52.2-.72 0l-.84-.84c-.2-.2-.2-.52 0-.72l5.03-5.08-5.03-5.08c-.2-.2-.2-.52 0-.72l.84-.84c.2-.2.52-.2.72 0l6.23 6.28c.2.2.2.52 0 .72z" fill="#fff"/></svg>