<svg enable-background="new 0 0 25 25" viewBox="0 0 25 25" xmlns="http://www.w3.org/2000/svg"><ellipse cx="12.5" cy="12.5" fill="#231f20" opacity=".75" rx="12.06" ry="12.05"/><path d="m11.37 12.86 6.23 6.28c.2.2.52.2.72 0l.84-.84c.2-.2.2-.52 0-.72l-5.03-5.08 5.03-5.08c.2-.2.2-.52 0-.72l-.84-.84c-.2-.2-.52-.2-.72 0l-6.23 6.28c-.2.2-.2.52 0 .72zm-6.8-.72 6.23-6.28c.2-.2.52-.2.72 0l.84.84c.2.2.2.52 0 .72l-5.02 5.08 5.03 5.08c.2.2.2.52 0 .72l-.84.84c-.2.2-.52.2-.72 0l-6.23-6.28c-.21-.2-.21-.52-.01-.72z" fill="#fff"/></svg>