<svg enable-background="new 0 0 512 512" height="512" viewBox="0 0 512 512" width="512" xmlns="http://www.w3.org/2000/svg"><g fill="#fff"><path d="m317.858 407.985h-123.716c-47.339 0-86.071-38.73-86.071-86.07v-131.829c0-47.34 38.732-86.071 86.071-86.071h123.717c47.34 0 86.072 38.731 86.072 86.071v131.829c0 47.34-38.733 86.07-86.073 86.07m0-22.742c16.82 0 32.697-6.614 44.705-18.623 12.01-12.008 18.622-27.885 18.622-44.705v-131.829c0-16.82-6.612-32.697-18.622-44.706-12.008-12.009-27.885-18.622-44.705-18.622h-123.716c-16.82 0-32.697 6.613-44.706 18.622s-18.621 27.886-18.621 44.706v131.829c0 16.82 6.612 32.697 18.621 44.705 12.009 12.009 27.886 18.623 44.706 18.623z"/><path d="m337.929 254.827c0 44.994-36.477 81.47-81.472 81.47-44.994 0-81.471-36.476-81.471-81.47 0-44.995 36.477-81.471 81.471-81.471 44.995 0 81.472 36.476 81.472 81.471m-81.864-53.283c-29.464 0-53.348 23.885-53.348 53.347 0 29.464 23.884 53.35 53.348 53.35s53.347-23.886 53.347-53.35c0-29.462-23.883-53.347-53.347-53.347"/><path d="m358.526 172.089c0 10.654-8.637 19.292-19.29 19.292-10.655 0-19.292-8.638-19.292-19.292 0-10.653 8.637-19.29 19.292-19.29 10.654 0 19.29 8.637 19.29 19.29"/></g></svg>