<svg enable-background="new 0 0 416.394 28.682" height="28.682" viewBox="0 0 416.394 28.682" width="416.394" xmlns="http://www.w3.org/2000/svg"><g fill="#0f3b63"><path d="m6.913 9.049h1.943l9.136-8.875h5.133l-11.072 10.615 7.348 11.135h-5.278l-6.025-9.309h-1.943l-1.979 9.309h-4.176l4.623-21.75h4.176z"/><path d="m30.973 20.01h-.087c-1.157 2.031-3.402 2.088-5.171 2.088-3.451 0-5.53-.725-4.655-4.842.777-3.654 2.907-4.67 6.676-4.67 1.856 0 3.677.029 4.184 1.74h.116l.419-1.973c.524-2.465.506-3.334-2.54-3.334-1.595 0-2.901.145-3.321 2.117h-3.654c.943-4.438 4.025-4.611 7.505-4.611 4.872 0 6.742.754 5.657 5.857l-2.028 9.541h-3.654zm-6.259-2.754c-.457 2.145.371 2.348 2.835 2.348 1.943 0 3.401-.174 3.863-2.348.45-2.117-1.104-2.176-2.902-2.176-1.855 0-3.334 0-3.796 2.176z"/><path d="m44.589 6.699-.486 2.291h.116c1.286-2.232 3.163-2.465 5.309-2.465 4.002 0 4.869 1.652 4.08 5.365l-2.133 10.033h-3.655l2.053-9.656c.468-2.205.136-2.959-2.213-2.959-3.19 0-3.945 1.508-4.525 4.234l-1.781 8.381h-3.654l3.236-15.225h3.653z"/><path d="m60.645 12.615h.899l5.52-5.916h4.118l-6.916 7.164 4.782 8.061h-4.408l-3.626-6.815h-.899l-1.449 6.815h-3.654l4.623-21.75h3.654z"/><path d="m81.026 20.01h-.087c-1.157 2.031-3.402 2.088-5.171 2.088-3.451 0-5.53-.725-4.655-4.842.777-3.654 2.907-4.67 6.677-4.67 1.856 0 3.677.029 4.183 1.74h.116l.419-1.973c.524-2.465.506-3.334-2.54-3.334-1.595 0-2.901.145-3.321 2.117h-3.654c.943-4.438 4.025-4.611 7.505-4.611 4.872 0 6.742.754 5.657 5.857l-2.028 9.541h-3.654zm-6.258-2.754c-.457 2.145.371 2.348 2.835 2.348 1.943 0 3.401-.174 3.863-2.348.45-2.117-1.104-2.176-2.902-2.176-1.856 0-3.335 0-3.796 2.176z"/><path d="m93.356 12.615h.899l5.521-5.916h4.118l-6.917 7.164 4.782 8.061h-4.407l-3.627-6.815h-.899l-1.449 6.815h-3.653l4.623-21.75h3.653z"/><path d="m117.955 17.082c-1.018 4.785-3.821 5.016-8.171 5.016-5.829 0-6.623-1.855-5.372-7.742 1.159-5.451 2.535-7.83 8.683-7.83 6.263 0 6.716 1.826 5.304 8.469h-10.469c-.697 3.275-.832 4.32 2.445 4.32 2.03 0 3.445.029 3.926-2.232h3.654zm-2.717-4.408c.666-3.133.251-3.365-2.736-3.365-3.161 0-3.506.668-4.079 3.365z"/><path d="m134.484 17.082c-1.017 4.785-3.82 5.016-8.171 5.016-5.829 0-6.623-1.855-5.372-7.742 1.159-5.451 2.535-7.83 8.683-7.83 6.264 0 6.716 1.826 5.305 8.469h-10.469c-.696 3.275-.831 4.32 2.445 4.32 2.03 0 3.444.029 3.926-2.232h3.653zm-2.716-4.408c.666-3.133.252-3.365-2.735-3.365-3.161 0-3.506.668-4.079 3.365z"/><path d="m162.747 7.453.253-1.189c.536-2.521-.412-2.695-4.066-2.695-4.205 0-5.078.695-5.984 4.959l-1.023 4.812c-.896 4.35-.553 5.191 3.826 5.191 3.365 0 4.897-.115 5.557-3.219l.253-1.189h4.176l-.302 1.422c-1.307 6.553-4.998 6.322-10.441 6.553-7.717.291-8.544-2.232-7.281-8.584l1.061-4.986c1.477-6.962 4.507-8.528 10.915-8.528 5.423 0 8.52.029 7.484 6.264l-.252 1.189z"/><path d="m182.254 14.326c-1.252 5.887-2.465 7.771-8.815 7.771s-6.763-1.885-5.511-7.771c1.258-5.916 2.471-7.801 8.82-7.801 6.352 0 6.763 1.885 5.506 7.801zm-10.679.029c-.862 4.061-.793 4.959 2.455 4.959s3.7-.898 4.563-4.959c.875-4.117.811-5.047-2.438-5.047-3.246.001-3.704.93-4.58 5.047z"/><path d="m190.516 6.699-.469 2.205h.115c1.226-1.943 3.377-2.379 5.291-2.379s4.014.492 3.951 2.697h.115c1.146-2.117 3.357-2.697 5.389-2.697 3.943 0 4.959 1.363 4.164 5.104l-2.189 10.295h-3.654l2.115-9.947c.32-1.914.016-2.668-1.984-2.668-2.959 0-3.822 1.334-4.396 4.031l-1.824 8.584h-3.654l2.115-9.947c.319-1.914.016-2.668-1.985-2.668-2.958 0-3.821 1.334-4.395 4.031l-1.825 8.584h-3.653l3.235-15.225z"/><path d="m217.312 6.699-.469 2.205h.115c1.225-1.943 3.377-2.379 5.291-2.379s4.012.492 3.951 2.697h.115c1.146-2.117 3.357-2.697 5.387-2.697 3.943 0 4.959 1.363 4.164 5.104l-2.188 10.295h-3.654l2.113-9.947c.32-1.914.018-2.668-1.984-2.668-2.957 0-3.82 1.334-4.395 4.031l-1.824 8.584h-3.654l2.115-9.947c.318-1.914.016-2.668-1.986-2.668-2.957 0-3.82 1.334-4.395 4.031l-1.824 8.584h-3.654l3.236-15.225z"/><path d="m247.338 21.924.5-2.348h-.117c-1.271 2.029-3.262 2.521-5.35 2.521-3.045 0-4.854-1.043-4.174-4.379l2.344-11.02h3.654l-2.041 9.6c-.463 2.174-.438 3.016 1.91 3.016 2.814 0 3.965-1.189 4.525-3.828l1.869-8.787h3.654l-3.236 15.225z"/><path d="m261.391 6.699-.486 2.291h.115c1.287-2.232 3.164-2.465 5.309-2.465 4.002 0 4.869 1.652 4.08 5.365l-2.133 10.033h-3.654l2.053-9.656c.469-2.205.137-2.959-2.213-2.959-3.189 0-3.945 1.508-4.525 4.234l-1.781 8.381h-3.656l3.236-15.225h3.655z"/><path d="m275.293 21.924h-3.654l3.236-15.225h3.654zm3.965-18.647h-3.654l.658-3.104h3.654z"/><path d="m280.066 6.699h1.914l.732-3.451h3.654l-.732 3.451h5.828l-.592 2.783h-5.828l-1.658 7.803c-.268 1.391-.402 2.029 1.135 2.029 2.059 0 2.172-1.625 2.51-3.219h3.221c-.924 4.611-2.379 6.002-6.322 6.002-4.002 0-5.023-.928-4.203-4.785l1.664-7.83h-1.914z"/><path d="m299.35 22.533c-1.574 3.451-2.844 6.148-7.107 6.148-.521 0-1.025-.088-1.541-.117l.586-2.754c.256.029.504.086.766.086 2.291 0 3.107-2.203 3.801-3.973h-1.768l-1.781-15.225h3.77l1.102 12.963h.059l5.713-12.963h3.713z"/><path d="m331.379 7.453.254-1.189c.535-2.521-.414-2.695-4.066-2.695-4.205 0-5.078.695-5.984 4.959l-1.023 4.812c-.896 4.35-.553 5.191 3.826 5.191 3.363 0 4.896-.115 5.557-3.219l.252-1.189h4.176l-.301 1.422c-1.307 6.553-4.998 6.322-10.441 6.553-7.717.291-8.545-2.232-7.281-8.584l1.061-4.986c1.476-6.962 4.505-8.528 10.915-8.528 5.422 0 8.52.029 7.484 6.264l-.254 1.189z"/><path d="m350.887 14.326c-1.252 5.887-2.465 7.771-8.814 7.771-6.352 0-6.764-1.885-5.512-7.771 1.258-5.916 2.471-7.801 8.82-7.801 6.351 0 6.764 1.885 5.506 7.801zm-10.678.029c-.863 4.061-.793 4.959 2.455 4.959 3.246 0 3.699-.898 4.562-4.959.875-4.117.811-5.047-2.438-5.047s-3.704.93-4.579 5.047z"/><path d="m356.027 21.924h-3.652l4.623-21.75h3.652z"/><path d="m363.336 21.924h-3.654l4.623-21.75h3.654z"/><path d="m381.533 17.082c-1.018 4.785-3.822 5.016-8.172 5.016-5.828 0-6.623-1.855-5.371-7.742 1.158-5.451 2.533-7.83 8.682-7.83 6.264 0 6.717 1.826 5.305 8.469h-10.469c-.697 3.275-.832 4.32 2.445 4.32 2.029 0 3.445.029 3.926-2.232h3.654zm-2.717-4.408c.666-3.133.25-3.365-2.736-3.365-3.162 0-3.506.668-4.08 3.365z"/><path d="m394.045 19.75h-.086c-1.383 2-3.4 2.348-5.256 2.348-5.221 0-5.219-2.871-4.27-7.336.992-4.67 1.924-8.236 7.58-8.236 2.145 0 3.729.465 4.23 2.465h.117l.342-2.291h3.654l-3.23 15.195c-1.166 5.482-3.182 6.787-8.75 6.787-3.713 0-6.361-.639-5.16-5.191h3.422c-.445 2.088.271 2.406 2.33 2.406 3.104 0 3.904-.637 4.459-3.248zm-5.766-5.887c-.734 3.449-1.16 5.451 2.088 5.451 3.654 0 4.043-1.826 4.812-5.451.691-3.248.475-4.555-2.686-4.555-2.522.001-3.401.727-4.214 4.555z"/><path d="m415.289 17.082c-1.018 4.785-3.822 5.016-8.172 5.016-5.828 0-6.623-1.855-5.371-7.742 1.158-5.451 2.533-7.83 8.682-7.83 6.264 0 6.717 1.826 5.305 8.469h-10.469c-.697 3.275-.832 4.32 2.445 4.32 2.029 0 3.445.029 3.926-2.232h3.654zm-2.717-4.408c.666-3.133.25-3.365-2.736-3.365-3.162 0-3.506.668-4.08 3.365z"/></g></svg>