<?xml version="1.0" encoding="utf-8"?>
<!-- Generator: Adobe Illustrator 16.0.4, SVG Export Plug-In . SVG Version: 6.00 Build 0)  -->
<!DOCTYPE svg PUBLIC "-//W3C//DTD SVG 1.1//EN" "http://www.w3.org/Graphics/SVG/1.1/DTD/svg11.dtd">
<svg version="1.1" id="Layer_2" xmlns="http://www.w3.org/2000/svg" xmlns:xlink="http://www.w3.org/1999/xlink" x="0px" y="0px"
	 width="288px" height="144px" viewBox="0 0 288 144" enable-background="new 0 0 288 144" xml:space="preserve">
<path fill="#0F3B63" d="M279.099,75.699c0,0-56.483,56.448-131.813,30.087C70.713,78.984,8.901,114.201,8.901,114.201
	s61.992-54.387,135.315-29.709C218.556,109.512,279.099,75.699,279.099,75.699"/>
<path fill="#B6BBC3" d="M252.666,102.117c0,0-48.238,48.244-105.522,22.188c-63.299-28.799-118.325-12.41-118.325-12.41
	s56.723-22.743,115.963-2.875C203.462,128.695,252.666,102.117,252.666,102.117"/>
<g>
	<defs>
		<polyline id="SVGID_1_" points="27.846,15.147 258.309,15.147 258.309,95.742 27.846,95.742 27.846,15.147 		"/>
	</defs>
	<clipPath id="SVGID_2_">
		<use xlink:href="#SVGID_1_"  overflow="visible"/>
	</clipPath>
	<path clip-path="url(#SVGID_2_)" fill="#0F3B63" d="M44.916,91.926H28.521l-0.675,3.177h10.506
		C40.45,94.033,42.635,92.971,44.916,91.926 M59.679,60.831h-6.345L46.92,91.023c1.06-0.469,2.143-0.936,3.239-1.394l5.443-25.622
		h5.66L59.679,60.831 M65.853,15.786H62.91l-5.661,26.649h2.943L65.853,15.786 M118.206,15.786h-5.223L79.749,51.525l14.474,27.004
		c0.992-0.084,1.987-0.157,2.99-0.219L83.781,53.154L118.206,15.786"/>
	<path clip-path="url(#SVGID_2_)" fill="#0F3B63" d="M50.159,89.63c-1.096,0.458-2.179,0.925-3.239,1.394l-0.192,0.902h-1.812
		c-2.281,1.045-4.466,2.107-6.563,3.177h10.644L50.159,89.63 M97.213,78.311c-1.003,0.062-1.998,0.135-2.99,0.219l7.18,13.396
		H75.862l1.583,3.177l28.647-0.161L97.213,78.311"/>
	<path clip-path="url(#SVGID_2_)" fill="#0F3B63" d="M175.203,65.07h-2.944c-1.779,8.335-3.707,15.85-11.906,21.681
		c-0.894,0.626-1.792,1.186-2.692,1.685c1.774,0.445,3.549,0.86,5.303,1.243c8.183-5.988,9.934-13.726,11.745-22.287L175.203,65.07
		 M144.837,30.375c-12.051,0-14.004,3.699-16.407,15.021l-2.628,12.375c-1.694,7.964-2.448,12.628,1.098,14.829
		c-0.648-2.62,0.059-6.425,1.17-11.652l2.628-12.375c2.403-11.322,4.356-15.021,16.407-15.021c3.78,0,6.913,0.147,8.926,1.312
		C155.134,30.738,150.788,30.375,144.837,30.375 M177.566,20.006c1.833,3.875,1.981,9.585,0.346,17.983l-0.648,3.069h-18.861
		c-0.004,0.036-0.008,0.072-0.012,0.108l-0.647,3.069h21.789l0.647-3.069C182.338,30.087,181.392,23.686,177.566,20.006"/>
	<path clip-path="url(#SVGID_2_)" fill="#0F3B63" d="M105.867,86.582c4.455,8.696,16.081,9.16,30.348,9.16h1.039
		c8.827-0.001,17.244-0.116,25.376-5.823c0.112-0.08,0.223-0.16,0.333-0.24c-1.754-0.383-3.528-0.798-5.303-1.243
		c-7.293,4.038-14.817,4.129-22.673,4.13c-0.023,0-0.046,0-0.07,0c-0.323,0-0.646,0-0.971,0l0,0
		C121.667,92.565,111.345,92.222,105.867,86.582"/>
	<path clip-path="url(#SVGID_2_)" fill="#0F3B63" d="M252.198,65.07h-2.945c-1.786,8.335-3.706,15.85-11.905,21.681
		c-8.132,5.698-16.548,5.813-25.366,5.814c-0.023,0-0.047,0-0.07,0c-0.322,0-0.646,0-0.969,0l0,0
		c-12.281,0-22.604-0.345-28.084-5.985c1.74,3.396,4.573,5.537,8.231,6.886c3.195,0.169,6.339,0.249,9.415,0.249
		c15.019,0,28.555-1.892,39.996-4.449c7.719-5.93,9.423-13.509,11.202-21.874L252.198,65.07 M221.832,30.375
		c-12.06,0-14.004,3.699-16.407,15.021l-2.637,12.375c-1.688,7.964-2.441,12.628,1.105,14.829c-0.647-2.621,0.06-6.425,1.172-11.652
		l2.628-12.375c2.402-11.322,4.355-15.021,16.406-15.021c3.778,0,6.912,0.147,8.926,1.313
		C232.128,30.738,227.776,30.375,221.832,30.375 M254.562,20.007c0.97,2.049,1.468,4.615,1.479,7.818c0,0.076,0,0.15,0,0.227
		c-0.01,2.803-0.384,6.087-1.134,9.938l-0.657,3.069h-18.853c-0.004,0.036-0.008,0.072-0.012,0.108l-0.647,3.069h21.779l0.657-3.069
		c0.75-3.85,1.125-7.135,1.134-9.938v-0.226C258.29,25.866,257.021,22.373,254.562,20.007"/>
	<path clip-path="url(#SVGID_2_)" fill="#0F3B63" d="M240.501,89.266c-11.441,2.558-24.978,4.449-39.996,4.449
		c-3.076,0-6.22-0.08-9.415-0.249c5.708,2.104,13.423,2.276,22.12,2.276h1.038c8.819-0.001,17.235-0.116,25.368-5.823
		C239.92,89.703,240.214,89.485,240.501,89.266"/>
</g>
<path fill="#C61F49" d="M134.987,92.565h-1.041l0,0c0.325,0,0.647,0,0.971,0C134.941,92.565,134.964,92.565,134.987,92.565"/>
<g>
	<defs>
		<polyline id="SVGID_3_" points="25.578,11.97 256.041,11.97 256.041,92.565 25.578,92.565 25.578,11.97 		"/>
	</defs>
	<clipPath id="SVGID_4_">
		<use xlink:href="#SVGID_3_"  overflow="visible"/>
	</clipPath>
	<polygon clip-path="url(#SVGID_4_)" fill="#C61F49" points="115.938,12.609 90.342,12.609 63.594,42.435 60.192,42.435 
		57.249,42.435 62.91,15.786 63.585,12.609 42.435,12.609 25.578,91.926 28.521,91.926 44.916,91.926 46.728,91.926 46.92,91.023 
		53.334,60.831 59.679,60.831 61.262,64.008 70.566,82.674 75.177,91.926 75.862,91.926 101.403,91.926 94.223,78.529 
		79.749,51.525 112.983,15.786 	"/>
	<path clip-path="url(#SVGID_4_)" fill="#C61F49" d="M177.566,20.006c-3.361-7.105-12.39-8.036-26.483-8.036
		c-23.274,0-38.142,3.816-43.722,30.042l-4.356,20.52c-1.382,6.493-1.673,11.583-1.051,15.574c0.573,3.681,1.924,6.428,3.913,8.476
		c5.479,5.64,15.801,5.983,28.08,5.983h1.041c7.855-0.001,15.38-0.092,22.673-4.13c0.9-0.499,1.799-1.059,2.692-1.685
		c8.199-5.831,10.127-13.346,11.906-21.681c0.061-0.284,0.121-0.569,0.182-0.855l0.494-2.322h-21.788l-0.486,2.322
		c-1.98,9.307-6.345,9.945-15.129,9.945c-4.157,0-6.905-0.487-8.632-1.56c-3.546-2.201-2.792-6.865-1.098-14.829l2.628-12.375
		c2.403-11.322,4.356-15.021,16.407-15.021c5.951,0,10.297,0.363,11.194,4.488c0.188,0.866,0.225,1.897,0.092,3.126l-0.648,3.069
		h2.928h18.861l0.648-3.069C179.548,29.591,179.399,23.881,177.566,20.006z"/>
	<path clip-path="url(#SVGID_4_)" fill="#C61F49" d="M254.562,20.007C251.2,12.9,242.17,11.97,228.069,11.97
		c-23.266,0-38.143,3.816-43.713,30.042l-4.365,20.52c-2.651,12.479-1.279,19.779,2.867,24.048
		c5.479,5.641,15.803,5.985,28.084,5.985h1.039c8.818-0.001,17.234-0.116,25.366-5.814c8.199-5.831,10.119-13.346,11.905-21.681
		c0.061-0.284,0.121-0.569,0.182-0.855l0.495-2.322h-21.789l-0.494,2.322c-1.98,9.307-6.346,9.945-15.12,9.945
		c-4.157,0-6.905-0.488-8.633-1.56c-3.547-2.201-2.794-6.865-1.105-14.829l2.637-12.375c2.403-11.322,4.348-15.021,16.407-15.021
		c5.944,0,10.296,0.363,11.193,4.49c0.188,0.866,0.226,1.896,0.093,3.125l-0.657,3.069h2.937h18.853l0.657-3.069
		c0.75-3.851,1.124-7.135,1.134-9.938v-0.227C256.029,24.623,255.531,22.057,254.562,20.007z"/>
</g>
</svg>
