<?xml version="1.0" encoding="utf-8"?>
<!-- Generator: Adobe Illustrator 16.0.4, SVG Export Plug-In . SVG Version: 6.00 Build 0)  -->
<!DOCTYPE svg PUBLIC "-//W3C//DTD SVG 1.1//EN" "http://www.w3.org/Graphics/SVG/1.1/DTD/svg11.dtd">
<svg version="1.1" id="Layer_1" xmlns="http://www.w3.org/2000/svg" xmlns:xlink="http://www.w3.org/1999/xlink" x="0px" y="0px"
	 width="416.394px" height="28.682px" viewBox="0 0 416.394 28.682" enable-background="new 0 0 416.394 28.682"
	 xml:space="preserve">
<g>
	<polygon fill="#0F3B63" points="6.913,9.049 8.856,9.049 17.992,0.174 23.125,0.174 12.053,10.789 19.401,21.924 14.123,21.924 
		8.098,12.615 6.155,12.615 4.176,21.924 0,21.924 4.623,0.174 8.799,0.174 	"/>
	<path fill="#0F3B63" d="M30.973,20.01h-0.087c-1.157,2.031-3.402,2.088-5.171,2.088c-3.451,0-5.53-0.725-4.655-4.842
		c0.777-3.654,2.907-4.67,6.676-4.67c1.856,0,3.677,0.029,4.184,1.74h0.116l0.419-1.973c0.524-2.465,0.506-3.334-2.54-3.334
		c-1.595,0-2.901,0.145-3.321,2.117h-3.654c0.943-4.438,4.025-4.611,7.505-4.611c4.872,0,6.742,0.754,5.657,5.857l-2.028,9.541
		h-3.654L30.973,20.01z M24.714,17.256c-0.457,2.145,0.371,2.348,2.835,2.348c1.943,0,3.401-0.174,3.863-2.348
		c0.45-2.117-1.104-2.176-2.902-2.176C26.655,15.08,25.176,15.08,24.714,17.256z"/>
	<path fill="#0F3B63" d="M44.589,6.699L44.103,8.99h0.116c1.286-2.232,3.163-2.465,5.309-2.465c4.002,0,4.869,1.652,4.08,5.365
		l-2.133,10.033H47.82l2.053-9.656c0.468-2.205,0.136-2.959-2.213-2.959c-3.19,0-3.945,1.508-4.525,4.234l-1.781,8.381h-3.654
		l3.236-15.225H44.589z"/>
	<polygon fill="#0F3B63" points="60.645,12.615 61.544,12.615 67.064,6.699 71.182,6.699 64.266,13.863 69.048,21.924 64.64,21.924 
		61.014,15.109 60.115,15.109 58.666,21.924 55.012,21.924 59.635,0.174 63.289,0.174 	"/>
	<path fill="#0F3B63" d="M81.026,20.01h-0.087c-1.157,2.031-3.402,2.088-5.171,2.088c-3.451,0-5.53-0.725-4.655-4.842
		c0.777-3.654,2.907-4.67,6.677-4.67c1.856,0,3.677,0.029,4.183,1.74h0.116l0.419-1.973c0.524-2.465,0.506-3.334-2.54-3.334
		c-1.595,0-2.901,0.145-3.321,2.117h-3.654c0.943-4.438,4.025-4.611,7.505-4.611c4.872,0,6.742,0.754,5.657,5.857l-2.028,9.541
		h-3.654L81.026,20.01z M74.768,17.256c-0.457,2.145,0.371,2.348,2.835,2.348c1.943,0,3.401-0.174,3.863-2.348
		c0.45-2.117-1.104-2.176-2.902-2.176C76.708,15.08,75.229,15.08,74.768,17.256z"/>
	<polygon fill="#0F3B63" points="93.356,12.615 94.255,12.615 99.776,6.699 103.894,6.699 96.977,13.863 101.759,21.924 
		97.352,21.924 93.725,15.109 92.826,15.109 91.377,21.924 87.724,21.924 92.347,0.174 96,0.174 	"/>
	<path fill="#0F3B63" d="M117.955,17.082c-1.018,4.785-3.821,5.016-8.171,5.016c-5.829,0-6.623-1.855-5.372-7.742
		c1.159-5.451,2.535-7.83,8.683-7.83c6.263,0,6.716,1.826,5.304,8.469H107.93c-0.697,3.275-0.832,4.32,2.445,4.32
		c2.03,0,3.445,0.029,3.926-2.232H117.955z M115.238,12.674c0.666-3.133,0.251-3.365-2.736-3.365c-3.161,0-3.506,0.668-4.079,3.365
		H115.238z"/>
	<path fill="#0F3B63" d="M134.484,17.082c-1.017,4.785-3.82,5.016-8.171,5.016c-5.829,0-6.623-1.855-5.372-7.742
		c1.159-5.451,2.535-7.83,8.683-7.83c6.264,0,6.716,1.826,5.305,8.469H124.46c-0.696,3.275-0.831,4.32,2.445,4.32
		c2.03,0,3.444,0.029,3.926-2.232H134.484z M131.768,12.674c0.666-3.133,0.252-3.365-2.735-3.365c-3.161,0-3.506,0.668-4.079,3.365
		H131.768z"/>
	<path fill="#0F3B63" d="M162.747,7.453L163,6.264c0.536-2.521-0.412-2.695-4.066-2.695c-4.205,0-5.078,0.695-5.984,4.959
		l-1.023,4.812c-0.896,4.35-0.553,5.191,3.826,5.191c3.365,0,4.897-0.115,5.557-3.219l0.253-1.189h4.176l-0.302,1.422
		c-1.307,6.553-4.998,6.322-10.441,6.553c-7.717,0.291-8.544-2.232-7.281-8.584l1.061-4.986C150.253,1.566,153.283,0,159.691,0
		c5.423,0,8.52,0.029,7.484,6.264l-0.252,1.189H162.747z"/>
	<path fill="#0F3B63" d="M182.254,14.326c-1.252,5.887-2.465,7.771-8.815,7.771s-6.763-1.885-5.511-7.771
		c1.258-5.916,2.471-7.801,8.82-7.801C183.1,6.525,183.511,8.41,182.254,14.326z M171.575,14.355
		c-0.862,4.061-0.793,4.959,2.455,4.959s3.7-0.898,4.563-4.959c0.875-4.117,0.811-5.047-2.438-5.047
		C172.909,9.309,172.451,10.238,171.575,14.355z"/>
	<path fill="#0F3B63" d="M190.516,6.699l-0.469,2.205h0.115c1.226-1.943,3.377-2.379,5.291-2.379s4.014,0.492,3.951,2.697h0.115
		c1.146-2.117,3.357-2.697,5.389-2.697c3.943,0,4.959,1.363,4.164,5.104l-2.189,10.295h-3.654l2.115-9.947
		c0.32-1.914,0.016-2.668-1.984-2.668c-2.959,0-3.822,1.334-4.396,4.031l-1.824,8.584h-3.654l2.115-9.947
		c0.319-1.914,0.016-2.668-1.985-2.668c-2.958,0-3.821,1.334-4.395,4.031l-1.825,8.584h-3.653l3.235-15.225H190.516z"/>
	<path fill="#0F3B63" d="M217.312,6.699l-0.469,2.205h0.115c1.225-1.943,3.377-2.379,5.291-2.379s4.012,0.492,3.951,2.697h0.115
		c1.146-2.117,3.357-2.697,5.387-2.697c3.943,0,4.959,1.363,4.164,5.104l-2.188,10.295h-3.654l2.113-9.947
		c0.32-1.914,0.018-2.668-1.984-2.668c-2.957,0-3.82,1.334-4.395,4.031l-1.824,8.584h-3.654l2.115-9.947
		c0.318-1.914,0.016-2.668-1.986-2.668c-2.957,0-3.82,1.334-4.395,4.031l-1.824,8.584h-3.654l3.236-15.225H217.312z"/>
	<path fill="#0F3B63" d="M247.338,21.924l0.5-2.348h-0.117c-1.271,2.029-3.262,2.521-5.35,2.521c-3.045,0-4.854-1.043-4.174-4.379
		l2.344-11.02h3.654l-2.041,9.6c-0.463,2.174-0.438,3.016,1.91,3.016c2.814,0,3.965-1.189,4.525-3.828l1.869-8.787h3.654
		l-3.236,15.225H247.338z"/>
	<path fill="#0F3B63" d="M261.391,6.699l-0.486,2.291h0.115c1.287-2.232,3.164-2.465,5.309-2.465c4.002,0,4.869,1.652,4.08,5.365
		l-2.133,10.033h-3.654l2.053-9.656c0.469-2.205,0.137-2.959-2.213-2.959c-3.189,0-3.945,1.508-4.525,4.234l-1.781,8.381H254.5
		l3.236-15.225H261.391z"/>
	<path fill="#0F3B63" d="M275.293,21.924h-3.654l3.236-15.225h3.654L275.293,21.924z M279.258,3.277h-3.654l0.658-3.104h3.654
		L279.258,3.277z"/>
	<path fill="#0F3B63" d="M280.066,6.699h1.914l0.732-3.451h3.654l-0.732,3.451h5.828l-0.592,2.783h-5.828l-1.658,7.803
		c-0.268,1.391-0.402,2.029,1.135,2.029c2.059,0,2.172-1.625,2.51-3.219h3.221c-0.924,4.611-2.379,6.002-6.322,6.002
		c-4.002,0-5.023-0.928-4.203-4.785l1.664-7.83h-1.914L280.066,6.699z"/>
	<path fill="#0F3B63" d="M299.35,22.533c-1.574,3.451-2.844,6.148-7.107,6.148c-0.521,0-1.025-0.088-1.541-0.117l0.586-2.754
		c0.256,0.029,0.504,0.086,0.766,0.086c2.291,0,3.107-2.203,3.801-3.973h-1.768l-1.781-15.225h3.77l1.102,12.963h0.059l5.713-12.963
		h3.713L299.35,22.533z"/>
	<path fill="#0F3B63" d="M331.379,7.453l0.254-1.189c0.535-2.521-0.414-2.695-4.066-2.695c-4.205,0-5.078,0.695-5.984,4.959
		l-1.023,4.812c-0.896,4.35-0.553,5.191,3.826,5.191c3.363,0,4.896-0.115,5.557-3.219l0.252-1.189h4.176l-0.301,1.422
		c-1.307,6.553-4.998,6.322-10.441,6.553c-7.717,0.291-8.545-2.232-7.281-8.584l1.061-4.986C318.885,1.566,321.914,0,328.324,0
		c5.422,0,8.52,0.029,7.484,6.264l-0.254,1.189H331.379z"/>
	<path fill="#0F3B63" d="M350.887,14.326c-1.252,5.887-2.465,7.771-8.814,7.771c-6.352,0-6.764-1.885-5.512-7.771
		c1.258-5.916,2.471-7.801,8.82-7.801C351.732,6.525,352.145,8.41,350.887,14.326z M340.209,14.355
		c-0.863,4.061-0.793,4.959,2.455,4.959c3.246,0,3.699-0.898,4.562-4.959c0.875-4.117,0.811-5.047-2.438-5.047
		S341.084,10.238,340.209,14.355z"/>
	<polygon fill="#0F3B63" points="356.027,21.924 352.375,21.924 356.998,0.174 360.65,0.174 	"/>
	<polygon fill="#0F3B63" points="363.336,21.924 359.682,21.924 364.305,0.174 367.959,0.174 	"/>
	<path fill="#0F3B63" d="M381.533,17.082c-1.018,4.785-3.822,5.016-8.172,5.016c-5.828,0-6.623-1.855-5.371-7.742
		c1.158-5.451,2.533-7.83,8.682-7.83c6.264,0,6.717,1.826,5.305,8.469h-10.469c-0.697,3.275-0.832,4.32,2.445,4.32
		c2.029,0,3.445,0.029,3.926-2.232H381.533z M378.816,12.674c0.666-3.133,0.25-3.365-2.736-3.365c-3.162,0-3.506,0.668-4.08,3.365
		H378.816z"/>
	<path fill="#0F3B63" d="M394.045,19.75h-0.086c-1.383,2-3.4,2.348-5.256,2.348c-5.221,0-5.219-2.871-4.27-7.336
		c0.992-4.67,1.924-8.236,7.58-8.236c2.145,0,3.729,0.465,4.23,2.465h0.117l0.342-2.291h3.654l-3.23,15.195
		c-1.166,5.482-3.182,6.787-8.75,6.787c-3.713,0-6.361-0.639-5.16-5.191h3.422c-0.445,2.088,0.271,2.406,2.33,2.406
		c3.104,0,3.904-0.637,4.459-3.248L394.045,19.75z M388.279,13.863c-0.734,3.449-1.16,5.451,2.088,5.451
		c3.654,0,4.043-1.826,4.812-5.451c0.691-3.248,0.475-4.555-2.686-4.555C389.971,9.309,389.092,10.035,388.279,13.863z"/>
	<path fill="#0F3B63" d="M415.289,17.082c-1.018,4.785-3.822,5.016-8.172,5.016c-5.828,0-6.623-1.855-5.371-7.742
		c1.158-5.451,2.533-7.83,8.682-7.83c6.264,0,6.717,1.826,5.305,8.469h-10.469c-0.697,3.275-0.832,4.32,2.445,4.32
		c2.029,0,3.445,0.029,3.926-2.232H415.289z M412.572,12.674c0.666-3.133,0.25-3.365-2.736-3.365c-3.162,0-3.506,0.668-4.08,3.365
		H412.572z"/>
</g>
</svg>
