<svg enable-background="new 0 0 82.398 36" height="36" viewBox="0 0 82.398 36" width="82.398" xmlns="http://www.w3.org/2000/svg"><g fill="#fff"><path d="m63.95 23.918s-9.805 9.808-21.45 4.511c-12.867-5.855-24.053-2.522-24.053-2.522s11.531-4.624 23.573-.584c11.928 3.999 21.93-1.405 21.93-1.405"/><path d="m58.976 21.669c.266-.131.53-.284.793-.468 1.723-1.229 2.082-2.817 2.457-4.58l.1-.473h-4.428l-.102.473c-.401 1.891-1.289 2.021-3.073 2.021-2.58 0-2.491-.925-1.979-3.332l.535-2.516c.488-2.301.885-3.053 3.336-3.053 1.461 0 2.449.107 2.294 1.547l-.132.625h4.428l.133-.625c.942-4.836-1.025-5.288-5.455-5.288-4.729 0-7.753.774-8.886 6.105l-.887 4.171c-.865 4.068.375 5.429 2.668 5.881-2.01-.106-4.13-.388-6.329-.908.025-.017.051-.031.076-.049 1.722-1.229 2.082-2.817 2.457-4.58l.1-.473h-4.429l-.1.473c-.403 1.891-1.29 2.021-3.075 2.021-2.58 0-2.491-.925-1.979-3.332l.535-2.516c.489-2.301.885-3.053 3.336-3.053 1.462 0 2.45.107 2.294 1.547l-.133.625h4.429l.133-.625c.942-4.836-1.026-5.288-5.455-5.288-4.729 0-7.754.774-8.887 6.105l-.887 4.171c-.235 1.109-.315 2.02-.258 2.763-.454.011-.901.036-1.345.069l-2.718-5.068 7.357-7.911h-5.203l-5.438 6.062h-1.29l1.291-6.06h-4.3l-3.427 16.125h2.67c-4.016 1.973-6.466 4.121-6.466 4.121s12.566-7.161 28.131-1.712c15.313 5.359 26.794-6.114 26.794-6.114s-3.765 2.099-9.686 3.119zm-35.8-5.735h1.289l1.987 3.986c-1.599.413-3.089.938-4.445 1.51z"/></g></svg>