<svg enable-background="new 0 0 288 144" height="144" viewBox="0 0 288 144" width="288" xmlns="http://www.w3.org/2000/svg" xmlns:xlink="http://www.w3.org/1999/xlink"><clipPath id="a"><path d="m27.846 15.147h230.463v80.595h-230.463z"/></clipPath><clipPath id="b"><path d="m25.578 11.97h230.463v80.595h-230.463z"/></clipPath><path d="m279.099 75.699s-56.483 56.448-131.813 30.087c-76.573-26.802-138.385 8.415-138.385 8.415s61.992-54.387 135.315-29.709c74.34 25.02 134.883-8.793 134.883-8.793" fill="#0f3b63"/><path d="m252.666 102.117s-48.238 48.244-105.522 22.188c-63.299-28.799-118.325-12.41-118.325-12.41s56.723-22.743 115.963-2.875c58.68 19.675 107.884-6.903 107.884-6.903" fill="#b6bbc3"/><g fill="#0f3b63"><path clip-path="url(#a)" d="m44.916 91.926h-16.395l-.675 3.177h10.506c2.098-1.07 4.283-2.132 6.564-3.177m14.763-31.095h-6.345l-6.414 30.192c1.06-.469 2.143-.936 3.239-1.394l5.443-25.622h5.66zm6.174-45.045h-2.943l-5.661 26.649h2.943zm52.353 0h-5.223l-33.234 35.739 14.474 27.004c.992-.084 1.987-.157 2.99-.219l-13.432-25.156z"/><path clip-path="url(#a)" d="m50.159 89.63c-1.096.458-2.179.925-3.239 1.394l-.192.902h-1.812c-2.281 1.045-4.466 2.107-6.563 3.177h10.644zm47.054-11.319c-1.003.062-1.998.135-2.99.219l7.18 13.396h-25.541l1.583 3.177 28.647-.161z"/><path clip-path="url(#a)" d="m175.203 65.07h-2.944c-1.779 8.335-3.707 15.85-11.906 21.681-.894.626-1.792 1.186-2.692 1.685 1.774.445 3.549.86 5.303 1.243 8.183-5.988 9.934-13.726 11.745-22.287zm-30.366-34.695c-12.051 0-14.004 3.699-16.407 15.021l-2.628 12.375c-1.694 7.964-2.448 12.628 1.098 14.829-.648-2.62.059-6.425 1.17-11.652l2.628-12.375c2.403-11.322 4.356-15.021 16.407-15.021 3.78 0 6.913.147 8.926 1.312-.897-4.126-5.243-4.489-11.194-4.489m32.729-10.369c1.833 3.875 1.981 9.585.346 17.983l-.648 3.069h-18.861c-.004.036-.008.072-.012.108l-.647 3.069h21.789l.647-3.069c2.158-11.079 1.212-17.48-2.614-21.16"/><path clip-path="url(#a)" d="m105.867 86.582c4.455 8.696 16.081 9.16 30.348 9.16h1.039c8.827-.001 17.244-.116 25.376-5.823.112-.08.223-.16.333-.24-1.754-.383-3.528-.798-5.303-1.243-7.293 4.038-14.817 4.129-22.673 4.13-.023 0-.046 0-.07 0-.323 0-.646 0-.971 0-12.279-.001-22.601-.344-28.079-5.984"/><path clip-path="url(#a)" d="m252.198 65.07h-2.945c-1.786 8.335-3.706 15.85-11.905 21.681-8.132 5.698-16.548 5.813-25.366 5.814-.023 0-.047 0-.07 0-.322 0-.646 0-.969 0-12.281 0-22.604-.345-28.084-5.985 1.74 3.396 4.573 5.537 8.231 6.886 3.195.169 6.339.249 9.415.249 15.019 0 28.555-1.892 39.996-4.449 7.719-5.93 9.423-13.509 11.202-21.874zm-30.366-34.695c-12.06 0-14.004 3.699-16.407 15.021l-2.637 12.375c-1.688 7.964-2.441 12.628 1.105 14.829-.647-2.621.06-6.425 1.172-11.652l2.628-12.375c2.402-11.322 4.355-15.021 16.406-15.021 3.778 0 6.912.147 8.926 1.313-.897-4.127-5.249-4.49-11.193-4.49m32.73-10.368c.97 2.049 1.468 4.615 1.479 7.818v.227c-.01 2.803-.384 6.087-1.134 9.938l-.657 3.069h-18.853c-.004.036-.008.072-.012.108l-.647 3.069h21.779l.657-3.069c.75-3.85 1.125-7.135 1.134-9.938v-.226c-.018-5.137-1.287-8.63-3.746-10.996"/><path clip-path="url(#a)" d="m240.501 89.266c-11.441 2.558-24.978 4.449-39.996 4.449-3.076 0-6.22-.08-9.415-.249 5.708 2.104 13.423 2.276 22.12 2.276h1.038c8.819-.001 17.235-.116 25.368-5.823.304-.216.598-.434.885-.653"/></g><path d="m134.987 92.565h-1.041.971z" fill="#c61f49"/><path clip-path="url(#b)" d="m115.938 12.609h-25.596l-26.748 29.826h-3.402-2.943l5.661-26.649.675-3.177h-21.15l-16.857 79.317h2.943 16.395 1.812l.192-.903 6.414-30.192h6.345l1.583 3.177 9.304 18.666 4.611 9.252h.685 25.541l-7.18-13.397-14.474-27.004 33.234-35.739z" fill="#c61f49"/><path clip-path="url(#b)" d="m177.566 20.006c-3.361-7.105-12.39-8.036-26.483-8.036-23.274 0-38.142 3.816-43.722 30.042l-4.356 20.52c-1.382 6.493-1.673 11.583-1.051 15.574.573 3.681 1.924 6.428 3.913 8.476 5.479 5.64 15.801 5.983 28.08 5.983h1.041c7.855-.001 15.38-.092 22.673-4.13.9-.499 1.799-1.059 2.692-1.685 8.199-5.831 10.127-13.346 11.906-21.681.061-.284.121-.569.182-.855l.494-2.322h-21.788l-.486 2.322c-1.98 9.307-6.345 9.945-15.129 9.945-4.157 0-6.905-.487-8.632-1.56-3.546-2.201-2.792-6.865-1.098-14.829l2.628-12.375c2.403-11.322 4.356-15.021 16.407-15.021 5.951 0 10.297.363 11.194 4.488.188.866.225 1.897.092 3.126l-.648 3.069h2.928 18.861l.648-3.069c1.636-8.397 1.487-14.107-.346-17.982z" fill="#c61f49"/><path clip-path="url(#b)" d="m254.562 20.007c-3.362-7.107-12.392-8.037-26.493-8.037-23.266 0-38.143 3.816-43.713 30.042l-4.365 20.52c-2.651 12.479-1.279 19.779 2.867 24.048 5.479 5.641 15.803 5.985 28.084 5.985h1.039c8.818-.001 17.234-.116 25.366-5.814 8.199-5.831 10.119-13.346 11.905-21.681.061-.284.121-.569.182-.855l.495-2.322h-21.789l-.494 2.322c-1.98 9.307-6.346 9.945-15.12 9.945-4.157 0-6.905-.488-8.633-1.56-3.547-2.201-2.794-6.865-1.105-14.829l2.637-12.375c2.403-11.322 4.348-15.021 16.407-15.021 5.944 0 10.296.363 11.193 4.49.188.866.226 1.896.093 3.125l-.657 3.069h2.937 18.853l.657-3.069c.75-3.851 1.124-7.135 1.134-9.938v-.227c-.013-3.202-.511-5.768-1.48-7.818z" fill="#c61f49"/></svg>