<?xml version="1.0" encoding="utf-8"?>
<!-- Generator: Adobe Illustrator 16.0.4, SVG Export Plug-In . SVG Version: 6.00 Build 0)  -->
<!DOCTYPE svg PUBLIC "-//W3C//DTD SVG 1.1//EN" "http://www.w3.org/Graphics/SVG/1.1/DTD/svg11.dtd">
<svg version="1.1" id="Layer_1" xmlns="http://www.w3.org/2000/svg" xmlns:xlink="http://www.w3.org/1999/xlink" x="0px" y="0px"
	 width="82.398px" height="36px" viewBox="0 0 82.398 36" enable-background="new 0 0 82.398 36" xml:space="preserve">
<g>
	<path fill="#FFFFFF" d="M63.95,23.918c0,0-9.805,9.808-21.45,4.511c-12.867-5.855-24.053-2.522-24.053-2.522l0,0
		c0,0,11.531-4.624,23.573-0.584C53.948,29.322,63.95,23.918,63.95,23.918"/>
	<path fill="#FFFFFF" d="M58.976,21.669c0.266-0.131,0.53-0.284,0.793-0.468c1.723-1.229,2.082-2.817,2.457-4.58l0.1-0.473h-4.428
		l-0.102,0.473c-0.401,1.891-1.289,2.021-3.073,2.021c-2.58,0-2.491-0.925-1.979-3.332l0.535-2.516
		c0.488-2.301,0.885-3.053,3.336-3.053c1.461,0,2.449,0.107,2.294,1.547l-0.132,0.625h4.428l0.133-0.625
		c0.942-4.836-1.025-5.288-5.455-5.288c-4.729,0-7.753,0.774-8.886,6.105l-0.887,4.171c-0.865,4.068,0.375,5.429,2.668,5.881
		c-2.01-0.106-4.13-0.388-6.329-0.908c0.025-0.017,0.051-0.031,0.076-0.049c1.722-1.229,2.082-2.817,2.457-4.58l0.1-0.473h-4.429
		l-0.1,0.473c-0.403,1.891-1.29,2.021-3.075,2.021c-2.58,0-2.491-0.925-1.979-3.332l0.535-2.516
		c0.489-2.301,0.885-3.053,3.336-3.053c1.462,0,2.45,0.107,2.294,1.547l-0.133,0.625h4.429l0.133-0.625
		c0.942-4.836-1.026-5.288-5.455-5.288c-4.729,0-7.754,0.774-8.887,6.105l-0.887,4.171c-0.235,1.109-0.315,2.02-0.258,2.763
		c-0.454,0.011-0.901,0.036-1.345,0.069l-2.718-5.068l7.357-7.911h-5.203l-5.438,6.062h-1.29L25.26,6.13h-4.3l-3.427,16.125h2.67
		c-4.016,1.973-6.466,4.121-6.466,4.121s12.566-7.161,28.131-1.712c15.313,5.359,26.794-6.114,26.794-6.114
		S64.897,20.649,58.976,21.669z M23.176,15.934h1.289l1.987,3.986c-1.599,0.413-3.089,0.938-4.445,1.51L23.176,15.934z"/>
</g>
</svg>
