<?xml version="1.0" encoding="utf-8"?>
<!-- Generator: Adobe Illustrator 28.1.0, SVG Export Plug-In . SVG Version: 6.00 Build 0)  -->
<svg version="1.1" id="Layer_1" xmlns="http://www.w3.org/2000/svg" xmlns:xlink="http://www.w3.org/1999/xlink" x="0px" y="0px"
	 viewBox="0 0 780 885" enable-background="new 0 0 780 885" xml:space="preserve">
<g>
	<g>
		<path fill="#703A51" d="M699.9,752.6H83.2c-18.7,0-33.9-15.2-33.9-33.9V545.6c0-18.7,15.2-33.9,33.9-33.9h616.7
			c18.7,0,33.9,15.2,33.9,33.9v173.1C733.8,737.4,718.7,752.6,699.9,752.6z"/>
		<g>
			<path d="M76.1,827l-9.5-17.2H56.2V827h-6v-39.9h13.9c11.7,0,16.8,3.8,16.8,11.1c0,5.4-3.3,8.7-8.7,10.3L82.9,827H76.1z
				 M64.3,805.3c3.9,0,10.6-0.6,10.6-6.8c0-5.9-5.5-6.7-10.3-6.7h-8.4v13.4H64.3z"/>
			<path d="M94.8,827v-39.9H122v4.7h-21.2v12.3H116v4.6h-15.2v13.7H123v4.7H94.8z"/>
			<path d="M165.6,815.4c-2.8,9.3-8.8,12.3-16.8,12.3c-11.9,0-17.5-7.8-17.5-20.8c0-12.9,6.8-20.4,17.8-20.4
				c8.3,0,13.4,3.4,15.8,11.9l-5.6,1c-1.9-5.9-5.3-8.2-10.3-8.2c-7.3,0-11.7,5.9-11.7,15.7c0,10.6,3.7,16.1,11.6,16.1
				c5.4,0,9.2-2.5,11.1-8.7L165.6,815.4z"/>
			<path d="M174.5,807.1c0-11.9,6.3-20.6,18.5-20.6c12.1,0,18.4,8.7,18.4,20.6c0,12.7-6.8,20.6-18.4,20.6
				C181.3,827.7,174.5,819.8,174.5,807.1z M205.4,807.1c0-10.2-4.8-16.1-12.4-16.1c-7.7,0-12.5,5.9-12.5,16.1
				c0,10.1,4.8,16.1,12.5,16.1C200.7,823.1,205.4,817.2,205.4,807.1z"/>
			<path d="M250.3,827v-4h-0.1c-2.8,3.2-6.7,4.7-11.7,4.7c-11.6,0-17.6-7.6-17.6-20.5c0-12.8,6.4-20.7,18-20.7
				c8.2,0,13.5,3.4,15.9,11.8l-5.5,1c-1.9-5.9-5.3-8.1-10.4-8.1c-7.5,0-12.1,5.8-12.1,16.1c0,10.3,4,15.9,12.4,15.9
				c6.5,0,10.6-3.4,10.6-9.4c0-0.4,0-1-0.1-1.6h-10.5v-4.2h16V827H250.3z"/>
			<path d="M297.4,827l-22.2-33.5h-0.1V827h-5.7v-39.9h8.5l19.5,30.2h0.1v-30.2h5.7V827H297.4z"/>
			<path d="M318.6,827v-39.9h6V827H318.6z"/>
			<path d="M336.5,827v-4.6l22.8-30.6h-21v-4.7h28.4v4.4l-23,30.8H367v4.7H336.5z"/>
			<path d="M379.3,827v-39.9h27.2v4.7h-21.2v12.3h15.2v4.6h-15.2v13.7h22.2v4.7H379.3z"/>
			<path d="M418.8,827v-39.9h12.1c15.1,0,21.7,6.8,21.7,19.5c0,13.5-7.8,20.4-22.9,20.4H418.8z M430.3,822.3
				c11.2,0,16.5-5.1,16.5-15.5c0-10.1-5-14.8-15.3-14.8h-6.7v30.3H430.3z"/>
			<path d="M504.6,797.1c-1.9-4.1-4.6-6.1-9.5-6.1c-5,0-8.4,2.2-8.4,6c0,9.1,24.2,4.7,24.2,19.1c0,7.7-6.3,11.6-15.3,11.6
				c-8.5,0-13.3-3.1-16.1-10.3l5.6-1.7c1.8,5,4.7,7.4,10.7,7.4c5.5,0,9.2-2.3,9.2-6.7c0-10-24.1-5.2-24.1-19.3
				c0-6.7,5.9-10.7,14-10.7c7.9,0,12.6,3.2,14.6,8.9L504.6,797.1z"/>
			<path d="M554.6,815.4c-2.8,9.3-8.8,12.3-16.8,12.3c-11.9,0-17.5-7.8-17.5-20.8c0-12.9,6.8-20.4,17.8-20.4
				c8.3,0,13.4,3.4,15.8,11.9l-5.6,1c-1.9-5.9-5.3-8.2-10.3-8.2c-7.3,0-11.7,5.9-11.7,15.7c0,10.6,3.7,16.1,11.6,16.1
				c5.4,0,9.2-2.5,11.1-8.7L554.6,815.4z"/>
			<path d="M594.2,827v-18.3h-21.9V827h-6v-39.9h6v16.8h21.9v-16.8h6V827H594.2z"/>
			<path d="M612.6,807.1c0-11.9,6.3-20.6,18.5-20.6c12.1,0,18.4,8.7,18.4,20.6c0,12.7-6.8,20.6-18.4,20.6
				C619.5,827.7,612.6,819.8,612.6,807.1z M643.5,807.1c0-10.2-4.8-16.1-12.4-16.1c-7.7,0-12.5,5.9-12.5,16.1
				c0,10.1,4.8,16.1,12.5,16.1C638.8,823.1,643.5,817.2,643.5,807.1z"/>
			<path d="M659.1,807.1c0-11.9,6.3-20.6,18.5-20.6s18.4,8.7,18.4,20.6c0,12.7-6.8,20.6-18.4,20.6
				C665.9,827.7,659.1,819.8,659.1,807.1z M689.9,807.1c0-10.2-4.8-16.1-12.4-16.1c-7.7,0-12.5,5.9-12.5,16.1
				c0,10.1,4.8,16.1,12.5,16.1C685.2,823.1,689.9,817.2,689.9,807.1z"/>
			<path d="M708.4,827v-39.9h6v35.2H734v4.7H708.4z"/>
		</g>
		<g>
			<path fill="#FFFFFF" d="M117.1,672.6v-64.4h-12.6v-10.7h39.7v10.7h-11.9v64.4H162v-29.2h13.7v39.9h-71.1v-10.7H117.1z"/>
			<path fill="#FFFFFF" d="M252.6,656.4h-51.9c0.8,5.5,3,10,6.8,13.4c3.7,3.4,8.5,5.1,14.3,5.1c8.5,0,15.2-3.3,20.1-9.9l10.7,4.6
				c-3.5,5.2-8,9.1-13.6,11.6c-5.6,2.5-11.4,3.8-17.5,3.8c-9.4,0-17.5-2.8-24.2-8.5c-6.7-5.7-10-13.4-10-23.1
				c0-9.2,3.3-16.7,9.8-22.7c6.5-5.9,14-8.9,22.5-8.9c8.3,0,15.8,2.9,22.5,8.7C248.9,636.4,252.4,645,252.6,656.4z M240.1,647.9
				c-0.9-4.2-3.1-8-6.8-11.4c-3.7-3.4-8.1-5.1-13.5-5.1c-4.8,0-9,1.5-12.4,4.6c-3.4,3.1-5.5,7-6.3,11.9H240.1z"/>
			<path fill="#FFFFFF" d="M325.1,672.9v10.4h-21.2v-7.3c-5.9,5.5-12.4,8.3-19.6,8.3c-5.6,0-10.5-1.8-14.6-5.3
				c-4.1-3.5-6.2-8.1-6.2-13.6c0-5.6,2.2-10.2,6.6-13.8c4.4-3.7,9.7-5.5,15.9-5.5c5.8,0,11.4,1.7,16.8,5.1v-5.9c0-3-0.3-5.4-0.9-7
				c-0.6-1.6-2-3.1-4.2-4.4c-2.2-1.3-5-2-8.6-2c-6.1,0-10.5,2.3-13.2,7l-11.6-3c5.1-9.3,14-13.9,26.6-13.9c4.6,0,8.6,0.6,12,1.8
				c3.4,1.2,5.9,2.8,7.6,4.7c1.7,1.9,2.8,4,3.3,6.2c0.6,2.2,0.9,5.8,0.9,10.6v27.7H325.1z M302.7,661.1c-5.2-4-10.5-5.9-15.9-5.9
				c-3.4,0-6.2,0.9-8.4,2.8c-2.3,1.9-3.4,4.3-3.4,7.3c0,2.8,1,5.1,3,7c2,1.9,4.7,2.8,8.1,2.8c5.9,0,11.4-2.4,16.6-7.2V661.1z"/>
			<path fill="#FFFFFF" d="M347.3,672.9V634h-12.4v-10.4H357V637c1.4-3.5,3.3-6.4,5.7-8.7c2.4-2.3,5-3.8,7.7-4.6
				c2.7-0.7,6.4-1.1,11.1-1.1h3.2v11.9h-2.4c-6.2,0-10.8,0.6-13.8,1.8c-3,1.2-5.3,3.4-6.8,6.5c-1.5,3.1-2.2,8.8-2.2,16.9v13.1h13.5
				v10.4h-38v-10.4H347.3z"/>
			<path fill="#FFFFFF" d="M416.8,623.6v7.2c7.8-5.4,14.9-8.1,21.3-8.1c4,0,7.3,0.9,9.9,2.7c2.6,1.8,4.3,4.1,5.1,6.7
				c0.8,2.7,1.2,6.5,1.2,11.6v29.1h10.4v10.4h-22.5v-39.1c0-4.5-0.7-7.5-2.1-8.9c-1.4-1.4-3.1-2.1-5.2-2.1c-5.4,0-11.4,2.5-18.2,7.6
				v32h10.6v10.4h-33.6v-10.4h10.8V634h-10.8v-10.4H416.8z"/>
			<path fill="#FFFFFF" d="M477.6,674c1.8,0,3.4,0.6,4.8,1.9c1.4,1.3,2,2.9,2,4.9c0,1.9-0.7,3.5-2,4.8c-1.3,1.3-2.9,2-4.8,2
				c-1.9,0-3.5-0.7-4.8-2c-1.3-1.3-2-2.9-2-4.8c0-1.9,0.7-3.5,2-4.8C474.2,674.7,475.8,674,477.6,674z"/>
			<path fill="#FFFFFF" d="M488.9,653.5c0-9.2,3-16.8,9.1-22.7c6-5.9,13.4-8.9,22.1-8.9c8.5,0,15.9,2.9,22,8.7
				c6.1,5.8,9.2,13.4,9.2,22.8c0,9.4-3.1,17-9.2,22.8c-6.1,5.8-13.5,8.8-22,8.8c-8.8,0-16.2-3-22.2-8.9
				C491.9,670.2,488.9,662.7,488.9,653.5z M501.2,653.4c0,5.9,1.8,10.7,5.5,14.5c3.7,3.8,8.1,5.7,13.4,5.7c5.4,0,9.8-1.9,13.5-5.7
				c3.6-3.8,5.4-8.6,5.4-14.4c0-5.9-1.8-10.7-5.5-14.5c-3.7-3.8-8.1-5.7-13.4-5.7c-5.5,0-10,1.9-13.5,5.8
				C503,643,501.2,647.7,501.2,653.4z"/>
			<path fill="#FFFFFF" d="M568.3,672.9V634h-12v-10.4h21.3V637c1.3-3.5,3.1-6.4,5.5-8.7c2.3-2.3,4.8-3.8,7.4-4.6
				c2.6-0.7,6.1-1.1,10.6-1.1h3.1v11.9h-2.3c-5.9,0-10.3,0.6-13.3,1.8c-2.9,1.2-5.1,3.4-6.5,6.5c-1.4,3.1-2.1,8.8-2.1,16.9v13.1
				h12.9v10.4h-36.5v-10.4H568.3z"/>
			<path fill="#FFFFFF" d="M679.2,623.6V634h-10.7v44.5c0,6-0.3,10.5-0.9,13.4c-0.6,2.9-2.1,5.9-4.4,8.9c-2.4,3-5.9,5.6-10.6,7.6
				c-4.7,2.1-10,3.1-15.8,3.1c-8.7,0-16.6-2.7-23.4-8l7.6-8.5c5.1,4,10.7,6,16.8,6c3.3,0,6.5-0.6,9.3-1.9c2.9-1.3,5-2.9,6.4-4.7
				c1.4-1.9,2.3-3.6,2.7-5.3c0.4-1.7,0.6-4.5,0.6-8.4v-5.4c-1.8,2.3-4.7,4.6-8.6,6.7c-3.9,2.1-8.2,3.1-12.9,3.1
				c-8.5,0-15.4-3-20.8-8.9c-5.4-5.9-8-13.2-8-21.9c0-9.5,3-17.1,8.9-22.9c5.9-5.8,12.7-8.7,20.5-8.7c7.8,0,14.8,3.1,21,9.4v-8.5
				H679.2z M619,654.1c0,6,1.7,11,5.2,14.8c3.5,3.8,8,5.7,13.4,5.7c5.3,0,9.9-1.9,13.7-5.8c3.8-3.8,5.8-8.8,5.8-14.8
				c0-6.1-1.9-11.1-5.8-14.8c-3.8-3.7-8.3-5.6-13.4-5.6s-9.5,1.8-13.3,5.5C620.9,642.9,619,647.8,619,654.1z"/>
		</g>
		<polygon fill="#EFB35A" points="411.7,490.3 456.6,497.4 423.6,528.7 430.7,573.5 390.8,551.8 350.4,572.4 358.6,527.8 
			326.5,495.7 371.5,489.7 392.2,449.3 		"/>
	</g>
	<g>
		<g>
			<path d="M119.6,70.7V57.3h59.3v13.4h-21.7v59h-15.9v-59H119.6z"/>
			<path d="M176.8,92.1c1.3-3.4,3.1-6.3,5.5-8.7c2.4-2.4,5.2-4.3,8.5-5.6c3.3-1.3,7-2,11.1-2c4.1,0,7.9,0.7,11.2,2
				c3.3,1.3,6.2,3.2,8.6,5.6c2.4,2.4,4.2,5.3,5.5,8.7c1.3,3.4,1.9,7.2,1.9,11.4c0,4.2-0.6,8-1.9,11.3c-1.3,3.4-3.1,6.3-5.5,8.7
				c-2.4,2.4-5.2,4.2-8.6,5.5c-3.3,1.3-7.1,1.9-11.2,1.9c-4.1,0-7.8-0.6-11.1-1.9c-3.3-1.3-6.1-3.1-8.5-5.5
				c-2.4-2.4-4.2-5.3-5.5-8.7c-1.3-3.4-1.9-7.2-1.9-11.3C174.8,99.3,175.5,95.5,176.8,92.1z M189.8,109.6c0.4,2,1.1,3.8,2.1,5.4
				c1,1.6,2.3,2.9,3.9,3.8c1.6,0.9,3.6,1.4,6.1,1.4c2.4,0,4.5-0.5,6.1-1.4c1.7-0.9,3-2.2,4-3.8c1-1.6,1.7-3.4,2.1-5.4
				c0.4-2,0.6-4,0.6-6.1c0-2.1-0.2-4.2-0.6-6.2S213,93.5,212,92c-1-1.6-2.3-2.8-4-3.8c-1.7-1-3.7-1.5-6.1-1.5
				c-2.4,0-4.5,0.5-6.1,1.5c-1.6,1-2.9,2.2-3.9,3.8c-1,1.6-1.7,3.3-2.1,5.4s-0.6,4.1-0.6,6.2C189.2,105.6,189.4,107.6,189.8,109.6z"
				/>
			<path d="M252.1,77.3v6.7h0.2c1.8-2.8,4-4.9,6.7-6.2c2.7-1.3,5.7-1.9,8.9-1.9c4.1,0,7.7,0.8,10.6,2.3c3,1.6,5.4,3.6,7.4,6.2
				c2,2.6,3.4,5.6,4.4,9c0.9,3.4,1.4,7,1.4,10.7c0,3.5-0.5,6.9-1.4,10.1c-0.9,3.2-2.4,6.1-4.3,8.6c-1.9,2.5-4.3,4.5-7.2,6
				c-2.9,1.5-6.2,2.2-10.1,2.2c-3.2,0-6.2-0.7-9-2c-2.7-1.3-5-3.3-6.7-5.8h-0.2V148h-14.4V77.3H252.1z M270.8,118.8
				c1.6-0.9,2.9-2.2,3.9-3.7c1-1.5,1.7-3.3,2.1-5.3c0.4-2,0.6-4.1,0.6-6.2c0-2.1-0.2-4.2-0.7-6.2c-0.4-2-1.2-3.8-2.2-5.4
				c-1-1.6-2.3-2.9-3.9-3.9c-1.6-1-3.5-1.5-5.8-1.5c-2.4,0-4.3,0.5-5.9,1.5c-1.6,1-2.9,2.2-3.9,3.8c-1,1.6-1.7,3.3-2.1,5.4
				s-0.6,4.1-0.6,6.3c0,2.1,0.2,4.2,0.7,6.2c0.4,2,1.1,3.8,2.1,5.3c1,1.5,2.3,2.8,3.9,3.7c1.6,0.9,3.6,1.4,5.9,1.4
				C267.2,120.2,269.2,119.8,270.8,118.8z"/>
			<path d="M346.4,70.6l-2.8,16.1l0.2,0.2c2-2,4.1-3.4,6.3-4.2c2.2-0.8,4.8-1.3,7.6-1.3c3.5,0,6.6,0.6,9.3,1.9c2.7,1.3,5,3,6.8,5.2
				c1.9,2.2,3.3,4.7,4.3,7.7c1,2.9,1.5,6.1,1.5,9.4c0,3.6-0.7,7-2.1,10.2c-1.4,3.1-3.3,5.9-5.7,8.2c-2.4,2.3-5.2,4.1-8.4,5.3
				c-3.2,1.2-6.6,1.8-10.1,1.8c-3.4,0-6.7-0.5-9.9-1.4s-5.9-2.3-8.4-4.2c-2.4-1.9-4.4-4.2-5.8-7c-1.5-2.8-2.2-6.1-2.3-9.8h14.4
				c0.3,3.2,1.6,5.8,3.6,7.8c2.1,1.9,4.8,2.9,8,2.9c1.9,0,3.6-0.4,5.1-1.2c1.5-0.8,2.8-1.8,3.9-3c1-1.2,1.9-2.7,2.4-4.4
				c0.6-1.7,0.9-3.4,0.9-5.1c0-1.8-0.3-3.5-0.8-5.2c-0.5-1.6-1.4-3-2.4-4.3c-1.1-1.2-2.4-2.2-3.9-2.8c-1.5-0.7-3.2-1-5.2-1
				c-2.6,0-4.7,0.5-6.3,1.4c-1.6,0.9-3.1,2.3-4.6,4.3h-13l7-39.2h39.6v11.9H346.4z"/>
			<path d="M391.6,76.5c1.4-4.7,3.3-8.5,5.6-11.3c2.4-2.8,5.1-4.9,8.3-6.1c3.1-1.2,6.5-1.8,10-1.8c3.6,0,6.9,0.6,10.1,1.8
				c3.1,1.2,5.9,3.2,8.3,6.1c2.4,2.8,4.3,6.6,5.7,11.3c1.4,4.7,2.1,10.5,2.1,17.4c0,7.1-0.7,13-2.1,17.8c-1.4,4.8-3.3,8.6-5.7,11.4
				c-2.4,2.8-5.2,4.9-8.3,6.1c-3.1,1.2-6.5,1.8-10.1,1.8c-3.5,0-6.8-0.6-10-1.8c-3.1-1.2-5.9-3.2-8.3-6.1c-2.4-2.8-4.2-6.6-5.6-11.4
				c-1.4-4.8-2.1-10.7-2.1-17.8C389.6,87,390.3,81.2,391.6,76.5z M404.2,101.2c0.1,2.9,0.6,5.6,1.3,8.3c0.7,2.7,1.8,4.9,3.4,6.8
				c1.6,1.9,3.8,2.8,6.7,2.8c3,0,5.3-0.9,6.8-2.8c1.6-1.9,2.7-4.2,3.4-6.8c0.7-2.7,1.1-5.4,1.3-8.3c0.1-2.9,0.2-5.3,0.2-7.3
				c0-1.2,0-2.7,0-4.4c0-1.7-0.2-3.5-0.4-5.3c-0.2-1.8-0.6-3.6-1-5.4c-0.4-1.8-1.1-3.4-2-4.8c-0.9-1.4-2-2.6-3.3-3.4
				c-1.4-0.9-3-1.3-5-1.3c-2,0-3.6,0.4-4.9,1.3c-1.3,0.9-2.4,2-3.2,3.4c-0.8,1.4-1.5,3-2,4.8c-0.5,1.8-0.8,3.6-1,5.4
				s-0.3,3.6-0.4,5.3c0,1.7-0.1,3.2-0.1,4.4C404,95.9,404,98.4,404.2,101.2z"/>
			<path d="M513,57.3c3.4,0,6.6,0.3,9.4,0.9c2.8,0.6,5.3,1.6,7.3,3c2,1.4,3.6,3.2,4.7,5.5c1.1,2.3,1.7,5.1,1.7,8.5
				c0,3.6-0.8,6.7-2.5,9.1c-1.7,2.4-4.1,4.4-7.3,6c4.5,1.3,7.8,3.5,10,6.7c2.2,3.2,3.3,7.1,3.3,11.6c0,3.6-0.7,6.8-2.1,9.5
				c-1.4,2.7-3.3,4.8-5.7,6.5c-2.4,1.7-5.1,2.9-8.2,3.7c-3.1,0.8-6.2,1.2-9.5,1.2h-35.1V57.3H513z M511,86.6c2.8,0,5.2-0.7,7-2
				c1.8-1.4,2.7-3.5,2.7-6.6c0-1.7-0.3-3.1-0.9-4.2c-0.6-1.1-1.4-1.9-2.4-2.5c-1-0.6-2.2-1-3.5-1.3c-1.3-0.2-2.7-0.4-4.1-0.4h-14.9
				v16.9H511z M511.9,117.3c1.6,0,3-0.2,4.5-0.5c1.4-0.3,2.7-0.8,3.8-1.5c1.1-0.7,1.9-1.7,2.6-2.9c0.6-1.2,1-2.8,1-4.7
				c0-3.7-1-6.4-3.1-8c-2.1-1.6-4.9-2.4-8.3-2.4h-17.3v19.9H511.9z"/>
			<path d="M562.1,117.1c2.2,2.1,5.3,3.1,9.3,3.1c2.9,0,5.4-0.7,7.5-2.2c2.1-1.5,3.4-3,3.9-4.6h12.7c-2,6.3-5.1,10.8-9.3,13.5
				c-4.2,2.7-9.3,4.1-15.2,4.1c-4.1,0-7.8-0.7-11.1-2c-3.3-1.3-6.1-3.2-8.4-5.6c-2.3-2.4-4.1-5.3-5.3-8.7c-1.3-3.4-1.9-7.1-1.9-11.1
				c0-3.9,0.6-7.6,1.9-10.9c1.3-3.4,3.1-6.3,5.5-8.8c2.4-2.5,5.2-4.4,8.5-5.8c3.3-1.4,6.9-2.1,10.9-2.1c4.5,0,8.3,0.9,11.7,2.6
				c3.3,1.7,6,4,8.2,6.9c2.1,2.9,3.7,6.2,4.6,9.9c0.9,3.7,1.3,7.6,1,11.7h-37.8C558.8,111.6,560,115,562.1,117.1z M578.4,89.5
				c-1.7-1.9-4.3-2.8-7.9-2.8c-2.3,0-4.2,0.4-5.7,1.2c-1.5,0.8-2.7,1.7-3.6,2.9c-0.9,1.1-1.6,2.4-1.9,3.6c-0.4,1.3-0.6,2.4-0.7,3.4
				H582C581.3,94.2,580.1,91.4,578.4,89.5z"/>
			<path d="M615,116.6c0.6,1.1,1.5,2,2.5,2.7c1,0.7,2.2,1.2,3.5,1.6c1.3,0.3,2.7,0.5,4.1,0.5c1,0,2.1-0.1,3.2-0.4
				c1.1-0.2,2.1-0.6,3-1.1s1.7-1.2,2.3-2c0.6-0.8,0.9-1.9,0.9-3.2c0-2.2-1.4-3.8-4.3-4.9c-2.9-1.1-6.9-2.2-12-3.2
				c-2.1-0.5-4.1-1-6.1-1.7c-2-0.6-3.8-1.5-5.3-2.5c-1.6-1-2.8-2.4-3.8-4c-0.9-1.6-1.4-3.5-1.4-5.8c0-3.4,0.7-6.1,2-8.3
				c1.3-2.2,3.1-3.9,5.2-5.1c2.2-1.2,4.6-2.1,7.3-2.6c2.7-0.5,5.5-0.8,8.3-0.8c2.8,0,5.6,0.3,8.3,0.8c2.7,0.5,5,1.5,7.1,2.7
				c2.1,1.3,3.8,3,5.2,5.1c1.4,2.1,2.2,4.8,2.5,8.1h-13.7c-0.2-2.8-1.3-4.6-3.1-5.6c-1.9-1-4.1-1.5-6.7-1.5c-0.8,0-1.7,0.1-2.6,0.2
				c-0.9,0.1-1.8,0.3-2.6,0.7c-0.8,0.3-1.4,0.8-2,1.5c-0.5,0.6-0.8,1.5-0.8,2.6c0,1.3,0.5,2.3,1.4,3.1c0.9,0.8,2.2,1.5,3.7,2
				c1.5,0.5,3.3,1,5.2,1.4c2,0.4,4,0.8,6,1.3c2.1,0.5,4.1,1,6.1,1.7c2,0.7,3.8,1.6,5.3,2.7c1.6,1.1,2.8,2.5,3.7,4.2
				c0.9,1.7,1.4,3.7,1.4,6.1c0,3.4-0.7,6.3-2.1,8.7c-1.4,2.3-3.2,4.2-5.4,5.6c-2.2,1.4-4.8,2.4-7.7,3c-2.9,0.6-5.8,0.9-8.8,0.9
				c-3,0-6-0.3-8.9-0.9c-2.9-0.6-5.5-1.6-7.8-3c-2.3-1.4-4.1-3.3-5.6-5.6c-1.5-2.3-2.2-5.3-2.4-8.8H614
				C614,114.2,614.4,115.5,615,116.6z"/>
			<path d="M684.1,77.3v9.6h-10.5v25.9c0,2.4,0.4,4.1,1.2,4.9c0.8,0.8,2.4,1.2,4.9,1.2c0.8,0,1.6,0,2.3-0.1c0.7-0.1,1.5-0.2,2.1-0.3
				v11.1c-1.2,0.2-2.6,0.3-4.1,0.4c-1.5,0.1-2.9,0.1-4.4,0.1c-2.2,0-4.3-0.2-6.3-0.5c-2-0.3-3.8-0.9-5.3-1.8
				c-1.5-0.9-2.7-2.1-3.6-3.7c-0.9-1.6-1.3-3.7-1.3-6.4V86.9h-8.7v-9.6h8.7V61.5h14.4v15.7H684.1z"/>
		</g>
		<g>
			<path d="M158.1,175.8v-9.6h42.6v9.6h-15.6v42.4h-11.4v-42.4H158.1z"/>
			<path d="M210.2,180.5v7h0.1c0.5-1.2,1.1-2.2,2-3.2c0.8-1,1.8-1.8,2.8-2.5c1.1-0.7,2.2-1.2,3.4-1.6c1.2-0.4,2.5-0.6,3.8-0.6
				c0.7,0,1.4,0.1,2.3,0.4v9.6c-0.5-0.1-1.1-0.2-1.7-0.3c-0.7-0.1-1.3-0.1-2-0.1c-1.9,0-3.5,0.3-4.8,0.9c-1.3,0.6-2.4,1.5-3.2,2.6
				c-0.8,1.1-1.4,2.4-1.7,3.8c-0.3,1.5-0.5,3-0.5,4.7v17h-10.3v-37.7H210.2z"/>
			<path d="M229.7,192.1c0.1-2.4,0.8-4.4,1.8-6c1.1-1.6,2.4-2.9,4.1-3.9c1.7-1,3.5-1.7,5.6-2.1c2.1-0.4,4.1-0.6,6.2-0.6
				c1.9,0,3.8,0.1,5.8,0.4c1.9,0.3,3.7,0.8,5.3,1.6c1.6,0.8,2.9,1.9,3.9,3.2s1.5,3.2,1.5,5.5v19.6c0,1.7,0.1,3.3,0.3,4.9
				c0.2,1.6,0.5,2.7,1,3.5h-10.5c-0.2-0.6-0.4-1.2-0.5-1.8c-0.1-0.6-0.2-1.2-0.3-1.9c-1.7,1.7-3.6,2.9-5.8,3.6c-2.2,0.7-4.5,1-6.8,1
				c-1.8,0-3.5-0.2-5-0.7c-1.6-0.4-2.9-1.1-4.1-2c-1.2-0.9-2.1-2.1-2.7-3.5c-0.7-1.4-1-3.1-1-5c0-2.1,0.4-3.9,1.1-5.3
				c0.8-1.4,1.7-2.5,2.9-3.3c1.2-0.8,2.5-1.4,4.1-1.9c1.5-0.4,3.1-0.7,4.6-1c1.6-0.2,3.1-0.4,4.6-0.6c1.5-0.1,2.8-0.4,4-0.7
				c1.2-0.3,2.1-0.7,2.8-1.3c0.7-0.6,1-1.4,0.9-2.4c0-1.1-0.2-2-0.5-2.7c-0.4-0.7-0.9-1.2-1.5-1.5c-0.6-0.4-1.3-0.6-2.1-0.7
				c-0.8-0.1-1.7-0.2-2.6-0.2c-2,0-3.6,0.4-4.8,1.3c-1.2,0.9-1.8,2.3-2,4.4H229.7z M253.6,199.8c-0.4,0.4-1,0.7-1.6,0.9
				c-0.7,0.2-1.4,0.4-2.1,0.5c-0.8,0.1-1.5,0.3-2.4,0.4c-0.8,0.1-1.7,0.2-2.5,0.4c-0.8,0.1-1.5,0.3-2.3,0.6c-0.8,0.2-1.4,0.6-2,1
				c-0.6,0.4-1,0.9-1.3,1.6c-0.3,0.6-0.5,1.4-0.5,2.4c0,0.9,0.2,1.7,0.5,2.3c0.3,0.6,0.8,1.1,1.4,1.5c0.6,0.4,1.3,0.6,2,0.8
				c0.8,0.1,1.6,0.2,2.4,0.2c2,0,3.6-0.3,4.7-1c1.1-0.7,1.9-1.5,2.5-2.4c0.5-0.9,0.9-1.9,1-2.9c0.1-1,0.2-1.7,0.2-2.3V199.8z"/>
			<path d="M300.2,213.4c-1.2,2-2.8,3.5-4.8,4.4c-2,0.9-4.2,1.3-6.7,1.3c-2.8,0-5.3-0.5-7.4-1.6c-2.1-1.1-3.9-2.6-5.3-4.4
				c-1.4-1.9-2.4-4-3.1-6.4c-0.7-2.4-1.1-5-1.1-7.6c0-2.5,0.4-5,1.1-7.3c0.7-2.4,1.7-4.4,3.1-6.2c1.4-1.8,3.1-3.2,5.2-4.3
				c2.1-1.1,4.5-1.6,7.3-1.6c2.2,0,4.4,0.5,6.4,1.4c2,0.9,3.6,2.3,4.8,4.2h0.1v-18.9h10.3v52h-9.8v-4.8H300.2z M299.7,194.8
				c-0.3-1.4-0.8-2.7-1.5-3.8c-0.7-1.1-1.6-2-2.7-2.7c-1.1-0.7-2.5-1-4.2-1c-1.7,0-3.1,0.3-4.3,1c-1.2,0.7-2.1,1.6-2.8,2.7
				c-0.7,1.1-1.2,2.4-1.5,3.8c-0.3,1.4-0.5,2.9-0.5,4.5c0,1.5,0.2,2.9,0.5,4.4c0.3,1.5,0.9,2.8,1.6,3.9c0.8,1.1,1.7,2.1,2.8,2.8
				c1.1,0.7,2.5,1.1,4.1,1.1c1.7,0,3.1-0.3,4.3-1c1.1-0.7,2.1-1.6,2.7-2.7c0.7-1.1,1.2-2.4,1.5-3.9c0.3-1.5,0.4-3,0.4-4.5
				C300.2,197.7,300,196.2,299.7,194.8z"/>
			<path d="M330.5,209.2c1.6,1.5,3.8,2.3,6.7,2.3c2.1,0,3.9-0.5,5.4-1.6c1.5-1,2.4-2.1,2.8-3.3h9.1c-1.5,4.5-3.7,7.7-6.7,9.7
				c-3,1.9-6.7,2.9-10.9,2.9c-3,0-5.6-0.5-8-1.4c-2.4-0.9-4.4-2.3-6-4c-1.7-1.7-2.9-3.8-3.8-6.3c-0.9-2.4-1.3-5.1-1.3-8
				c0-2.8,0.5-5.4,1.4-7.9c0.9-2.4,2.2-4.5,3.9-6.3c1.7-1.8,3.7-3.2,6.1-4.2c2.4-1,5-1.5,7.8-1.5c3.2,0,6,0.6,8.4,1.9
				c2.4,1.2,4.3,2.9,5.9,5c1.5,2.1,2.6,4.5,3.3,7.1c0.7,2.7,0.9,5.5,0.7,8.4h-27.2C328.1,205.2,328.9,207.7,330.5,209.2z
				 M342.1,189.3c-1.2-1.4-3.1-2-5.6-2c-1.7,0-3,0.3-4.1,0.8c-1.1,0.6-2,1.3-2.6,2.1c-0.7,0.8-1.1,1.7-1.4,2.6
				c-0.3,0.9-0.4,1.7-0.5,2.5h16.8C344.2,192.7,343.4,190.7,342.1,189.3z"/>
			<path d="M392.7,205.4c0.6,1.2,1.5,2.2,2.5,2.9c1,0.8,2.3,1.3,3.7,1.7c1.4,0.4,2.9,0.5,4.4,0.5c1,0,2.1-0.1,3.3-0.3
				c1.2-0.2,2.3-0.5,3.3-1c1-0.5,1.9-1.2,2.5-2c0.7-0.8,1-1.9,1-3.2c0-1.4-0.4-2.5-1.3-3.4c-0.9-0.9-2.1-1.6-3.5-2.2
				c-1.5-0.6-3.1-1.1-5-1.5c-1.8-0.4-3.7-0.9-5.6-1.5c-1.9-0.5-3.8-1.1-5.7-1.8c-1.8-0.7-3.5-1.6-5-2.7c-1.5-1.1-2.6-2.5-3.5-4.2
				c-0.9-1.7-1.3-3.7-1.3-6.1c0-2.7,0.6-5,1.7-7c1.1-2,2.6-3.6,4.5-4.9c1.8-1.3,3.9-2.3,6.3-2.9c2.3-0.6,4.7-0.9,7-0.9
				c2.7,0,5.3,0.3,7.8,0.9c2.5,0.6,4.7,1.6,6.7,2.9c1.9,1.4,3.5,3.1,4.6,5.2c1.1,2.1,1.7,4.7,1.7,7.7h-11.1c-0.1-1.6-0.4-2.8-1-3.9
				c-0.6-1-1.3-1.8-2.2-2.4c-0.9-0.6-2-1-3.2-1.2c-1.2-0.2-2.5-0.4-3.9-0.4c-0.9,0-1.8,0.1-2.8,0.3c-0.9,0.2-1.8,0.5-2.5,1
				c-0.8,0.5-1.4,1.1-1.9,1.8c-0.5,0.7-0.7,1.7-0.7,2.8c0,1,0.2,1.8,0.6,2.5c0.4,0.6,1.2,1.2,2.3,1.7c1.1,0.5,2.7,1.1,4.7,1.6
				c2,0.5,4.6,1.2,7.9,2c1,0.2,2.3,0.5,4,1.1c1.7,0.5,3.4,1.3,5.1,2.4c1.7,1.1,3.2,2.6,4.4,4.5c1.2,1.9,1.9,4.3,1.9,7.2
				c0,2.4-0.5,4.6-1.4,6.6s-2.3,3.8-4.1,5.3c-1.8,1.5-4.1,2.6-6.8,3.5s-5.8,1.2-9.4,1.2c-2.9,0-5.6-0.4-8.3-1.1
				c-2.7-0.7-5.1-1.8-7.1-3.3c-2.1-1.5-3.7-3.4-4.9-5.8c-1.2-2.3-1.8-5.1-1.7-8.3h11.1C391.8,202.7,392.1,204.2,392.7,205.4z"/>
			<path d="M448.2,187.3c-1.7,0-3,0.4-4.2,1.1c-1.1,0.8-2,1.7-2.7,2.9c-0.7,1.2-1.2,2.5-1.5,3.9c-0.3,1.4-0.4,2.9-0.4,4.3
				c0,1.4,0.1,2.7,0.4,4.2c0.3,1.4,0.8,2.7,1.4,3.8c0.7,1.1,1.5,2.1,2.7,2.8c1.1,0.7,2.5,1.1,4.1,1.1c2.5,0,4.4-0.7,5.7-2.1
				c1.3-1.4,2.2-3.2,2.5-5.6h10c-0.7,5-2.6,8.8-5.8,11.4c-3.2,2.6-7.3,3.9-12.3,3.9c-2.8,0-5.4-0.5-7.8-1.4c-2.4-0.9-4.4-2.3-6-4
				c-1.7-1.7-2.9-3.7-3.9-6.1c-0.9-2.4-1.4-4.9-1.4-7.8c0-2.9,0.4-5.6,1.3-8.1c0.8-2.5,2.1-4.7,3.8-6.5c1.7-1.8,3.7-3.2,6-4.3
				c2.4-1,5.1-1.5,8.2-1.5c2.2,0,4.4,0.3,6.4,0.9c2.1,0.6,3.9,1.5,5.5,2.7c1.6,1.2,2.9,2.7,4,4.4c1,1.8,1.6,3.9,1.7,6.3h-10.1
				C455.1,189.5,452.6,187.3,448.2,187.3z"/>
			<path d="M480.9,166.2v19.6h0.2c1.3-2.2,3-3.8,5-4.8c2-1,4-1.5,6-1.5c2.8,0,5,0.4,6.8,1.1c1.8,0.8,3.2,1.8,4.2,3.1
				c1,1.3,1.7,3,2.1,4.9c0.4,1.9,0.6,4,0.6,6.4v23.2h-10.3v-21.3c0-3.1-0.5-5.4-1.5-7c-1-1.5-2.7-2.3-5.2-2.3
				c-2.8,0-4.9,0.8-6.1,2.5s-1.9,4.4-1.9,8.3v19.7h-10.3v-52H480.9z"/>
			<path d="M512.5,191.2c0.9-2.5,2.2-4.5,3.9-6.3c1.7-1.7,3.7-3.1,6.1-4c2.4-0.9,5-1.4,8-1.4s5.6,0.5,8,1.4c2.4,0.9,4.5,2.3,6.2,4
				c1.7,1.7,3,3.8,3.9,6.3c0.9,2.5,1.4,5.2,1.4,8.2c0,3-0.5,5.7-1.4,8.2c-0.9,2.4-2.2,4.5-3.9,6.2c-1.7,1.7-3.8,3-6.2,4
				c-2.4,0.9-5.1,1.4-8,1.4s-5.6-0.5-8-1.4c-2.4-0.9-4.4-2.2-6.1-4c-1.7-1.7-3-3.8-3.9-6.2c-0.9-2.4-1.4-5.1-1.4-8.2
				C511.1,196.4,511.5,193.7,512.5,191.2z M521.9,203.8c0.3,1.4,0.8,2.7,1.5,3.9c0.7,1.1,1.6,2.1,2.8,2.7c1.2,0.7,2.6,1,4.4,1
				c1.7,0,3.2-0.3,4.4-1c1.2-0.7,2.1-1.6,2.8-2.7c0.7-1.1,1.2-2.4,1.5-3.9c0.3-1.4,0.4-2.9,0.4-4.4c0-1.5-0.1-3-0.4-4.4
				s-0.8-2.7-1.5-3.9c-0.7-1.1-1.7-2-2.8-2.7c-1.2-0.7-2.7-1.1-4.4-1.1c-1.7,0-3.2,0.4-4.4,1.1c-1.2,0.7-2.1,1.6-2.8,2.7
				c-0.7,1.1-1.2,2.4-1.5,3.9c-0.3,1.5-0.4,2.9-0.4,4.4C521.4,200.9,521.6,202.4,521.9,203.8z"/>
			<path d="M554,191.2c0.9-2.5,2.2-4.5,3.9-6.3c1.7-1.7,3.7-3.1,6.1-4c2.4-0.9,5-1.4,8-1.4s5.6,0.5,8,1.4c2.4,0.9,4.5,2.3,6.2,4
				c1.7,1.7,3,3.8,3.9,6.3c0.9,2.5,1.4,5.2,1.4,8.2c0,3-0.5,5.7-1.4,8.2c-0.9,2.4-2.2,4.5-3.9,6.2c-1.7,1.7-3.8,3-6.2,4
				c-2.4,0.9-5.1,1.4-8,1.4s-5.6-0.5-8-1.4c-2.4-0.9-4.4-2.2-6.1-4c-1.7-1.7-3-3.8-3.9-6.2c-0.9-2.4-1.4-5.1-1.4-8.2
				C552.7,196.4,553.1,193.7,554,191.2z M563.4,203.8c0.3,1.4,0.8,2.7,1.5,3.9c0.7,1.1,1.6,2.1,2.8,2.7c1.2,0.7,2.6,1,4.4,1
				c1.7,0,3.2-0.3,4.4-1c1.2-0.7,2.1-1.6,2.8-2.7c0.7-1.1,1.2-2.4,1.5-3.9c0.3-1.4,0.4-2.9,0.4-4.4c0-1.5-0.1-3-0.4-4.4
				s-0.8-2.7-1.5-3.9c-0.7-1.1-1.7-2-2.8-2.7c-1.2-0.7-2.7-1.1-4.4-1.1c-1.7,0-3.2,0.4-4.4,1.1c-1.2,0.7-2.1,1.6-2.8,2.7
				c-0.7,1.1-1.2,2.4-1.5,3.9c-0.3,1.5-0.4,2.9-0.4,4.4C563,200.9,563.1,202.4,563.4,203.8z"/>
			<path d="M606,166.2v52h-10.3v-52H606z"/>
			<path d="M621.4,208.8c0.5,0.8,1.1,1.5,1.8,2c0.7,0.5,1.6,0.9,2.5,1.1c0.9,0.2,1.9,0.4,2.9,0.4c0.7,0,1.5-0.1,2.3-0.3
				c0.8-0.2,1.5-0.4,2.2-0.8c0.7-0.4,1.2-0.8,1.6-1.5c0.4-0.6,0.7-1.4,0.7-2.3c0-1.6-1-2.7-3.1-3.5c-2.1-0.8-4.9-1.6-8.6-2.3
				c-1.5-0.3-3-0.7-4.4-1.2c-1.4-0.5-2.7-1.1-3.8-1.8c-1.1-0.8-2-1.7-2.7-2.8c-0.7-1.1-1-2.5-1-4.2c0-2.4,0.5-4.4,1.4-6
				c0.9-1.6,2.2-2.8,3.8-3.7c1.6-0.9,3.3-1.5,5.2-1.9c1.9-0.4,3.9-0.5,6-0.5s4,0.2,5.9,0.6c1.9,0.4,3.6,1,5.1,2
				c1.5,0.9,2.8,2.1,3.8,3.7c1,1.5,1.6,3.5,1.8,5.8H635c-0.1-2-0.9-3.3-2.3-4c-1.4-0.7-3-1.1-4.8-1.1c-0.6,0-1.2,0-1.9,0.1
				c-0.7,0.1-1.3,0.2-1.9,0.5c-0.6,0.2-1,0.6-1.4,1.1c-0.4,0.5-0.6,1.1-0.6,1.9c0,0.9,0.3,1.7,1,2.3c0.7,0.6,1.6,1.1,2.7,1.4
				c1.1,0.4,2.3,0.7,3.8,1c1.4,0.3,2.8,0.6,4.3,0.9c1.5,0.3,3,0.8,4.4,1.2c1.4,0.5,2.7,1.1,3.8,1.9c1.1,0.8,2,1.8,2.7,3
				c0.7,1.2,1,2.7,1,4.4c0,2.5-0.5,4.6-1.5,6.2c-1,1.7-2.3,3-3.9,4s-3.4,1.7-5.5,2.1c-2.1,0.4-4.2,0.6-6.3,0.6
				c-2.2,0-4.3-0.2-6.4-0.7s-3.9-1.2-5.6-2.2c-1.6-1-3-2.4-4-4c-1-1.7-1.6-3.8-1.7-6.3h9.8C620.8,207.1,621,208,621.4,208.8z"/>
		</g>
		<g>
			<path d="M210,383.9c0.6,1.2,1.5,2.2,2.5,2.9c1,0.8,2.3,1.3,3.7,1.7c1.4,0.4,2.9,0.5,4.4,0.5c1,0,2.1-0.1,3.3-0.3
				c1.2-0.2,2.3-0.5,3.3-1c1-0.5,1.9-1.2,2.5-2c0.7-0.8,1-1.9,1-3.2c0-1.4-0.4-2.5-1.3-3.4c-0.9-0.9-2.1-1.6-3.5-2.2
				c-1.5-0.6-3.1-1.1-5-1.5c-1.8-0.4-3.7-0.9-5.6-1.5c-1.9-0.5-3.8-1.1-5.7-1.8c-1.8-0.7-3.5-1.6-5-2.7c-1.5-1.1-2.6-2.5-3.5-4.2
				c-0.9-1.7-1.3-3.7-1.3-6.1c0-2.7,0.6-5,1.7-7c1.1-2,2.6-3.6,4.5-4.9c1.8-1.3,3.9-2.3,6.3-2.9c2.3-0.6,4.7-0.9,7-0.9
				c2.7,0,5.3,0.3,7.8,0.9c2.5,0.6,4.7,1.6,6.7,2.9c1.9,1.4,3.5,3.1,4.6,5.2c1.1,2.1,1.7,4.7,1.7,7.7h-11.1c-0.1-1.6-0.4-2.8-1-3.9
				c-0.6-1-1.3-1.8-2.2-2.4c-0.9-0.6-2-1-3.2-1.2c-1.2-0.2-2.5-0.4-3.9-0.4c-0.9,0-1.8,0.1-2.8,0.3c-0.9,0.2-1.8,0.5-2.5,1
				c-0.8,0.5-1.4,1.1-1.9,1.8c-0.5,0.7-0.7,1.7-0.7,2.8c0,1,0.2,1.8,0.6,2.5c0.4,0.6,1.2,1.2,2.3,1.7c1.1,0.5,2.7,1.1,4.7,1.6
				c2,0.5,4.6,1.2,7.9,2c1,0.2,2.3,0.5,4,1.1c1.7,0.5,3.4,1.3,5.1,2.4c1.7,1.1,3.2,2.6,4.4,4.5c1.2,1.9,1.9,4.3,1.9,7.2
				c0,2.4-0.5,4.6-1.4,6.6c-0.9,2-2.3,3.8-4.1,5.3c-1.8,1.5-4.1,2.6-6.8,3.5s-5.8,1.2-9.4,1.2c-2.9,0-5.6-0.4-8.3-1.1
				c-2.7-0.7-5.1-1.8-7.1-3.3c-2.1-1.5-3.7-3.4-4.9-5.8c-1.2-2.3-1.8-5.1-1.7-8.3H209C209,381.2,209.3,382.7,210,383.9z"/>
			<path d="M265.4,365.8c-1.7,0-3,0.4-4.2,1.1c-1.1,0.8-2,1.7-2.7,2.9c-0.7,1.2-1.2,2.5-1.5,3.9c-0.3,1.4-0.4,2.9-0.4,4.3
				c0,1.4,0.1,2.7,0.4,4.2c0.3,1.4,0.8,2.7,1.4,3.8c0.7,1.1,1.5,2.1,2.7,2.8c1.1,0.7,2.5,1.1,4.1,1.1c2.5,0,4.4-0.7,5.7-2.1
				c1.3-1.4,2.2-3.2,2.5-5.6h10c-0.7,5-2.6,8.8-5.8,11.4c-3.2,2.6-7.3,3.9-12.3,3.9c-2.8,0-5.4-0.5-7.8-1.4c-2.4-0.9-4.4-2.3-6-4
				c-1.7-1.7-2.9-3.7-3.9-6.1c-0.9-2.4-1.4-4.9-1.4-7.8c0-2.9,0.4-5.6,1.3-8.1c0.8-2.5,2.1-4.7,3.8-6.5c1.6-1.8,3.7-3.2,6-4.3
				c2.4-1,5.1-1.5,8.2-1.5c2.2,0,4.4,0.3,6.4,0.9c2.1,0.6,3.9,1.5,5.5,2.7c1.6,1.2,2.9,2.7,4,4.4c1,1.8,1.6,3.9,1.7,6.3H273
				C272.4,368,269.8,365.8,265.4,365.8z"/>
			<path d="M302.5,344.7v19.6h0.2c1.3-2.2,3-3.8,5-4.8c2-1,4-1.5,6-1.5c2.8,0,5,0.4,6.8,1.1c1.8,0.8,3.2,1.8,4.2,3.1
				c1,1.3,1.7,3,2.1,4.9c0.4,1.9,0.6,4,0.6,6.4v23.2h-10.3v-21.3c0-3.1-0.5-5.4-1.5-7c-1-1.5-2.7-2.3-5.2-2.3
				c-2.8,0-4.9,0.8-6.1,2.5c-1.3,1.7-1.9,4.4-1.9,8.3v19.7h-10.3v-52H302.5z"/>
			<path d="M335.5,369.7c0.9-2.5,2.2-4.5,3.9-6.3c1.7-1.7,3.7-3.1,6.1-4c2.4-0.9,5-1.4,8-1.4c3,0,5.6,0.5,8,1.4s4.5,2.3,6.2,4
				c1.7,1.7,3,3.8,3.9,6.3c0.9,2.5,1.4,5.2,1.4,8.2c0,3-0.5,5.7-1.4,8.2c-0.9,2.4-2.2,4.5-3.9,6.2c-1.7,1.7-3.8,3-6.2,4
				s-5.1,1.4-8,1.4c-3,0-5.6-0.5-8-1.4c-2.4-0.9-4.4-2.2-6.1-4c-1.7-1.7-3-3.8-3.9-6.2c-0.9-2.4-1.4-5.1-1.4-8.2
				C334.1,374.9,334.6,372.2,335.5,369.7z M344.9,382.3c0.3,1.4,0.8,2.7,1.5,3.9c0.7,1.1,1.6,2.1,2.8,2.7c1.2,0.7,2.6,1,4.4,1
				s3.2-0.3,4.4-1c1.2-0.7,2.1-1.6,2.8-2.7c0.7-1.1,1.2-2.4,1.5-3.9c0.3-1.4,0.4-2.9,0.4-4.4c0-1.5-0.1-3-0.4-4.4
				c-0.3-1.5-0.8-2.7-1.5-3.9c-0.7-1.1-1.7-2-2.8-2.7c-1.2-0.7-2.7-1.1-4.4-1.1s-3.2,0.4-4.4,1.1c-1.2,0.7-2.1,1.6-2.8,2.7
				c-0.7,1.1-1.2,2.4-1.5,3.9c-0.3,1.5-0.4,2.9-0.4,4.4C344.5,379.4,344.6,380.9,344.9,382.3z"/>
			<path d="M378.6,369.7c0.9-2.5,2.2-4.5,3.9-6.3c1.7-1.7,3.7-3.1,6.1-4c2.4-0.9,5-1.4,8-1.4c3,0,5.6,0.5,8,1.4s4.5,2.3,6.2,4
				c1.7,1.7,3,3.8,3.9,6.3c0.9,2.5,1.4,5.2,1.4,8.2c0,3-0.5,5.7-1.4,8.2c-0.9,2.4-2.2,4.5-3.9,6.2c-1.7,1.7-3.8,3-6.2,4
				s-5.1,1.4-8,1.4c-3,0-5.6-0.5-8-1.4c-2.4-0.9-4.4-2.2-6.1-4c-1.7-1.7-3-3.8-3.9-6.2c-0.9-2.4-1.4-5.1-1.4-8.2
				C377.2,374.9,377.6,372.2,378.6,369.7z M388,382.3c0.3,1.4,0.8,2.7,1.5,3.9c0.7,1.1,1.6,2.1,2.8,2.7c1.2,0.7,2.6,1,4.4,1
				s3.2-0.3,4.4-1c1.2-0.7,2.1-1.6,2.8-2.7c0.7-1.1,1.2-2.4,1.5-3.9c0.3-1.4,0.4-2.9,0.4-4.4c0-1.5-0.1-3-0.4-4.4
				c-0.3-1.5-0.8-2.7-1.5-3.9c-0.7-1.1-1.7-2-2.8-2.7c-1.2-0.7-2.7-1.1-4.4-1.1s-3.2,0.4-4.4,1.1c-1.2,0.7-2.1,1.6-2.8,2.7
				c-0.7,1.1-1.2,2.4-1.5,3.9c-0.3,1.5-0.4,2.9-0.4,4.4C387.5,379.4,387.7,380.9,388,382.3z"/>
			<path d="M433.5,344.7v52h-10.3v-52H433.5z"/>
			<path d="M457.4,344.7h12.8l12.2,20.5l12.1-20.5h12.7l-19.3,32v20h-11.4v-20.2L457.4,344.7z"/>
			<path d="M513.4,387.7c1.6,1.5,3.8,2.3,6.7,2.3c2.1,0,3.9-0.5,5.4-1.6c1.5-1,2.4-2.1,2.8-3.3h9.1c-1.5,4.5-3.7,7.7-6.7,9.7
				c-3,1.9-6.7,2.9-10.9,2.9c-3,0-5.6-0.5-8-1.4c-2.4-0.9-4.4-2.3-6-4c-1.7-1.7-2.9-3.8-3.8-6.3c-0.9-2.4-1.3-5.1-1.3-8
				c0-2.8,0.5-5.4,1.4-7.9c0.9-2.4,2.2-4.5,3.9-6.3c1.7-1.8,3.7-3.2,6.1-4.2c2.4-1,5-1.5,7.8-1.5c3.2,0,6,0.6,8.4,1.9
				c2.4,1.2,4.3,2.9,5.9,5c1.5,2.1,2.6,4.5,3.3,7.1c0.7,2.7,0.9,5.5,0.7,8.4h-27.2C511,383.8,511.9,386.2,513.4,387.7z M525.1,367.9
				c-1.2-1.4-3.1-2-5.6-2c-1.7,0-3,0.3-4.1,0.8c-1.1,0.6-2,1.3-2.6,2.1c-0.7,0.8-1.1,1.7-1.4,2.6c-0.3,0.9-0.4,1.7-0.5,2.5h16.8
				C527.2,371.2,526.4,369.2,525.1,367.9z"/>
			<path d="M542.3,370.7c0.1-2.4,0.8-4.4,1.8-6c1.1-1.6,2.4-2.9,4.1-3.9c1.6-1,3.5-1.7,5.6-2.1c2.1-0.4,4.1-0.6,6.2-0.6
				c1.9,0,3.8,0.1,5.8,0.4c1.9,0.3,3.7,0.8,5.3,1.6c1.6,0.8,2.9,1.9,3.9,3.2c1,1.4,1.5,3.2,1.5,5.5v19.6c0,1.7,0.1,3.3,0.3,4.9
				c0.2,1.6,0.5,2.7,1,3.5h-10.5c-0.2-0.6-0.4-1.2-0.5-1.8c-0.1-0.6-0.2-1.2-0.3-1.9c-1.7,1.7-3.6,2.9-5.8,3.6c-2.2,0.7-4.5,1-6.8,1
				c-1.8,0-3.5-0.2-5-0.7s-2.9-1.1-4.1-2c-1.2-0.9-2.1-2.1-2.7-3.5c-0.7-1.4-1-3.1-1-5c0-2.1,0.4-3.9,1.1-5.3s1.7-2.5,2.9-3.3
				c1.2-0.8,2.5-1.4,4.1-1.9c1.5-0.4,3.1-0.7,4.6-1c1.6-0.2,3.1-0.4,4.6-0.6s2.8-0.4,4-0.7c1.2-0.3,2.1-0.7,2.8-1.3
				c0.7-0.6,1-1.4,0.9-2.4c0-1.1-0.2-2-0.5-2.7c-0.4-0.7-0.8-1.2-1.5-1.5c-0.6-0.4-1.3-0.6-2.1-0.7c-0.8-0.1-1.7-0.2-2.6-0.2
				c-2,0-3.6,0.4-4.8,1.3s-1.8,2.3-2,4.4H542.3z M566.2,378.3c-0.4,0.4-1,0.7-1.6,0.9c-0.7,0.2-1.4,0.4-2.1,0.5
				c-0.8,0.1-1.5,0.3-2.4,0.4c-0.8,0.1-1.7,0.2-2.5,0.4c-0.8,0.1-1.5,0.3-2.3,0.6c-0.8,0.2-1.4,0.6-2,1c-0.6,0.4-1,0.9-1.3,1.6
				c-0.3,0.6-0.5,1.4-0.5,2.4c0,0.9,0.2,1.7,0.5,2.3c0.3,0.6,0.8,1.1,1.4,1.5c0.6,0.4,1.3,0.6,2,0.8c0.8,0.1,1.6,0.2,2.4,0.2
				c2,0,3.6-0.3,4.7-1c1.1-0.7,1.9-1.5,2.5-2.4s0.9-1.9,1-2.9c0.1-1,0.2-1.7,0.2-2.3V378.3z"/>
			<path d="M592.9,359.1v7h0.1c0.5-1.2,1.1-2.2,2-3.2c0.8-1,1.8-1.8,2.8-2.5c1.1-0.7,2.2-1.2,3.4-1.6c1.2-0.4,2.5-0.6,3.8-0.6
				c0.7,0,1.4,0.1,2.3,0.4v9.6c-0.5-0.1-1.1-0.2-1.7-0.3c-0.7-0.1-1.3-0.1-2-0.1c-1.9,0-3.5,0.3-4.8,0.9c-1.3,0.6-2.4,1.5-3.2,2.6
				c-0.8,1.1-1.4,2.4-1.7,3.8s-0.5,3-0.5,4.7v17h-10.3v-37.7H592.9z"/>
		</g>
		<g>
			<path d="M103.7,255.6c3.3,0,6.1,0.5,8.4,1.4c2.3,1,4.2,2.2,5.6,3.8c1.4,1.6,2.5,3.4,3.2,5.4c0.7,2,1,4.1,1,6.3
				c0,2.1-0.3,4.2-1,6.2c-0.7,2-1.7,3.8-3.2,5.4c-1.5,1.6-3.3,2.8-5.6,3.8c-2.3,1-5.1,1.4-8.4,1.4H91.5v18.9H79.9v-52.7H103.7z
				 M100.5,280.4c1.3,0,2.6-0.1,3.8-0.3c1.2-0.2,2.3-0.6,3.2-1.1c0.9-0.6,1.7-1.4,2.2-2.4c0.6-1,0.8-2.4,0.8-4.1
				c0-1.7-0.3-3-0.8-4.1c-0.6-1-1.3-1.8-2.2-2.4c-0.9-0.6-2-0.9-3.2-1.1c-1.2-0.2-2.5-0.3-3.8-0.3h-9v15.8H100.5z"/>
			<path d="M138,270.2v7.1h0.1c0.5-1.2,1.2-2.3,2-3.3c0.8-1,1.8-1.9,2.9-2.6c1.1-0.7,2.2-1.3,3.5-1.7c1.2-0.4,2.5-0.6,3.8-0.6
				c0.7,0,1.4,0.1,2.3,0.4v9.7c-0.5-0.1-1.1-0.2-1.8-0.3c-0.7-0.1-1.4-0.1-2-0.1c-1.9,0-3.5,0.3-4.9,1c-1.3,0.6-2.4,1.5-3.2,2.6
				c-0.8,1.1-1.4,2.4-1.7,3.9c-0.3,1.5-0.5,3.1-0.5,4.8v17.2H128v-38.1H138z"/>
			<path d="M155.6,281c0.9-2.5,2.3-4.6,4-6.3c1.7-1.7,3.8-3.1,6.2-4.1c2.4-1,5.1-1.4,8.1-1.4c3,0,5.7,0.5,8.1,1.4
				c2.4,1,4.5,2.3,6.2,4.1c1.7,1.7,3,3.9,4,6.3c0.9,2.5,1.4,5.2,1.4,8.3c0,3-0.5,5.8-1.4,8.3c-0.9,2.5-2.3,4.6-4,6.3
				c-1.7,1.7-3.8,3.1-6.2,4c-2.4,0.9-5.2,1.4-8.1,1.4c-3,0-5.7-0.5-8.1-1.4c-2.4-0.9-4.5-2.3-6.2-4c-1.7-1.7-3-3.8-4-6.3
				c-0.9-2.5-1.4-5.2-1.4-8.3C154.2,286.2,154.7,283.4,155.6,281z M165.1,293.7c0.3,1.5,0.8,2.8,1.5,3.9c0.7,1.2,1.7,2.1,2.8,2.8
				c1.2,0.7,2.7,1,4.4,1s3.3-0.3,4.5-1c1.2-0.7,2.2-1.6,2.9-2.8c0.7-1.2,1.2-2.5,1.5-3.9c0.3-1.4,0.4-2.9,0.4-4.5
				c0-1.5-0.1-3-0.4-4.5c-0.3-1.5-0.8-2.8-1.5-3.9c-0.7-1.1-1.7-2.1-2.9-2.8c-1.2-0.7-2.7-1.1-4.5-1.1s-3.2,0.4-4.4,1.1
				c-1.2,0.7-2.1,1.6-2.8,2.8c-0.7,1.1-1.2,2.4-1.5,3.9c-0.3,1.5-0.4,3-0.4,4.5C164.7,290.8,164.8,292.3,165.1,293.7z"/>
			<path d="M236.5,311.1c-0.4,2-1.3,3.8-2.7,5.5c-1.4,1.7-3.4,3.1-6,4.3c-2.6,1.2-6.1,1.8-10.5,1.8c-1.9,0-3.8-0.2-5.7-0.7
				c-1.9-0.5-3.7-1.2-5.3-2.2c-1.6-1-2.9-2.2-4-3.8c-1.1-1.5-1.7-3.4-1.8-5.6h10.4c0.5,2,1.4,3.3,2.9,4.1c1.4,0.8,3.1,1.1,4.9,1.1
				c2.9,0,5.1-0.9,6.5-2.7c1.4-1.8,2-4,2-6.7v-5H227c-1.1,2-2.7,3.5-4.8,4.5c-2.1,1-4.3,1.4-6.6,1.4c-2.9,0-5.3-0.5-7.4-1.5
				c-2.1-1-3.8-2.4-5.1-4.1c-1.3-1.7-2.3-3.8-2.9-6.1c-0.6-2.3-0.9-4.8-0.9-7.4c0-2.5,0.4-4.8,1.1-7.1c0.7-2.3,1.8-4.3,3.1-6
				c1.4-1.7,3.1-3.1,5.1-4.2c2-1,4.4-1.5,7-1.5c2.5,0,4.7,0.5,6.6,1.4c1.9,0.9,3.5,2.5,4.8,4.7h0.1v-5.1h10v35.7
				C237.1,307.4,236.9,309.1,236.5,311.1z M222.1,298.4c1.1-0.6,2.1-1.4,2.8-2.4c0.7-1,1.3-2.1,1.7-3.4c0.4-1.3,0.6-2.6,0.6-3.9
				c0-1.6-0.1-3.1-0.4-4.5c-0.3-1.4-0.8-2.6-1.5-3.7c-0.7-1.1-1.6-1.9-2.7-2.6c-1.1-0.6-2.6-1-4.3-1c-1.5,0-2.7,0.3-3.8,0.9
				c-1.1,0.6-1.9,1.4-2.7,2.4c-0.7,1-1.2,2.2-1.5,3.5c-0.3,1.3-0.5,2.7-0.5,4.1c0,1.4,0.1,2.7,0.4,4.1c0.3,1.4,0.7,2.6,1.4,3.7
				c0.7,1.1,1.5,2,2.6,2.7c1.1,0.7,2.4,1,4.1,1C219.7,299.3,221,299,222.1,298.4z"/>
			<path d="M256.9,270.2v7.1h0.1c0.5-1.2,1.2-2.3,2-3.3c0.8-1,1.8-1.9,2.9-2.6c1.1-0.7,2.2-1.3,3.5-1.7c1.2-0.4,2.5-0.6,3.8-0.6
				c0.7,0,1.4,0.1,2.3,0.4v9.7c-0.5-0.1-1.1-0.2-1.8-0.3c-0.7-0.1-1.4-0.1-2-0.1c-1.9,0-3.5,0.3-4.9,1c-1.3,0.6-2.4,1.5-3.2,2.6
				c-0.8,1.1-1.4,2.4-1.7,3.9c-0.3,1.5-0.5,3.1-0.5,4.8v17.2H247v-38.1H256.9z"/>
			<path d="M275.2,281.9c0.1-2.5,0.8-4.5,1.8-6.1c1.1-1.6,2.5-2.9,4.1-3.9c1.7-1,3.6-1.7,5.6-2.1c2.1-0.4,4.2-0.6,6.3-0.6
				c1.9,0,3.9,0.1,5.8,0.4c2,0.3,3.8,0.8,5.4,1.6c1.6,0.8,3,1.9,4,3.3c1,1.4,1.5,3.3,1.5,5.6v19.8c0,1.7,0.1,3.4,0.3,4.9
				c0.2,1.6,0.5,2.8,1,3.5h-10.6c-0.2-0.6-0.4-1.2-0.5-1.8c-0.1-0.6-0.2-1.2-0.3-1.9c-1.7,1.7-3.6,2.9-5.9,3.6c-2.3,0.7-4.6,1-6.9,1
				c-1.8,0-3.5-0.2-5.1-0.7c-1.6-0.4-2.9-1.1-4.1-2.1c-1.2-0.9-2.1-2.1-2.8-3.5c-0.7-1.4-1-3.1-1-5.1c0-2.2,0.4-3.9,1.1-5.3
				c0.8-1.4,1.7-2.5,3-3.4c1.2-0.8,2.6-1.5,4.1-1.9c1.5-0.4,3.1-0.7,4.7-1c1.6-0.2,3.1-0.4,4.6-0.6c1.5-0.1,2.9-0.4,4.1-0.7
				c1.2-0.3,2.1-0.7,2.8-1.3c0.7-0.6,1-1.4,1-2.5c0-1.1-0.2-2-0.6-2.7c-0.4-0.7-0.9-1.2-1.5-1.5c-0.6-0.4-1.3-0.6-2.1-0.7
				c-0.8-0.1-1.7-0.2-2.6-0.2c-2.1,0-3.7,0.4-4.9,1.3c-1.2,0.9-1.9,2.4-2.1,4.4H275.2z M299.4,289.6c-0.4,0.4-1,0.7-1.7,0.9
				c-0.7,0.2-1.4,0.4-2.1,0.6c-0.8,0.1-1.6,0.3-2.4,0.4c-0.8,0.1-1.7,0.2-2.5,0.4c-0.8,0.1-1.6,0.3-2.3,0.6c-0.8,0.2-1.4,0.6-2,1
				c-0.6,0.4-1,0.9-1.4,1.6c-0.3,0.6-0.5,1.5-0.5,2.4c0,0.9,0.2,1.7,0.5,2.4c0.3,0.6,0.8,1.1,1.4,1.5c0.6,0.4,1.3,0.6,2.1,0.8
				c0.8,0.1,1.6,0.2,2.4,0.2c2.1,0,3.7-0.3,4.8-1c1.1-0.7,2-1.5,2.5-2.5c0.5-1,0.9-1.9,1-2.9c0.1-1,0.2-1.8,0.2-2.4V289.6z"/>
			<path d="M328.2,270.2v5.2h0.1c1.4-2,3-3.5,5-4.6c1.9-1.1,4.2-1.6,6.7-1.6c2.4,0,4.6,0.5,6.6,1.4c2,0.9,3.5,2.6,4.5,4.9
				c1.1-1.7,2.7-3.1,4.6-4.4c1.9-1.3,4.2-1.9,6.9-1.9c2,0,3.9,0.2,5.6,0.7c1.7,0.5,3.2,1.3,4.4,2.4c1.2,1.1,2.2,2.5,2.9,4.2
				c0.7,1.7,1,3.8,1,6.3v25.5h-10.5v-21.6c0-1.3,0-2.5-0.1-3.6c-0.1-1.1-0.4-2.1-0.8-3c-0.4-0.8-1.1-1.5-2-2c-0.9-0.5-2-0.7-3.5-0.7
				c-1.5,0-2.7,0.3-3.6,0.8c-0.9,0.6-1.6,1.3-2.1,2.2c-0.5,0.9-0.9,1.9-1,3.1c-0.2,1.2-0.3,2.3-0.3,3.5v21.2h-10.5v-21.4
				c0-1.1,0-2.2-0.1-3.4c0-1.1-0.3-2.1-0.6-3.1c-0.4-0.9-1-1.7-1.8-2.2c-0.9-0.6-2.1-0.8-3.8-0.8c-0.5,0-1.1,0.1-2,0.3
				c-0.8,0.2-1.6,0.6-2.4,1.3c-0.8,0.6-1.4,1.5-2,2.7c-0.5,1.2-0.8,2.7-0.8,4.5v22.1h-10.5v-38.1H328.2z"/>
			<path d="M393.6,298.8c0.5,0.8,1.1,1.5,1.8,2c0.7,0.5,1.6,0.9,2.5,1.1c1,0.2,2,0.4,3,0.4c0.7,0,1.5-0.1,2.3-0.3
				c0.8-0.2,1.5-0.4,2.2-0.8c0.7-0.4,1.2-0.9,1.7-1.5c0.4-0.6,0.7-1.4,0.7-2.3c0-1.6-1-2.8-3.1-3.5c-2.1-0.8-5-1.6-8.7-2.4
				c-1.5-0.3-3-0.7-4.5-1.2c-1.5-0.5-2.7-1.1-3.9-1.8c-1.1-0.8-2-1.7-2.7-2.9c-0.7-1.2-1-2.6-1-4.2c0-2.5,0.5-4.5,1.4-6
				c1-1.6,2.2-2.8,3.8-3.7c1.6-0.9,3.3-1.5,5.3-1.9c2-0.4,4-0.6,6-0.6s4.1,0.2,6,0.6c1.9,0.4,3.7,1.1,5.2,2c1.5,0.9,2.8,2.2,3.8,3.7
				c1,1.5,1.6,3.5,1.8,5.9h-10c-0.1-2-0.9-3.4-2.3-4.1c-1.4-0.7-3-1.1-4.9-1.1c-0.6,0-1.2,0-1.9,0.1c-0.7,0.1-1.3,0.2-1.9,0.5
				c-0.6,0.2-1,0.6-1.4,1.1c-0.4,0.5-0.6,1.1-0.6,1.9c0,0.9,0.3,1.7,1,2.3c0.7,0.6,1.6,1.1,2.7,1.4s2.4,0.7,3.8,1
				c1.4,0.3,2.9,0.6,4.4,1c1.5,0.3,3,0.8,4.5,1.3c1.4,0.5,2.7,1.1,3.9,2c1.1,0.8,2,1.8,2.7,3c0.7,1.2,1,2.7,1,4.5
				c0,2.5-0.5,4.6-1.5,6.3c-1,1.7-2.3,3.1-3.9,4.1c-1.6,1-3.5,1.8-5.6,2.2c-2.1,0.4-4.2,0.6-6.4,0.6c-2.2,0-4.4-0.2-6.5-0.7
				c-2.1-0.4-4-1.2-5.6-2.2c-1.6-1-3-2.4-4.1-4.1c-1.1-1.7-1.6-3.8-1.7-6.4h10C392.9,297,393.1,298,393.6,298.8z"/>
			<path d="M444.7,268.3c0.8-2.5,2-4.7,3.5-6.6c1.6-1.9,3.6-3.4,5.9-4.4c2.4-1.1,5.1-1.6,8.2-1.6c2.4,0,4.6,0.4,6.7,1.1
				c2.1,0.7,4,1.8,5.6,3.2c1.6,1.4,2.9,3.1,3.9,5.1c1,2,1.4,4.3,1.4,6.8c0,2.6-0.4,4.8-1.3,6.7c-0.8,1.9-1.9,3.5-3.3,5
				c-1.4,1.5-2.9,2.8-4.7,3.9c-1.7,1.2-3.5,2.3-5.3,3.5c-1.8,1.2-3.5,2.4-5.2,3.7c-1.7,1.3-3.1,2.9-4.4,4.6h24.4v9h-37.9
				c0-3,0.4-5.6,1.3-7.8s2-4.2,3.5-5.9c1.5-1.7,3.2-3.4,5.2-4.8s4.1-3,6.3-4.5c1.1-0.8,2.3-1.6,3.6-2.4c1.3-0.8,2.4-1.7,3.5-2.7
				c1.1-1,1.9-2.1,2.7-3.3c0.7-1.2,1.1-2.6,1.1-4.2c0-2.5-0.7-4.5-2.2-5.9c-1.5-1.4-3.3-2.1-5.6-2.1c-1.5,0-2.8,0.4-3.9,1.1
				c-1.1,0.7-1.9,1.6-2.5,2.8c-0.6,1.2-1.1,2.4-1.4,3.8c-0.3,1.4-0.4,2.8-0.4,4.2h-10C443.5,273.6,443.9,270.8,444.7,268.3z"/>
			<path d="M486.5,269.6c1-3.4,2.4-6.2,4.1-8.2c1.7-2.1,3.7-3.5,6-4.4c2.3-0.9,4.7-1.3,7.3-1.3c2.6,0,5.1,0.4,7.3,1.3
				c2.3,0.9,4.3,2.4,6,4.4c1.7,2.1,3.1,4.8,4.1,8.2c1,3.4,1.5,7.6,1.5,12.6c0,5.2-0.5,9.5-1.5,12.9c-1,3.5-2.4,6.2-4.1,8.3
				c-1.7,2.1-3.8,3.5-6,4.4c-2.3,0.9-4.7,1.3-7.3,1.3c-2.6,0-5-0.4-7.3-1.3c-2.3-0.9-4.3-2.4-6-4.4c-1.7-2.1-3.1-4.8-4.1-8.3
				c-1-3.5-1.5-7.8-1.5-12.9C484.9,277.2,485.4,273,486.5,269.6z M495.6,287.6c0.1,2.1,0.4,4.1,0.9,6c0.5,1.9,1.3,3.6,2.5,5
				c1.1,1.4,2.8,2.1,4.9,2.1c2.2,0,3.8-0.7,5-2.1c1.2-1.4,2-3,2.5-5c0.5-1.9,0.8-4,0.9-6c0.1-2.1,0.1-3.9,0.1-5.3c0-0.9,0-2,0-3.2
				c0-1.3-0.1-2.5-0.3-3.9c-0.2-1.3-0.4-2.6-0.7-3.9c-0.3-1.3-0.8-2.5-1.4-3.5c-0.6-1-1.5-1.9-2.4-2.5c-1-0.6-2.2-1-3.6-1
				c-1.4,0-2.6,0.3-3.6,1c-1,0.6-1.7,1.5-2.4,2.5c-0.6,1-1.1,2.2-1.4,3.5c-0.3,1.3-0.6,2.6-0.7,3.9c-0.1,1.3-0.2,2.6-0.3,3.9
				c0,1.3,0,2.3,0,3.2C495.4,283.7,495.5,285.5,495.6,287.6z"/>
			<path d="M529.6,268.3c0.8-2.5,2-4.7,3.5-6.6c1.6-1.9,3.6-3.4,5.9-4.4c2.4-1.1,5.1-1.6,8.2-1.6c2.4,0,4.6,0.4,6.7,1.1
				c2.1,0.7,4,1.8,5.6,3.2c1.6,1.4,2.9,3.1,3.9,5.1c1,2,1.4,4.3,1.4,6.8c0,2.6-0.4,4.8-1.3,6.7c-0.8,1.9-1.9,3.5-3.3,5
				c-1.4,1.5-2.9,2.8-4.7,3.9c-1.7,1.2-3.5,2.3-5.3,3.5c-1.8,1.2-3.5,2.4-5.2,3.7c-1.7,1.3-3.1,2.9-4.4,4.6h24.4v9h-37.9
				c0-3,0.4-5.6,1.3-7.8s2-4.2,3.5-5.9c1.5-1.7,3.2-3.4,5.2-4.8s4.1-3,6.3-4.5c1.1-0.8,2.3-1.6,3.6-2.4c1.3-0.8,2.4-1.7,3.5-2.7
				c1.1-1,1.9-2.1,2.7-3.3c0.7-1.2,1.1-2.6,1.1-4.2c0-2.5-0.7-4.5-2.2-5.9c-1.5-1.4-3.3-2.1-5.6-2.1c-1.5,0-2.8,0.4-3.9,1.1
				c-1.1,0.7-1.9,1.6-2.5,2.8c-0.6,1.2-1.1,2.4-1.4,3.8c-0.3,1.4-0.4,2.8-0.4,4.2h-10C528.5,273.6,528.8,270.8,529.6,268.3z"/>
			<path d="M571.4,269.6c1-3.4,2.4-6.2,4.1-8.2c1.7-2.1,3.7-3.5,6-4.4c2.3-0.9,4.7-1.3,7.3-1.3c2.6,0,5.1,0.4,7.3,1.3
				c2.3,0.9,4.3,2.4,6,4.4c1.7,2.1,3.1,4.8,4.1,8.2c1,3.4,1.5,7.6,1.5,12.6c0,5.2-0.5,9.5-1.5,12.9c-1,3.5-2.4,6.2-4.1,8.3
				c-1.7,2.1-3.8,3.5-6,4.4c-2.3,0.9-4.7,1.3-7.3,1.3c-2.6,0-5-0.4-7.3-1.3c-2.3-0.9-4.3-2.4-6-4.4c-1.7-2.1-3.1-4.8-4.1-8.3
				c-1-3.5-1.5-7.8-1.5-12.9C569.9,277.2,570.4,273,571.4,269.6z M580.5,287.6c0.1,2.1,0.4,4.1,0.9,6c0.5,1.9,1.3,3.6,2.5,5
				c1.1,1.4,2.8,2.1,4.9,2.1c2.2,0,3.8-0.7,5-2.1c1.2-1.4,2-3,2.5-5c0.5-1.9,0.8-4,0.9-6c0.1-2.1,0.1-3.9,0.1-5.3c0-0.9,0-2,0-3.2
				c0-1.3-0.1-2.5-0.3-3.9c-0.2-1.3-0.4-2.6-0.7-3.9c-0.3-1.3-0.8-2.5-1.4-3.5c-0.6-1-1.5-1.9-2.4-2.5c-1-0.6-2.2-1-3.6-1
				c-1.4,0-2.6,0.3-3.6,1c-1,0.6-1.7,1.5-2.4,2.5c-0.6,1-1.1,2.2-1.4,3.5c-0.3,1.3-0.6,2.6-0.7,3.9c-0.1,1.3-0.2,2.6-0.3,3.9
				c0,1.3,0,2.3,0,3.2C580.4,283.7,580.4,285.5,580.5,287.6z"/>
			<path d="M634,283.7v9h-22.2v-9H634z"/>
			<path d="M638.7,268.3c0.8-2.5,2-4.7,3.5-6.6c1.6-1.9,3.6-3.4,5.9-4.4c2.4-1.1,5.1-1.6,8.2-1.6c2.4,0,4.6,0.4,6.7,1.1
				c2.1,0.7,4,1.8,5.6,3.2c1.6,1.4,2.9,3.1,3.9,5.1c1,2,1.4,4.3,1.4,6.8c0,2.6-0.4,4.8-1.3,6.7c-0.8,1.9-1.9,3.5-3.3,5
				c-1.4,1.5-2.9,2.8-4.7,3.9c-1.7,1.2-3.5,2.3-5.3,3.5c-1.8,1.2-3.5,2.4-5.2,3.7c-1.7,1.3-3.1,2.9-4.4,4.6h24.4v9h-37.9
				c0-3,0.4-5.6,1.3-7.8s2-4.2,3.5-5.9c1.5-1.7,3.2-3.4,5.2-4.8s4.1-3,6.3-4.5c1.1-0.8,2.3-1.6,3.6-2.4c1.3-0.8,2.4-1.7,3.5-2.7
				c1.1-1,1.9-2.1,2.7-3.3c0.7-1.2,1.1-2.6,1.1-4.2c0-2.5-0.7-4.5-2.2-5.9c-1.5-1.4-3.3-2.1-5.6-2.1c-1.5,0-2.8,0.4-3.9,1.1
				c-1.1,0.7-1.9,1.6-2.5,2.8c-0.6,1.2-1.1,2.4-1.4,3.8c-0.3,1.4-0.4,2.8-0.4,4.2h-10C637.6,273.6,637.9,270.8,638.7,268.3z"/>
			<path d="M692.9,308.3v-33.5h-13v-7.9c1.8,0,3.6-0.1,5.3-0.4c1.7-0.3,3.2-0.9,4.6-1.7c1.4-0.8,2.5-1.9,3.4-3.2
				c0.9-1.3,1.5-3,1.8-4.9h8.3v51.6H692.9z"/>
		</g>
	</g>
</g>
</svg>
