<?xml version="1.0" encoding="utf-8"?>
<!-- Generator: Adobe Illustrator 16.0.4, SVG Export Plug-In . SVG Version: 6.00 Build 0)  -->
<!DOCTYPE svg PUBLIC "-//W3C//DTD SVG 1.1//EN" "http://www.w3.org/Graphics/SVG/1.1/DTD/svg11.dtd">
<svg version="1.1" id="Layer_1" xmlns="http://www.w3.org/2000/svg" xmlns:xlink="http://www.w3.org/1999/xlink" x="0px" y="0px"
	 width="512px" height="512px" viewBox="0 0 512 512" enable-background="new 0 0 512 512" xml:space="preserve">
<g>
	<path fill="#FFFFFF" d="M142.394,216.601h48.7v156.684h-48.7V216.601z M166.755,138.716c15.567,0,28.219,12.651,28.219,28.226
		c0,15.588-12.651,28.24-28.219,28.24c-15.608,0-28.242-12.652-28.242-28.24C138.513,151.368,151.146,138.716,166.755,138.716"/>
	<path fill="#FFFFFF" d="M221.638,216.601h46.707v21.408h0.65c6.502-12.316,22.385-25.305,46.076-25.305
		c49.314,0,58.416,32.454,58.416,74.639v85.941h-48.664v-76.199c0-18.168-0.334-41.54-25.302-41.54
		c-25.339,0-29.23,19.792-29.23,40.227v77.512h-48.653V216.601z"/>
</g>
</svg>
