<svg enable-background="new 0 0 512 512" height="512" viewBox="0 0 512 512" width="512" xmlns="http://www.w3.org/2000/svg"><g fill="#fff"><path d="m142.394 216.601h48.7v156.684h-48.7zm24.361-77.885c15.567 0 28.219 12.651 28.219 28.226 0 15.588-12.651 28.24-28.219 28.24-15.608 0-28.242-12.652-28.242-28.24 0-15.574 12.633-28.226 28.242-28.226"/><path d="m221.638 216.601h46.707v21.408h.65c6.502-12.316 22.385-25.305 46.076-25.305 49.314 0 58.416 32.454 58.416 74.639v85.941h-48.664v-76.199c0-18.168-.334-41.54-25.302-41.54-25.339 0-29.23 19.792-29.23 40.227v77.512h-48.653z"/></g></svg>