<svg enable-background="new 0 0 30 30" height="30" viewBox="0 0 30 30" width="30" xmlns="http://www.w3.org/2000/svg"><path d="m19.062 15.574v-1.149c0-.316.255-.574.574-.574h4.983c.316 0 .572.258.572.574v1.149c0 .317-.256.575-.572.575h-4.983c-.32 0-.574-.257-.574-.575zm0-4.445v-1.15c0-.317.255-.574.574-.574h4.983c.316 0 .572.257.572.574v1.149c0 .317-.256.577-.572.577h-4.983c-.32.001-.574-.259-.574-.576zm0 8.891v-1.148c0-.319.255-.577.574-.577h4.983c.316 0 .572.258.572.577v1.148c0 .316-.256.575-.572.575h-4.983c-.32 0-.574-.259-.574-.575zm-9.196 0v-1.148c0-.319.256-.577.574-.577h6.513c.318 0 .573.258.573.577v1.148c0 .316-.255.575-.573.575h-6.513c-.317 0-.574-.259-.574-.575zm1.915-8.7h3.833v2.913h-3.833zm-1.341 4.829h6.513c.318 0 .573-.258.573-.575v-5.595c0-.317-.255-.574-.573-.574h-6.513c-.318 0-.574.257-.574.574v5.595c0 .318.257.575.574.575zm17.05 6.744h-19.951c.017-.126.028-.252.028-.383v-15.403h19.923zm-24.982-.383v-13.871h2.76v13.871c-.015.706-2.166.383-2.377.383-.212 0-.383-.171-.383-.383zm26.133-17.701h-21.074c-.999 0-1.851.639-2.167 1.531h-4.04c-.635 0-1.149.516-1.149 1.15v15.02c0 1.483 1.2 2.682 2.681 2.682h25.75c.634 0 1.149-.514 1.149-1.148v-18.087c-.001-.635-.517-1.148-1.15-1.148z" fill="#c61f48"/></svg>