<?xml version="1.0" encoding="utf-8"?>
<!-- Generator: Adobe Illustrator 24.0.3, SVG Export Plug-In . SVG Version: 6.00 Build 0)  -->
<svg version="1.1" id="Layer_1" xmlns="http://www.w3.org/2000/svg" xmlns:xlink="http://www.w3.org/1999/xlink" x="0px" y="0px"
	 viewBox="0 0 25 25" style="enable-background:new 0 0 25 25;" xml:space="preserve">
<style type="text/css">
	.st0{opacity:0.75;fill:#231F20;enable-background:new    ;}
	.st1{fill:#FFFFFF;}
</style>
<ellipse class="st0" cx="12.5" cy="12.5" rx="12.06" ry="12.05"/>
<g>
	<g>
		<path class="st1" d="M16.06,18.74h-1.51c-0.34,0-0.61-0.27-0.61-0.61V6.87c0-0.34,0.27-0.61,0.61-0.61h1.51
			c0.34,0,0.61,0.27,0.61,0.61v11.25C16.67,18.46,16.39,18.74,16.06,18.74z"/>
	</g>
	<g>
		<path class="st1" d="M10.46,18.74H8.94c-0.34,0-0.61-0.27-0.61-0.61V6.87c0-0.34,0.27-0.61,0.61-0.61h1.51
			c0.34,0,0.61,0.27,0.61,0.61v11.25C11.07,18.46,10.79,18.74,10.46,18.74z"/>
	</g>
</g>
</svg>
