<?xml version="1.0" encoding="utf-8"?>
<!-- Generator: Adobe Illustrator 24.0.3, SVG Export Plug-In . SVG Version: 6.00 Build 0)  -->
<svg version="1.1" id="Layer_1" xmlns="http://www.w3.org/2000/svg" xmlns:xlink="http://www.w3.org/1999/xlink" x="0px" y="0px"
	 viewBox="0 0 40 40" style="enable-background:new 0 0 40 40;" xml:space="preserve">
<style type="text/css">
	.st0{opacity:0.75;fill:#231F20;enable-background:new    ;}
	.st1{fill:#FFFFFF;}
</style>
<ellipse class="st0" cx="20" cy="20" rx="19.56" ry="19.54"/>
<g>
	<g>
		<path class="st1" d="M26.14,30.11h-3.21c-0.34,0-0.61-0.27-0.61-0.61v-19c0-0.34,0.27-0.61,0.61-0.61h3.21
			c0.34,0,0.61,0.27,0.61,0.61v19C26.75,29.84,26.48,30.11,26.14,30.11z"/>
	</g>
	<g>
		<path class="st1" d="M17.07,30.11h-3.21c-0.34,0-0.61-0.27-0.61-0.61v-19c0-0.34,0.27-0.61,0.61-0.61h3.21
			c0.34,0,0.61,0.27,0.61,0.61v19C17.68,29.84,17.4,30.11,17.07,30.11z"/>
	</g>
</g>
</svg>
