<svg enable-background="new 0 0 512 512" height="512" viewBox="0 0 512 512" width="512" xmlns="http://www.w3.org/2000/svg"><path d="m256.005 105.086c-83.343 0-150.915 67.566-150.915 150.912 0 61.795 37.159 114.882 90.332 138.223-.425-10.538-.076-23.188 2.627-34.653 2.901-12.252 19.418-82.231 19.418-82.231s-4.821-9.636-4.821-23.878c0-22.363 12.962-39.066 29.104-39.066 13.727 0 20.357 10.311 20.357 22.656 0 13.8-8.8 34.439-13.326 53.557-3.781 16.008 8.026 29.065 23.819 29.065 28.593 0 47.85-36.724 47.85-80.234 0-33.075-22.276-57.832-62.794-57.832-45.778 0-74.297 34.139-74.297 72.271 0 13.147 3.877 22.42 9.949 29.599 2.791 3.298 3.18 4.625 2.168 8.411-.723 2.777-2.386 9.462-3.074 12.111-1.005 3.821-4.102 5.188-7.556 3.776-21.085-8.607-30.905-31.698-30.905-57.654 0-42.869 36.155-94.272 107.856-94.272 57.617 0 95.537 41.693 95.537 86.449 0 59.2-32.912 103.428-81.427 103.428-16.293 0-31.618-8.808-36.868-18.811 0 0-8.761 34.771-10.617 41.484-3.198 11.636-9.462 23.264-15.188 32.328 13.573 4.007 27.91 6.188 42.771 6.188 83.336 0 150.904-67.565 150.904-150.915 0-83.346-67.568-150.912-150.904-150.912z" fill="#fff"/></svg>