<?xml version="1.0" encoding="utf-8"?>
<!-- Generator: Adobe Illustrator 16.0.4, SVG Export Plug-In . SVG Version: 6.00 Build 0)  -->
<!DOCTYPE svg PUBLIC "-//W3C//DTD SVG 1.1//EN" "http://www.w3.org/Graphics/SVG/1.1/DTD/svg11.dtd">
<svg version="1.1" id="Layer_1" xmlns="http://www.w3.org/2000/svg" xmlns:xlink="http://www.w3.org/1999/xlink" x="0px" y="0px"
	 width="512px" height="512px" viewBox="0 0 512 512" enable-background="new 0 0 512 512" xml:space="preserve">
<path fill="#FFFFFF" d="M256.005,105.086c-83.343,0-150.915,67.566-150.915,150.912c0,61.795,37.159,114.882,90.332,138.223
	c-0.425-10.538-0.076-23.188,2.627-34.653c2.901-12.252,19.418-82.231,19.418-82.231s-4.821-9.636-4.821-23.878
	c0-22.363,12.962-39.066,29.104-39.066c13.727,0,20.357,10.311,20.357,22.656c0,13.8-8.8,34.439-13.326,53.557
	c-3.781,16.008,8.026,29.065,23.819,29.065c28.593,0,47.85-36.724,47.85-80.234c0-33.075-22.276-57.832-62.794-57.832
	c-45.778,0-74.297,34.139-74.297,72.271c0,13.147,3.877,22.42,9.949,29.599c2.791,3.298,3.18,4.625,2.168,8.411
	c-0.723,2.777-2.386,9.462-3.074,12.111c-1.005,3.821-4.102,5.188-7.556,3.776c-21.085-8.607-30.905-31.698-30.905-57.654
	c0-42.869,36.155-94.272,107.856-94.272c57.617,0,95.537,41.693,95.537,86.449c0,59.2-32.912,103.428-81.427,103.428
	c-16.293,0-31.618-8.808-36.868-18.811c0,0-8.761,34.771-10.617,41.484c-3.198,11.636-9.462,23.264-15.188,32.328
	c13.573,4.007,27.91,6.188,42.771,6.188c83.336,0,150.904-67.565,150.904-150.915C406.909,172.652,339.341,105.086,256.005,105.086z
	"/>
</svg>
