<?xml version="1.0" encoding="utf-8"?>
<!-- Generator: Adobe Illustrator 28.1.0, SVG Export Plug-In . SVG Version: 6.00 Build 0)  -->
<svg version="1.1" id="Layer_1" xmlns="http://www.w3.org/2000/svg" xmlns:xlink="http://www.w3.org/1999/xlink" x="0px" y="0px"
	 viewBox="0 0 670.4 609.4" enable-background="new 0 0 670.4 609.4" xml:space="preserve">
<g>
	<path d="M211.6,464.4v8.3h-21.7v10.4h18.8v7.7h-18.8v18.6H180v-44.9H211.6z"/>
	<path d="M216.6,471.8v-7.4h8.9v7.4H216.6z M225.5,476.8v32.5h-8.9v-32.5H225.5z"/>
	<path d="M241.1,476.8v6h0.1c0.4-1,1-1.9,1.7-2.8c0.7-0.9,1.5-1.6,2.5-2.2c0.9-0.6,1.9-1.1,3-1.4c1-0.3,2.1-0.5,3.3-0.5
		c0.6,0,1.2,0.1,1.9,0.3v8.3c-0.4-0.1-0.9-0.2-1.5-0.2c-0.6-0.1-1.2-0.1-1.7-0.1c-1.6,0-3,0.3-4.2,0.8c-1.1,0.5-2,1.3-2.7,2.2
		c-0.7,0.9-1.2,2-1.5,3.3c-0.3,1.3-0.4,2.6-0.4,4.1v14.7h-8.9v-32.5H241.1z"/>
	<path d="M265.8,501.2c0.4,0.7,0.9,1.3,1.5,1.7c0.6,0.4,1.4,0.8,2.2,1s1.7,0.3,2.5,0.3c0.6,0,1.3-0.1,2-0.2c0.7-0.1,1.3-0.4,1.9-0.7
		c0.6-0.3,1-0.7,1.4-1.3c0.4-0.5,0.6-1.2,0.6-2c0-1.3-0.9-2.3-2.7-3c-1.8-0.7-4.3-1.3-7.5-2c-1.3-0.3-2.6-0.6-3.8-1
		c-1.2-0.4-2.3-0.9-3.3-1.6c-1-0.6-1.7-1.5-2.3-2.5c-0.6-1-0.9-2.2-0.9-3.6c0-2.1,0.4-3.8,1.2-5.2c0.8-1.3,1.9-2.4,3.2-3.2
		c1.3-0.8,2.9-1.3,4.5-1.6c1.7-0.3,3.4-0.5,5.2-0.5s3.5,0.2,5.1,0.5c1.7,0.3,3.1,0.9,4.4,1.7c1.3,0.8,2.4,1.9,3.2,3.2
		c0.9,1.3,1.4,3,1.5,5h-8.5c-0.1-1.7-0.8-2.9-1.9-3.5c-1.2-0.6-2.6-0.9-4.2-0.9c-0.5,0-1,0-1.6,0.1c-0.6,0.1-1.1,0.2-1.6,0.4
		c-0.5,0.2-0.9,0.5-1.2,0.9c-0.3,0.4-0.5,0.9-0.5,1.6c0,0.8,0.3,1.4,0.9,1.9c0.6,0.5,1.4,0.9,2.3,1.2s2,0.6,3.2,0.8
		c1.2,0.3,2.5,0.5,3.7,0.8c1.3,0.3,2.6,0.7,3.8,1.1c1.2,0.4,2.3,1,3.3,1.7c1,0.7,1.7,1.6,2.3,2.6c0.6,1,0.9,2.3,0.9,3.8
		c0,2.1-0.4,3.9-1.3,5.4c-0.9,1.4-2,2.6-3.4,3.5c-1.4,0.9-3,1.5-4.7,1.9c-1.8,0.4-3.6,0.5-5.4,0.5c-1.9,0-3.7-0.2-5.5-0.6
		c-1.8-0.4-3.4-1-4.8-1.9c-1.4-0.9-2.6-2-3.5-3.5c-0.9-1.4-1.4-3.3-1.5-5.4h8.5C265.2,499.7,265.4,500.6,265.8,501.2z"/>
	<path d="M309.9,476.8v6h-6.5v16.1c0,1.5,0.3,2.5,0.8,3s1.5,0.8,3,0.8c0.5,0,1,0,1.4-0.1c0.5,0,0.9-0.1,1.3-0.2v6.9
		c-0.8,0.1-1.6,0.2-2.5,0.3c-0.9,0-1.8,0.1-2.7,0.1c-1.4,0-2.7-0.1-3.9-0.3c-1.2-0.2-2.3-0.6-3.3-1.1c-0.9-0.5-1.7-1.3-2.2-2.3
		c-0.5-1-0.8-2.3-0.8-4v-19.2h-5.4v-6h5.4v-9.7h8.9v9.7H309.9z"/>
	<path d="M354.2,464.4c2.8,0,5.2,0.4,7.2,1.2c2,0.8,3.6,1.9,4.8,3.2c1.2,1.3,2.1,2.9,2.7,4.6c0.6,1.7,0.8,3.5,0.8,5.3
		c0,1.8-0.3,3.6-0.8,5.3c-0.6,1.7-1.5,3.3-2.7,4.6c-1.2,1.3-2.8,2.4-4.8,3.2s-4.4,1.2-7.2,1.2h-10.4v16.1h-9.9v-44.9H354.2z
		 M351.4,485.6c1.1,0,2.2-0.1,3.3-0.3c1-0.2,2-0.5,2.8-1c0.8-0.5,1.4-1.2,1.9-2c0.5-0.9,0.7-2,0.7-3.5c0-1.4-0.2-2.6-0.7-3.5
		c-0.5-0.9-1.1-1.6-1.9-2c-0.8-0.5-1.7-0.8-2.8-1c-1-0.2-2.1-0.3-3.3-0.3h-7.7v13.5H351.4z"/>
	<path d="M384.1,464.4v44.9h-8.9v-44.9H384.1z"/>
	<path d="M390.8,486.8c0.1-2.1,0.6-3.8,1.6-5.2c0.9-1.4,2.1-2.5,3.5-3.3c1.4-0.8,3-1.4,4.8-1.8c1.8-0.4,3.6-0.5,5.4-0.5
		c1.6,0,3.3,0.1,5,0.3s3.2,0.7,4.6,1.4c1.4,0.7,2.5,1.6,3.4,2.8c0.9,1.2,1.3,2.8,1.3,4.7v16.9c0,1.5,0.1,2.9,0.3,4.2
		c0.2,1.3,0.5,2.3,0.9,3h-9.1c-0.2-0.5-0.3-1-0.4-1.5c-0.1-0.5-0.2-1.1-0.2-1.6c-1.4,1.5-3.1,2.5-5,3.1c-1.9,0.6-3.9,0.9-5.9,0.9
		c-1.6,0-3-0.2-4.3-0.6c-1.3-0.4-2.5-1-3.5-1.8c-1-0.8-1.8-1.8-2.4-3c-0.6-1.2-0.8-2.7-0.8-4.3c0-1.8,0.3-3.4,1-4.6
		c0.6-1.2,1.5-2.1,2.5-2.9c1-0.7,2.2-1.2,3.5-1.6s2.7-0.6,4-0.8c1.3-0.2,2.7-0.4,4-0.5s2.5-0.3,3.5-0.6c1-0.3,1.8-0.6,2.4-1.1
		c0.6-0.5,0.9-1.2,0.8-2.1c0-1-0.2-1.7-0.5-2.3c-0.3-0.6-0.7-1-1.3-1.3c-0.5-0.3-1.1-0.5-1.8-0.6c-0.7-0.1-1.4-0.2-2.2-0.2
		c-1.8,0-3.1,0.4-4.2,1.1c-1,0.8-1.6,2-1.8,3.8H390.8z M411.4,493.4c-0.4,0.3-0.8,0.6-1.4,0.8c-0.6,0.2-1.2,0.3-1.8,0.5
		c-0.7,0.1-1.3,0.2-2,0.3c-0.7,0.1-1.4,0.2-2.1,0.3c-0.7,0.1-1.3,0.3-2,0.5c-0.7,0.2-1.2,0.5-1.7,0.8c-0.5,0.4-0.9,0.8-1.2,1.4
		c-0.3,0.5-0.4,1.2-0.4,2.1c0,0.8,0.1,1.5,0.4,2c0.3,0.5,0.7,1,1.2,1.3c0.5,0.3,1.1,0.5,1.8,0.7c0.7,0.1,1.4,0.2,2.1,0.2
		c1.8,0,3.1-0.3,4.1-0.9c1-0.6,1.7-1.3,2.1-2.1c0.5-0.8,0.7-1.6,0.8-2.5c0.1-0.8,0.2-1.5,0.2-2V493.4z"/>
	<path d="M442.8,482.7c-1.4,0-2.6,0.3-3.6,1c-1,0.7-1.8,1.5-2.4,2.5c-0.6,1-1,2.2-1.3,3.4c-0.3,1.2-0.4,2.5-0.4,3.7
		c0,1.2,0.1,2.4,0.4,3.6s0.7,2.3,1.2,3.3c0.6,1,1.3,1.8,2.3,2.4c1,0.6,2.1,0.9,3.5,0.9c2.1,0,3.8-0.6,4.9-1.8
		c1.2-1.2,1.9-2.8,2.2-4.8h8.6c-0.6,4.3-2.3,7.6-5,9.9c-2.8,2.3-6.3,3.4-10.6,3.4c-2.4,0-4.7-0.4-6.7-1.2c-2-0.8-3.8-2-5.2-3.4
		c-1.4-1.5-2.5-3.2-3.3-5.3c-0.8-2-1.2-4.3-1.2-6.7c0-2.5,0.4-4.9,1.1-7c0.7-2.2,1.8-4,3.2-5.6c1.4-1.6,3.2-2.8,5.2-3.7
		c2.1-0.9,4.4-1.3,7-1.3c1.9,0,3.8,0.3,5.6,0.8c1.8,0.5,3.4,1.3,4.8,2.3c1.4,1,2.5,2.3,3.4,3.8c0.9,1.5,1.4,3.3,1.5,5.4h-8.7
		C448.8,484.5,446.6,482.7,442.8,482.7z"/>
	<path d="M471.6,501.5c1.3,1.3,3.3,1.9,5.8,1.9c1.8,0,3.4-0.5,4.7-1.4c1.3-0.9,2.1-1.9,2.4-2.9h7.9c-1.3,3.9-3.2,6.7-5.8,8.4
		c-2.6,1.7-5.7,2.5-9.4,2.5c-2.6,0-4.9-0.4-6.9-1.2c-2.1-0.8-3.8-2-5.2-3.5c-1.4-1.5-2.5-3.3-3.3-5.4c-0.8-2.1-1.2-4.4-1.2-6.9
		c0-2.4,0.4-4.7,1.2-6.8c0.8-2.1,1.9-3.9,3.4-5.4c1.5-1.5,3.2-2.7,5.3-3.6c2-0.9,4.3-1.3,6.8-1.3c2.8,0,5.2,0.5,7.2,1.6
		c2.1,1.1,3.7,2.5,5.1,4.3c1.3,1.8,2.3,3.9,2.9,6.2c0.6,2.3,0.8,4.7,0.6,7.2h-23.5C469.5,498.1,470.3,500.2,471.6,501.5z
		 M481.7,484.4c-1.1-1.2-2.7-1.8-4.9-1.8c-1.4,0-2.6,0.2-3.6,0.7c-0.9,0.5-1.7,1.1-2.3,1.8c-0.6,0.7-1,1.5-1.2,2.3
		c-0.2,0.8-0.4,1.5-0.4,2.1h14.5C483.5,487.3,482.8,485.6,481.7,484.4z"/>
</g>
<g>
	<path d="M50,534.1c1.9,0,3.6,0.2,5.1,0.5s2.9,0.9,4,1.6c1.1,0.8,2,1.8,2.6,3c0.6,1.3,0.9,2.8,0.9,4.6c0,2-0.5,3.6-1.4,5
		c-0.9,1.3-2.2,2.4-4,3.3c2.4,0.7,4.2,1.9,5.4,3.7c1.2,1.7,1.8,3.9,1.8,6.3c0,2-0.4,3.7-1.2,5.2c-0.8,1.5-1.8,2.6-3.1,3.6
		c-1.3,0.9-2.8,1.6-4.5,2c-1.7,0.4-3.4,0.7-5.2,0.7H31.5v-39.4H50z M48.9,550c1.5,0,2.8-0.4,3.8-1.1c1-0.7,1.5-1.9,1.5-3.6
		c0-0.9-0.2-1.7-0.5-2.3c-0.3-0.6-0.8-1-1.3-1.4c-0.6-0.3-1.2-0.6-1.9-0.7s-1.5-0.2-2.2-0.2h-8.1v9.2H48.9z M49.4,566.7
		c0.8,0,1.7-0.1,2.4-0.2c0.8-0.2,1.5-0.4,2-0.8c0.6-0.4,1.1-0.9,1.4-1.6c0.3-0.7,0.5-1.5,0.5-2.5c0-2-0.6-3.5-1.7-4.3
		c-1.1-0.9-2.6-1.3-4.5-1.3h-9.4v10.8H49.4z"/>
	<path d="M77.9,566.6c1.2,1.1,2.9,1.7,5.1,1.7c1.6,0,2.9-0.4,4.1-1.2c1.1-0.8,1.8-1.6,2.1-2.5H96c-1.1,3.4-2.8,5.9-5.1,7.3
		c-2.3,1.5-5,2.2-8.3,2.2c-2.2,0-4.3-0.4-6.1-1.1s-3.3-1.7-4.6-3.1c-1.3-1.3-2.2-2.9-2.9-4.7c-0.7-1.8-1-3.9-1-6.1
		c0-2.1,0.3-4.1,1-6c0.7-1.8,1.7-3.4,3-4.8c1.3-1.3,2.8-2.4,4.6-3.2c1.8-0.8,3.8-1.2,5.9-1.2c2.4,0,4.5,0.5,6.3,1.4
		c1.8,0.9,3.3,2.2,4.4,3.8c1.2,1.6,2,3.4,2.5,5.4c0.5,2,0.7,4.1,0.6,6.3H76C76.1,563.6,76.7,565.5,77.9,566.6z M86.8,551.6
		c-0.9-1-2.4-1.5-4.3-1.5c-1.3,0-2.3,0.2-3.1,0.6c-0.8,0.4-1.5,0.9-2,1.6c-0.5,0.6-0.8,1.3-1,2c-0.2,0.7-0.3,1.3-0.4,1.9h12.7
		C88.3,554.1,87.7,552.6,86.8,551.6z"/>
	<path d="M107.8,566.3c0.3,0.6,0.8,1.1,1.4,1.5c0.6,0.4,1.2,0.7,1.9,0.9c0.7,0.2,1.5,0.3,2.2,0.3c0.6,0,1.1-0.1,1.7-0.2
		c0.6-0.1,1.2-0.3,1.7-0.6c0.5-0.3,0.9-0.6,1.2-1.1c0.3-0.5,0.5-1,0.5-1.7c0-1.2-0.8-2.1-2.3-2.6c-1.6-0.6-3.7-1.2-6.5-1.8
		c-1.1-0.3-2.3-0.6-3.3-0.9c-1.1-0.3-2.1-0.8-2.9-1.4c-0.8-0.6-1.5-1.3-2-2.2c-0.5-0.9-0.8-1.9-0.8-3.2c0-1.8,0.4-3.3,1.1-4.5
		c0.7-1.2,1.7-2.1,2.8-2.8c1.2-0.7,2.5-1.2,4-1.4c1.5-0.3,3-0.4,4.5-0.4s3,0.1,4.5,0.4c1.5,0.3,2.7,0.8,3.9,1.5
		c1.1,0.7,2.1,1.6,2.8,2.8c0.8,1.2,1.2,2.6,1.4,4.4H118c-0.1-1.5-0.7-2.5-1.7-3.1c-1-0.5-2.2-0.8-3.6-0.8c-0.4,0-0.9,0-1.4,0.1
		c-0.5,0.1-1,0.2-1.4,0.4c-0.4,0.2-0.8,0.5-1.1,0.8c-0.3,0.3-0.4,0.8-0.4,1.4c0,0.7,0.3,1.3,0.8,1.7c0.5,0.4,1.2,0.8,2,1.1
		c0.8,0.3,1.8,0.5,2.8,0.7c1.1,0.2,2.2,0.5,3.3,0.7c1.1,0.3,2.3,0.6,3.3,0.9c1.1,0.4,2,0.9,2.9,1.5c0.8,0.6,1.5,1.4,2,2.3
		c0.5,0.9,0.8,2,0.8,3.3c0,1.9-0.4,3.4-1.1,4.7c-0.8,1.3-1.7,2.3-3,3.1c-1.2,0.8-2.6,1.3-4.2,1.6c-1.6,0.3-3.2,0.5-4.8,0.5
		c-1.7,0-3.3-0.2-4.9-0.5c-1.6-0.3-3-0.9-4.2-1.7c-1.2-0.8-2.2-1.8-3-3.1c-0.8-1.3-1.2-2.9-1.3-4.8h7.4
		C107.2,565,107.4,565.7,107.8,566.3z"/>
	<path d="M146.5,544.9v5.2h-5.7v14.1c0,1.3,0.2,2.2,0.7,2.6c0.4,0.4,1.3,0.7,2.6,0.7c0.4,0,0.9,0,1.3-0.1c0.4,0,0.8-0.1,1.2-0.2v6.1
		c-0.7,0.1-1.4,0.2-2.2,0.2c-0.8,0-1.6,0.1-2.4,0.1c-1.2,0-2.4-0.1-3.4-0.2c-1.1-0.2-2-0.5-2.9-1c-0.8-0.5-1.5-1.2-2-2
		c-0.5-0.9-0.7-2-0.7-3.5v-16.8h-4.7v-5.2h4.7v-8.5h7.8v8.5H146.5z"/>
	<path d="M191.6,544.6c-0.5-0.8-1.2-1.6-1.9-2.2c-0.8-0.6-1.6-1.1-2.6-1.5c-1-0.3-2-0.5-3.1-0.5c-1.9,0-3.6,0.4-5,1.1
		c-1.4,0.8-2.5,1.8-3.3,3c-0.8,1.3-1.5,2.7-1.8,4.3c-0.4,1.6-0.6,3.3-0.6,5c0,1.7,0.2,3.3,0.6,4.8c0.4,1.6,1,3,1.8,4.2
		c0.8,1.3,1.9,2.3,3.3,3c1.4,0.8,3,1.1,5,1.1c2.6,0,4.7-0.8,6.2-2.4s2.4-3.8,2.7-6.4h8.4c-0.2,2.5-0.8,4.7-1.7,6.7
		c-0.9,2-2.1,3.7-3.6,5.1c-1.5,1.4-3.3,2.5-5.3,3.2s-4.2,1.1-6.7,1.1c-3,0-5.7-0.5-8.1-1.6c-2.4-1-4.4-2.5-6.1-4.3s-2.9-4-3.8-6.5
		c-0.9-2.5-1.3-5.2-1.3-8c0-2.9,0.4-5.7,1.3-8.2c0.9-2.5,2.2-4.7,3.8-6.6c1.7-1.9,3.7-3.3,6.1-4.4c2.4-1.1,5.1-1.6,8.1-1.6
		c2.2,0,4.2,0.3,6.2,0.9c1.9,0.6,3.7,1.5,5.2,2.7c1.5,1.2,2.8,2.7,3.8,4.4c1,1.8,1.6,3.8,1.9,6.1h-8.4
		C192.5,546.3,192.2,545.4,191.6,544.6z"/>
	<path d="M206.6,553c0.7-1.9,1.7-3.4,3-4.7c1.3-1.3,2.8-2.3,4.6-3c1.8-0.7,3.8-1.1,6.1-1.1c2.2,0,4.3,0.4,6.1,1.1s3.4,1.7,4.7,3
		c1.3,1.3,2.3,2.9,3,4.7c0.7,1.9,1,3.9,1,6.2c0,2.3-0.4,4.3-1,6.2c-0.7,1.8-1.7,3.4-3,4.7c-1.3,1.3-2.8,2.3-4.7,3s-3.9,1-6.1,1
		c-2.2,0-4.3-0.3-6.1-1c-1.8-0.7-3.3-1.7-4.6-3c-1.3-1.3-2.3-2.9-3-4.7c-0.7-1.8-1-3.9-1-6.2C205.5,556.9,205.9,554.9,206.6,553z
		 M213.7,562.5c0.2,1.1,0.6,2.1,1.1,2.9c0.5,0.9,1.2,1.6,2.1,2.1c0.9,0.5,2,0.8,3.3,0.8c1.3,0,2.4-0.3,3.3-0.8
		c0.9-0.5,1.6-1.2,2.2-2.1c0.5-0.9,0.9-1.8,1.1-2.9c0.2-1.1,0.3-2.2,0.3-3.3c0-1.1-0.1-2.3-0.3-3.4c-0.2-1.1-0.6-2.1-1.1-2.9
		c-0.5-0.8-1.3-1.5-2.2-2.1c-0.9-0.5-2-0.8-3.3-0.8c-1.3,0-2.4,0.3-3.3,0.8c-0.9,0.5-1.6,1.2-2.1,2.1c-0.5,0.8-0.9,1.8-1.1,2.9
		c-0.2,1.1-0.3,2.2-0.3,3.4C213.4,560.3,213.5,561.5,213.7,562.5z"/>
	<path d="M248.2,534.1v39.4h-7.8v-39.4H248.2z"/>
	<path d="M263.5,534.1v39.4h-7.8v-39.4H263.5z"/>
	<path d="M279.2,566.6c1.2,1.1,2.9,1.7,5.1,1.7c1.6,0,2.9-0.4,4.1-1.2c1.1-0.8,1.8-1.6,2.1-2.5h6.9c-1.1,3.4-2.8,5.9-5.1,7.3
		c-2.3,1.5-5,2.2-8.3,2.2c-2.2,0-4.3-0.4-6.1-1.1s-3.3-1.7-4.6-3.1c-1.3-1.3-2.2-2.9-2.9-4.7c-0.7-1.8-1-3.9-1-6.1
		c0-2.1,0.3-4.1,1-6c0.7-1.8,1.7-3.4,3-4.8c1.3-1.3,2.8-2.4,4.6-3.2c1.8-0.8,3.8-1.2,5.9-1.2c2.4,0,4.5,0.5,6.3,1.4
		c1.8,0.9,3.3,2.2,4.4,3.8c1.2,1.6,2,3.4,2.5,5.4c0.5,2,0.7,4.1,0.6,6.3h-20.6C277.4,563.6,278,565.5,279.2,566.6z M288,551.6
		c-0.9-1-2.4-1.5-4.3-1.5c-1.3,0-2.3,0.2-3.1,0.6c-0.8,0.4-1.5,0.9-2,1.6c-0.5,0.6-0.8,1.3-1,2c-0.2,0.7-0.3,1.3-0.4,1.9H290
		C289.6,554.1,289,552.6,288,551.6z"/>
	<path d="M329.4,575.5c-0.3,1.5-1,2.8-2,4.1c-1,1.3-2.5,2.3-4.5,3.2c-1.9,0.9-4.6,1.3-7.8,1.3c-1.4,0-2.8-0.2-4.3-0.5
		c-1.5-0.3-2.8-0.9-4-1.6c-1.2-0.7-2.2-1.7-3-2.8c-0.8-1.2-1.2-2.5-1.4-4.2h7.8c0.4,1.5,1.1,2.5,2.2,3.1c1.1,0.6,2.3,0.9,3.7,0.9
		c2.2,0,3.8-0.7,4.8-2c1-1.3,1.5-3,1.5-5v-3.8h-0.1c-0.8,1.5-2.1,2.6-3.6,3.3c-1.6,0.7-3.2,1.1-4.9,1.1c-2.1,0-4-0.4-5.5-1.1
		s-2.8-1.8-3.8-3.1c-1-1.3-1.7-2.8-2.2-4.6c-0.5-1.7-0.7-3.6-0.7-5.5c0-1.8,0.3-3.6,0.8-5.3c0.5-1.7,1.3-3.2,2.3-4.5
		c1-1.3,2.3-2.3,3.8-3.1c1.5-0.8,3.3-1.2,5.3-1.2c1.9,0,3.5,0.3,4.9,1c1.4,0.7,2.6,1.9,3.6,3.5h0.1v-3.8h7.4v26.7
		C329.9,572.8,329.7,574.1,329.4,575.5z M318.7,566c0.8-0.4,1.5-1,2.1-1.8c0.6-0.7,1-1.6,1.2-2.5c0.3-0.9,0.4-1.9,0.4-3
		c0-1.2-0.1-2.3-0.3-3.3c-0.2-1-0.6-2-1.1-2.8c-0.5-0.8-1.2-1.5-2-1.9c-0.8-0.5-1.9-0.7-3.2-0.7c-1.1,0-2.1,0.2-2.8,0.7
		c-0.8,0.4-1.5,1-2,1.8c-0.5,0.8-0.9,1.6-1.2,2.6c-0.2,1-0.4,2-0.4,3.1c0,1,0.1,2,0.3,3.1c0.2,1,0.6,1.9,1,2.7c0.5,0.8,1.1,1.5,2,2
		c0.8,0.5,1.8,0.8,3,0.8C316.9,566.7,317.8,566.5,318.7,566z"/>
	<path d="M344.5,566.6c1.2,1.1,2.9,1.7,5.1,1.7c1.6,0,2.9-0.4,4.1-1.2c1.1-0.8,1.8-1.6,2.1-2.5h6.9c-1.1,3.4-2.8,5.9-5.1,7.3
		c-2.3,1.5-5,2.2-8.3,2.2c-2.2,0-4.3-0.4-6.1-1.1s-3.3-1.7-4.6-3.1c-1.3-1.3-2.2-2.9-2.9-4.7c-0.7-1.8-1-3.9-1-6.1
		c0-2.1,0.3-4.1,1-6c0.7-1.8,1.7-3.4,3-4.8c1.3-1.3,2.8-2.4,4.6-3.2c1.8-0.8,3.8-1.2,5.9-1.2c2.4,0,4.5,0.5,6.3,1.4
		c1.8,0.9,3.3,2.2,4.4,3.8c1.2,1.6,2,3.4,2.5,5.4s0.7,4.1,0.6,6.3h-20.6C342.7,563.6,343.4,565.5,344.5,566.6z M353.4,551.6
		c-0.9-1-2.4-1.5-4.3-1.5c-1.2,0-2.3,0.2-3.1,0.6c-0.8,0.4-1.5,0.9-2,1.6c-0.5,0.6-0.8,1.3-1,2c-0.2,0.7-0.3,1.3-0.4,1.9h12.7
		C355,554.1,354.3,552.6,353.4,551.6z"/>
	<path d="M388.1,533.1l-15.4,41.2h-6.2l15.3-41.2H388.1z"/>
	<path d="M421.4,570.4c-3,2.6-7.1,3.9-12.4,3.9c-5.3,0-9.5-1.3-12.4-3.9c-2.9-2.6-4.4-6.5-4.4-11.9v-24.5h8.7v24.5
		c0,1.1,0.1,2.1,0.3,3.1c0.2,1,0.6,1.9,1.2,2.7c0.6,0.8,1.4,1.4,2.5,1.9c1,0.5,2.5,0.7,4.2,0.7c3.1,0,5.2-0.7,6.4-2.1
		c1.2-1.4,1.8-3.5,1.8-6.5v-24.5h8.7v24.5C425.8,563.9,424.4,567.8,421.4,570.4z"/>
	<path d="M438.8,544.9v4h0.2c1-1.7,2.3-2.9,3.9-3.6c1.6-0.8,3.2-1.1,4.9-1.1c2.1,0,3.8,0.3,5.2,0.9c1.3,0.6,2.4,1.4,3.2,2.4
		c0.8,1,1.3,2.2,1.6,3.7c0.3,1.5,0.5,3.1,0.5,4.8v17.5h-7.8v-16.1c0-2.4-0.4-4.1-1.1-5.3c-0.7-1.2-2-1.7-3.9-1.7
		c-2.1,0-3.7,0.6-4.6,1.9c-1,1.3-1.4,3.4-1.4,6.3v14.9h-7.8v-28.5H438.8z"/>
	<path d="M463.2,540.5v-6.5h7.8v6.5H463.2z M471,544.9v28.5h-7.8v-28.5H471z"/>
	<path d="M484.3,573.4l-9.8-28.5h8.2l6,19.5h0.1l6-19.5h7.8l-9.7,28.5H484.3z"/>
	<path d="M513.2,566.6c1.2,1.1,2.9,1.7,5.1,1.7c1.6,0,2.9-0.4,4.1-1.2c1.1-0.8,1.8-1.6,2.1-2.5h6.9c-1.1,3.4-2.8,5.9-5.1,7.3
		c-2.3,1.5-5,2.2-8.3,2.2c-2.2,0-4.3-0.4-6.1-1.1c-1.8-0.7-3.3-1.7-4.6-3.1s-2.2-2.9-2.9-4.7c-0.7-1.8-1-3.9-1-6.1
		c0-2.1,0.3-4.1,1-6s1.7-3.4,3-4.8s2.8-2.4,4.6-3.2c1.8-0.8,3.8-1.2,5.9-1.2c2.4,0,4.5,0.5,6.3,1.4c1.8,0.9,3.3,2.2,4.4,3.8
		c1.2,1.6,2,3.4,2.5,5.4c0.5,2,0.7,4.1,0.6,6.3h-20.6C511.3,563.6,512,565.5,513.2,566.6z M522,551.6c-0.9-1-2.4-1.5-4.3-1.5
		c-1.3,0-2.3,0.2-3.1,0.6c-0.8,0.4-1.5,0.9-2,1.6c-0.5,0.6-0.8,1.3-1,2c-0.2,0.7-0.3,1.3-0.4,1.9H524
		C523.6,554.1,523,552.6,522,551.6z"/>
	<path d="M542.8,544.9v5.3h0.1c0.4-0.9,0.9-1.7,1.5-2.5c0.6-0.8,1.3-1.4,2.2-1.9c0.8-0.5,1.7-0.9,2.6-1.2c0.9-0.3,1.9-0.4,2.9-0.4
		c0.5,0,1.1,0.1,1.7,0.3v7.3c-0.4-0.1-0.8-0.1-1.3-0.2c-0.5-0.1-1-0.1-1.5-0.1c-1.4,0-2.6,0.2-3.6,0.7c-1,0.5-1.8,1.1-2.4,2
		c-0.6,0.8-1,1.8-1.3,2.9c-0.3,1.1-0.4,2.3-0.4,3.6v12.9h-7.8v-28.5H542.8z"/>
	<path d="M562.3,566.3c0.3,0.6,0.8,1.1,1.4,1.5c0.6,0.4,1.2,0.7,1.9,0.9c0.7,0.2,1.5,0.3,2.2,0.3c0.6,0,1.1-0.1,1.7-0.2
		c0.6-0.1,1.2-0.3,1.7-0.6c0.5-0.3,0.9-0.6,1.2-1.1c0.3-0.5,0.5-1,0.5-1.7c0-1.2-0.8-2.1-2.3-2.6c-1.6-0.6-3.7-1.2-6.5-1.8
		c-1.1-0.3-2.3-0.6-3.3-0.9c-1.1-0.3-2.1-0.8-2.9-1.4c-0.8-0.6-1.5-1.3-2-2.2c-0.5-0.9-0.8-1.9-0.8-3.2c0-1.8,0.4-3.3,1.1-4.5
		c0.7-1.2,1.7-2.1,2.8-2.8s2.5-1.2,4-1.4c1.5-0.3,3-0.4,4.5-0.4s3,0.1,4.5,0.4c1.5,0.3,2.7,0.8,3.9,1.5c1.1,0.7,2.1,1.6,2.8,2.8
		c0.8,1.2,1.2,2.6,1.4,4.4h-7.4c-0.1-1.5-0.7-2.5-1.7-3.1c-1-0.5-2.2-0.8-3.6-0.8c-0.4,0-0.9,0-1.4,0.1c-0.5,0.1-1,0.2-1.4,0.4
		s-0.8,0.5-1.1,0.8c-0.3,0.3-0.4,0.8-0.4,1.4c0,0.7,0.3,1.3,0.8,1.7c0.5,0.4,1.2,0.8,2,1.1c0.8,0.3,1.8,0.5,2.8,0.7s2.2,0.5,3.3,0.7
		c1.1,0.3,2.3,0.6,3.3,0.9c1.1,0.4,2,0.9,2.9,1.5c0.8,0.6,1.5,1.4,2,2.3c0.5,0.9,0.8,2,0.8,3.3c0,1.9-0.4,3.4-1.1,4.7
		s-1.7,2.3-3,3.1c-1.2,0.8-2.6,1.3-4.2,1.6c-1.6,0.3-3.2,0.5-4.8,0.5c-1.7,0-3.3-0.2-4.9-0.5s-3-0.9-4.2-1.7c-1.2-0.8-2.2-1.8-3-3.1
		c-0.8-1.3-1.2-2.9-1.3-4.8h7.4C561.8,565,561.9,565.7,562.3,566.3z"/>
	<path d="M583.3,540.5v-6.5h7.8v6.5H583.3z M591.2,544.9v28.5h-7.8v-28.5H591.2z"/>
	<path d="M613,544.9v5.2h-5.7v14.1c0,1.3,0.2,2.2,0.7,2.6s1.3,0.7,2.6,0.7c0.4,0,0.9,0,1.3-0.1c0.4,0,0.8-0.1,1.2-0.2v6.1
		c-0.7,0.1-1.4,0.2-2.2,0.2c-0.8,0-1.6,0.1-2.4,0.1c-1.2,0-2.4-0.1-3.4-0.2c-1.1-0.2-2-0.5-2.9-1c-0.8-0.5-1.5-1.2-2-2
		c-0.5-0.9-0.7-2-0.7-3.5v-16.8h-4.7v-5.2h4.7v-8.5h7.8v8.5H613z"/>
	<path d="M627.3,581.9c-1.5,1-3.6,1.5-6.3,1.5c-0.8,0-1.6,0-2.4-0.1c-0.8-0.1-1.6-0.1-2.4-0.2v-6.5c0.7,0.1,1.5,0.1,2.3,0.2
		c0.8,0.1,1.5,0.1,2.3,0.1c1-0.1,1.8-0.5,2.3-1.2c0.5-0.7,0.7-1.5,0.7-2.3c0-0.6-0.1-1.2-0.3-1.8l-10-26.8h8.3l6.5,19.5h0.1
		l6.2-19.5h8.1l-11.9,32C630,579.3,628.8,580.9,627.3,581.9z"/>
</g>
<g>
	<g>
		<path fill="#FFFFFF" d="M528.8,239.3l-4.1-3l-30.1-22.2l21.8-30.4l3-4.2l-4.9-1.6l-35.5-11.8l11.3-35.7l1.6-4.9l-5.1,0l-37.4-0.3
			L449,87.8l0-5.1l-4.9,1.6l-35.7,11.3l-11.8-35.5l-1.6-4.9l-4.2,3L360.5,80l-22.2-30.1l-3-4.1l-3,4.1L310,80l-30.4-21.8l-4.2-3
			l-1.6,4.9L262,95.6l-35.7-11.3l-4.9-1.6l0,5.1l-0.3,37.4l-37.4,0.3l-5.1,0l1.6,4.9l11.3,35.7L156,177.9l-4.9,1.6l3,4.2l21.8,30.4
			l-30.1,22.2l-4.1,3l4.1,3l30.1,22.2l-21.8,30.4l-3,4.2l4.9,1.6l35.5,11.8l-11.3,35.7l-1.6,4.9l5.1,0l37.4,0.3l0.3,37.4l0,5.1
			l4.9-1.6L262,383l11.8,35.5l1.6,4.9l4.2-3l30.4-21.8l22.2,30.1l3,4.1l3-4.1l22.2-30.1l30.4,21.8l4.2,3l1.6-4.9l11.8-35.5
			l35.7,11.3l4.9,1.6l0-5.1l0.3-37.4l37.4-0.3l5.1,0l-1.6-4.9l-11.3-35.7l35.5-11.8l4.9-1.6l-3-4.2l-21.8-30.4l30.1-22.2
			L528.8,239.3z"/>
		<polygon fill="#C41A20" points="224.9,129 225.2,87.9 264.4,100.3 277.4,61.3 310.8,85.2 335.2,52.1 359.6,85.2 393.1,61.3 
			406,100.3 445.2,87.9 445.5,129 486.7,129.3 474.2,168.5 513.2,181.5 489.3,214.9 522.4,239.3 489.3,263.7 513.2,297.1 
			474.2,310.1 486.7,349.3 445.5,349.6 445.2,390.7 406,378.3 393.1,417.3 359.6,393.4 335.2,426.5 310.8,393.4 277.4,417.3 
			264.4,378.3 225.2,390.7 224.9,349.6 183.8,349.3 196.2,310.1 157.2,297.1 181.1,263.7 148,239.3 181.1,214.9 157.2,181.5 
			196.2,168.5 183.8,129.3 		"/>
		<circle fill="#C41A20" stroke="#FFFFFF" stroke-width="0.7816" stroke-miterlimit="10" cx="335.1" cy="239.3" r="142.3"/>
		<circle fill="#FFFFFF" stroke="#C41A20" stroke-width="3.831" stroke-miterlimit="10" cx="335.1" cy="239.3" r="137.9"/>
		<circle fill="#FFFFFF" stroke="#C41A20" stroke-width="3.831" stroke-miterlimit="10" cx="335.1" cy="239.3" r="119.3"/>
		<g>
			<path fill="#C41A20" d="M263.4,183.5c0,1-0.1,2.1,0.9,2.7v4.9h-10.5v-4.9c1-0.6,0.9-1.7,0.9-2.7v-12.4c0-1,0.1-2.1-0.9-2.7v-4.9
				h11.9c2.1,0,4.8,0,6.7,1.1c2.3,1.3,3,3.7,3,6.2c0,3-0.9,5.7-4.1,6.5v0.1c2.7,0.6,3.6,1.8,3.6,4.6v1.6c0,0.9,0,2.3,1.1,2.7v4.9
				h-9.2c-0.4-1.5-0.6-2.8-0.5-7.4c0-2.2-0.2-3.3-2.6-3.3h-0.4V183.5z M263.4,174.8h0.9c1.9,0,2.4-1,2.4-2.9c0-1.8-0.6-2.7-2.4-2.7
				h-0.9V174.8z"/>
			<path fill="#C41A20" d="M299.1,181.1v10h-20.7v-4.9c1-0.6,0.9-1.7,0.9-2.7v-12.4c0-1,0.1-2.1-0.9-2.7v-4.9h20.7v9.3h-7.9V172
				c0-1.9-0.3-2.6-2.6-2.6h-0.5v4.9h5.4v5.4h-5.4v5.6h0.5c2.6,0,2.5-1,2.6-3.2v-0.9H299.1z"/>
			<path fill="#C41A20" d="M309.5,191.1H300v-4.9c0.9-0.6,1-2.1,1.3-3.1l3.6-19.6h12.2l4,20c0.2,0.9,0.5,2.4,1.4,2.7v4.9h-10.8v-4.9
				c0.7-0.3,1-0.8,1-1.5c0-0.3-0.1-0.5-0.1-0.8h-4.2c-0.1,0.3-0.1,0.5-0.1,0.8c0,0.8,0.4,1.3,1.1,1.5V191.1z M311.9,178.5l-1.4-8.2
				h-0.1l-1.4,8.2H311.9z"/>
			<path fill="#C41A20" d="M336,163.5c2.3,0,5.1,0,7,1.5c2.3,1.8,2.5,4.3,2.5,6.9v10.3c0,2.7-0.1,4.8-2.2,6.8c-2,1.9-4.4,2-7,2
				h-12.2v-4.9c1-0.4,1.1-1.3,1.1-2.2v-13.4c0-1-0.1-1.8-1.1-2.2v-4.9H336z M333.8,185.2h0.7c1.9,0,2.4-0.7,2.4-2.7v-10.4
				c0-2-0.6-2.7-2.4-2.7h-0.7V185.2z"/>
			<path fill="#C41A20" d="M368.6,181.1v10h-20.7v-4.9c1-0.6,0.9-1.7,0.9-2.7v-12.4c0-1,0.1-2.1-0.9-2.7v-4.9h20.7v9.3h-7.9V172
				c0-1.9-0.3-2.6-2.6-2.6h-0.5v4.9h5.4v5.4h-5.4v5.6h0.5c2.6,0,2.5-1,2.6-3.2v-0.9H368.6z"/>
			<path fill="#C41A20" d="M379.9,183.5c0,1-0.1,2.1,0.9,2.7v4.9h-10.5v-4.9c1-0.6,0.9-1.7,0.9-2.7v-12.4c0-1,0.1-2.1-0.9-2.7v-4.9
				h11.9c2.1,0,4.8,0,6.7,1.1c2.3,1.3,3,3.7,3,6.2c0,3-0.9,5.7-4.1,6.5v0.1c2.7,0.6,3.6,1.8,3.6,4.6v1.6c0,0.9,0,2.3,1.1,2.7v4.9
				h-9.2c-0.4-1.5-0.6-2.8-0.5-7.4c0-2.2-0.2-3.3-2.6-3.3h-0.4V183.5z M379.9,174.8h0.9c1.9,0,2.4-1,2.4-2.9c0-1.8-0.6-2.7-2.4-2.7
				h-0.9V174.8z"/>
			<path fill="#C41A20" d="M406.9,171.8c0-1.2,0-2.9-1.7-2.9c-1.1,0-1.7,0.8-1.7,1.8c0,0.5,0.1,1.1,0.5,1.5c0.5,0.5,1.7,0.9,2.4,1.1
				c2.1,0.5,4.8,1.3,6.6,2.4c1,0.7,1.7,1.5,2.1,2.6c0.5,1.2,0.6,2.5,0.6,3.8v0.1c0,5.3-2.3,9.2-10.6,9.2c-3.5,0-7.2-0.7-10-2.9v-7.4
				h8.4c0,1.6,0,2.9,0.3,3.4c0.3,0.5,0.9,0.9,1.5,0.9c1.2,0,1.7-1.1,1.7-2.1c0-2.8-1.8-3.1-4.2-3.6c-5.2-1.3-8.1-2.5-8.1-8.5v-0.6
				c0.1-3,0.6-4.4,2.9-6.1c1.8-1.4,4.5-1.7,7.1-1.7c3.7,0,7,0.7,10.2,2.9v6.5h-8V171.8z"/>
		</g>
		<g>
			<path fill="#C41A20" d="M261.9,299.1H251v-5.6c1.1-0.7,1.2-2.4,1.5-3.6l4.2-22.4h14l4.6,22.8c0.2,1,0.6,2.8,1.7,3.1v5.6h-12.4
				v-5.6c0.8-0.3,1.1-0.9,1.1-1.7c0-0.3-0.1-0.6-0.1-0.9h-4.7c-0.1,0.3-0.1,0.6-0.1,0.9c0,0.9,0.4,1.5,1.3,1.7V299.1z M264.6,284.7
				l-1.6-9.3h-0.1l-1.5,9.3H264.6z"/>
			<path fill="#C41A20" d="M301.4,267.6H312v5.6c-1.1,0.9-1.2,2.3-1.5,3.6l-4.2,22.3h-9.5l-2.8-15h-0.1l-3.1,15h-9.3l-4.2-22.3
				c-0.3-1.3-0.5-2.8-1.6-3.6v-5.6h12.3v5.6c-0.7,0.3-1,0.9-1,1.7l1.2,9.9h0.1l3.3-17.2h6l3.5,17.2h0.1l1-9.9c0-0.8-0.3-1.4-1-1.7
				V267.6z"/>
			<path fill="#C41A20" d="M322.5,299.1h-10.9v-5.6c1.1-0.7,1.2-2.4,1.5-3.6l4.2-22.4h14l4.6,22.8c0.2,1,0.6,2.8,1.7,3.1v5.6h-12.4
				v-5.6c0.8-0.3,1.1-0.9,1.1-1.7c0-0.3-0.1-0.6-0.1-0.9h-4.7c-0.1,0.3-0.1,0.6-0.1,0.9c0,0.9,0.4,1.5,1.3,1.7V299.1z M325.2,284.7
				l-1.6-9.3h-0.1l-1.5,9.3H325.2z"/>
			<path fill="#C41A20" d="M350,290.4c0,1.2-0.1,2.4,1.1,3.1v5.6h-12v-5.6c1.2-0.7,1.1-1.9,1.1-3.1v-14.2c0-1.2,0.1-2.4-1.1-3.1
				v-5.6h13.6c2.4,0,5.5,0,7.6,1.3c2.6,1.5,3.5,4.2,3.5,7.1c0,3.5-1,6.5-4.7,7.4v0.1c3.1,0.7,4.1,2.1,4.1,5.3v1.8
				c0,1.1,0,2.6,1.2,3.1v5.6h-10.6c-0.4-1.7-0.7-3.2-0.6-8.5c0-2.5-0.3-3.8-2.9-3.8H350V290.4z M350,280.5h1c2.1,0,2.8-1.1,2.8-3.3
				c0-2-0.7-3.1-2.8-3.1h-1V280.5z"/>
			<path fill="#C41A20" d="M380.7,267.6c2.7,0,5.8,0,8,1.8c2.6,2,2.8,4.9,2.8,7.9v11.8c0,3.1-0.1,5.5-2.5,7.7c-2.2,2.1-5,2.3-8,2.3
				h-13.9v-5.6c1.1-0.5,1.2-1.4,1.3-2.5v-15.3c0-1.1-0.1-2-1.3-2.5v-5.6H380.7z M378.2,292.5h0.8c2.1,0,2.8-0.8,2.8-3.1v-11.9
				c0-2.3-0.7-3.1-2.8-3.1h-0.8V292.5z"/>
			<path fill="#C41A20" d="M408,277.1c0-1.4,0-3.3-1.9-3.3c-1.3,0-1.9,0.9-1.9,2.1c0,0.6,0.1,1.3,0.6,1.8c0.6,0.6,1.9,1,2.8,1.3
				c2.4,0.6,5.5,1.5,7.5,2.8c1.1,0.8,2,1.7,2.4,3c0.5,1.4,0.7,2.9,0.7,4.3v0.1c0,6.1-2.7,10.6-12.1,10.6c-4,0-8.2-0.8-11.4-3.3V288
				h9.6c0,1.9,0,3.3,0.3,3.9c0.3,0.6,1,1,1.8,1c1.3,0,1.9-1.3,1.9-2.4c0-3.2-2-3.5-4.7-4.2c-6-1.5-9.3-2.9-9.3-9.7V276
				c0.1-3.4,0.7-5.1,3.3-7c2.1-1.6,5.1-2,8.1-2c4.3,0,8.1,0.8,11.6,3.3v7.4H408V277.1z"/>
		</g>
		<g>
			<path d="M237,328.9l0.4-0.4l0.7,0.6c0.1,0.1,0.1,0.1,0.2,0l3.6-3.5l-0.8-0.9c-0.1-0.1-0.1-0.1-0.2,0l-0.7,0.4l-0.5-0.6l1.2-1.2
				l3.9,4.1l-1.2,1.2l-0.5-0.6l0.5-0.7c0.1-0.1,0-0.1,0-0.2l-0.9-0.9l-3.6,3.5c-0.1,0.1-0.1,0.1,0,0.2l0.6,0.8l-0.4,0.4L237,328.9z"
				/>
			<path d="M243.5,335.5l0.4-0.4l0.5,0.4c0.1,0.1,0.1,0.1,0.2,0l1.5-1.6l-2.1-2l-1.5,1.6c-0.1,0.1-0.1,0.1,0,0.2l0.4,0.5l-0.4,0.4
				l-1.9-1.8l0.4-0.4l0.5,0.4c0.1,0.1,0.1,0.1,0.2,0l3.4-3.6c0.1-0.1,0.1-0.1,0-0.2l-0.4-0.4l0.4-0.4l1.9,1.8l-0.4,0.4l-0.5-0.4
				c-0.1-0.1-0.1-0.1-0.2,0l-1.4,1.4l2.1,2l1.4-1.4c0.1-0.1,0.1-0.1,0-0.2l-0.4-0.4l0.4-0.4l1.8,1.7l-0.4,0.4l-0.5-0.3
				c-0.1-0.1-0.1-0.1-0.2,0l-3.4,3.6c-0.1,0.1-0.1,0.1,0,0.2l0.4,0.5l-0.4,0.4L243.5,335.5z"/>
			<path d="M246.3,338l0.4-0.4l0.5,0.3c0.1,0.1,0.1,0.1,0.2,0l3.2-3.8c0.1-0.1,0.1-0.1,0-0.2l-0.4-0.4l0.4-0.5l3.6,3.1l-1.1,1.3
				l-0.6-0.5l0.4-0.6c0-0.1,0-0.1,0-0.2l-1.4-1.2l-1.4,1.6l1.8,1.5l-0.5,0.6l-1.8-1.5l-1.4,1.6l1.6,1.3c0.1,0.1,0.1,0.1,0.2,0
				l0.6-0.5l0.6,0.5l-1.1,1.3L246.3,338z"/>
			<path d="M254.3,340.5c1.2-1.6,2.9-2.1,4.6-0.8c1.7,1.3,1.6,3,0.5,4.5c-1.3,1.7-3,2.2-4.7,0.9C253,343.8,253.1,342.1,254.3,340.5z
				 M258.5,343.6c1-1.4,0.9-2.5-0.1-3.2c-1-0.7-2.2-0.6-3.2,0.8c-1.1,1.4-0.9,2.5,0.1,3.3C256.3,345.1,257.4,345,258.5,343.6z"/>
			<path d="M258.2,347.5l0.3-0.5l0.5,0.3c0.1,0.1,0.1,0,0.2-0.1l2.8-4.1c0.1-0.1,0.1-0.2,0-0.2l-0.4-0.4l0.3-0.5l3.9,2.6l-0.9,1.4
				l-0.6-0.5l0.3-0.7c0-0.1,0-0.1-0.1-0.2l-1.5-1l-1.2,1.7l1.9,1.3l-0.4,0.7l-1.9-1.3l-1.2,1.8c-0.1,0.1-0.1,0.1,0,0.2l1.1,0.8
				l-0.3,0.5L258.2,347.5z"/>
			<path d="M263,350.7l0.3-0.5l0.5,0.2c0.1,0.1,0.1,0,0.2-0.1l2.6-4.2c0.1-0.1,0.1-0.2,0-0.2l-0.5-0.4l0.3-0.5l4,2.5l-0.9,1.4
				l-0.6-0.4l0.3-0.7c0-0.1,0-0.1-0.1-0.2l-1.6-1l-1.1,1.8l2,1.2l-0.4,0.7l-2-1.2l-1.1,1.8c-0.1,0.1-0.1,0.1,0,0.2l1.1,0.8l-0.3,0.5
				L263,350.7z"/>
			<path d="M267.9,353.6l0.3-0.5l0.6,0.3c0.1,0.1,0.2,0,0.2-0.1l2.5-4.3c0.1-0.1,0.1-0.2,0-0.2l-0.6-0.4l0.3-0.5l2.4,1.4l-0.3,0.5
				l-0.7-0.3c-0.1-0.1-0.1,0-0.2,0.1l-2.4,4.3c-0.1,0.1-0.1,0.1,0,0.2l0.6,0.4l-0.3,0.5L267.9,353.6z"/>
			<path d="M276.1,357.6c-0.6,0.1-1.5-0.2-2.2-0.6c-2-1-2.2-2.7-1.2-4.5c0.9-1.7,2.6-2.5,4.5-1.5c0.7,0.4,1.3,0.9,1.6,1.4l-0.7,1.4
				l-0.7-0.4l0.3-0.9c0-0.1,0-0.1,0-0.2c-0.2-0.2-0.5-0.4-0.8-0.6c-1.2-0.6-2.3-0.2-3.1,1.3c-0.8,1.6-0.5,2.7,0.7,3.3
				c0.3,0.2,0.8,0.4,1.1,0.4c0.1,0,0.1,0,0.2-0.1l0.5-0.7l0.7,0.3L276.1,357.6z"/>
			<path d="M276.9,358.4l0.2-0.5l0.6,0.2c0.1,0,0.2,0,0.2-0.1l2.1-4.5c0.1-0.1,0.1-0.2-0.1-0.2l-0.6-0.3l0.2-0.5l2.5,1.2l-0.2,0.5
				l-0.7-0.2c-0.1,0-0.1,0-0.2,0.1l-2.1,4.5c-0.1,0.1-0.1,0.2,0.1,0.2l0.6,0.4l-0.2,0.5L276.9,358.4z"/>
			<path d="M283.7,361.5l0.2-0.5l0.7,0.2l0.1-1.3l-2.3-0.9l-0.9,1l0.6,0.4l-0.2,0.5l-2.1-0.9l0.2-0.5l0.4,0.1c0.1,0,0.2,0,0.3-0.1
				l4.1-4.6l1.2,0.5l-0.4,6.2c0,0.1,0.1,0.2,0.1,0.2l0.4,0.3l-0.2,0.5L283.7,361.5z M285.1,355.9L285.1,355.9l-2.1,2.3l1.8,0.8
				L285.1,355.9z"/>
			<path d="M286.7,362.7l0.2-0.6l0.6,0.1c0.1,0,0.2,0,0.2-0.1l1.7-4.7c0-0.1,0-0.2-0.1-0.2l-0.5-0.3l0.2-0.6l2.5,0.9l-0.2,0.6
				l-0.7-0.2c-0.1,0-0.2,0-0.2,0.1l-1.7,4.7l1.9,0.7c0.1,0,0.1,0,0.2,0l0.4-0.8l0.7,0.3l-0.6,1.6L286.7,362.7z"/>
			<path d="M299.4,366.4c-0.6,0.2-1.5,0.1-2.3-0.2c-2.2-0.6-2.7-2.2-2.1-4.2c0.6-1.9,2-3,4.2-2.3c0.8,0.2,1.5,0.6,1.8,1.1l-0.5,1.5
				l-0.7-0.3l0.1-0.9c0-0.1,0-0.1-0.1-0.2c-0.2-0.2-0.6-0.3-0.9-0.4c-1.3-0.4-2.3,0.2-2.8,1.8c-0.5,1.7,0,2.8,1.3,3.1
				c0.4,0.1,0.8,0.2,1.1,0.2c0.1,0,0.1,0,0.2-0.1l0.4-0.8l0.7,0.2L299.4,366.4z"/>
			<path d="M301,363.8c0.5-1.9,1.9-3.1,3.9-2.6c2.1,0.5,2.6,2.2,2.2,3.9c-0.5,2.1-1.8,3.2-3.9,2.7
				C301.1,367.4,300.6,365.8,301,363.8z M306.1,365c0.4-1.6-0.1-2.6-1.3-2.9c-1.2-0.3-2.3,0.3-2.6,2c-0.4,1.7,0.2,2.7,1.4,3
				C304.7,367.3,305.7,366.8,306.1,365z"/>
			<path d="M312.5,369.6l0.1-0.6l0.8,0.1c0.1,0,0.2,0,0.2-0.2l0.7-4.1l0,0l-2.2,3.2l-1.2-0.2l-1-3.8l0,0l-0.7,4.2
				c0,0.1,0,0.2,0.1,0.2l0.8,0.2l-0.1,0.6l-2.6-0.4l0.1-0.6l0.6,0c0.1,0,0.2,0,0.2-0.2l0.9-4.9c0-0.1,0-0.2-0.1-0.2l-0.6-0.2
				l0.1-0.6l2,0.4l1.1,4.6l0,0l2.6-3.9l1.9,0.3l-0.1,0.6l-0.6,0c-0.1,0-0.2,0-0.2,0.1l-0.9,4.9c0,0.1,0,0.2,0.1,0.2l0.6,0.2
				l-0.1,0.6L312.5,369.6z"/>
			<path d="M321.5,370.8l0.1-0.6l0.8,0c0.1,0,0.2,0,0.2-0.2l0.4-4.2l0,0l-2,3.4l-1.2-0.1l-1.2-3.7l0,0l-0.4,4.2c0,0.1,0,0.2,0.1,0.2
				l0.8,0.2l-0.1,0.6l-2.6-0.3l0.1-0.6l0.6,0c0.1,0,0.2,0,0.2-0.2l0.5-4.9c0-0.1,0-0.2-0.1-0.2l-0.6-0.1l0.1-0.6l2.1,0.2l1.4,4.5
				l0,0l2.4-4.1l2,0.2l-0.1,0.6l-0.6,0c-0.1,0-0.2,0-0.2,0.2l-0.5,5c0,0.1,0,0.2,0.1,0.2l0.6,0.1l-0.1,0.6L321.5,370.8z"/>
			<path d="M330.3,365.6c0-0.1,0-0.2-0.1-0.2l-0.6-0.1l0-0.6l2.5,0.1l0,0.6l-0.6,0c-0.1,0-0.1,0-0.2,0.2l-0.2,3.5
				c-0.1,1.7-1,2.4-2.6,2.3c-1.8-0.1-2.4-0.9-2.4-2.5l0.2-3.5c0-0.1,0-0.2-0.1-0.2l-0.6-0.1l0-0.6l2.6,0.1l0,0.6l-0.6,0
				c-0.1,0-0.1,0-0.2,0.2l-0.2,3.3c-0.1,1.2,0.3,1.7,1.4,1.8c1,0,1.5-0.4,1.6-1.6L330.3,365.6z"/>
			<path d="M337.6,371.5l-3.3-5.2l0.1,4.4c0,0.1,0,0.2,0.2,0.2l0.6,0.1l0,0.6l-2.4,0l0-0.6l0.6-0.1c0.1,0,0.1,0,0.1-0.2l-0.1-5
				c0-0.1,0-0.2-0.1-0.2l-0.6-0.1l0-0.6l2,0l3.2,5.2l-0.1-4.4c0-0.1,0-0.2-0.2-0.2l-0.6-0.1l0-0.6l2.4,0l0,0.6l-0.6,0.1
				c-0.1,0-0.1,0-0.1,0.2l0.1,5.8L337.6,371.5z"/>
			<path d="M340.5,371.4l0-0.6l0.7-0.1c0.1,0,0.1-0.1,0.1-0.2l-0.2-5c0-0.1,0-0.2-0.2-0.2l-0.7,0l0-0.6l2.7-0.1l0,0.6l-0.7,0.1
				c-0.1,0-0.1,0-0.1,0.2l0.2,5c0,0.1,0,0.2,0.2,0.2l0.7,0l0,0.6L340.5,371.4z"/>
			<path d="M345.3,371.1l-0.1-0.6l0.9-0.1c0.1,0,0.1-0.1,0.1-0.2l-0.4-5l-1.2,0.1c-0.1,0-0.1,0-0.1,0.1l-0.1,0.8l-0.8,0.1l-0.1-1.7
				l5.7-0.5l0.1,1.7l-0.8,0.1l-0.2-0.8c0-0.1-0.1-0.1-0.2-0.1l-1.2,0.1l0.4,5c0,0.1,0,0.2,0.2,0.2l1,0l0.1,0.6L345.3,371.1z"/>
			<path d="M351.5,370.5l-0.1-0.6l0.9-0.2c0.1,0,0.1-0.1,0.1-0.2l-0.2-1.7l-2.2-3c-0.1-0.1-0.1-0.1-0.2-0.1l-0.4,0l0-0.6l2.3-0.3
				l0.1,0.6l-0.7,0.2l1.6,2.3l0,0l1-2.7l-0.7,0l0-0.6l2.1-0.3l0.1,0.6l-0.4,0.2c-0.1,0-0.2,0.1-0.2,0.2l-1.3,3.4l0.2,1.7
				c0,0.1,0,0.2,0.2,0.2l0.9-0.1l0.1,0.6L351.5,370.5z"/>
			<path d="M355.6,364.7l0.1-0.9c0-0.1,0-0.1-0.1-0.1l-0.3-0.1l0.1-0.8c0.6-0.1,1-0.1,1.1,0.4c0,0.2,0,0.3-0.1,0.5l-0.3,1
				L355.6,364.7z"/>
			<path d="M360.7,364.2l-0.3-0.7c0-0.1-0.1-0.1-0.1-0.2c-0.1,0-0.4-0.1-0.8,0c-0.8,0.2-1.2,0.6-1.1,1.2c0.1,0.7,0.8,0.8,1.5,0.9
				c0.9,0.1,2,0.2,2.3,1.6c0.3,1.4-0.7,2.2-2.1,2.4c-0.8,0.2-1.7,0.1-2,0l-0.3-1.6l0.8-0.1l0.3,0.8c0,0.1,0.1,0.1,0.2,0.2
				c0.1,0,0.5,0,0.9,0c0.8-0.2,1.3-0.6,1.2-1.3c-0.1-0.7-0.8-0.8-1.5-0.9c-0.9-0.1-2-0.2-2.3-1.5c-0.3-1.3,0.7-2.1,2-2.4
				c0.8-0.1,1.4-0.1,1.8,0l0.3,1.6L360.7,364.2z"/>
			<path d="M370.7,366.4c-0.4,0.4-1.2,0.8-2.1,1c-2.2,0.6-3.4-0.6-3.9-2.6c-0.5-1.9,0.2-3.6,2.4-4.1c0.8-0.2,1.6-0.2,2.1,0l0.4,1.6
				l-0.8,0.1l-0.4-0.8c0-0.1-0.1-0.1-0.2-0.1c-0.3,0-0.7,0-1,0.1c-1.3,0.3-1.9,1.4-1.5,3c0.4,1.7,1.4,2.4,2.7,2
				c0.4-0.1,0.8-0.2,1.1-0.4c0.1,0,0.1-0.1,0.1-0.2l-0.1-0.9l0.7-0.2L370.7,366.4z"/>
			<path d="M375.7,365.3l-0.2-0.6l0.5-0.2c0.1-0.1,0.1-0.1,0.1-0.2l-0.6-2.1l-2.8,0.9l0.6,2.1c0,0.1,0.1,0.2,0.2,0.1l0.6-0.1
				l0.2,0.6l-2.4,0.8l-0.2-0.6l0.5-0.2c0.1-0.1,0.1-0.1,0.1-0.2l-1.5-4.8c0-0.1-0.1-0.2-0.2-0.1l-0.6,0.1l-0.2-0.6l2.4-0.8l0.2,0.6
				l-0.6,0.3c-0.1,0.1-0.1,0.1-0.1,0.2l0.6,1.9l2.8-0.9l-0.6-1.9c0-0.1-0.1-0.2-0.2-0.1l-0.6,0.1l-0.2-0.6l2.4-0.7l0.2,0.6l-0.5,0.2
				c-0.1,0.1-0.1,0.1-0.1,0.2l1.5,4.7c0,0.1,0.1,0.2,0.2,0.1l0.6-0.1l0.2,0.6L375.7,365.3z"/>
			<path d="M377.9,361.1c-0.7-1.8-0.2-3.6,1.8-4.3c2-0.7,3.4,0.3,4,2c0.8,2,0.3,3.7-1.7,4.5C380,364,378.7,363,377.9,361.1z
				 M382.8,359.2c-0.6-1.6-1.6-2.1-2.7-1.7c-1.2,0.4-1.7,1.5-1.1,3.1c0.6,1.7,1.7,2.1,2.8,1.7C382.9,361.9,383.4,360.9,382.8,359.2z
				"/>
			<path d="M385.9,361.6l-0.2-0.5l0.6-0.3c0.1-0.1,0.1-0.1,0.1-0.2l-1.9-4.6c-0.1-0.1-0.1-0.2-0.2-0.1l-0.6,0.2l-0.2-0.5l2.5-1.1
				l0.2,0.5l-0.6,0.3c-0.1,0.1-0.1,0.1-0.1,0.2l1.9,4.6c0.1,0.1,0.1,0.1,0.2,0.1l0.7-0.2l0.2,0.5L385.9,361.6z"/>
			<path d="M394.1,357.5c-0.3,0.5-1.1,1-1.8,1.4c-2,1-3.5,0.1-4.4-1.8c-0.8-1.8-0.4-3.6,1.6-4.5c0.7-0.3,1.5-0.5,2.1-0.4l0.7,1.5
				l-0.7,0.3l-0.5-0.7c0-0.1-0.1-0.1-0.2-0.1c-0.3,0-0.7,0.1-1,0.3c-1.2,0.6-1.6,1.7-0.9,3.3c0.7,1.6,1.9,2,3,1.5
				c0.3-0.2,0.7-0.4,1-0.6c0.1-0.1,0.1-0.1,0.1-0.2l-0.2-0.8l0.7-0.3L394.1,357.5z"/>
			<path d="M395.3,357.3l-0.3-0.5l0.5-0.3c0.1-0.1,0.1-0.1,0-0.2l-2.3-4.4c-0.1-0.1-0.1-0.1-0.2-0.1l-0.5,0.2l-0.3-0.5l4.2-2.2
				l0.8,1.5l-0.7,0.3l-0.4-0.6c-0.1-0.1-0.1-0.1-0.2,0l-1.6,0.9l1,1.9l2.1-1.1l0.4,0.7l-2.1,1.1l1,1.9l1.8-1c0.1,0,0.1-0.1,0.1-0.2
				l-0.2-0.8l0.7-0.4l0.8,1.5L395.3,357.3z"/>
			<path d="M405.5,351.6l-0.3-0.5l0.6-0.5l-1-0.8l-2.1,1.3l0.3,1.3l0.7-0.3l0.3,0.5l-2,1.2l-0.3-0.5l0.3-0.3
				c0.1-0.1,0.1-0.2,0.1-0.3l-1.3-6l1.1-0.7l4.8,3.9c0.1,0.1,0.2,0.1,0.3,0l0.4-0.1l0.3,0.5L405.5,351.6z M401.8,347.2L401.8,347.2
				l0.7,3l1.7-1L401.8,347.2z"/>
			<path d="M411.8,347.3l-3.1-2.6l0,0l1.4,3.8l-1.1,0.8l-4.5-3.9c-0.1-0.1-0.2-0.1-0.3,0l-0.5,0.2l-0.3-0.5l2.1-1.4l0.3,0.5
				l-0.6,0.5l3.7,3.4l0,0l-1.5-4.2l0.9-0.6l3.4,2.9l0,0l-1.9-4.7l-0.7,0.4l-0.3-0.5l1.9-1.3l0.3,0.5l-0.3,0.3
				c-0.1,0.1-0.1,0.1-0.1,0.3l2.2,5.6L411.8,347.3z"/>
			<path d="M417.6,343l-0.4-0.5l0.5-0.5l-1.1-0.7l-1.9,1.5l0.4,1.2l0.6-0.4l0.4,0.5l-1.8,1.4l-0.4-0.5l0.2-0.3
				c0.1-0.1,0.1-0.2,0.1-0.3l-2-5.8l1-0.8l5.2,3.3c0.1,0.1,0.2,0,0.3,0l0.4-0.2l0.4,0.5L417.6,343z M413.4,339.1L413.4,339.1l1,2.9
				l1.6-1.2L413.4,339.1z"/>
			<path d="M422.5,338.9l-0.4-0.4l0.4-0.5l-1.7-0.9c-0.3-0.1-0.5-0.1-0.7,0.1l-0.6,0.5l1.3,1.5c0.1,0.1,0.1,0.1,0.2,0l0.5-0.3
				l0.4,0.4l-1.9,1.7l-0.4-0.4l0.4-0.4c0.1-0.1,0.1-0.1,0-0.2l-3.3-3.8c-0.1-0.1-0.1-0.1-0.2,0l-0.5,0.3l-0.4-0.5l2.2-1.9
				c1.2-1.1,2.2-0.7,2.8,0c0.6,0.7,0.6,1.5,0.2,2.2c0.3-0.1,0.5,0,0.9,0.2l1.3,0.7c0.1,0.1,0.2,0,0.3,0l0.5-0.3l0.4,0.4L422.5,338.9
				z M419.6,336.7c0.6-0.5,1-1.1,0.3-1.9c-0.6-0.6-1.1-0.5-1.8,0.2l-0.5,0.4l1.5,1.7L419.6,336.7z"/>
			<path d="M424.9,336.7l-0.4-0.4l0.4-0.4c0.1-0.1,0.1-0.1,0-0.2l-3.5-3.6c-0.1-0.1-0.1-0.1-0.2,0l-0.5,0.4l-0.4-0.4l2-2
				c1.7-1.6,3.2-1.4,4.6,0c1.4,1.5,1.6,3.2-0.1,4.9L424.9,336.7z M426.2,334.3c1.2-1.2,1.1-2.4,0-3.5c-1.3-1.4-2.3-1.3-3.5-0.2
				l-0.6,0.6l3.5,3.6L426.2,334.3z"/>
			<path d="M428.9,325.9l-0.6-0.4c-0.1-0.1-0.1-0.1-0.2-0.1c-0.1,0-0.4,0.2-0.7,0.5c-0.6,0.6-0.6,1.2-0.2,1.6
				c0.5,0.5,1.1,0.1,1.7-0.2c0.8-0.5,1.7-1,2.7-0.1c1.1,1,0.7,2.2-0.2,3.2c-0.6,0.6-1.3,1.1-1.6,1.2l-1.2-1.1l0.5-0.6l0.7,0.4
				c0.1,0.1,0.1,0.1,0.2,0c0.1-0.1,0.4-0.3,0.7-0.6c0.6-0.6,0.7-1.2,0.2-1.7c-0.5-0.5-1.1-0.2-1.8,0.2c-0.8,0.5-1.7,1.1-2.7,0.1
				c-1-0.9-0.7-2.1,0.2-3.1c0.5-0.6,1.1-0.9,1.5-1.1l1.2,1.1L428.9,325.9z"/>
		</g>
		<rect x="212.5" y="207.5" fill="#FFFFFF" width="15.6" height="39.4"/>
		<rect x="445.7" y="209.4" fill="#FFFFFF" width="31.2" height="37.6"/>
		<g>
			<path fill="#FFFFFF" stroke="#C41A20" stroke-width="5.9569" d="M220.5,205.7c0-3.1,0.6-8.4-4-8.4c-4.6,0-4,5.3-4,8.4v29.2
				c0,3.1-0.6,8.4,4,8.4c4.6,0,4-5.3,4-8.4v-8.6h21.2v25.2c-5.7,5-14.8,7.8-23.6,8c-8.8,0.3-17.3-1.9-21.7-6.3
				c-6.1-6.1-5.8-14-5.8-22.3v-26.3c0-6.8,0.8-13.4,6-18c4.8-4.2,12.6-6.1,20.8-5.7c8.4,0.4,17.2,3.2,24.3,8.2v21h-21.2V205.7z"/>
			<path fill="#FFFFFF" stroke="#C41A20" stroke-width="5.7447" d="M295.4,258.3h-21.9V248c2.2-1.3,2-3.5,2-5.7v-8.5h-6.9v8.5
				c0,2.2-0.2,4.3,2,5.7v10.2h-21.9V248c2.2-1.3,2-3.5,2-5.7v-25.9c0-2.2,0.2-4.3-2-5.7v-10.2h21.9v10.2c-2.2,1.3-2,3.5-2,5.7v6.2
				h6.9v-6.2c0-2.2,0.2-4.3-2-5.7v-10.2h21.9v10.2c-2.2,1.3-2,3.5-2,5.7v25.9c0,2.2-0.2,4.3,2,5.7V258.3z"/>
			<path fill="#FFFFFF" stroke="#C41A20" stroke-width="5.7447" d="M344,241.6c0,14.3-8.7,17.8-21.5,17.8s-21.5-3.6-21.5-17.8v-24.3
				c0-14.3,8.7-17.8,21.5-17.8S344,203,344,217.3V241.6z M319,242.4c0,0.4-0.2,4.5,3.5,4.5s3.5-4.1,3.5-4.5v-26.1
				c0-0.4,0.2-4.4-3.5-4.4s-3.5,4-3.5,4.4V242.4z"/>
			<path fill="#FFFFFF" stroke="#C41A20" stroke-width="5.7447" d="M351.3,216.5c0-2.2,0.2-4.3-2-5.7v-10.2h21.9v10.2
				c-2.2,1.3-2,3.5-2,5.7v25.9c0,2.2-0.2,4.3,2,5.7v10.2h-21.9V248c2.2-1.3,2-3.5,2-5.7V216.5z"/>
			<path fill="#FFFFFF" stroke="#C41A20" stroke-width="5.7447" d="M401.4,218.3c0-2.4,0.5-6.4-3.3-6.4s-3.3,4-3.3,6.4v22.3
				c0,2.4-0.5,6.4,3.3,6.4s3.3-4,3.3-6.4V234h17.4v19.2c-4.6,3.8-12.1,5.9-19.4,6.1c-7.2,0.2-14.2-1.4-17.8-4.8
				c-5-4.6-4.8-10.7-4.8-17v-20.1c0-5.2,0.7-10.2,4.9-13.7c3.9-3.2,10.3-4.6,17.1-4.4c6.9,0.3,14.1,2.4,19.9,6.3v16h-17.4V218.3z"/>
			<path fill="#FFFFFF" stroke="#C41A20" stroke-width="5.9569" d="M478.8,230.8v27.4h-52.7v-13.4c2.6-1.8,2.4-4.6,2.4-7.4v-34
				c0-2.8,0.2-5.6-2.4-7.4v-13.4h52.7v25.6h-20.2v-2.3c0-5.1-0.7-7.2-6.6-7.2h-1.3v13.5h13.9v14.7h-13.9v15.3h1.3
				c6.6,0,6.5-2.6,6.6-8.8v-2.5H478.8z"/>
		</g>
		<g>
			<path fill="#CDA349" stroke="#FFFFFF" stroke-width="2.1328" d="M220.5,205.7c0-3.1,0.6-8.4-4-8.4c-4.6,0-4,5.3-4,8.4v29.2
				c0,3.1-0.6,8.4,4,8.4c4.6,0,4-5.3,4-8.4v-8.6h21.2v25.2c-5.7,5-14.8,7.8-23.6,8c-8.8,0.3-17.3-1.9-21.7-6.3
				c-6.1-6.1-5.8-14-5.8-22.3v-26.3c0-6.8,0.8-13.4,6-18c4.8-4.2,12.6-6.1,20.8-5.7c8.4,0.4,17.2,3.2,24.3,8.2v21h-21.2V205.7z"/>
			<path fill="#CDA349" stroke="#FFFFFF" stroke-width="2.1328" d="M295.4,258.3h-21.9V248c2.2-1.3,2-3.5,2-5.7v-8.5h-6.9v8.5
				c0,2.2-0.2,4.3,2,5.7v10.2h-21.9V248c2.2-1.3,2-3.5,2-5.7v-25.9c0-2.2,0.2-4.3-2-5.7v-10.2h21.9v10.2c-2.2,1.3-2,3.5-2,5.7v6.2
				h6.9v-6.2c0-2.2,0.2-4.3-2-5.7v-10.2h21.9v10.2c-2.2,1.3-2,3.5-2,5.7v25.9c0,2.2-0.2,4.3,2,5.7V258.3z"/>
			<path fill="#CDA349" stroke="#FFFFFF" stroke-width="2.1328" d="M344,241.6c0,14.3-8.7,17.8-21.5,17.8s-21.5-3.6-21.5-17.8v-24.3
				c0-14.3,8.7-17.8,21.5-17.8S344,203,344,217.3V241.6z M319,242.4c0,0.4-0.2,4.5,3.5,4.5s3.5-4.1,3.5-4.5v-26.1
				c0-0.4,0.2-4.4-3.5-4.4s-3.5,4-3.5,4.4V242.4z"/>
			<path fill="#CDA349" stroke="#FFFFFF" stroke-width="2.1328" d="M351.3,216.5c0-2.2,0.2-4.3-2-5.7v-10.2h21.9v10.2
				c-2.2,1.3-2,3.5-2,5.7v25.9c0,2.2-0.2,4.3,2,5.7v10.2h-21.9V248c2.2-1.3,2-3.5,2-5.7V216.5z"/>
			<path fill="#CDA349" stroke="#FFFFFF" stroke-width="2.1328" d="M401.4,218.3c0-2.4,0.5-6.4-3.3-6.4s-3.3,4-3.3,6.4v22.3
				c0,2.4-0.5,6.4,3.3,6.4s3.3-4,3.3-6.4V234h17.4v19.2c-4.6,3.8-12.1,5.9-19.4,6.1c-7.2,0.2-14.2-1.4-17.8-4.8
				c-5-4.6-4.8-10.7-4.8-17v-20.1c0-5.2,0.7-10.2,4.9-13.7c3.9-3.2,10.3-4.6,17.1-4.4c6.9,0.3,14.1,2.4,19.9,6.3v16h-17.4V218.3z"/>
			<path fill="#CDA349" stroke="#FFFFFF" stroke-width="2.1328" d="M478.8,230.8v27.4h-52.7v-13.4c2.6-1.8,2.4-4.6,2.4-7.4v-34
				c0-2.8,0.2-5.6-2.4-7.4v-13.4h52.7v25.6h-20.2v-2.3c0-5.1-0.7-7.2-6.6-7.2h-1.3v13.5h13.9v14.7h-13.9v15.3h1.3
				c6.6,0,6.5-2.6,6.6-8.8v-2.5H478.8z"/>
		</g>
		<g>
			<path d="M279.5,324.2H274v-8.7h5.4c2,0,3.1,0.6,3.7,1.5c0.4,0.6,0.6,1.4,0.6,2.7c0,1.3-0.1,2.1-0.5,2.8
				C282.6,323.6,281.5,324.2,279.5,324.2z M281.7,319.8c0-0.7-0.1-1.4-0.3-1.7c-0.4-0.6-1-0.9-2.2-0.9h-3.1v5.3h3
				c1.2,0,1.9-0.3,2.2-0.8C281.6,321.3,281.7,320.6,281.7,319.8z"/>
			<path d="M286.4,324.2h-2.2l4.6-8.7h2.5l4.4,8.7h-2.3l-0.9-1.9h-5.1L286.4,324.2z M290.4,318l-0.3-0.8l-0.4,0.8l-1.4,2.7h3.4
				C291.7,320.6,290.4,318,290.4,318z"/>
			<path d="M296.8,324.2v-8.7h2.1v8.7H296.8z"/>
			<path d="M301.1,324.2v-8.7h2.1v6.9h5.7v1.7H301.1z"/>
			<path d="M314,321.4v2.9H312v-2.9l-4.6-5.8h2.4l3.3,4.1l3.4-4.1h2.3L314,321.4z"/>
			<path d="M324.9,324.3c-1,0-2.1-0.1-2.4-0.1v-1.7c0.3,0.1,1.3,0.1,2,0.1c1.4,0,1.9-0.8,1.9-1.7v-5.3h2.1v5.7
				C328.5,323.2,327.1,324.3,324.9,324.3z"/>
			<path d="M339.8,316.9c0.7,0.8,1,1.7,1,3c0,1.3-0.4,2.3-1,3c-0.8,1-2.4,1.5-4.4,1.5c-2,0-3.5-0.5-4.4-1.5c-0.7-0.7-1.1-1.7-1.1-3
				c0-1.2,0.3-2.1,1-2.9c1-1.1,2.4-1.6,4.4-1.6C337.5,315.4,338.9,315.9,339.8,316.9z M338.1,321.8c0.4-0.4,0.6-1.2,0.6-1.9
				c0-0.8-0.2-1.5-0.6-1.9c-0.6-0.5-1.3-0.9-2.7-0.9c-1.3,0-2.2,0.4-2.7,0.9c-0.4,0.4-0.6,1.1-0.6,1.9c0,0.8,0.2,1.6,0.7,2
				c0.6,0.5,1.3,0.8,2.6,0.8C336.7,322.7,337.5,322.4,338.1,321.8z"/>
			<path d="M347.1,324.3c-2.9,0-4.8-1.1-4.8-3.5c0-0.3,0-5.3,0-5.3h2.1c0,0,0,5.1,0,5.3c0,1.1,0.9,1.8,2.7,1.8
				c1.7,0,2.7-0.7,2.7-1.8c0-0.1,0-5.3,0-5.3h2.1c0,0,0,5.2,0,5.5C351.9,323.2,350.1,324.3,347.1,324.3z"/>
			<path d="M362.9,319.6c-0.3,0.5-0.8,0.8-1.4,0.9l2.6,3.7h-2.4l-2.3-3.4h-3.4v3.4H354v-8.7h6.2c1.3,0,2.2,0.4,2.6,1
				c0.3,0.4,0.5,0.9,0.5,1.6C363.3,318.7,363.1,319.2,362.9,319.6z M361.1,317.7c-0.2-0.3-0.5-0.4-1.1-0.4h-3.9v1.9h4
				c0.6,0,0.9-0.1,1-0.3c0.1-0.2,0.1-0.4,0.1-0.6C361.2,318,361.2,317.8,361.1,317.7z"/>
			<path d="M372.6,324.2l-5.1-5.9v5.9h-2v-8.7h2.3l5,5.8v-5.8h2v8.7H372.6z"/>
			<path d="M378,324.2h-2.2l4.6-8.7h2.5l4.4,8.7H385l-0.9-1.9H379L378,324.2z M381.9,318l-0.3-0.8l-0.4,0.8l-1.4,2.7h3.4
				C383.2,320.6,381.9,318,381.9,318z"/>
			<path d="M388.4,324.2v-8.7h2.1v6.9h5.7v1.7H388.4z"/>
		</g>
		<g>
			<path d="M294.5,337.4l0.1-0.5l0,0c-0.5,0.2-1,0.3-1.7,0c-1-0.4-1.4-1.3-0.8-2.9c0.7-1.7,1.7-2.1,2.7-1.7c0.5,0.2,0.9,0.5,1.1,0.9
				l0.6-1.5c0-0.1,0-0.2,0-0.2l-0.4-0.4l0.3-0.5l1.5,0.6l-2.2,5.7c-0.1,0.1-0.1,0.2,0.1,0.2l0.4,0.2l-0.2,0.5L294.5,337.4z
				 M295.6,334c-0.2-0.3-0.5-0.7-0.8-0.8c-0.7-0.3-1.3,0.3-1.6,1.2c-0.4,1.1-0.3,1.6,0.3,1.8c0.4,0.2,0.9,0.1,1.4-0.1L295.6,334z"/>
			<path d="M298.3,334.8c0-0.1,0-0.2,0-0.2l-0.5-0.4l0.3-0.5l1.6,0.5l-1.7,5c-0.3,1-0.9,1.3-1.8,0.9c-0.6-0.2-1-0.6-1.2-0.9l0.5-0.5
				c0.1,0.2,0.4,0.4,0.7,0.5c0.4,0.1,0.6,0,0.9-0.7L298.3,334.8z M299.3,333.2c-0.4-0.1-0.6-0.5-0.4-0.9c0.1-0.4,0.5-0.5,0.9-0.4
				c0.4,0.1,0.6,0.5,0.4,0.9C300,333.1,299.7,333.3,299.3,333.2z"/>
			<path d="M299.2,339.1l0.2-0.6l0.4,0.1c0.1,0,0.2,0,0.2-0.1l0.9-2.8c0-0.1,0-0.2-0.1-0.2l-0.4-0.3l0.3-0.5l1.3,0.4l-0.1,0.7l0,0
				c0.4-0.3,0.9-0.5,1.5-0.3c0.2,0.1,0.5,0.2,0.7,0.3l-0.5,1.4l-0.8-0.3l0.1-0.6c0-0.1,0-0.1-0.1-0.1c-0.3-0.1-0.8,0.1-1,0.2
				l-0.8,2.5c0,0.1,0,0.2,0.1,0.2l0.8,0.3l-0.2,0.6L299.2,339.1z"/>
			<path d="M307.2,341.1c-0.6,0.1-1.2,0.1-1.8,0c-1.6-0.5-1.9-1.7-1.5-3c0.4-1.6,1.6-2.1,2.7-1.8c1.1,0.3,1.7,1.1,1.3,2.7
				c0,0.1-0.1,0.3-0.2,0.5l-2.9-0.8c-0.2,0.8,0,1.4,0.9,1.6c0.4,0.1,0.8,0.1,1.4,0L307.2,341.1z M306.9,338.4
				c0.2-0.9-0.1-1.3-0.6-1.4c-0.5-0.1-1,0.1-1.3,0.9L306.9,338.4z"/>
			<path d="M310.9,342.3l0-0.5l0,0c-0.5,0.3-1,0.4-1.7,0.3c-1.1-0.3-1.1-1.1-1-1.6c0.2-0.9,0.9-1.2,2-1l1.2,0.2l0.1-0.5
				c0.1-0.6,0.1-0.9-0.6-1c-0.5-0.1-0.8-0.2-1,0.5l-0.9-0.3c0.3-1.1,1.3-1.1,2.1-0.9c1.3,0.3,1.7,0.8,1.4,2l-0.5,2.3
				c0,0.1,0,0.2,0.1,0.2l0.4,0.2l-0.1,0.6L310.9,342.3z M311.2,340.2l-0.9-0.1c-0.7-0.1-0.9,0.1-1,0.5c-0.1,0.4,0.1,0.6,0.4,0.7
				c0.4,0.1,0.9-0.1,1.3-0.3L311.2,340.2z"/>
			<path d="M316.5,343.4l0-0.5l-0.1,0c-0.5,0.3-1,0.5-1.7,0.4c-1-0.2-1.6-1-1.3-2.7c0.3-1.8,1.3-2.4,2.3-2.2c0.5,0.1,1,0.3,1.3,0.6
				l0.3-1.5c0-0.1,0-0.2-0.1-0.2l-0.5-0.3l0.2-0.6l1.6,0.3l-1.1,6c0,0.1,0,0.2,0.1,0.2l0.4,0.1l-0.1,0.6L316.5,343.4z M316.9,339.8
				c-0.2-0.3-0.6-0.5-1-0.6c-0.8-0.1-1.2,0.5-1.4,1.5c-0.2,1.1,0.1,1.6,0.7,1.7c0.4,0.1,0.9-0.1,1.3-0.4L316.9,339.8z"/>
			<path d="M322.6,343.9c-0.5,0.2-1.1,0.3-1.8,0.2c-1.7-0.2-2.1-1.4-1.9-2.8c0.2-1.7,1.3-2.3,2.5-2.1c1.1,0.1,1.9,0.9,1.6,2.4
				c0,0.1-0.1,0.4-0.1,0.5l-2.9-0.4c-0.1,0.9,0.2,1.4,1.1,1.5c0.4,0.1,0.8,0,1.4-0.1L322.6,343.9z M322,341.3
				c0.1-0.9-0.3-1.2-0.8-1.3c-0.5-0.1-1,0.2-1.2,1L322,341.3z"/>
			<path d="M323.5,344.3l0.1-0.6l0.4,0c0.1,0,0.2,0,0.2-0.2l0.3-2.9c0-0.1,0-0.2-0.1-0.2l-0.5-0.2l0.1-0.6l1.4,0.1l0,0.7l0,0
				c0.3-0.4,0.8-0.7,1.4-0.6c0.2,0,0.5,0.1,0.7,0.1l-0.1,1.5l-0.8-0.1l-0.1-0.6c0-0.1,0-0.1-0.1-0.1c-0.3,0-0.8,0.2-1,0.4l-0.2,2.6
				c0,0.1,0,0.2,0.1,0.2l0.9,0.2l-0.1,0.6L323.5,344.3z"/>
			<path d="M330.6,341.5l-0.1-0.5c0-0.1,0-0.1-0.1-0.1c-0.1,0-0.4-0.1-0.7-0.1c-0.6,0-0.9,0.2-0.9,0.5c0,0.5,0.5,0.6,1.1,0.8
				c0.7,0.2,1.5,0.5,1.5,1.5c-0.1,1.1-1,1.4-2,1.4c-0.8,0-1.5-0.3-1.7-0.4l0.1-1.2l0.8,0.1l0.1,0.6c0,0.1,0,0.1,0.1,0.1
				c0.1,0,0.4,0.1,0.8,0.2c0.6,0,0.9-0.1,1-0.6c0-0.5-0.6-0.6-1.2-0.8c-0.7-0.2-1.4-0.4-1.4-1.4c0.1-1.1,1-1.5,2-1.4
				c0.7,0,1.3,0.2,1.5,0.3l-0.1,1.2L330.6,341.5z"/>
			<path d="M336.1,344.6c-0.4,0.2-1,0.4-1.7,0.4c-1.6,0-2.3-1-2.3-2.5c0-1.7,1.1-2.5,2.5-2.5c0.7,0,1.3,0.2,1.5,0.3l0,1.3l-0.8,0
				l-0.1-0.6c0-0.1,0-0.1-0.1-0.1c-0.1,0-0.3-0.1-0.6-0.1c-0.7,0-1.3,0.4-1.3,1.6c0,1.3,0.6,1.7,1.4,1.7c0.5,0,0.9-0.1,1.2-0.3
				L336.1,344.6z"/>
			<path d="M339.8,344.9l0-0.6l0.4-0.1c0.1,0,0.2-0.1,0.1-0.2l-0.1-2.1c0-0.4-0.1-1-0.7-1c-0.5,0-0.9,0.3-1.2,0.5l0.1,2.6
				c0,0.1,0,0.2,0.2,0.2l0.5,0l0,0.6l-2.3,0.1l0-0.6l0.4-0.1c0.1,0,0.1-0.1,0.1-0.2l-0.2-5.1c0-0.1,0-0.2-0.1-0.2l-0.5-0.2l0.1-0.6
				l1.6-0.1l0.1,2.7c0.4-0.3,0.9-0.6,1.6-0.6c1,0,1.4,0.6,1.4,1.6l0.1,2.3c0,0.1,0,0.2,0.2,0.2l0.5,0l0,0.6L339.8,344.9z"/>
			<path d="M342.5,342.4c-0.1-1.5,0.5-2.6,2.2-2.7c1.6-0.1,2.3,0.8,2.4,2.2c0.1,1.5-0.5,2.6-2.1,2.7
				C343.3,344.8,342.6,343.8,342.5,342.4z M346,342.1c-0.1-1.2-0.5-1.6-1.3-1.5s-1.2,0.6-1.1,1.8c0.1,1.2,0.6,1.7,1.4,1.6
				C345.7,343.8,346.1,343.2,346,342.1z"/>
			<path d="M348,344.3l-0.1-0.6l0.5-0.1c0.1,0,0.1-0.1,0.1-0.2l-0.4-2.9c0-0.1,0-0.2-0.1-0.2l-0.5-0.1l0-0.6l1.6-0.2l0.5,3.9
				c0,0.1,0,0.2,0.2,0.2l0.5,0l0.1,0.6L348,344.3z M348.4,338.5c-0.4,0.1-0.7-0.2-0.8-0.6c-0.1-0.4,0.2-0.7,0.6-0.7
				c0.4-0.1,0.7,0.2,0.8,0.6C349.1,338.2,348.8,338.5,348.4,338.5z"/>
			<path d="M354.8,343c-0.3,0.3-0.9,0.6-1.6,0.7c-1.6,0.2-2.4-0.7-2.6-2c-0.3-1.7,0.6-2.7,2-2.9c0.7-0.1,1.3,0,1.5,0.1l0.2,1.3
				l-0.8,0.1l-0.2-0.6c0-0.1,0-0.1-0.1-0.1c-0.1,0-0.3,0-0.6,0c-0.7,0.1-1.2,0.6-1,1.8c0.2,1.2,0.8,1.6,1.6,1.4
				c0.5-0.1,0.8-0.3,1.1-0.5L354.8,343z"/>
			<path d="M359.4,342.1c-0.4,0.4-1,0.6-1.6,0.8c-1.7,0.3-2.4-0.6-2.7-2c-0.3-1.6,0.5-2.6,1.7-2.8c1.1-0.2,2,0.2,2.3,1.8
				c0,0.1,0.1,0.4,0.1,0.5l-2.9,0.6c0.2,0.8,0.6,1.3,1.5,1.1c0.4-0.1,0.8-0.2,1.3-0.6L359.4,342.1z M357.9,339.8
				c-0.2-0.9-0.6-1.1-1.1-1c-0.5,0.1-0.9,0.5-0.8,1.4L357.9,339.8z"/>
			<path d="M361.1,342.1c-0.4,0.1-0.7-0.1-0.8-0.5c-0.1-0.4,0.1-0.7,0.5-0.8c0.4-0.1,0.7,0.1,0.8,0.5
				C361.7,341.8,361.5,342,361.1,342.1z"/>
			<path d="M366.2,340.4c-0.3,0.3-0.9,0.7-1.5,0.8c-1.6,0.4-2.5-0.4-2.8-1.8c-0.4-1.7,0.3-2.7,1.7-3.1c0.7-0.2,1.3-0.1,1.5-0.1
				l0.3,1.3l-0.7,0.2l-0.3-0.6c0-0.1-0.1-0.1-0.1-0.1c-0.1,0-0.4,0-0.6,0.1c-0.7,0.2-1.1,0.8-0.8,1.9c0.3,1.2,1,1.5,1.8,1.3
				c0.4-0.1,0.8-0.3,1.1-0.6L366.2,340.4z"/>
			<path d="M366.2,338.3c-0.4-1.5,0-2.6,1.5-3.1c1.5-0.5,2.4,0.3,2.9,1.6c0.5,1.5,0.1,2.7-1.5,3.1
				C367.5,340.5,366.6,339.7,366.2,338.3z M369.6,337.2c-0.3-1.1-0.9-1.5-1.6-1.2c-0.7,0.2-1.1,0.8-0.7,2s0.9,1.5,1.7,1.3
				C369.7,339,369.9,338.4,369.6,337.2z"/>
			<path d="M377.3,337l-0.2-0.5l0.4-0.2c0.1-0.1,0.1-0.1,0.1-0.2l-0.8-2c-0.2-0.5-0.4-0.9-0.9-0.7c-0.4,0.1-0.7,0.5-0.9,0.7
				c0.1,0.1,0.2,0.3,0.2,0.5l0.8,2.1c0.1,0.1,0.1,0.2,0.2,0.1l0.4-0.1l0.2,0.6l-2.1,0.8l-0.2-0.5l0.4-0.2c0.1-0.1,0.1-0.1,0.1-0.2
				l-0.7-2c-0.2-0.5-0.4-0.9-0.9-0.8c-0.4,0.2-0.7,0.5-0.9,0.8l0.9,2.5c0.1,0.1,0.1,0.2,0.2,0.1l0.4-0.1l0.2,0.6l-2.1,0.8l-0.2-0.5
				l0.4-0.2c0.1-0.1,0.1-0.1,0.1-0.2l-1-2.8c0-0.1-0.1-0.1-0.2-0.1l-0.5,0l-0.1-0.6l1.3-0.5l0.2,0.5l0,0c0.3-0.5,0.7-0.9,1.3-1.1
				c0.4-0.2,0.8-0.2,1.2,0.1c0.3-0.4,0.7-0.8,1.3-1.1c1-0.4,1.5,0.1,1.8,1l0.9,2.3c0.1,0.1,0.1,0.2,0.2,0.1l0.5-0.1l0.2,0.6
				L377.3,337z"/>
		</g>
		<g>
			<path d="M277,128.5l-0.3-0.7l0.6-0.4c0.1-0.1,0.1-0.1,0.1-0.3l-2.6-5.6c-0.1-0.2-0.1-0.2-0.3-0.1l-0.7,0.2l-0.3-0.7l3.2-1.5
				c1.8-0.8,2.6-0.2,3.1,0.8c0.5,1,0.1,1.8-0.4,2.3l0,0c1.2-0.4,2.1,0,2.6,1c0.7,1.5-0.2,2.6-1.8,3.3L277,128.5z M277.7,123
				c0.8-0.4,1.5-0.9,1-1.9c-0.4-0.9-1-0.8-1.9-0.4l-0.9,0.4l1.1,2.3L277.7,123z M279.6,126.2c1-0.5,1.6-1,1.1-2
				c-0.4-0.9-1.3-0.9-2.1-0.5l-1.2,0.5l1.1,2.5L279.6,126.2z"/>
			<path d="M284.8,124.9l-0.3-0.7l0.6-0.3c0.1-0.1,0.1-0.1,0.1-0.3l-2.2-5.7c-0.1-0.2-0.1-0.2-0.3-0.1l-0.7,0.2l-0.3-0.7l5.4-2.1
				l0.7,1.9l-0.9,0.3l-0.5-0.8c-0.1-0.1-0.1-0.1-0.2-0.1l-2.1,0.8l0.9,2.4l2.7-1l0.4,0.9l-2.7,1l1,2.5l2.4-0.9
				c0.1,0,0.1-0.1,0.1-0.2l-0.2-1l0.9-0.3l0.7,1.9L284.8,124.9z"/>
			<path d="M294.8,115.1l-0.4-0.9c-0.1-0.1-0.1-0.2-0.2-0.2c-0.2,0-0.5,0-1,0.1c-1,0.3-1.3,0.9-1.1,1.6c0.3,0.8,1.1,0.8,2,0.8
				c1.2,0,2.5,0,3,1.6c0.5,1.7-0.6,2.8-2.2,3.3c-1,0.3-2.1,0.4-2.5,0.3l-0.6-1.9l0.9-0.3l0.5,0.9c0.1,0.1,0.1,0.2,0.3,0.2
				c0.2,0,0.6,0,1.2-0.2c1-0.3,1.5-0.9,1.2-1.7c-0.3-0.9-1.1-0.9-2-0.9c-1.2,0-2.5,0.1-3-1.6c-0.5-1.6,0.5-2.7,2.1-3.2
				c0.9-0.3,1.8-0.3,2.2-0.2l0.6,1.9L294.8,115.1z"/>
			<path d="M300.8,119.6l-0.2-0.7l1.1-0.4c0.2,0,0.2-0.1,0.1-0.3l-1.5-6l-1.5,0.4c-0.1,0-0.2,0-0.1,0.2l0.1,1l-0.9,0.2l-0.5-2
				l6.8-1.7l0.5,2l-0.9,0.2l-0.4-0.9c0-0.1-0.1-0.1-0.2-0.1l-1.5,0.4l1.5,6c0,0.2,0.1,0.2,0.2,0.2l1.2-0.2l0.2,0.7L300.8,119.6z"/>
			<path d="M311.4,113.1c-0.3-2.4,0.8-4.4,3.4-4.7c2.6-0.4,4,1.3,4.3,3.5c0.4,2.6-0.7,4.5-3.3,4.9
				C313.1,117.2,311.7,115.6,311.4,113.1z M317.7,112.2c-0.3-2.1-1.4-2.9-2.8-2.7c-1.5,0.2-2.4,1.4-2.1,3.4c0.3,2.2,1.4,3,2.9,2.8
				C317.1,115.5,318,114.4,317.7,112.2z"/>
			<path d="M321.7,115.9l-0.1-0.7l0.7-0.1c0.2,0,0.2-0.1,0.2-0.2l-0.5-6.1c0-0.2,0-0.2-0.2-0.2l-0.7,0l-0.1-0.7l5.8-0.5l0.2,2l-1,0
				l-0.2-0.9c0-0.1-0.1-0.1-0.2-0.1l-2.2,0.2l0.2,2.6l2.8-0.2l0.1,1l-2.8,0.2l0.2,2.6c0,0.2,0,0.2,0.2,0.2l1.7,0l0.1,0.7
				L321.7,115.9z"/>
			<path d="M334.9,115.2l0-0.7l1.2-0.1c0.2,0,0.2-0.1,0.2-0.2l0.1-6.2l-1.5,0c-0.1,0-0.2,0-0.2,0.1l-0.2,1l-1,0l0-2.1l7,0.1l0,2.1
				l-0.9,0l-0.2-1c0-0.1-0.1-0.1-0.2-0.1l-1.5,0l-0.1,6.2c0,0.2,0,0.2,0.2,0.2l1.2,0.1l0,0.7L334.9,115.2z"/>
			<path d="M347.2,115.6l0-0.7l0.7,0c0.2,0,0.2,0,0.2-0.2l0.2-2.7l-3.6-0.2l-0.2,2.7c0,0.2,0,0.2,0.2,0.2l0.8,0.1l0,0.7l-3.2-0.2
				l0-0.7l0.7,0c0.2,0,0.2,0,0.2-0.2l0.4-6.1c0-0.2,0-0.2-0.2-0.2l-0.7-0.1l0-0.7l3.2,0.2l0,0.7l-0.8,0c-0.2,0-0.2,0-0.2,0.2
				l-0.2,2.4l3.6,0.2l0.2-2.4c0-0.2,0-0.2-0.2-0.2l-0.7-0.1l0-0.7l3.1,0.2l0,0.7l-0.7,0c-0.2,0-0.2,0-0.2,0.2l-0.4,6.1
				c0,0.2,0,0.2,0.2,0.2l0.7,0.1l0,0.7L347.2,115.6z"/>
			<path d="M352.5,116.1l0.1-0.7l0.7,0c0.2,0,0.2,0,0.2-0.2l0.8-6.1c0-0.2,0-0.2-0.1-0.2l-0.7-0.2l0.1-0.7l5.8,0.8l-0.3,2l-0.9-0.2
				l0-0.9c0-0.1,0-0.2-0.2-0.2l-2.3-0.3l-0.4,2.6l2.9,0.4l-0.1,1l-2.9-0.4l-0.4,2.6l2.5,0.4c0.1,0,0.2,0,0.2-0.1l0.3-1l0.9,0.1
				l-0.3,2.1L352.5,116.1z"/>
			<path d="M364.8,118.1l0.2-0.7l0.7,0.1c0.2,0,0.2,0,0.2-0.2l1.5-5.9c0-0.2,0-0.2-0.1-0.3l-0.7-0.2l0.2-0.7l3.4,0.9
				c1.9,0.5,2.2,1.5,1.9,2.5c-0.3,1-1.1,1.5-1.8,1.5l0,0c1.2,0.5,1.6,1.3,1.4,2.4c-0.4,1.6-1.8,1.9-3.5,1.5L364.8,118.1z
				 M368.3,117.9c1.1,0.3,1.9,0.2,2.2-0.9c0.2-1-0.4-1.5-1.3-1.7l-1.3-0.3l-0.7,2.6L368.3,117.9z M368.9,114.3
				c0.8,0.2,1.7,0.2,2-0.9c0.2-1-0.3-1.3-1.2-1.6l-0.9-0.2l-0.6,2.5L368.9,114.3z"/>
			<path d="M373.2,120.3l0.2-0.7l0.7,0.1c0.2,0,0.2,0,0.2-0.2l1.9-5.8c0.1-0.2,0-0.2-0.1-0.3l-0.7-0.3l0.2-0.7l5.5,1.8l-0.6,1.9
				l-0.9-0.3l0.1-0.9c0-0.1,0-0.2-0.1-0.2l-2.2-0.7l-0.8,2.5l2.7,0.9l-0.3,0.9l-2.7-0.9l-0.8,2.5l2.4,0.8c0.1,0,0.2,0,0.2-0.1
				l0.5-0.9l0.9,0.3l-0.6,2L373.2,120.3z"/>
			<path d="M387.1,118.9l0.2-0.9c0-0.1,0-0.2,0-0.2c-0.1-0.1-0.4-0.3-0.9-0.5c-1-0.4-1.6-0.1-1.9,0.5c-0.3,0.8,0.3,1.3,1,1.9
				c0.9,0.7,1.9,1.6,1.3,3.1c-0.7,1.7-2.2,1.8-3.8,1.2c-1-0.4-1.8-1-2.1-1.3l0.7-1.9l0.9,0.4l-0.2,1c0,0.1,0,0.2,0.1,0.3
				c0.1,0.1,0.5,0.4,1,0.6c1,0.4,1.7,0.2,2-0.6c0.3-0.8-0.3-1.4-1-1.9c-0.9-0.7-2-1.5-1.3-3.1c0.6-1.5,2.1-1.8,3.6-1.1
				c0.9,0.4,1.5,0.9,1.9,1.2l-0.8,1.9L387.1,118.9z"/>
			<path d="M388.9,126.2l0.3-0.7l1.1,0.4c0.1,0.1,0.2,0,0.3-0.1l2.7-5.6l-1.4-0.7c-0.1-0.1-0.1-0.1-0.2,0l-0.6,0.8l-0.9-0.4l0.9-1.9
				l6.3,3l-0.9,1.9l-0.8-0.4l0.3-1c0-0.1,0-0.1-0.1-0.2l-1.4-0.7l-2.7,5.6c-0.1,0.1-0.1,0.2,0.1,0.3l1.1,0.6l-0.3,0.7L388.9,126.2z"
				/>
		</g>
	</g>
</g>
</svg>
