<?xml version="1.0" encoding="utf-8"?>
<!-- Generator: Adobe Illustrator 16.0.4, SVG Export Plug-In . SVG Version: 6.00 Build 0)  -->
<!DOCTYPE svg PUBLIC "-//W3C//DTD SVG 1.1//EN" "http://www.w3.org/Graphics/SVG/1.1/DTD/svg11.dtd">
<svg version="1.1" id="Layer_1" xmlns="http://www.w3.org/2000/svg" xmlns:xlink="http://www.w3.org/1999/xlink" x="0px" y="0px"
	 width="128px" height="128px" viewBox="0 0 128 128" enable-background="new 0 0 128 128" xml:space="preserve">
<g>
	<path fill="#FFFFFF" d="M125.393,115.948c0,2.557-0.936,4.771-2.805,6.641c-1.87,1.868-4.082,2.804-6.639,2.804
		c-2.657,0-4.871-0.936-6.643-2.804L83.996,97.354c-8.807,6.101-18.62,9.15-29.441,9.15c-7.035,0-13.762-1.365-20.182-4.096
		c-6.419-2.732-11.953-6.422-16.602-11.068c-4.648-4.65-8.338-10.184-11.068-16.604c-2.731-6.42-4.096-13.146-4.096-20.182
		c0-7.034,1.365-13.761,4.096-20.181c2.73-6.419,6.419-11.954,11.068-16.602c4.649-4.649,10.183-8.338,16.602-11.069
		c6.42-2.73,13.147-4.095,20.182-4.095c7.034,0,13.761,1.365,20.181,4.095s11.953,6.42,16.603,11.069
		c4.647,4.648,8.338,10.183,11.069,16.602c2.729,6.42,4.095,13.147,4.095,20.181c0,10.822-3.051,20.637-9.149,29.442l25.312,25.311
		C124.482,111.125,125.393,113.34,125.393,115.948z M77.909,77.91c6.468-6.469,9.704-14.254,9.704-23.355
		c0-9.1-3.236-16.885-9.704-23.354c-6.47-6.469-14.253-9.704-23.354-9.704c-9.102,0-16.886,3.235-23.355,9.704
		c-6.469,6.469-9.703,14.253-9.703,23.354c0,9.102,3.234,16.888,9.703,23.355c6.469,6.468,14.253,9.701,23.355,9.701
		C63.656,87.611,71.439,84.378,77.909,77.91z"/>
</g>
</svg>
