<svg enable-background="new 0 0 128 128" height="128" viewBox="0 0 128 128" width="128" xmlns="http://www.w3.org/2000/svg"><path d="m125.393 115.948c0 2.557-.936 4.771-2.805 6.641-1.87 1.868-4.082 2.804-6.639 2.804-2.657 0-4.871-.936-6.643-2.804l-25.31-25.235c-8.807 6.101-18.62 9.15-29.441 9.15-7.035 0-13.762-1.365-20.182-4.096-6.419-2.732-11.953-6.422-16.602-11.068-4.648-4.65-8.338-10.184-11.068-16.604-2.731-6.42-4.096-13.146-4.096-20.182 0-7.034 1.365-13.761 4.096-20.181 2.73-6.419 6.419-11.954 11.068-16.602 4.649-4.649 10.183-8.338 16.602-11.069 6.42-2.73 13.147-4.095 20.182-4.095 7.034 0 13.761 1.365 20.181 4.095s11.953 6.42 16.603 11.069c4.647 4.648 8.338 10.183 11.069 16.602 2.729 6.42 4.095 13.147 4.095 20.181 0 10.822-3.051 20.637-9.149 29.442l25.312 25.311c1.816 1.818 2.727 4.033 2.727 6.641zm-47.484-38.038c6.468-6.469 9.704-14.254 9.704-23.355 0-9.1-3.236-16.885-9.704-23.354-6.47-6.469-14.253-9.704-23.354-9.704-9.102 0-16.886 3.235-23.355 9.704s-9.703 14.253-9.703 23.354c0 9.102 3.234 16.888 9.703 23.355 6.469 6.468 14.253 9.701 23.355 9.701 9.101 0 16.884-3.233 23.354-9.701z" fill="#fff"/></svg>