<svg enable-background="new 0 0 30 30" height="30" viewBox="0 0 30 30" width="30" xmlns="http://www.w3.org/2000/svg"><path d="m28.811 10.512c-1.993-6.141-7.688-10.043-13.805-10.043-9.779 0-16.881 9.574-13.816 19.02 1.992 6.14 7.699 10.042 13.81 10.042 9.779 0 16.875-9.574 13.811-19.019zm-2.52 10.177-5.525.68-1.043-1.459 1.975-6.1 1.693-.527 4.078 3.809c-.211 1.236-.604 2.449-1.178 3.597zm-23.736-3.609 4.066-3.803 1.693.527 1.986 6.076-1.06 1.477-5.52-.68c-.761-1.523-1.007-2.648-1.165-3.597zm11.513-10.588v1.928l-5.033 3.65-1.846-.574-1.054-5.502c.896-.885 1.922-1.629 3.047-2.215zm8.754 5.004-1.846.574-5.033-3.65v-1.928l4.898-2.719c1.119.586 2.15 1.33 3.047 2.221zm-12.621 2.051 4.805-3.486 4.811 3.492-1.822 5.625h-5.953zm17.444 1.142-2.994-2.795.779-4.002c2.021 2.977 2.185 5.696 2.215 6.797zm-9.059-11.806-3.58 1.986-3.574-1.98c4.189-1.243 7.148-.006 7.154-.006zm-13.998 4.974.773 4.037-2.994 2.783c.047-1.863.51-3.715 1.383-5.426.246-.485.533-.948.838-1.394zm.439 14.883 4.025.492 1.711 3.674c-2.273-.808-4.259-2.256-5.736-4.166zm8.08 4.764-2.35-5.039 1.02-1.418h6.457l1.014 1.418-2.35 5.039c-1.33.205-2.484.199-3.791 0zm6.141-.598 1.711-3.674 4.043-.498c-1.465 1.911-3.445 3.346-5.754 4.172z" fill="#c61f48"/></svg>