<svg enable-background="new 0 0 30 30" height="30" viewBox="0 0 30 30" width="30" xmlns="http://www.w3.org/2000/svg"><path d="m25.085 3.863c0-.654-.562-1.181-1.252-1.181h-22.42c-.69 0-1.25.526-1.25 1.181v16.426c0 .654.561 1.184 1.25 1.184h1.251v-16.431h22.421zm.509 19.212h-16.039v-3.75l4.868-4.867c.139-.137.366-.137.505 0l2.745 2.745c.14.138.365.138.504 0l2.046-2.046c.139-.136.365-.139.504 0l4.868 4.866v3.052zm1.009-12.9c.558 0 1.008.45 1.008 1.007v12.902c0 .556-.45 1.008-1.008 1.008h-18.057c-.558 0-1.008-.452-1.008-1.008v-12.902c0-.557.45-1.007 1.008-1.007zm0-2.227h-18.057c-1.784 0-3.236 1.45-3.236 3.233v12.902c0 1.782 1.452 3.233 3.236 3.233h18.056c1.783 0 3.235-1.451 3.235-3.233v-12.901c.001-1.784-1.451-3.234-3.234-3.234z" fill="#c61f48"/></svg>