<?xml version="1.0" encoding="utf-8"?>
<!-- Generator: Adobe Illustrator 16.0.4, SVG Export Plug-In . SVG Version: 6.00 Build 0)  -->
<!DOCTYPE svg PUBLIC "-//W3C//DTD SVG 1.1//EN" "http://www.w3.org/Graphics/SVG/1.1/DTD/svg11.dtd">
<svg version="1.1" id="Layer_1" xmlns="http://www.w3.org/2000/svg" xmlns:xlink="http://www.w3.org/1999/xlink" x="0px" y="0px"
	 width="512px" height="512px" viewBox="0 0 512 512" enable-background="new 0 0 512 512" xml:space="preserve">
<path fill="#FFFFFF" d="M393.859,170.531c-10.142,4.498-21.039,7.539-32.479,8.905c11.677-6.998,20.642-18.081,24.865-31.286
	c-10.925,6.48-23.028,11.187-35.91,13.723c-10.315-10.991-25.015-17.858-41.278-17.858c-31.234,0-56.554,25.32-56.554,56.55
	c0,4.433,0.501,8.749,1.465,12.888c-47-2.358-88.67-24.873-116.562-59.087c-4.868,8.354-7.656,18.067-7.656,28.432
	c0,19.618,9.984,36.929,25.158,47.069c-9.271-0.293-17.99-2.837-25.615-7.073c-0.004,0.236-0.005,0.473-0.005,0.712
	c0,27.399,19.493,50.256,45.364,55.451c-4.746,1.292-9.742,1.982-14.899,1.982c-3.645,0-7.187-0.354-10.64-1.014
	c7.196,22.467,28.081,38.816,52.827,39.274c-19.354,15.166-43.738,24.208-70.233,24.208c-4.564,0-9.066-0.269-13.489-0.79
	c25.026,16.045,54.751,25.406,86.688,25.406c104.021,0,160.9-86.171,160.9-160.901c0-2.452-0.054-4.891-0.163-7.315
	C376.689,191.833,386.278,181.873,393.859,170.531z"/>
</svg>
