<svg enable-background="new 0 0 32 21.52" height="21.52" viewBox="0 0 32 21.52" width="32" xmlns="http://www.w3.org/2000/svg"><path d="m29.046 18.585h-.659l-7.169-7.167v-1.317l7.169-7.169h.659zm-10.439 0h-15.652v-15.653h15.653v15.653zm10.439-18.261h-.659c-.72 0-1.336.255-1.846.765l-5.323 5.323v-3.48c0-1.44-1.168-2.607-2.61-2.607h-15.653c-1.44 0-2.608 1.167-2.608 2.607v15.653c0 1.444 1.167 2.61 2.608 2.61h15.653c1.442 0 2.61-1.166 2.61-2.61v-3.479l5.323 5.325c.51.509 1.126.764 1.846.764h.659c1.439 0 2.607-1.166 2.607-2.61v-15.653c0-1.441-1.168-2.608-2.607-2.608z" fill="#c61f48"/></svg>