<svg enable-background="new 0 0 30 30" height="30" viewBox="0 0 30 30" width="30" xmlns="http://www.w3.org/2000/svg"><path d="m15 .469c-8.016 0-14.531 6.515-14.531 14.531s6.515 14.531 14.531 14.531 14.531-6.515 14.531-14.531-6.515-14.531-14.531-14.531zm10.078 22.154c-5.016 1.312-10.342.281-14.514-2.748 1.248-1.5 2.76-2.783 4.482-3.797 4.939 2.76 9.363 2.643 12.158 2.221-.427 1.582-1.159 3.047-2.126 4.324zm2.508-6.281c-1.43.27-2.865.375-4.289.287.51-4.781-.797-9.545-3.621-13.377 3.469 1.383 8.683 5.754 7.91 13.09zm-11.039-13.893c3.65 3.686 5.426 8.812 4.887 13.951-1.922-.328-3.779-.996-5.52-1.975-.059-4.266-1.506-8.332-4.154-11.654 2.355-.615 4.06-.41 4.787-.322zm-6.674.99c.943 1.102 1.758 2.291 2.391 3.562-4.389 1.946-7.864 5.462-9.774 9.815-1.201-8.273 5.198-12.404 7.383-13.377zm-6.521 16.506c1.365-5.01 4.922-9.117 9.645-11.221.674 1.828 1.025 3.773 1.049 5.766-3.668 2.18-6.463 5.479-8.016 9.428-1.126-1.137-2.046-2.479-2.678-3.973zm4.201 5.268c.475-1.359 1.102-2.648 1.881-3.826 2.783 2.027 7.365 4.213 13.389 3.545-3.077 2.425-9.417 4.564-15.27.281z" fill="#c61f48"/></svg>