<?xml version="1.0" encoding="utf-8"?>
<!-- Generator: Adobe Illustrator 16.0.4, SVG Export Plug-In . SVG Version: 6.00 Build 0)  -->
<!DOCTYPE svg PUBLIC "-//W3C//DTD SVG 1.1//EN" "http://www.w3.org/Graphics/SVG/1.1/DTD/svg11.dtd">
<svg version="1.1" id="Layer_1" xmlns="http://www.w3.org/2000/svg" xmlns:xlink="http://www.w3.org/1999/xlink" x="0px" y="0px"
	 width="128px" height="128px" viewBox="0 0 128 128" enable-background="new 0 0 128 128" xml:space="preserve">
<path fill="#FFFFFF" d="M114.572,98.99L79.582,64l34.99-34.991c4.304-4.303,4.304-11.279,0.001-15.582
	c-4.303-4.303-11.279-4.303-15.583,0L64,48.418L29.008,13.427c-4.303-4.303-11.278-4.303-15.581,0
	c-4.303,4.303-4.303,11.278,0,15.581L48.418,64L13.426,98.99c-4.303,4.304-4.302,11.28,0.001,15.583
	c4.303,4.303,11.278,4.303,15.581,0L64,79.582l34.99,34.99c4.304,4.304,11.28,4.304,15.583,0.001S118.876,103.294,114.572,98.99z"/>
</svg>
