<svg enable-background="new 0 0 128 128" height="128" viewBox="0 0 128 128" width="128" xmlns="http://www.w3.org/2000/svg"><path d="m114.572 98.99-34.99-34.99 34.99-34.991c4.304-4.303 4.304-11.279.001-15.582s-11.279-4.303-15.583 0l-34.99 34.991-34.992-34.991c-4.303-4.303-11.278-4.303-15.581 0s-4.303 11.278 0 15.581l34.991 34.992-34.992 34.99c-4.303 4.304-4.302 11.28.001 15.583s11.278 4.303 15.581 0l34.992-34.991 34.99 34.99c4.304 4.304 11.28 4.304 15.583.001s4.303-11.279-.001-15.583z" fill="#fff"/></svg>